<?xml version="1.0" encoding="UTF-8" standalone="no"?>
<!-- Created with Inkscape (http://www.inkscape.org/) -->

<svg
   xmlns:dc="http://purl.org/dc/elements/1.1/"
   xmlns:cc="http://creativecommons.org/ns#"
   xmlns:rdf="http://www.w3.org/1999/02/22-rdf-syntax-ns#"
   xmlns:svg="http://www.w3.org/2000/svg"
   xmlns="http://www.w3.org/2000/svg"
   xmlns:sodipodi="http://sodipodi.sourceforge.net/DTD/sodipodi-0.dtd"
   xmlns:inkscape="http://www.inkscape.org/namespaces/inkscape"
   width="86.360001mm"
   height="68.580002mm"
   viewBox="0 0 86.360001 68.580002"
   version="1.1"
   id="svg8"
   inkscape:version="0.92.4 (5da689c313, 2019-01-14)"
   sodipodi:docname="PCB_Bottom.svg">
  <defs
     id="defs2">
    <clipPath
       clipPathUnits="userSpaceOnUse"
       id="clipPath28">
      <path
         d="M 0,0 H 4040.4 V 1954.73 H 0 Z"
         id="path26"
         inkscape:connector-curvature="0" />
    </clipPath>
  </defs>
  <sodipodi:namedview
     id="base"
     pagecolor="#ffffff"
     bordercolor="#666666"
     borderopacity="1.0"
     inkscape:pageopacity="0.0"
     inkscape:pageshadow="2"
     inkscape:zoom="3.959798"
     inkscape:cx="171.68168"
     inkscape:cy="124.38715"
     inkscape:document-units="mm"
     inkscape:current-layer="layer2"
     showgrid="false"
     units="mm"
     inkscape:window-width="1920"
     inkscape:window-height="1137"
     inkscape:window-x="1912"
     inkscape:window-y="-8"
     inkscape:window-maximized="1" />
  <metadata
     id="metadata5">
    <rdf:RDF>
      <cc:Work
         rdf:about="">
        <dc:format>image/svg+xml</dc:format>
        <dc:type
           rdf:resource="http://purl.org/dc/dcmitype/StillImage" />
        <dc:title />
      </cc:Work>
    </rdf:RDF>
  </metadata>
  <g
     inkscape:groupmode="layer"
     id="layer2"
     inkscape:label="Layer 2">
    <path
       d="m 59.108978,39.63056 -0.206705,0.093 -0.239777,0.091 -0.27492,0.0661 -0.324528,0.0289 -0.319877,-0.0233 -0.289905,-0.0697 -0.255281,-0.12145 -0.220142,-0.17414 -0.176733,-0.22272 -0.133324,-0.27544 -0.08372,-0.32815 -0.02791,-0.37672 0.02687,-0.36018 0.08062,-0.31988 0.131258,-0.27647 0.178799,-0.22996 0.216525,-0.17674 0.256833,-0.12919 0.294038,-0.0791 0.324012,-0.0263 0.494027,0.0599 0.549835,0.21084 v 0.48576 h -0.03101 l -0.253214,-0.18397 -0.251146,-0.12609 -0.258899,-0.0728 -0.276468,-0.0243 -0.222209,0.0191 -0.199471,0.0574 -0.176217,0.0956 -0.156581,0.13798 -0.127123,0.1757 -0.09612,0.21704 -0.05891,0.25425 -0.01964,0.29145 0.0217,0.30179 0.06511,0.25632 0.101284,0.21187 0.126093,0.16846 0.156579,0.13333 0.180351,0.0941 0.409278,0.0724 0.286286,-0.0253 0.267684,-0.076 0.250114,-0.1266 0.233578,-0.17726 h 0.02894 v 0.47952"
       style="font-style:normal;font-weight:normal;font-size:4.23333311px;line-height:1.25;font-family:sans-serif;letter-spacing:0px;word-spacing:0px;fill:#000000;fill-opacity:1;stroke:none;stroke-width:0.26458332"
       id="path238"
       inkscape:connector-curvature="0" />
    <path
       d="m 61.455088,39.8538 h -0.38654 v -0.24598 l -0.14056,0.0992 -0.169497,0.0992 -0.223243,0.0785 -0.29559,0.0331 -0.288354,-0.0517 -0.240811,-0.15503 -0.16278,-0.23513 -0.05426,-0.29197 0.0279,-0.2372 0.08371,-0.18655 0.137459,-0.14573 0.185001,-0.11058 0.232028,-0.078 0.274402,-0.0481 0.634585,-0.0496 v -0.0599 l -0.04754,-0.21911 -0.13229,-0.13642 -0.198437,-0.0641 -0.241848,-0.0165 -0.341062,0.0413 -0.388608,0.11576 h -0.02068 v -0.39481 l 0.328663,-0.0682 0.423747,-0.0372 0.423745,0.0413 0.314195,0.13643 0.11472,0.10905 0.08371,0.13693 0.05116,0.16898 0.01705,0.20515 5e-6,1.56688 m -0.38654,-0.56844 v -0.64285 l -0.41961,0.031 -0.38034,0.06 -0.151412,0.061 -0.119373,0.0879 -0.07751,0.11833 -0.02584,0.15659 0.02997,0.17415 0.08992,0.12557 0.15141,0.0744 0.214457,0.0248 0.195855,-0.0197 0.178285,-0.0589 0.31419,-0.19224 v 2e-5"
       style="font-style:normal;font-weight:normal;font-size:4.23333311px;line-height:1.25;font-family:sans-serif;letter-spacing:0px;word-spacing:0px;fill:#000000;fill-opacity:1;stroke:none;stroke-width:0.26458332"
       id="path240"
       inkscape:connector-curvature="0" />
    <path
       d="m 65.576801,39.8538 h -0.388608 v -1.31464 l -0.01448,-0.28733 -0.05581,-0.22117 -0.136425,-0.13436 -0.256315,-0.0455 -0.163297,0.0207 -0.163298,0.062 -0.326595,0.2067 0.01032,0.11162 0.0041,0.12403 v 1.47794 h -0.388605 v -1.31464 l -0.01447,-0.28939 -0.05581,-0.22118 -0.136427,-0.13229 -0.256315,-0.0455 -0.15968,0.0196 -0.160713,0.0589 -0.318327,0.20051 v 1.72392 h -0.388608 v -2.3089 h 0.388608 v 0.25632 l 0.361735,-0.23565 0.187586,-0.0635 0.198954,-0.0212 0.217558,0.0248 0.181384,0.0744 0.144178,0.11833 0.101802,0.15659 0.429948,-0.28525 0.20102,-0.0667 0.214457,-0.0222 0.330213,0.0579 0.127512,0.0723 0.102448,0.10128 0.136427,0.27544 0.04547,0.36742 5.3e-5,1.49867"
       style="font-style:normal;font-weight:normal;font-size:4.23333311px;line-height:1.25;font-family:sans-serif;letter-spacing:0px;word-spacing:0px;fill:#000000;fill-opacity:1;stroke:none;stroke-width:0.26458332"
       id="path242"
       inkscape:connector-curvature="0" />
    <path
       d="m 68.257773,38.73966 h -1.701187 l 0.06408,0.37207 0.1757,0.25838 0.254247,0.14883 0.326595,0.0496 0.236162,-0.0233 0.237196,-0.0697 0.341062,-0.18603 h 0.02068 v 0.42374 l -0.401007,0.1385 -0.429948,0.0558 -0.27156,-0.0194 -0.240037,-0.0581 -0.208515,-0.0969 -0.176993,-0.13565 -0.141076,-0.17234 -0.100769,-0.2049 -0.06046,-0.23745 -0.02015,-0.27001 0.01925,-0.26859 0.05775,-0.23939 0.09625,-0.21019 0.134745,-0.181 0.167174,-0.1456 0.191462,-0.104 0.215749,-0.0624 0.240038,-0.0208 0.220141,0.017 0.19327,0.0512 0.166398,0.0853 0.139526,0.11937 0.111233,0.15077 0.07945,0.17945 0.06356,0.44493 -5e-6,0.21084 m -0.37827,-0.29766 -0.03976,-0.2713 -0.115273,-0.20205 -0.190686,-0.12557 -0.270269,-0.0419 -0.280602,0.046 -0.217558,0.13797 -0.144177,0.20619 -0.0646,0.25063 h 1.322917"
       style="font-style:normal;font-weight:normal;font-size:4.23333311px;line-height:1.25;font-family:sans-serif;letter-spacing:0px;word-spacing:0px;fill:#000000;fill-opacity:1;stroke:none;stroke-width:0.26458332"
       id="path244"
       inkscape:connector-curvature="0" />
    <path
       d="m 70.287626,37.96865 h -0.02067 l -0.169498,-0.0289 -0.192237,-0.0103 -0.176734,0.0202 -0.170531,0.0605 -0.322463,0.20464 v 1.63917 h -0.388605 v -2.3089 h 0.388605 v 0.34107 l 0.40721,-0.26252 0.179318,-0.059 0.182417,-0.0197 0.146763,0.006 0.136425,0.0186 5e-6,0.39914"
       style="font-style:normal;font-weight:normal;font-size:4.23333311px;line-height:1.25;font-family:sans-serif;letter-spacing:0px;word-spacing:0px;fill:#000000;fill-opacity:1;stroke:none;stroke-width:0.26458332"
       id="path246"
       inkscape:connector-curvature="0" />
    <path
       d="m 72.625466,38.70039 -0.01809,0.26729 -0.05426,0.23759 -0.09043,0.20786 -0.126607,0.17816 -0.156967,0.14288 -0.181513,0.10206 -0.206061,0.0612 -0.230606,0.0204 -0.232415,-0.0204 -0.207352,-0.0612 -0.182288,-0.10206 -0.157225,-0.14288 -0.125703,-0.17816 -0.08979,-0.20786 -0.05387,-0.23759 -0.01796,-0.26729 0.01796,-0.2673 0.05387,-0.23758 0.08979,-0.20787 0.125703,-0.17816 0.157225,-0.14379 0.182288,-0.1027 0.207352,-0.0616 0.232415,-0.0205 0.230606,0.0205 0.206061,0.0616 0.181513,0.1027 0.156967,0.14379 0.126607,0.17816 0.09043,0.20787 0.05426,0.23758 0.01809,0.2673 v 0 m -0.401008,0 -0.04393,-0.39068 -0.131775,-0.27492 -0.209807,-0.16432 -0.27802,-0.0548 -0.281118,0.0548 -0.21084,0.16432 -0.130226,0.27492 -0.04341,0.39068 0.04393,0.38189 0.131775,0.2775 0.210323,0.16743 0.27957,0.0558 0.27647,-0.0553 0.20929,-0.16589 0.133325,-0.27698 0.04444,-0.38447 v 0"
       style="font-style:normal;font-weight:normal;font-size:4.23333311px;line-height:1.25;font-family:sans-serif;letter-spacing:0px;word-spacing:0px;fill:#000000;fill-opacity:1;stroke:none;stroke-width:0.26458332"
       id="path248"
       inkscape:connector-curvature="0" />
    <path
       d="m 75.159678,39.8538 h -0.388607 v -1.31464 l -0.0186,-0.29766 -0.06821,-0.21911 -0.148828,-0.12816 -0.25218,-0.0434 -0.332797,0.0785 -0.332795,0.20051 v 1.72392 h -0.388608 v -2.3089 h 0.388608 v 0.25632 l 0.376202,-0.23565 0.196888,-0.0635 0.202055,-0.0212 0.329695,0.0563 0.240812,0.16898 0.14728,0.27492 0.04909,0.37414 -8e-6,1.4986"
       style="font-style:normal;font-weight:normal;font-size:4.23333311px;line-height:1.25;font-family:sans-serif;letter-spacing:0px;word-spacing:0px;fill:#000000;fill-opacity:1;stroke:none;stroke-width:0.26458332"
       id="path250"
       inkscape:connector-curvature="0" />
    <path
       d="m 59.332221,43.60965 -0.04599,0.39997 -0.137976,0.3607 -0.212389,0.30283 -0.273368,0.22634 -0.223243,0.11214 -0.248047,0.076 -0.682128,0.0579 h -0.777215 v -3.07785 h 0.768945 l 0.404111,0.0165 0.311092,0.0496 0.245979,0.0765 0.204638,0.10127 0.279571,0.22893 0.210322,0.29404 0.131775,0.35709 0.04392,0.41806 v 3e-5 m -0.42788,-0.006 -0.03152,-0.33332 -0.09457,-0.27647 -0.157098,-0.22169 -0.219107,-0.16898 -0.38654,-0.14263 -0.489893,-0.0413 h -0.384472 v 2.37505 h 0.384472 l 0.514698,-0.0434 0.211873,-0.062 0.193269,-0.0992 0.200506,-0.17001 0.142627,-0.21653 0.08682,-0.26975 0.02894,-0.32969 v -5e-5"
       style="font-style:normal;font-weight:normal;font-size:4.23333311px;line-height:1.25;font-family:sans-serif;letter-spacing:0px;word-spacing:0px;fill:#000000;fill-opacity:1;stroke:none;stroke-width:0.26458332"
       id="path252"
       inkscape:connector-curvature="0" />
    <path
       d="m 61.761013,45.14547 h -0.38654 v -0.24598 l -0.14056,0.0992 -0.169497,0.0992 -0.223243,0.0786 -0.29559,0.0331 -0.288354,-0.0517 -0.240811,-0.15503 -0.162782,-0.23512 -0.05426,-0.29198 0.0279,-0.23719 0.08372,-0.18655 0.137459,-0.14573 0.185001,-0.11059 0.232028,-0.078 0.274402,-0.0481 0.634585,-0.0496 v -0.0599 l -0.04754,-0.21911 -0.13229,-0.13643 -0.19844,-0.0641 -0.241845,-0.0165 -0.341065,0.0413 -0.388605,0.11575 h -0.02067 v -0.3948 l 0.328663,-0.0682 0.423747,-0.0372 0.423745,0.0413 0.314193,0.13642 0.114722,0.10905 0.08372,0.13693 0.05116,0.16899 0.01705,0.20515 5e-6,1.56679 M 61.374481,44.577 v -0.64286 l -0.419612,0.031 -0.380338,0.06 -0.151412,0.061 -0.119373,0.0879 -0.07751,0.11833 -0.02584,0.15659 0.02997,0.17415 0.08992,0.12558 0.15141,0.0744 0.214457,0.0248 0.195855,-0.0196 0.178283,-0.0589 0.314192,-0.19224 v -7e-5"
       style="font-style:normal;font-weight:normal;font-size:4.23333311px;line-height:1.25;font-family:sans-serif;letter-spacing:0px;word-spacing:0px;fill:#000000;fill-opacity:1;stroke:none;stroke-width:0.26458332"
       id="path254"
       inkscape:connector-curvature="0" />
    <path
       d="m 64.477128,42.83657 -0.93431,2.3089 h -0.390675 l -0.92811,-2.3089 h 0.42168 l 0.715203,1.83761 0.709,-1.83761 h 0.407212"
       style="font-style:normal;font-weight:normal;font-size:4.23333311px;line-height:1.25;font-family:sans-serif;letter-spacing:0px;word-spacing:0px;fill:#000000;fill-opacity:1;stroke:none;stroke-width:0.26458332"
       id="path256"
       inkscape:connector-curvature="0" />
    <path
       style="font-style:normal;font-weight:normal;font-size:4.23333311px;line-height:1.25;font-family:sans-serif;letter-spacing:0px;word-spacing:0px;fill:#000000;fill-opacity:1;stroke:none;stroke-width:0.26458332"
       d="m 65.403168,42.45003 h -0.438215 v -0.40308 h 0.438215 v 0.40308"
       id="path208" />
    <path
       style="font-style:normal;font-weight:normal;font-size:4.23333311px;line-height:1.25;font-family:sans-serif;letter-spacing:0px;word-spacing:0px;fill:#000000;fill-opacity:1;stroke:none;stroke-width:0.26458332"
       d="m 65.378368,45.14547 h -0.388607 v -2.3089 h 0.388607 v 2.3089"
       id="path258" />
    <path
       d="m 68.024198,45.14547 h -0.388607 v -0.24185 l -0.349333,0.22531 -0.189654,0.0605 -0.205156,0.0202 -0.196111,-0.0199 -0.174924,-0.0597 -0.153737,-0.0995 -0.13255,-0.13927 -0.105809,-0.17453 -0.07558,-0.20529 -0.06046,-0.50281 0.02067,-0.2775 0.06201,-0.24547 0.09922,-0.21239 0.128158,-0.17828 0.151928,-0.13849 0.174667,-0.10129 0.191203,-0.062 0.197404,-0.0207 0.32246,0.0393 0.29559,0.11782 v -1.00045 h 0.388605 l 5e-6,3.21635 M 67.63559,44.57709 v -1.32498 l -0.28112,-0.0972 -0.270785,-0.0269 -0.290422,0.0568 -0.218073,0.17053 -0.136427,0.27492 -0.04548,0.37 0.03514,0.36225 0.10542,0.26407 0.182935,0.15968 0.267685,0.0532 0.334863,-0.0723 0.31626,-0.19017 v 2e-5"
       style="font-style:normal;font-weight:normal;font-size:4.23333311px;line-height:1.25;font-family:sans-serif;letter-spacing:0px;word-spacing:0px;fill:#000000;fill-opacity:1;stroke:none;stroke-width:0.26458332"
       id="path260"
       inkscape:connector-curvature="0" />
    <path
       d="m 59.086241,50.43714 h -0.409278 v -1.50689 h -1.535822 v 1.50689 h -0.409278 v -3.07785 h 0.409278 v 1.20716 h 1.535822 v -1.20716 h 0.409278 v 3.07785"
       style="font-style:normal;font-weight:normal;font-size:4.23333311px;line-height:1.25;font-family:sans-serif;letter-spacing:0px;word-spacing:0px;fill:#000000;fill-opacity:1;stroke:none;stroke-width:0.26458332"
       id="path262"
       inkscape:connector-curvature="0" />
    <path
       style="font-style:normal;font-weight:normal;font-size:4.23333311px;line-height:1.25;font-family:sans-serif;letter-spacing:0px;word-spacing:0px;fill:#000000;fill-opacity:1;stroke:none;stroke-width:0.26458332"
       d="m 60.301671,47.74169 h -0.438215 v -0.40307 h 0.438215 v 0.40307"
       id="path204" />
    <path
       style="font-style:normal;font-weight:normal;font-size:4.23333311px;line-height:1.25;font-family:sans-serif;letter-spacing:0px;word-spacing:0px;fill:#000000;fill-opacity:1;stroke:none;stroke-width:0.26458332"
       d="m 60.276871,50.43714 h -0.388605 v -2.30891 h 0.388605 v 2.30891"
       id="path264" />
    <path
       d="M 61.442688,50.43714 H 61.054081 V 47.2208 h 0.388607 v 3.21634"
       style="font-style:normal;font-weight:normal;font-size:4.23333311px;line-height:1.25;font-family:sans-serif;letter-spacing:0px;word-spacing:0px;fill:#000000;fill-opacity:1;stroke:none;stroke-width:0.26458332"
       id="path266"
       inkscape:connector-curvature="0" />
    <path
       d="M 62.608508,50.43714 H 62.219901 V 47.2208 h 0.388607 v 3.21634"
       style="font-style:normal;font-weight:normal;font-size:4.23333311px;line-height:1.25;font-family:sans-serif;letter-spacing:0px;word-spacing:0px;fill:#000000;fill-opacity:1;stroke:none;stroke-width:0.26458332"
       id="path268"
       inkscape:connector-curvature="0" />
    <path
       d="m 65.175793,50.43714 h -0.38654 v -0.24598 l -0.14056,0.0992 -0.1695,0.0992 -0.22324,0.0786 -0.29559,0.0331 -0.288354,-0.0517 -0.240813,-0.15503 -0.16278,-0.23513 -0.05426,-0.29197 0.0279,-0.2372 0.08371,-0.18655 0.137459,-0.14572 0.185003,-0.11059 0.232027,-0.078 0.274401,-0.0481 0.634587,-0.0496 v -0.06 l -0.04754,-0.2191 -0.132292,-0.13643 -0.198438,-0.0641 -0.241845,-0.0165 -0.341065,0.0413 -0.388607,0.11575 h -0.02068 v -0.39481 l 0.328662,-0.0682 0.423748,-0.0372 0.423747,0.0413 0.314193,0.13643 0.11472,0.10905 0.08372,0.13693 0.05116,0.16898 0.01705,0.20516 5e-6,1.56688 m -0.38654,-0.56844 v -0.64286 l -0.419612,0.031 -0.38034,0.0599 -0.151411,0.061 -0.119372,0.0879 -0.07752,0.11833 -0.02584,0.15659 0.02997,0.17415 0.08992,0.12557 0.151413,0.0744 0.214457,0.0248 0.195853,-0.0197 0.178285,-0.0589 0.314192,-0.19223 v 1.2e-4"
       style="font-style:normal;font-weight:normal;font-size:4.23333311px;line-height:1.25;font-family:sans-serif;letter-spacing:0px;word-spacing:0px;fill:#000000;fill-opacity:1;stroke:none;stroke-width:0.26458332"
       id="path270"
       inkscape:connector-curvature="0" />
    <path
       d="m 67.368941,48.55198 h -0.02068 l -0.169498,-0.0289 -0.192237,-0.0103 -0.176734,0.0202 -0.170531,0.0605 -0.322463,0.20464 v 1.63918 h -0.388607 v -2.30891 h 0.388607 v 0.34107 l 0.40721,-0.26252 0.179318,-0.059 0.182417,-0.0196 0.14676,0.006 0.136428,0.0186 5e-6,0.39914"
       style="font-style:normal;font-weight:normal;font-size:4.23333311px;line-height:1.25;font-family:sans-serif;letter-spacing:0px;word-spacing:0px;fill:#000000;fill-opacity:1;stroke:none;stroke-width:0.26458332"
       id="path272"
       inkscape:connector-curvature="0" />
    <path
       d="m 69.735721,48.12823 -1.347723,3.16053 h -0.415477 l 0.429947,-0.96324 -0.91984,-2.19729 h 0.42168 l 0.709,1.71153 0.7152,-1.71153 h 0.407213"
       style="font-style:normal;font-weight:normal;font-size:4.23333311px;line-height:1.25;font-family:sans-serif;letter-spacing:0px;word-spacing:0px;fill:#000000;fill-opacity:1;stroke:none;stroke-width:0.26458332"
       id="path274"
       inkscape:connector-curvature="0" />
    <path
       d="m 57.860478,54.92885 -0.06201,0.35863 -0.07751,0.14444 -0.108521,0.12118 -0.288355,0.16433 -0.373105,0.0548 -0.264583,-0.0186 -0.276986,-0.0413 v -0.38241 h 0.02274 l 0.208774,0.06 0.254247,0.031 0.30179,-0.0434 0.167433,-0.12402 0.07028,-0.20257 0.01655,-0.27699 v -1.79627 h -0.651123 v -0.3266 h 1.0604 l -1.5e-5,2.2778"
       style="font-style:normal;font-weight:normal;font-size:4.23333311px;line-height:1.25;font-family:sans-serif;letter-spacing:0px;word-spacing:0px;fill:#000000;fill-opacity:1;stroke:none;stroke-width:0.26458332"
       id="path276"
       inkscape:connector-curvature="0" />
    <path
       d="m 60.595193,54.57538 -0.01809,0.2673 -0.05426,0.23758 -0.09043,0.20787 -0.126607,0.17816 -0.156967,0.14288 -0.181514,0.10206 -0.20606,0.0612 -0.230607,0.0204 -0.232414,-0.0204 -0.207352,-0.0612 -0.182288,-0.10206 -0.157226,-0.14288 -0.125702,-0.17816 -0.08979,-0.20787 -0.05387,-0.23758 -0.01796,-0.2673 0.01796,-0.26729 0.05387,-0.23758 0.08979,-0.20787 0.125702,-0.17816 0.157226,-0.14379 0.182288,-0.1027 0.207352,-0.0616 0.232414,-0.0205 0.230607,0.0205 0.20606,0.0616 0.181514,0.1027 0.156967,0.14379 0.126607,0.17816 0.09043,0.20787 0.05426,0.23758 0.01809,0.26729 v 0 m -0.40101,0 -0.04393,-0.39067 -0.131775,-0.27492 -0.209806,-0.16433 -0.278019,-0.0548 -0.28112,0.0548 -0.21084,0.16433 -0.130224,0.27492 -0.04341,0.39067 0.04393,0.3819 0.131775,0.2775 0.210323,0.16743 0.279569,0.0558 0.27647,-0.0553 0.20929,-0.16589 0.133324,-0.27698 0.04444,-0.38448 v 0"
       style="font-style:normal;font-weight:normal;font-size:4.23333311px;line-height:1.25;font-family:sans-serif;letter-spacing:0px;word-spacing:0px;fill:#000000;fill-opacity:1;stroke:none;stroke-width:0.26458332"
       id="path278"
       inkscape:connector-curvature="0" />
    <path
       d="m 63.129406,55.7288 h -0.388608 v -1.31465 l -0.0186,-0.29765 -0.06821,-0.21911 -0.148827,-0.12816 -0.25218,-0.0434 -0.332798,0.0786 -0.332795,0.20051 v 1.72392 h -0.388607 v -2.3089 h 0.388607 v 0.25632 l 0.376205,-0.23565 0.196886,-0.0635 0.202054,-0.0212 0.329698,0.0563 0.240812,0.16898 0.147278,0.27492 0.04909,0.37414 -7e-6,1.4985"
       style="font-style:normal;font-weight:normal;font-size:4.23333311px;line-height:1.25;font-family:sans-serif;letter-spacing:0px;word-spacing:0px;fill:#000000;fill-opacity:1;stroke:none;stroke-width:0.26458332"
       id="path280"
       inkscape:connector-curvature="0" />
    <path
       d="m 65.671886,55.7288 h -0.38654 v -0.24598 l -0.14056,0.0992 -0.169498,0.0992 -0.223242,0.0785 -0.29559,0.0331 -0.288354,-0.0517 -0.240811,-0.15503 -0.162782,-0.23513 -0.05426,-0.29197 0.02791,-0.2372 0.08372,-0.18655 0.137458,-0.14573 0.185002,-0.11059 0.232027,-0.078 0.274403,-0.0481 0.634585,-0.0496 v -0.0599 l -0.04754,-0.21911 -0.132293,-0.13642 -0.198435,-0.0641 -0.241847,-0.0165 -0.341063,0.0413 -0.388607,0.11576 h -0.02067 v -0.39481 l 0.328662,-0.0682 0.423745,-0.0372 0.423748,0.0413 0.314192,0.13643 0.114722,0.10905 0.08372,0.13693 0.05116,0.16898 0.01705,0.20515 5e-6,1.56688 m -0.38654,-0.56844 v -0.64285 l -0.419613,0.031 -0.380337,0.06 -0.151413,0.061 -0.119372,0.0879 -0.07752,0.11833 -0.02584,0.15658 0.02997,0.17415 0.08992,0.12558 0.151411,0.0744 0.214457,0.0248 0.195854,-0.0197 0.178283,-0.0589 0.314193,-0.19224 v 2e-5"
       style="font-style:normal;font-weight:normal;font-size:4.23333311px;line-height:1.25;font-family:sans-serif;letter-spacing:0px;word-spacing:0px;fill:#000000;fill-opacity:1;stroke:none;stroke-width:0.26458332"
       id="path282"
       inkscape:connector-curvature="0" />
    <path
       d="m 67.623188,55.70813 -0.23978,0.0475 -0.229442,0.0186 -0.311093,-0.0475 -0.226342,-0.14263 -0.137976,-0.24753 -0.04599,-0.36225 V 53.74649 H 66.17005 v -0.3266 h 0.262515 v -0.66353 h 0.388608 v 0.66353 h 0.802017 v 0.3266 h -0.802017 v 1.05213 l 0.0083,0.28525 0.05788,0.19017 0.124022,0.12196 0.243913,0.0372 0.198437,-0.0269 0.148828,-0.0475 h 0.02067 l -3.8e-5,0.34937"
       style="font-style:normal;font-weight:normal;font-size:4.23333311px;line-height:1.25;font-family:sans-serif;letter-spacing:0px;word-spacing:0px;fill:#000000;fill-opacity:1;stroke:none;stroke-width:0.26458332"
       id="path284"
       inkscape:connector-curvature="0" />
    <path
       d="m 70.025108,55.7288 h -0.388605 v -1.31465 l -0.0186,-0.29765 -0.06821,-0.21911 -0.14883,-0.12816 -0.25218,-0.0434 -0.332795,0.0786 -0.332797,0.20051 v 1.72392 h -0.388608 v -3.21634 h 0.388608 v 1.16376 l 0.376205,-0.23565 0.196887,-0.0635 0.202055,-0.0212 0.329696,0.0563 0.240812,0.16898 0.147277,0.27492 0.04909,0.37414 -8e-6,1.4985"
       style="font-style:normal;font-weight:normal;font-size:4.23333311px;line-height:1.25;font-family:sans-serif;letter-spacing:0px;word-spacing:0px;fill:#000000;fill-opacity:1;stroke:none;stroke-width:0.26458332"
       id="path286"
       inkscape:connector-curvature="0" />
    <path
       d="m 72.567588,55.7288 h -0.38654 v -0.24598 l -0.140557,0.0992 -0.1695,0.0992 -0.223243,0.0785 -0.29559,0.0331 -0.288354,-0.0517 -0.240811,-0.15503 -0.16278,-0.23513 -0.05426,-0.29197 0.02791,-0.2372 0.08371,-0.18655 0.137459,-0.14573 0.185001,-0.11059 0.232028,-0.078 0.274402,-0.0481 0.634585,-0.0496 v -0.0599 l -0.04754,-0.21911 -0.13229,-0.13642 -0.198437,-0.0641 -0.241848,-0.0165 -0.341062,0.0413 -0.388608,0.11576 h -0.02068 v -0.39481 l 0.328663,-0.0682 0.423745,-0.0372 0.423747,0.0413 0.314193,0.13643 0.114722,0.10905 0.08372,0.13693 0.05116,0.16898 0.01705,0.20515 5e-6,1.56688 m -0.38654,-0.56844 v -0.64285 l -0.41961,0.031 -0.38034,0.06 -0.151411,0.061 -0.119374,0.0879 -0.07751,0.11833 -0.02584,0.15658 0.02997,0.17415 0.08992,0.12558 0.151412,0.0744 0.214455,0.0248 0.195855,-0.0197 0.178285,-0.0589 0.31419,-0.19224 v 2e-5"
       style="font-style:normal;font-weight:normal;font-size:4.23333311px;line-height:1.25;font-family:sans-serif;letter-spacing:0px;word-spacing:0px;fill:#000000;fill-opacity:1;stroke:none;stroke-width:0.26458332"
       id="path288"
       inkscape:connector-curvature="0" />
    <path
       d="m 75.250631,55.7288 h -0.388608 v -1.31465 l -0.0186,-0.29765 -0.06821,-0.21911 -0.148827,-0.12816 -0.252183,-0.0434 -0.332795,0.0786 -0.332795,0.20051 v 1.72392 h -0.388607 v -2.3089 h 0.388607 v 0.25632 l 0.376203,-0.23565 0.196888,-0.0635 0.202054,-0.0212 0.329696,0.0563 0.240812,0.16898 0.147279,0.27492 0.04909,0.37414 -7e-6,1.4985"
       style="font-style:normal;font-weight:normal;font-size:4.23333311px;line-height:1.25;font-family:sans-serif;letter-spacing:0px;word-spacing:0px;fill:#000000;fill-opacity:1;stroke:none;stroke-width:0.26458332"
       id="path290"
       inkscape:connector-curvature="0" />
    <path
       d="m 58.745178,58.8728 -0.01809,0.19741 -0.05426,0.18293 -0.198437,0.30179 -0.173634,0.13952 -0.202571,0.10025 -0.245464,0.0589 -0.302306,0.0197 h -0.409275 v 1.14722 h -0.409278 v -3.07785 h 0.83509 l 0.469223,0.0475 0.341065,0.1447 0.155546,0.13229 0.115239,0.16123 0.07286,0.19896 0.02429,0.24546 2e-6,-1e-5 m -0.425815,0.0103 -0.05581,-0.27698 -0.1695,-0.19224 -0.227375,-0.091 -0.320395,-0.0289 h -0.405142 v 1.2299 h 0.345197 l 0.403078,-0.0434 0.25218,-0.14263 0.136427,-0.20877 0.04134,-0.24598 v 0"
       style="font-style:normal;font-weight:normal;font-size:4.23333311px;line-height:1.25;font-family:sans-serif;letter-spacing:0px;word-spacing:0px;fill:#000000;fill-opacity:1;stroke:none;stroke-width:0.26458332"
       id="path292"
       inkscape:connector-curvature="0" />
    <path
       d="m 61.089221,59.90633 h -1.701188 l 0.06408,0.37207 0.175698,0.25838 0.254247,0.14883 0.326598,0.0496 0.23616,-0.0233 0.237195,-0.0697 0.341065,-0.18604 h 0.02067 v 0.42375 l -0.40101,0.13849 -0.429948,0.0558 -0.27156,-0.0194 -0.240037,-0.0581 -0.208514,-0.0969 -0.176991,-0.13565 -0.141078,-0.17234 -0.100769,-0.20489 -0.06046,-0.23746 -0.02015,-0.27001 0.01925,-0.26859 0.05775,-0.23939 0.09625,-0.21019 0.134747,-0.181 0.167173,-0.14559 0.19146,-0.104 0.21575,-0.0624 0.240037,-0.0208 0.220141,0.017 0.193271,0.0512 0.166398,0.0853 0.139527,0.11937 0.111234,0.15077 0.07945,0.17944 0.06356,0.44494 -5e-6,0.21084 m -0.378273,-0.29766 -0.03976,-0.2713 -0.115273,-0.20206 -0.190685,-0.12557 -0.270267,-0.0419 -0.280603,0.046 -0.217557,0.13798 -0.144177,0.20619 -0.0646,0.25063 h 1.322915"
       style="font-style:normal;font-weight:normal;font-size:4.23333311px;line-height:1.25;font-family:sans-serif;letter-spacing:0px;word-spacing:0px;fill:#000000;fill-opacity:1;stroke:none;stroke-width:0.26458332"
       id="path294"
       inkscape:connector-curvature="0" />
    <path
       d="m 63.551086,61.02047 h -0.388608 v -0.24185 l -0.349332,0.22531 -0.189652,0.0605 -0.205156,0.0202 -0.196112,-0.0199 -0.174925,-0.0597 -0.153738,-0.0995 -0.13255,-0.13927 -0.105807,-0.17454 -0.07558,-0.20528 -0.06046,-0.50281 0.02067,-0.2775 0.06201,-0.24547 0.09922,-0.21239 0.128156,-0.17828 0.151929,-0.13849 0.174666,-0.10129 0.191205,-0.062 0.197403,-0.0207 0.322462,0.0393 0.295588,0.11782 v -1.00045 h 0.388607 l 3e-6,3.21635 M 63.162477,60.45209 V 59.1271 l -0.28112,-0.0971 -0.270785,-0.0269 -0.290421,0.0568 -0.218074,0.17053 -0.136425,0.27492 -0.04548,0.37 0.03514,0.36225 0.10542,0.26407 0.182935,0.15968 0.267683,0.0532 0.334862,-0.0723 0.31626,-0.19017 v -6e-5"
       style="font-style:normal;font-weight:normal;font-size:4.23333311px;line-height:1.25;font-family:sans-serif;letter-spacing:0px;word-spacing:0px;fill:#000000;fill-opacity:1;stroke:none;stroke-width:0.26458332"
       id="path296"
       inkscape:connector-curvature="0" />
    <path
       d="m 65.756636,59.13531 h -0.02067 l -0.1695,-0.0289 -0.192235,-0.0103 -0.176735,0.0202 -0.170533,0.0604 -0.32246,0.20464 v 1.63918 h -0.388607 v -2.3089 h 0.388607 v 0.34106 l 0.40721,-0.26252 0.179318,-0.0589 0.182417,-0.0196 0.14676,0.006 0.136428,0.0186 5e-6,0.39904"
       style="font-style:normal;font-weight:normal;font-size:4.23333311px;line-height:1.25;font-family:sans-serif;letter-spacing:0px;word-spacing:0px;fill:#000000;fill-opacity:1;stroke:none;stroke-width:0.26458332"
       id="path298"
       inkscape:connector-curvature="0" />
    <path
       d="m 68.094478,59.86705 -0.01809,0.2673 -0.05426,0.23758 -0.09043,0.20787 -0.126608,0.17815 -0.156967,0.14289 -0.181513,0.10206 -0.206059,0.0612 -0.230606,0.0204 -0.232414,-0.0204 -0.207352,-0.0612 -0.182288,-0.10206 -0.157226,-0.14289 -0.125703,-0.17815 -0.08979,-0.20787 -0.05387,-0.23758 -0.01796,-0.2673 0.01796,-0.2673 0.05387,-0.23758 0.08979,-0.20787 0.125703,-0.17815 0.157226,-0.14379 0.182288,-0.1027 0.207352,-0.0616 0.232414,-0.0205 0.230606,0.0205 0.206059,0.0616 0.181513,0.1027 0.156967,0.14379 0.126608,0.17815 0.09043,0.20787 0.05426,0.23758 0.01809,0.2673 v 0 m -0.40101,0 -0.04393,-0.39067 -0.131775,-0.27492 -0.209806,-0.16433 -0.278019,-0.0548 -0.28112,0.0548 -0.21084,0.16433 -0.130224,0.27492 -0.04341,0.39067 0.04393,0.38189 0.131775,0.2775 0.210323,0.16743 0.279569,0.0558 0.276468,-0.0553 0.20929,-0.16588 0.133325,-0.27698 0.04444,-0.38448 v 0"
       style="font-style:normal;font-weight:normal;font-size:4.23333311px;line-height:1.25;font-family:sans-serif;letter-spacing:0px;word-spacing:0px;fill:#000000;fill-opacity:1;stroke:none;stroke-width:0.26458332"
       id="path300"
       inkscape:connector-curvature="0" />
    <path
       d="M 11.948381,44.57854 H 9.2446703 v -4.1038 h 2.7037107 v 0.48507 H 9.7903733 v 1.12448 h 2.1580077 v 0.48507 H 9.7903733 v 1.52411 h 2.1580077 v 0.48507"
       style="font-style:normal;font-weight:normal;font-size:5.64444447px;line-height:1.25;font-family:sans-serif;letter-spacing:0px;word-spacing:0px;fill:#000000;fill-opacity:1;stroke:none;stroke-width:0.26458332"
       id="path181"
       inkscape:connector-curvature="0" />
    <path
       d="m 15.986033,44.28088 -0.275608,0.12402 -0.319704,0.12127 -0.366559,0.0882 -0.432704,0.0386 -0.426502,-0.031 -0.38654,-0.093 -0.340375,-0.16192 -0.293523,-0.2322 -0.235644,-0.29697 -0.177767,-0.36725 -0.111621,-0.43752 -0.03721,-0.5023 0.03583,-0.48025 0.107487,-0.4265 0.175011,-0.36862 0.2384,-0.30662 0.288699,-0.23564 0.342443,-0.17226 0.392052,-0.10542 0.432014,-0.0351 0.330041,0.02 0.328662,0.0599 0.348644,0.11023 0.384472,0.17089 v 0.64768 h -0.04134 l -0.337619,-0.24529 -0.334864,-0.16812 -0.345198,-0.0971 -0.368626,-0.0324 -0.296277,0.0255 -0.265962,0.0765 -0.234955,0.12746 -0.208773,0.18397 -0.169499,0.23427 -0.128158,0.28939 -0.07855,0.339 -0.02618,0.3886 0.02894,0.40239 0.08682,0.34175 0.135048,0.2825 0.16812,0.22462 0.208773,0.17777 0.240467,0.1254 0.265962,0.0724 0.279742,0.0241 0.381717,-0.0338 0.356911,-0.10129 0.333486,-0.16881 0.311436,-0.23633 h 0.03858 l 4e-6,0.63938"
       style="font-style:normal;font-weight:normal;font-size:5.64444447px;line-height:1.25;font-family:sans-serif;letter-spacing:0px;word-spacing:0px;fill:#000000;fill-opacity:1;stroke:none;stroke-width:0.26458332"
       id="path183"
       inkscape:connector-curvature="0" />
    <path
       d="m 19.466958,44.57854 h -2.703711 v -4.1038 h 2.703711 v 0.48507 H 17.30895 v 1.12448 h 2.158008 v 0.48507 H 17.30895 v 1.52411 h 2.158008 v 0.48507"
       style="font-style:normal;font-weight:normal;font-size:5.64444447px;line-height:1.25;font-family:sans-serif;letter-spacing:0px;word-spacing:0px;fill:#000000;fill-opacity:1;stroke:none;stroke-width:0.26458332"
       id="path185"
       inkscape:connector-curvature="0" />
    <path
       d="m 25.488984,44.28088 -0.275607,0.12402 -0.319705,0.12127 -0.366558,0.0882 -0.432704,0.0386 -0.426503,-0.031 -0.38654,-0.093 -0.340375,-0.16192 -0.293523,-0.2322 -0.235644,-0.29697 -0.177767,-0.36725 -0.111621,-0.43752 -0.03721,-0.5023 0.03583,-0.48025 0.107487,-0.4265 0.175011,-0.36862 0.2384,-0.30662 0.2887,-0.23564 0.342442,-0.17226 0.392052,-0.10542 0.432015,-0.0351 0.33004,0.02 0.328662,0.0599 0.348644,0.11023 0.384472,0.17089 v 0.64768 h -0.04134 l -0.337619,-0.24529 -0.334864,-0.16812 -0.345198,-0.0971 -0.368625,-0.0324 -0.296278,0.0255 -0.265962,0.0765 -0.234955,0.12746 -0.208773,0.18397 -0.169499,0.23427 -0.128158,0.28939 -0.07855,0.339 -0.02618,0.3886 0.02894,0.40239 0.08682,0.34175 0.135048,0.2825 0.16812,0.22462 0.208773,0.17777 0.240468,0.1254 0.265961,0.0724 0.279742,0.0241 0.381717,-0.0338 0.356911,-0.10129 0.333486,-0.16881 0.311436,-0.23633 h 0.03859 l -6e-6,0.63938"
       style="font-style:normal;font-weight:normal;font-size:5.64444447px;line-height:1.25;font-family:sans-serif;letter-spacing:0px;word-spacing:0px;fill:#000000;fill-opacity:1;stroke:none;stroke-width:0.26458332"
       id="path187"
       inkscape:connector-curvature="0" />
    <path
       d="m 28.617131,44.57854 h -0.515386 v -0.32798 l -0.187413,0.13229 -0.225998,0.1323 -0.297657,0.10473 -0.394118,0.0441 -0.384473,-0.0689 -0.168465,-0.0861 -0.152618,-0.12058 -0.126607,-0.14728 -0.09043,-0.16622 -0.05426,-0.18518 -0.01809,-0.20412 0.03721,-0.31626 0.111621,-0.24874 0.183279,-0.1943 0.246669,-0.14745 0.30937,-0.10404 0.365869,-0.0641 0.846115,-0.0662 v -0.0799 l -0.06339,-0.29214 -0.176388,-0.1819 -0.264584,-0.0854 -0.322461,-0.022 -0.454752,0.0551 -0.518143,0.15434 h -0.02756 V 41.5662 l 0.438216,-0.0909 0.564995,-0.0496 0.564996,0.0551 0.225999,0.0717 0.192925,0.11022 0.152962,0.14538 0.111621,0.18259 0.06821,0.22531 0.02274,0.27354 v 2.08902 m -0.515386,-0.75793 v -0.85714 l -0.559483,0.0414 -0.507118,0.0799 -0.201883,0.0813 -0.159163,0.11713 -0.103353,0.15779 -0.03445,0.20877 0.03996,0.2322 0.119889,0.16743 0.201883,0.0992 0.285943,0.0331 0.261138,-0.0262 0.237712,-0.0786 0.418923,-0.25632 v -3e-5"
       style="font-style:normal;font-weight:normal;font-size:5.64444447px;line-height:1.25;font-family:sans-serif;letter-spacing:0px;word-spacing:0px;fill:#000000;fill-opacity:1;stroke:none;stroke-width:0.26458332"
       id="path189"
       inkscape:connector-curvature="0" />
    <path
       d="m 32.329565,43.00206 -0.02687,0.35898 -0.08062,0.32728 -0.129535,0.28526 -0.173633,0.2384 -0.198437,0.18121 -0.231511,0.13574 -0.25287,0.0827 -0.268029,0.0276 -0.43546,-0.0524 -0.394119,-0.16261 v 1.28985 H 29.620342 V 41.5 h 0.518142 v 0.32246 l 0.219109,-0.15916 0.243912,-0.13023 0.26734,-0.0889 0.283876,-0.0296 0.262861,0.0264 0.231855,0.0791 0.200849,0.13178 0.169843,0.18448 0.136254,0.22996 0.09732,0.27096 0.0584,0.31195 0.01946,0.35295 v 0 m -0.534679,0.0138 -0.04754,-0.48645 -0.142627,-0.34589 -0.107831,-0.12057 -0.133325,-0.0861 -0.158819,-0.0517 -0.184313,-0.0172 -0.223931,0.0241 -0.22531,0.0724 -0.432704,0.25356 v 1.7446 l 0.377583,0.13504 0.361046,0.0358 0.204467,-0.0183 0.180695,-0.0548 0.156924,-0.0913 0.133153,-0.12781 0.106109,-0.16364 0.07579,-0.19879 0.06063,-0.50298 v -1e-5"
       style="font-style:normal;font-weight:normal;font-size:5.64444447px;line-height:1.25;font-family:sans-serif;letter-spacing:0px;word-spacing:0px;fill:#000000;fill-opacity:1;stroke:none;stroke-width:0.26458332"
       id="path191"
       inkscape:connector-curvature="0" />
    <path
       d="m 35.336445,43.69108 -0.02188,0.20137 -0.06563,0.18241 -0.109382,0.16347 -0.153134,0.14452 -0.189652,0.11817 -0.221692,0.0844 -0.539503,0.0675 -0.327972,-0.02 -0.300413,-0.0599 -0.476801,-0.17914 v -0.58153 h 0.02756 l 0.259072,0.16605 0.286631,0.12885 0.294212,0.0806 0.281808,0.0269 0.304547,-0.0276 0.230132,-0.0827 0.144695,-0.14194 0.04823,-0.20533 -0.02618,-0.15985 -0.07855,-0.11575 -0.152962,-0.0868 -0.249426,-0.0731 -0.289388,-0.0579 -0.32246,-0.0717 -0.346577,-0.13229 -0.229443,-0.1819 -0.12609,-0.23289 -0.04203,-0.27974 0.01929,-0.18466 0.05788,-0.17363 0.09991,-0.15916 0.139869,-0.14126 0.175011,-0.11575 0.216352,-0.0882 0.253559,-0.0579 0.281119,-0.0193 0.556728,0.0689 0.471289,0.1626 v 0.55398 h -0.02756 l -0.219797,-0.13436 -0.262516,-0.11094 -0.28112,-0.0765 -0.275608,-0.0255 -0.261827,0.0276 -0.21773,0.0827 -0.14676,0.13436 -0.04892,0.1881 0.02963,0.16675 0.08888,0.11989 0.151584,0.0875 0.223242,0.0696 0.319705,0.0661 0.297656,0.0606 0.319705,0.11232 0.237023,0.17156 0.146761,0.23702 0.04892,0.30317 -10e-7,1.6e-4"
       style="font-style:normal;font-weight:normal;font-size:5.64444447px;line-height:1.25;font-family:sans-serif;letter-spacing:0px;word-spacing:0px;fill:#000000;fill-opacity:1;stroke:none;stroke-width:0.26458332"
       id="path193"
       inkscape:connector-curvature="0" />
    <path
       d="m 37.67911,44.55097 -0.319705,0.0634 -0.305925,0.0248 -0.414789,-0.0634 -0.16502,-0.0792 -0.136771,-0.11093 -0.107314,-0.1459 -0.07665,-0.18414 -0.06132,-0.483 V 41.93549 H 35.741588 V 41.5 h 0.350022 v -0.8847 h 0.518142 V 41.5 h 1.069358 v 0.43546 h -1.069358 v 1.40284 l 0.01102,0.38034 0.07717,0.25356 0.165365,0.16261 0.325217,0.0496 0.264583,-0.0358 0.198438,-0.0634 h 0.02756 l 5e-6,0.46576"
       style="font-style:normal;font-weight:normal;font-size:5.64444447px;line-height:1.25;font-family:sans-serif;letter-spacing:0px;word-spacing:0px;fill:#000000;fill-opacity:1;stroke:none;stroke-width:0.26458332"
       id="path195"
       inkscape:connector-curvature="0" />
    <path
       d="m 40.93128,43.04064 -0.02412,0.3564 -0.07235,0.31677 -0.120578,0.27716 -0.16881,0.23754 -0.209289,0.19051 -0.242019,0.13609 -0.274746,0.0816 -0.307475,0.0272 -0.309886,-0.0272 -0.276469,-0.0816 -0.243051,-0.13609 -0.209634,-0.19051 -0.167604,-0.23754 -0.119717,-0.27716 -0.07183,-0.31677 -0.02394,-0.3564 0.02394,-0.35639 0.07183,-0.31677 0.119717,-0.27716 0.167604,-0.23754 0.209634,-0.19172 0.243051,-0.13694 0.276469,-0.0822 0.309886,-0.0274 0.307475,0.0274 0.274746,0.0822 0.242019,0.13694 0.209289,0.19172 0.16881,0.23754 0.120578,0.27716 0.07235,0.31677 0.02412,0.35639 v 0 m -0.534679,0 -0.05857,-0.52089 -0.07321,-0.20257 -0.102492,-0.16399 -0.128502,-0.12781 -0.151239,-0.0913 -0.173978,-0.0548 -0.196715,-0.0183 -0.199126,0.0183 -0.1757,0.0548 -0.152273,0.0913 -0.128847,0.12781 -0.101285,0.16399 -0.07235,0.20257 -0.05788,0.52089 0.05857,0.50919 0.07321,0.2024 0.102491,0.1676 0.128675,0.13023 0.151756,0.093 0.174839,0.0558 0.19792,0.0186 0.19551,-0.0184 0.173116,-0.0553 0.150723,-0.0922 0.128329,-0.12902 0.103698,-0.16674 0.07407,-0.20258 0.05926,-0.51263 v 0"
       style="font-style:normal;font-weight:normal;font-size:5.64444447px;line-height:1.25;font-family:sans-serif;letter-spacing:0px;word-spacing:0px;fill:#000000;fill-opacity:1;stroke:none;stroke-width:0.26458332"
       id="path197"
       inkscape:connector-curvature="0" />
    <path
       d="m 44.310231,44.57854 h -0.518143 v -1.75287 l -0.0248,-0.39687 -0.09095,-0.29215 -0.08406,-0.10059 -0.114379,-0.0703 -0.336241,-0.0579 -0.217041,0.0262 -0.226687,0.0786 -0.443728,0.26734 v 2.29857 H 41.736055 V 41.5 h 0.518143 v 0.34175 l 0.246668,-0.17914 0.254937,-0.13505 0.262517,-0.0847 0.269406,-0.0283 0.234611,0.0188 0.204983,0.0563 0.175356,0.0939 0.145727,0.13143 0.11455,0.16674 0.08182,0.19982 0.06546,0.49885 v 1.99816"
       style="font-style:normal;font-weight:normal;font-size:5.64444447px;line-height:1.25;font-family:sans-serif;letter-spacing:0px;word-spacing:0px;fill:#000000;fill-opacity:1;stroke:none;stroke-width:0.26458332"
       id="path199"
       inkscape:connector-curvature="0" />
    <path
       d="m 47.884859,43.09301 h -2.268251 l 0.02136,0.26596 0.06408,0.23013 0.101287,0.19086 0.132979,0.15365 0.156408,0.11576 0.18259,0.0827 0.43546,0.0661 0.314882,-0.031 0.316259,-0.093 0.273541,-0.1254 0.181212,-0.12264 h 0.02756 v 0.56499 l -0.534679,0.18466 -0.279742,0.0558 -0.293522,0.0186 -0.362079,-0.0258 -0.32005,-0.0775 -0.278019,-0.12919 -0.235989,-0.18087 -0.188102,-0.22979 -0.134359,-0.27319 -0.08062,-0.31661 -0.02687,-0.36001 0.02567,-0.35811 0.077,-0.31919 0.12833,-0.28026 0.179661,-0.24133 0.222898,-0.19413 0.255282,-0.13867 0.287665,-0.0832 0.320049,-0.0277 0.293523,0.0227 0.257693,0.0682 0.221864,0.11369 0.186035,0.15916 0.148311,0.20102 0.105937,0.23926 0.06356,0.27751 0.02119,0.31574 v 0.28118 m -0.504362,-0.39688 -0.05308,-0.36173 -0.153629,-0.26941 -0.11386,-0.0977 -0.140388,-0.0698 -0.360357,-0.0558 -0.374138,0.0613 -0.290077,0.18397 -0.192236,0.27492 -0.08613,0.33417 h 1.763889"
       style="font-style:normal;font-weight:normal;font-size:5.64444447px;line-height:1.25;font-family:sans-serif;letter-spacing:0px;word-spacing:0px;fill:#000000;fill-opacity:1;stroke:none;stroke-width:0.26458332"
       id="path201"
       inkscape:connector-curvature="0" />
    <path
       d="M 11.915308,51.63409 H 9.1371833 v -0.57602 l 0.578776,-0.49609 0.5429467,-0.49334 0.445796,-0.45957 0.279052,-0.35347 0.146762,-0.31488 0.04892,-0.33831 -0.05305,-0.28457 -0.159164,-0.21428 -0.251492,-0.13642 -0.335552,-0.0455 -0.261138,0.0221 -0.2818097,0.0661 -0.288699,0.11163 -0.2818083,0.15847 H 9.239158 v -0.57878 l 0.5208983,-0.17639 0.3224607,-0.0599 0.311437,-0.02 0.298518,0.0191 0.264411,0.0574 0.230304,0.0956 0.196198,0.13384 0.156752,0.16519 0.111966,0.19241 0.06718,0.21963 0.02239,0.24684 -0.06063,0.43821 -0.173633,0.3831 -0.253559,0.33624 -0.350022,0.36656 -0.609093,0.56224 -0.5870447,0.5016 h 2.2076177 l -3e-6,0.47125"
       style="font-style:normal;font-weight:normal;font-size:5.64444447px;line-height:1.25;font-family:sans-serif;letter-spacing:0px;word-spacing:0px;fill:#000000;fill-opacity:1;stroke:none;stroke-width:0.26458332"
       id="path203"
       inkscape:connector-curvature="0" />
    <path
       d="m 15.50372,49.58081 -0.0217,0.51591 -0.06511,0.44252 -0.108521,0.36914 -0.151929,0.29576 -0.196198,0.22548 -0.244085,0.16106 -0.291972,0.0966 -0.339859,0.0322 -0.344509,-0.0327 -0.2949,-0.0982 -0.245291,-0.16365 -0.195682,-0.2291 -0.148311,-0.29696 -0.105936,-0.36725 -0.06356,-0.43752 -0.02119,-0.50781 0.02153,-0.51125 0.0646,-0.4396 0.107659,-0.36793 0.150722,-0.29628 0.196371,-0.2291 0.244602,-0.16364 0.292833,-0.0982 0.341064,-0.0327 0.344338,0.0333 0.294383,0.0997 0.24443,0.16623 0.194475,0.23271 0.149518,0.29852 0.106798,0.36639 0.06408,0.43425 0.02136,0.50212 v 0 m -0.724849,1.25126 0.08061,-0.24253 0.04892,-0.28112 0.03583,-0.72761 -0.03583,-0.7276 -0.04961,-0.28525 -0.08268,-0.2384 -0.114376,-0.18604 -0.150207,-0.13367 -0.18948,-0.0806 -0.237712,-0.0269 -0.237022,0.0269 -0.192926,0.0806 -0.150894,0.13505 -0.116445,0.19017 -0.07924,0.23496 -0.0503,0.29696 -0.03307,0.71934 0.03032,0.71933 0.04754,0.27423 0.08199,0.24391 0.109554,0.18949 0.146761,0.13849 0.194993,0.0847 0.248735,0.0283 0.237023,-0.0269 0.192925,-0.0806 0.151585,-0.13505 0.112998,-0.19017 h -6e-6"
       style="font-style:normal;font-weight:normal;font-size:5.64444447px;line-height:1.25;font-family:sans-serif;letter-spacing:0px;word-spacing:0px;fill:#000000;fill-opacity:1;stroke:none;stroke-width:0.26458332"
       id="path205"
       inkscape:connector-curvature="0" />
    <path
       d="m 18.868889,51.63409 h -2.221398 v -0.41892 h 0.854384 V 48.4646 h -0.854384 v -0.37482 l 0.37207,-0.0276 0.300413,-0.0854 0.198437,-0.17364 0.05856,-0.1254 0.02688,-0.16123 h 0.427192 v 3.69866 h 0.837847 l -1e-6,0.41892"
       style="font-style:normal;font-weight:normal;font-size:5.64444447px;line-height:1.25;font-family:sans-serif;letter-spacing:0px;word-spacing:0px;fill:#000000;fill-opacity:1;stroke:none;stroke-width:0.26458332"
       id="path207"
       inkscape:connector-curvature="0" />
    <path
       d="m 22.691567,49.33552 -0.03101,0.51263 -0.09302,0.46302 -0.152962,0.40584 -0.216352,0.34106 -0.282498,0.27836 -0.345887,0.20671 -0.410656,0.12816 -0.476801,0.0427 -0.270096,-0.0165 -0.225998,-0.0469 v -0.52641 h 0.02756 l 0.225998,0.0799 0.325217,0.0358 0.28801,-0.0227 0.254937,-0.0682 0.221865,-0.11369 0.188791,-0.15916 0.155374,-0.2005 0.118855,-0.23496 0.08234,-0.2694 0.04582,-0.30386 -0.482314,0.22048 -0.493337,0.0661 -0.460265,-0.0496 -0.204639,-0.073 -0.206016,-0.1199 -0.212907,-0.19086 -0.153652,-0.23633 -0.09095,-0.28456 -0.03032,-0.33556 0.02584,-0.29955 0.07751,-0.27026 0.129191,-0.24099 0.180868,-0.2117 0.218075,-0.17243 0.240812,-0.12316 0.26355,-0.0739 0.286287,-0.0246 0.286632,0.0234 0.264583,0.0703 0.237712,0.1144 0.206016,0.1612 0.207395,0.26183 0.153651,0.32798 0.09508,0.41134 0.0317,0.51745 1e-6,1.1e-4 m -0.556728,-0.11851 -0.02205,-0.38516 -0.06614,-0.3011 -0.104728,-0.23013 -0.137807,-0.17226 -0.278364,-0.17639 -0.322461,-0.0551 -0.355534,0.062 -0.272851,0.18604 -0.171565,0.29834 -0.05719,0.39895 0.0186,0.23771 0.05581,0.18948 0.09991,0.15503 0.150897,0.13436 0.272851,0.11575 0.330729,0.0276 0.43546,-0.0579 0.413412,-0.16812 0.0055,-0.113 0.0055,-0.14607 2.4e-5,-4e-5"
       style="font-style:normal;font-weight:normal;font-size:5.64444447px;line-height:1.25;font-family:sans-serif;letter-spacing:0px;word-spacing:0px;fill:#000000;fill-opacity:1;stroke:none;stroke-width:0.26458332"
       id="path209"
       inkscape:connector-curvature="0" />
    <path
       d="m 25.21062,50.08793 h -1.719791 v -0.49885 h 1.719791 v 0.49885"
       style="font-style:normal;font-weight:normal;font-size:5.64444447px;line-height:1.25;font-family:sans-serif;letter-spacing:0px;word-spacing:0px;fill:#000000;fill-opacity:1;stroke:none;stroke-width:0.26458332"
       id="path211"
       inkscape:connector-curvature="0" />
    <path
       d="M 28.859665,51.63409 H 26.08154 v -0.57602 l 0.578776,-0.49609 0.542947,-0.49334 0.445796,-0.45957 0.279052,-0.35347 0.146762,-0.31488 0.04892,-0.33831 -0.05305,-0.28457 -0.159164,-0.21428 -0.251492,-0.13642 -0.335553,-0.0455 -0.261138,0.0221 -0.281809,0.0661 -0.288699,0.11163 -0.281808,0.15847 h -0.02756 v -0.57878 l 0.520898,-0.17639 0.322461,-0.0599 0.311437,-0.02 0.298518,0.0191 0.26441,0.0574 0.230305,0.0956 0.196198,0.13384 0.156752,0.16519 0.111966,0.19241 0.06718,0.21963 0.02239,0.24684 -0.06063,0.43821 -0.173633,0.3831 -0.253559,0.33624 -0.350022,0.36656 -0.609093,0.56224 -0.587044,0.5016 h 2.207617 l -4e-6,0.47125"
       style="font-style:normal;font-weight:normal;font-size:5.64444447px;line-height:1.25;font-family:sans-serif;letter-spacing:0px;word-spacing:0px;fill:#000000;fill-opacity:1;stroke:none;stroke-width:0.26458332"
       id="path213"
       inkscape:connector-curvature="0" />
    <path
       d="m 32.448076,49.58081 -0.0217,0.51591 -0.06511,0.44252 -0.10852,0.36914 -0.151929,0.29576 -0.196198,0.22548 -0.244085,0.16106 -0.291972,0.0966 -0.339859,0.0322 -0.344509,-0.0327 -0.2949,-0.0982 -0.245291,-0.16365 -0.195682,-0.2291 -0.148311,-0.29696 -0.105936,-0.36725 -0.06356,-0.43752 -0.02119,-0.50781 0.02153,-0.51125 0.0646,-0.4396 0.107659,-0.36793 0.150722,-0.29628 0.196371,-0.2291 0.244602,-0.16364 0.292833,-0.0982 0.341064,-0.0327 0.344338,0.0333 0.294383,0.0997 0.24443,0.16623 0.194475,0.23271 0.149517,0.29852 0.106798,0.36639 0.06408,0.43425 0.02136,0.50212 v 0 m -0.724848,1.25126 0.08061,-0.24253 0.04892,-0.28112 0.03583,-0.72761 -0.03583,-0.7276 -0.04961,-0.28525 -0.08268,-0.2384 -0.114375,-0.18604 -0.150208,-0.13367 -0.18948,-0.0806 -0.237712,-0.0269 -0.237022,0.0269 -0.192926,0.0806 -0.150894,0.13505 -0.116445,0.19017 -0.07924,0.23496 -0.0503,0.29696 -0.03307,0.71934 0.03032,0.71933 0.04754,0.27423 0.08199,0.24391 0.109554,0.18949 0.146761,0.13849 0.194992,0.0847 0.248736,0.0283 0.237023,-0.0269 0.192925,-0.0806 0.151585,-0.13505 0.112998,-0.19017 h -6e-6"
       style="font-style:normal;font-weight:normal;font-size:5.64444447px;line-height:1.25;font-family:sans-serif;letter-spacing:0px;word-spacing:0px;fill:#000000;fill-opacity:1;stroke:none;stroke-width:0.26458332"
       id="path215"
       inkscape:connector-curvature="0" />
    <path
       d="m 36.047512,51.63409 h -2.778125 v -0.57602 l 0.578776,-0.49609 0.542947,-0.49334 0.445796,-0.45957 0.279052,-0.35347 0.146762,-0.31488 0.04892,-0.33831 -0.05305,-0.28457 -0.159164,-0.21428 -0.251492,-0.13642 -0.335552,-0.0455 -0.261138,0.0221 -0.281809,0.0661 -0.288699,0.11163 -0.281809,0.15847 h -0.02756 v -0.57878 l 0.520898,-0.17639 0.322462,-0.0599 0.311436,-0.02 0.298518,0.0191 0.26441,0.0574 0.230305,0.0956 0.196198,0.13384 0.156752,0.16519 0.111966,0.19241 0.06718,0.21963 0.02239,0.24684 -0.06063,0.43821 -0.173633,0.3831 -0.253559,0.33624 -0.350022,0.36656 -0.609093,0.56224 -0.587044,0.5016 h 2.207617 l -4e-6,0.47125"
       style="font-style:normal;font-weight:normal;font-size:5.64444447px;line-height:1.25;font-family:sans-serif;letter-spacing:0px;word-spacing:0px;fill:#000000;fill-opacity:1;stroke:none;stroke-width:0.26458332"
       id="path217"
       inkscape:connector-curvature="0" />
    <path
       d="m 39.635924,49.58081 -0.0217,0.51591 -0.06511,0.44252 -0.108521,0.36914 -0.151929,0.29576 -0.196198,0.22548 -0.244085,0.16106 -0.291972,0.0966 -0.339859,0.0322 -0.344509,-0.0327 -0.2949,-0.0982 -0.245291,-0.16365 -0.195682,-0.2291 -0.148311,-0.29696 -0.105937,-0.36725 -0.06356,-0.43752 -0.02119,-0.50781 0.02153,-0.51125 0.06459,-0.4396 0.10766,-0.36793 0.150722,-0.29628 0.196371,-0.2291 0.244602,-0.16364 0.292833,-0.0982 0.341064,-0.0327 0.344338,0.0333 0.294383,0.0997 0.24443,0.16623 0.194475,0.23271 0.149518,0.29852 0.106798,0.36639 0.06408,0.43425 0.02136,0.50212 v 0 m -0.724849,1.25126 0.08061,-0.24253 0.04892,-0.28112 0.03583,-0.72761 -0.03583,-0.7276 -0.04961,-0.28525 -0.08268,-0.2384 -0.114376,-0.18604 -0.150207,-0.13367 -0.18948,-0.0806 -0.237712,-0.0269 -0.237022,0.0269 -0.192926,0.0806 -0.150895,0.13505 -0.116444,0.19017 -0.07924,0.23496 -0.0503,0.29696 -0.03307,0.71934 0.03032,0.71933 0.04754,0.27423 0.08199,0.24391 0.109554,0.18949 0.146761,0.13849 0.194993,0.0847 0.248735,0.0283 0.237023,-0.0269 0.192925,-0.0806 0.151584,-0.13505 0.112999,-0.19017 h -6e-6"
       style="font-style:normal;font-weight:normal;font-size:5.64444447px;line-height:1.25;font-family:sans-serif;letter-spacing:0px;word-spacing:0px;fill:#000000;fill-opacity:1;stroke:none;stroke-width:0.26458332"
       id="path219"
       inkscape:connector-curvature="0" />
    <path
       d="m 12.667717,58.38648 -0.735872,0.27009 -0.390674,0.0847 -0.378272,0.0283 -0.459575,-0.0331 -0.419613,-0.0992 -0.3700037,-0.16536 -0.310747,-0.23151 -0.251492,-0.30041 -0.186724,-0.36656 -0.1157554,-0.43615 -0.038585,-0.50368 0.035829,-0.46595 0.107487,-0.41393 0.1791449,-0.3619 0.2508025,-0.30989 0.31471,-0.2496 0.3681077,-0.17828 0.421508,-0.10697 0.474906,-0.0357 0.353467,0.0214 0.360357,0.0641 0.380339,0.11232 0.407899,0.17156 v 0.64768 h -0.04961 l -0.248047,-0.17364 -0.319705,-0.17914 -0.432704,-0.14056 -0.545703,-0.0579 -0.326595,0.0277 -0.290766,0.0832 -0.254937,0.13867 -0.2191087,0.19413 -0.174838,0.24012 -0.124885,0.2794 -0.07493,0.31867 -0.02498,0.35795 0.02618,0.3762 0.07855,0.33211 0.130914,0.28801 0.183279,0.24391 0.2284097,0.19293 0.266306,0.1378 0.304202,0.0827 0.342098,0.0276 0.52641,-0.0524 0.463021,-0.13505 v -1.00587 h -1.099674 v -0.47955 h 1.639866 v 1.76113"
       style="font-style:normal;font-weight:normal;font-size:5.64444447px;line-height:1.25;font-family:sans-serif;letter-spacing:0px;word-spacing:0px;fill:#000000;fill-opacity:1;stroke:none;stroke-width:0.26458332"
       id="path221"
       inkscape:connector-curvature="0" />
    <path
       d="m 15.500964,56.1761 h -0.02756 l -0.225998,-0.0386 -0.256316,-0.0138 -0.235644,0.0269 -0.227376,0.0806 -0.429948,0.27285 v 2.18557 h -0.518143 v -3.07854 h 0.518143 v 0.45475 l 0.290077,-0.21153 0.25287,-0.13849 0.23909,-0.0786 0.243223,-0.0262 0.195682,0.008 0.181901,0.0248 -1e-6,0.53223"
       style="font-style:normal;font-weight:normal;font-size:5.64444447px;line-height:1.25;font-family:sans-serif;letter-spacing:0px;word-spacing:0px;fill:#000000;fill-opacity:1;stroke:none;stroke-width:0.26458332"
       id="path223"
       inkscape:connector-curvature="0" />
    <path
       d="m 18.618086,57.15176 -0.02412,0.35639 -0.07235,0.31678 -0.120578,0.27715 -0.16881,0.23754 -0.209289,0.19051 -0.242018,0.13609 -0.274746,0.0816 -0.307475,0.0272 -0.309886,-0.0272 -0.27647,-0.0816 -0.243051,-0.13609 -0.209634,-0.19051 -0.167604,-0.23754 -0.119717,-0.27715 -0.07183,-0.31678 -0.02394,-0.35639 0.02394,-0.35639 0.07183,-0.31678 0.119717,-0.27716 0.167604,-0.23754 0.209634,-0.19172 0.243051,-0.13694 0.27647,-0.0822 0.309886,-0.0274 0.307475,0.0274 0.274746,0.0822 0.242018,0.13694 0.209289,0.19172 0.16881,0.23754 0.120578,0.27716 0.07235,0.31678 0.02412,0.35639 v 0 m -0.534679,0 -0.05857,-0.5209 -0.07321,-0.20257 -0.102492,-0.16399 -0.128502,-0.12781 -0.15124,-0.0913 -0.173977,-0.0548 -0.196715,-0.0183 -0.199126,0.0183 -0.1757,0.0548 -0.152274,0.0913 -0.128847,0.12781 -0.101285,0.16399 -0.07235,0.20257 -0.05788,0.5209 0.05857,0.50918 0.07321,0.2024 0.102491,0.1676 0.128675,0.13023 0.151756,0.093 0.174839,0.0558 0.197921,0.0186 0.195509,-0.0184 0.173116,-0.0553 0.150723,-0.0922 0.128329,-0.12902 0.103698,-0.16674 0.07407,-0.20257 0.05926,-0.51263 v 0"
       style="font-style:normal;font-weight:normal;font-size:5.64444447px;line-height:1.25;font-family:sans-serif;letter-spacing:0px;word-spacing:0px;fill:#000000;fill-opacity:1;stroke:none;stroke-width:0.26458332"
       id="path225"
       inkscape:connector-curvature="0" />
    <path
       d="m 21.974987,58.68965 h -0.518143 v -0.34176 l -0.501606,0.31695 -0.25218,0.0827 -0.276986,0.0276 -0.229099,-0.0184 -0.202227,-0.0553 -0.175355,-0.0922 -0.148484,-0.12902 -0.118167,-0.16605 -0.08441,-0.2005 -0.05064,-0.23496 -0.01688,-0.26941 v -1.99815 h 0.518143 v 1.75286 l 0.02205,0.40239 0.09371,0.28388 0.08544,0.10473 0.107489,0.0717 0.34451,0.0551 0.210151,-0.0262 0.228065,-0.0786 0.446484,-0.26734 V 55.6111 h 0.518143 l -5e-6,3.07856"
       style="font-style:normal;font-weight:normal;font-size:5.64444447px;line-height:1.25;font-family:sans-serif;letter-spacing:0px;word-spacing:0px;fill:#000000;fill-opacity:1;stroke:none;stroke-width:0.26458332"
       id="path227"
       inkscape:connector-curvature="0" />
    <path
       d="m 25.703959,57.11317 -0.02687,0.35898 -0.08062,0.32728 -0.129536,0.28526 -0.173633,0.2384 -0.198437,0.18121 -0.231511,0.13574 -0.252869,0.0827 -0.268029,0.0276 -0.43546,-0.0524 -0.394119,-0.1626 v 1.28984 h -0.518142 v -4.21404 h 0.518142 v 0.32246 l 0.219108,-0.15916 0.243913,-0.13023 0.267339,-0.0889 0.283876,-0.0296 0.262861,0.0264 0.231855,0.0791 0.200849,0.13178 0.169843,0.18448 0.136254,0.22996 0.09732,0.27096 0.05839,0.31195 0.01947,0.35295 v 3e-5 m -0.534679,0.0138 -0.04754,-0.48645 -0.142627,-0.34588 -0.107832,-0.12058 -0.133325,-0.0861 -0.158819,-0.0517 -0.184313,-0.0172 -0.223931,0.0241 -0.225309,0.0724 -0.432704,0.25356 v 1.7446 l 0.377582,0.13504 0.361046,0.0358 0.204467,-0.0183 0.180695,-0.0548 0.156924,-0.0913 0.133153,-0.12781 0.106109,-0.16364 0.07579,-0.19879 0.06063,-0.50298 v -1e-5"
       style="font-style:normal;font-weight:normal;font-size:5.64444447px;line-height:1.25;font-family:sans-serif;letter-spacing:0px;word-spacing:0px;fill:#000000;fill-opacity:1;stroke:none;stroke-width:0.26458332"
       id="path229"
       inkscape:connector-curvature="0" />
    <path
       d="m 31.960251,58.38648 -0.735873,0.27009 -0.390673,0.0847 -0.378272,0.0283 -0.459575,-0.0331 -0.419613,-0.0992 -0.370003,-0.16536 -0.310748,-0.23151 -0.251492,-0.30041 -0.186724,-0.36656 -0.115756,-0.43615 -0.03859,-0.50368 0.03583,-0.46595 0.107487,-0.41393 0.179145,-0.3619 0.250803,-0.30989 0.31471,-0.2496 0.368108,-0.17828 0.421508,-0.10697 0.474906,-0.0357 0.353467,0.0214 0.360357,0.0641 0.380339,0.11232 0.407899,0.17156 v 0.64768 h -0.04961 L 31.659835,55.3548 31.34013,55.17566 30.907426,55.0351 l -0.545703,-0.0579 -0.326595,0.0277 -0.290766,0.0832 -0.254938,0.13867 -0.219108,0.19413 -0.174838,0.24012 -0.124885,0.2794 -0.07493,0.31867 -0.02498,0.35795 0.02618,0.3762 0.07855,0.33211 0.130914,0.28801 0.183279,0.24391 0.22841,0.19293 0.266306,0.1378 0.304201,0.0827 0.342098,0.0276 0.526411,-0.0524 0.463021,-0.13505 v -1.00597 h -1.099675 v -0.47955 h 1.639866 v 1.76123"
       style="font-style:normal;font-weight:normal;font-size:5.64444447px;line-height:1.25;font-family:sans-serif;letter-spacing:0px;word-spacing:0px;fill:#000000;fill-opacity:1;stroke:none;stroke-width:0.26458332"
       id="path231"
       inkscape:connector-curvature="0" />
    <path
       d="m 35.57898,56.63637 -0.0217,0.51591 -0.06511,0.44252 -0.108521,0.36914 -0.151929,0.29576 -0.196198,0.22548 -0.244085,0.16106 -0.291972,0.0966 -0.339859,0.0322 -0.344509,-0.0327 -0.2949,-0.0982 -0.245291,-0.16364 -0.195682,-0.2291 -0.148311,-0.29696 -0.105936,-0.36725 -0.06356,-0.43753 -0.02119,-0.50781 0.02153,-0.51125 0.0646,-0.43959 0.107659,-0.36794 0.150723,-0.29628 0.19637,-0.2291 0.244602,-0.16364 0.292833,-0.0982 0.341064,-0.0327 0.344338,0.0332 0.294383,0.0997 0.24443,0.16623 0.194475,0.23271 0.149518,0.29852 0.106798,0.36639 0.06408,0.43425 0.02136,0.50212 v 0 m -0.724848,1.25126 0.08061,-0.24253 0.04892,-0.28113 0.03583,-0.7276 -0.03583,-0.7276 -0.04961,-0.28526 -0.08268,-0.2384 -0.114376,-0.18603 -0.150208,-0.13367 -0.18948,-0.0806 -0.237712,-0.0269 -0.237022,0.0269 -0.192926,0.0806 -0.150894,0.13504 -0.116445,0.19017 -0.07924,0.23496 -0.0503,0.29697 -0.03307,0.71933 0.03032,0.71934 0.04754,0.27423 0.08199,0.24391 0.109554,0.18948 0.146761,0.13849 0.194993,0.0848 0.248735,0.0282 0.237023,-0.0269 0.192925,-0.0806 0.151585,-0.13505 0.112999,-0.19017 h -6e-6"
       style="font-style:normal;font-weight:normal;font-size:5.64444447px;line-height:1.25;font-family:sans-serif;letter-spacing:0px;word-spacing:0px;fill:#000000;fill-opacity:1;stroke:none;stroke-width:0.26458332"
       id="path233"
       inkscape:connector-curvature="0" />
    <path
       d="m 39.18944,55.20045 -1.857596,3.4892 h -0.5898 l 1.976107,-3.62149 h -2.337153 v -0.48231 h 2.808442 v 0.6146"
       style="font-style:normal;font-weight:normal;font-size:5.64444447px;line-height:1.25;font-family:sans-serif;letter-spacing:0px;word-spacing:0px;fill:#000000;fill-opacity:1;stroke:none;stroke-width:0.26458332"
       id="path235"
       inkscape:connector-curvature="0" />
    <path
       d="m 32.658532,28.84857 h 3.32492 V 29.299 h -3.32492 v -0.45043"
       style="fill:#231f20;fill-opacity:1;fill-rule:nonzero;stroke:none;stroke-width:0.01485003"
       id="path32"
       inkscape:connector-curvature="0" />
    <path
       d="m 33.171749,26.94441 0.0221,0.45563 0.02831,0.1706 0.04043,0.13511 0.053,0.10161 0.06603,0.0701 0.07951,0.0406 0.09345,0.0131 0.09336,-0.0131 0.07947,-0.0406 0.06602,-0.0701 0.05302,-0.10161 0.04046,-0.13511 0.02835,-0.1706 0.02215,-0.45563 -0.02215,-0.45815 -0.02835,-0.17137 -0.04046,-0.13563 -0.05302,-0.10193 -0.06602,-0.0703 -0.07947,-0.0407 -0.09336,-0.0131 -0.09221,0.0131 -0.07893,0.0407 -0.06595,0.0703 -0.05328,0.10193 -0.04091,0.13563 -0.02884,0.17137 -0.02271,0.45815 v 0 m 1.420702,0 -0.02,0.23924 -0.05783,0.21527 -0.09242,0.18884 -0.123772,0.15999 -0.151888,0.12869 -0.176764,0.0949 -0.198402,0.0588 -0.216802,0.0201 -0.21543,-0.0201 -0.197371,-0.0588 -0.176025,-0.0949 -0.151393,-0.12869 -0.123472,-0.15999 -0.09226,-0.18884 -0.05777,-0.21527 -0.01999,-0.23924 0.01999,-0.23927 0.05777,-0.2153 0.09226,-0.18888 0.123472,-0.16001 0.151393,-0.12872 0.176025,-0.095 0.197371,-0.0588 0.21543,-0.0201 0.216802,0.0201 0.198402,0.0588 0.176764,0.095 0.151888,0.12872 0.123772,0.16001 0.09242,0.18888 0.05783,0.2153 0.02,0.23927"
       style="fill:#231f20;fill-opacity:1;fill-rule:nonzero;stroke:none;stroke-width:0.01485003"
       id="path34"
       inkscape:connector-curvature="0" />
    <path
       d="m 36.438754,25.32366 -0.01471,0.0832 -0.04224,0.0656 -0.06697,0.0497 -0.08888,0.0354 h -0.07232 l -0.07139,-0.22906 -0.07265,-0.13892 -0.08145,-0.0687 -0.09779,-0.0185 -0.09269,0.0241 -0.07116,0.0764 -0.04562,0.1346 -0.0161,0.19888 v 0.3445 h 0.451144 v 0.15327 h -0.451144 v 1.5567 l 0.0059,0.1602 0.01405,0.0499 0.02736,0.0345 0.04512,0.0225 0.0673,0.0141 0.218921,0.0167 v 0.1191 h -1.250668 v -0.1191 l 0.147579,-0.0167 0.07578,-0.0366 0.02792,-0.0844 0.004,-0.1602 v -1.5567 h -0.255272 v -0.11509 l 0.255272,-0.0382 v -0.0851 l 0.01189,-0.14465 0.03697,-0.14314 0.06399,-0.13617 0.09296,-0.12369 0.123867,-0.10576 0.156715,-0.0823 0.191507,-0.0534 0.228239,-0.019 0.225043,0.0232 0.171638,0.0667 0.06304,0.0483 0.04639,0.0575 0.02864,0.0662 0.0098,0.0743"
       style="fill:#231f20;fill-opacity:1;fill-rule:nonzero;stroke:none;stroke-width:0.01485003"
       id="path36"
       inkscape:connector-curvature="0" />
    <path
       d="m 43.264123,18.30849 v 2.44031 l 0.0078,0.33657 0.01858,0.10491 0.03618,0.0724 0.05964,0.0473 0.08897,0.0295 0.289408,0.0349 v 0.25042 h -2.163206 v -0.25042 l 0.211883,-0.0349 0.06514,-0.0295 0.04366,-0.0473 0.02649,-0.0724 0.0136,-0.10491 0.0057,-0.33655 v -2.49391 l -0.02708,-0.21939 -0.03605,-0.10253 -0.05302,-0.0926 -0.07146,-0.0788 -0.09137,-0.061 -0.11275,-0.0395 -0.135601,-0.014 -0.111068,0.01 -0.102101,0.0284 -0.09338,0.0452 -0.08491,0.0603 -0.145406,0.15875 -0.114509,0.19793 -0.0856,0.22307 -0.05868,0.23418 -0.03375,0.23125 -0.01081,0.2143 v 1.6984 l 0.008,0.33657 0.01891,0.10491 0.03682,0.0724 0.0607,0.0473 0.09056,0.0295 0.294558,0.0349 v 0.25042 h -2.30621 v -0.25042 l 0.289406,-0.0349 0.08897,-0.0295 0.05964,-0.0473 0.03618,-0.0724 0.01858,-0.10491 0.0078,-0.33655 v -2.80695 l -0.0116,-0.23318 -0.02188,-0.0731 -0.03917,-0.0511 -0.06137,-0.0344 -0.0885,-0.0228 -0.278066,-0.032 v -0.25037 l 0.793381,-0.11839 0.3179,-0.0374 0.247496,-0.0139 0.207882,0.0156 0.07595,0.0239 0.05909,0.0386 0.0436,0.0562 0.02946,0.0767 0.02194,0.22681 v 0.5989 l 0.111271,-0.28106 0.137157,-0.22931 0.159583,-0.18196 0.178545,-0.13901 0.194049,-0.10046 0.206088,-0.0663 0.214668,-0.0366 0.219786,-0.0112 0.263839,0.0186 0.239535,0.0562 0.211879,0.0945 0.180871,0.13356 0.146513,0.17338 0.108801,0.21392 0.06774,0.25521 0.02332,0.29722"
       style="fill:#231f20;fill-opacity:1;fill-rule:nonzero;stroke:none;stroke-width:0.01485003"
       id="path38"
       inkscape:connector-curvature="0" />
    <path
       inkscape:connector-curvature="0"
       style="fill:#231f20;fill-opacity:1;fill-rule:nonzero;stroke:none;stroke-width:0.01485003"
       d="m 45.919009,15.94868 -0.01284,0.13514 -0.03788,0.12835 -0.06198,0.11811 -0.08513,0.10439 -0.10734,0.0872 -0.128598,0.0666 -0.148911,0.0425 -0.168276,0.0149 -0.168652,-0.0149 -0.149903,-0.0425 -0.130002,-0.0666 -0.108949,-0.0872 -0.08674,-0.10439 -0.06339,-0.11811 -0.03888,-0.12835 -0.01321,-0.13514 0.01321,-0.13851 0.03888,-0.13161 0.06339,-0.12114 0.08674,-0.10711 0.108949,-0.0895 0.130002,-0.0683 0.149903,-0.0436 0.168652,-0.0153 0.168276,0.0153 0.148911,0.0436 0.128598,0.0683 0.10734,0.0895 0.08513,0.10711 0.06198,0.12114 0.03788,0.13161 0.01284,0.13851 v 0"
       id="path2529" />
    <path
       inkscape:connector-curvature="0"
       style="fill:#231f20;fill-opacity:1;fill-rule:nonzero;stroke:none;stroke-width:0.01485003"
       d="m 45.847439,17.51298 v 3.23582 l 0.008,0.33657 0.01891,0.10491 0.03682,0.0724 0.0607,0.0473 0.09056,0.0295 0.294557,0.0349 v 0.25042 h -2.30636 v -0.25042 l 0.289493,-0.0349 0.089,-0.0295 0.05966,-0.0473 0.03619,-0.0724 0.01858,-0.10491 0.0078,-0.33655 v -2.80695 l -0.01411,-0.23318 -0.02408,-0.0731 -0.04116,-0.0511 -0.06254,-0.0344 -0.08821,-0.0228 -0.270635,-0.032 v -0.25037 l 0.786756,-0.11839 0.322083,-0.0374 0.249939,-0.0139 0.207968,0.0156 0.07597,0.0239 0.05911,0.0386 0.04361,0.0562 0.02947,0.0767 0.02194,0.22681"
       id="path40" />
    <path
       d="m 58.692263,17.67395 -0.0083,0.1107 -0.02297,0.098 -0.0782,0.16101 -0.101645,0.1191 -0.101615,0.083 -0.143007,0.0448 -0.133983,-0.11358 -0.146552,-0.0842 -0.158275,-0.0524 -0.16915,-0.018 -0.137055,0.019 -0.133398,0.0562 -0.125237,0.0921 -0.11257,0.12652 -0.0954,0.15963 -0.07372,0.19135 -0.04753,0.22174 -0.01685,0.25074 v 1.61776 l 0.0106,0.3315 0.02897,0.10336 0.05872,0.0714 0.09895,0.0467 0.14965,0.0292 0.493332,0.0348 V 21.6248 H 55.08996 v -0.25042 l 0.289407,-0.0348 0.08897,-0.0292 0.05964,-0.0467 0.03618,-0.0714 0.01858,-0.10336 0.0078,-0.33148 v -2.81571 l -0.01158,-0.23318 -0.02187,-0.0731 -0.03915,-0.0511 -0.06136,-0.0344 -0.0885,-0.0228 -0.27813,-0.032 v -0.25037 l 0.826924,-0.11839 0.332116,-0.0374 0.253345,-0.0139 0.173216,0.0184 0.06629,0.0268 0.0533,0.0419 0.04073,0.0595 0.02857,0.0796 0.02235,0.2296 v 0.83145 l 0.09861,-0.34059 0.114028,-0.28056 0.12808,-0.22505 0.140767,-0.17403 0.152083,-0.12752 0.162035,-0.0855 0.170617,-0.048 0.177833,-0.015 0.151637,0.0126 0.132765,0.0359 0.113475,0.0567 0.09377,0.0748 0.07366,0.0903 0.05312,0.10318 0.03218,0.11346 0.01082,0.12112"
       style="fill:#231f20;fill-opacity:1;fill-rule:nonzero;stroke:none;stroke-width:0.01485003"
       id="path42"
       inkscape:connector-curvature="0" />
    <path
       d="m 61.865566,17.28058 0.05762,0.0326 0.0463,0.0423 0.06368,0.10266 0.03352,0.10771 0.01345,0.0901 0.09831,0.85803 h -0.241305 l -0.107303,-0.31108 -0.11422,-0.25837 -0.121345,-0.20913 -0.128675,-0.16335 -0.136215,-0.12103 -0.14396,-0.0822 -0.151912,-0.0468 -0.160075,-0.0148 -0.13587,0.0104 -0.124548,0.0308 -0.111127,0.0507 -0.09562,0.0701 -0.07801,0.089 -0.05832,0.1073 -0.03652,0.1251 -0.01265,0.14239 0.0243,0.16967 0.06866,0.14652 0.10668,0.12763 0.13837,0.11303 0.163717,0.10272 0.182733,0.0967 0.39715,0.19238 0.201742,0.10425 0.195408,0.11535 0.182732,0.13072 0.163718,0.15037 0.13837,0.1743 0.10668,0.20252 0.06866,0.23502 0.0243,0.27179 -0.0078,0.14885 -0.02338,0.14437 -0.03878,0.13918 -0.05402,0.13329 -0.0691,0.12669 -0.08403,0.11938 -0.0988,0.11137 -0.113413,0.10265 -0.12787,0.0932 -0.14217,0.0831 -0.15631,0.0722 -0.1703,0.0607 -0.184125,0.0484 -0.197797,0.0355 -0.211313,0.0218 -0.224672,0.007 -0.313548,-0.0111 -0.311045,-0.0371 -0.30937,-0.0689 -0.308537,-0.10658 -0.112283,-0.0663 -0.07539,-0.0822 -0.0486,-0.10402 -0.03192,-0.13161 -0.116125,-0.75115 h 0.24131 l 0.13564,0.29919 0.140158,0.24366 0.146667,0.19295 0.155165,0.14705 0.165648,0.10599 0.178117,0.0697 0.192575,0.0383 0.20902,0.0117 0.149513,-0.0117 0.13843,-0.0346 0.12462,-0.057 0.10808,-0.0789 0.08881,-0.10028 0.06682,-0.12113 0.04209,-0.14147 0.01465,-0.16127 -0.0242,-0.18644 -0.06837,-0.16016 -0.106243,-0.13837 -0.1378,-0.12109 -0.163045,-0.10832 -0.181977,-0.10005 -0.395515,-0.19329 -0.395518,-0.21427 -0.181977,-0.12625 -0.163045,-0.14501 -0.1378,-0.16826 -0.106243,-0.19603 -0.06837,-0.2283 -0.0242,-0.26506 0.02383,-0.25774 0.07294,-0.24582 0.12427,-0.22697 0.08207,-0.10425 0.09573,-0.097 0.109658,-0.0888 0.123867,-0.0798 0.138348,-0.0699 0.153107,-0.0591 0.168143,-0.0475 0.183452,-0.035 0.199035,-0.0216 0.214895,-0.007 0.28365,0.008 0.289525,0.0318 0.297933,0.0654 0.308877,0.109"
       style="fill:#231f20;fill-opacity:1;fill-rule:nonzero;stroke:none;stroke-width:0.01485003"
       id="path44"
       inkscape:connector-curvature="0" />
    <path
       inkscape:connector-curvature="0"
       style="fill:#231f20;fill-opacity:1;fill-rule:nonzero;stroke:none;stroke-width:0.01485003"
       d="m 64.591733,15.94868 -0.01283,0.13514 -0.03787,0.12835 -0.06196,0.11811 -0.08511,0.10439 -0.107315,0.0872 -0.128575,0.0666 -0.148892,0.0425 -0.16827,0.0149 -0.168653,-0.0149 -0.149905,-0.0425 -0.130005,-0.0666 -0.108947,-0.0872 -0.08674,-0.10439 -0.06339,-0.11811 -0.03888,-0.12835 -0.01323,-0.13514 0.01323,-0.13851 0.03888,-0.13161 0.06339,-0.12114 0.08674,-0.10711 0.108947,-0.0895 0.130005,-0.0683 0.149905,-0.0436 0.168653,-0.0153 0.16827,0.0153 0.148892,0.0436 0.128575,0.0683 0.107315,0.0895 0.08511,0.10711 0.06196,0.12114 0.03787,0.13161 0.01283,0.13851 v 0"
       id="path2533" />
    <path
       inkscape:connector-curvature="0"
       style="fill:#231f20;fill-opacity:1;fill-rule:nonzero;stroke:none;stroke-width:0.01485003"
       d="m 64.520303,17.51298 v 3.23582 l 0.008,0.33657 0.0189,0.10491 0.03682,0.0724 0.0607,0.0473 0.09056,0.0295 0.294558,0.0349 v 0.25042 h -2.306063 v -0.25042 l 0.28932,-0.0349 0.08895,-0.0295 0.05962,-0.0473 0.03617,-0.0724 0.01858,-0.10491 0.0078,-0.33655 v -2.80695 l -0.0141,-0.23318 -0.02407,-0.0731 -0.04114,-0.0511 -0.06251,-0.0344 -0.08816,-0.0228 -0.27046,-0.032 v -0.25037 l 0.786493,-0.11839 0.32201,-0.0374 0.249977,-0.0139 0.20803,0.0156 0.07598,0.0239 0.0591,0.0386 0.04359,0.0562 0.02945,0.0767 0.02193,0.22681"
       id="path46" />
    <path
       d="m 49.467573,17.15539 v 0.24146 l 0.26344,0.0256 0.162537,0.0525 0.04405,0.0363 0.02385,0.0432 9e-4,0.10768 -0.03844,0.13693 -0.76834,2.45664 -0.921593,-2.43867 -0.02873,-0.0933 -0.01009,-0.0793 0.01212,-0.0665 0.03788,-0.0549 0.06722,-0.0444 0.100114,-0.035 0.313173,-0.0466 V 17.15557 H 46.31224 v 0.24146 l 0.209201,0.0342 0.137156,0.0528 0.05046,0.0412 0.04312,0.0552 0.07848,0.16513 1.537424,3.92401 h 0.697208 l 1.278143,-3.8704 0.0734,-0.18107 0.04532,-0.0641 0.05904,-0.0499 0.07872,-0.0381 0.104379,-0.0289 0.309623,-0.0401 v -0.24146 h -1.546335"
       style="fill:#231f20;fill-opacity:1;fill-rule:nonzero;stroke:none;stroke-width:0.01485003"
       id="path48"
       inkscape:connector-curvature="0" />
    <path
       d="m 53.480944,18.99576 h -1.383728 l 0.01934,-0.39782 0.04245,-0.34395 0.06557,-0.29033 0.08871,-0.23697 0.111879,-0.18386 0.135066,-0.13102 0.158273,-0.0784 0.181503,-0.0261 0.15377,0.0183 0.132934,0.0546 0.112202,0.0902 0.09157,0.12518 0.07104,0.15954 0.05062,0.19328 0.03029,0.2264 0.01008,0.25889 -0.0202,0.29613 -0.05137,0.26595 h -4e-6 M 54.72344,18.8002 54.71269,18.5686 54.68145,18.35612 54.63123,18.16217 54.56353,17.9862 54.47985,17.82761 54.3817,17.68583 54.270589,17.56029 54.14802,17.45041 l -0.132522,-0.0948 -0.140968,-0.0803 -0.301255,-0.11936 -0.316976,-0.0682 -0.320653,-0.0217 -0.217732,0.0108 -0.213273,0.0319 -0.207492,0.0523 -0.200386,0.0721 -0.191958,0.0911 -0.182208,0.10951 -0.171133,0.12721 -0.158736,0.14423 -0.145017,0.16057 -0.129973,0.17623 -0.113607,0.19122 -0.09592,0.2055 -0.07691,0.21913 -0.05657,0.23206 -0.03491,0.24432 -0.01193,0.25589 0.01045,0.26179 0.03082,0.2487 0.05041,0.23509 0.06921,0.22094 0.08723,0.20628 0.104458,0.19109 0.120904,0.17537 0.136564,0.15914 0.151441,0.14238 0.16553,0.1251 0.178836,0.10729 0.191355,0.089 0.20309,0.0701 0.214039,0.0507 0.224203,0.0308 0.233582,0.0104 0.311091,-0.0239 0.288664,-0.0667 0.264773,-0.10214 0.239422,-0.13011 0.212608,-0.15064 0.184333,-0.16374 0.154595,-0.16939 0.123396,-0.16762 -0.116273,-0.16989 -0.218741,0.18577 -0.126641,0.0791 -0.137319,0.068 -0.147371,0.0555 -0.156795,0.0414 -0.165595,0.0259 -0.173766,0.009 -0.209049,-0.0144 -0.217949,-0.0502 -0.21648,-0.0967 -0.104449,-0.0691 -0.100194,-0.0847 -0.09464,-0.10173 -0.08779,-0.12002 -0.07965,-0.13967 -0.07021,-0.16064 -0.05948,-0.18296 -0.04744,-0.2066 -0.03412,-0.23158 -0.01949,-0.2579 h 2.592221 l 0.03131,-0.29274 0.0045,-0.22568"
       style="fill:#231f20;fill-opacity:1;fill-rule:nonzero;stroke:none;stroke-width:0.01485003"
       id="path50"
       inkscape:connector-curvature="0" />
    <path
       d="m 71.027733,17.15539 v 0.24146 l 0.325615,0.0452 0.09205,0.0343 0.05442,0.0433 0.02392,0.0531 5e-4,0.0637 -0.04025,0.16261 -0.76344,2.34259 -0.926492,-2.32462 -0.02878,-0.0933 -0.0101,-0.0793 0.0121,-0.0665 0.03787,-0.0549 0.0672,-0.0444 0.10008,-0.035 0.313022,-0.0466 v -0.24146 h -1.752895 -0.66038 -0.858187 v -1.07262 h -0.330708 l -0.9654,1.07262 -0.536235,0.0805 v 0.24131 h 0.536235 v 3.24473 l 0.0185,0.2659 0.05413,0.2172 0.08765,0.17258 0.11908,0.13205 0.148413,0.0956 0.175652,0.0632 0.200793,0.035 0.223842,0.0107 0.675935,-0.028 0.575478,-0.0613 v -0.25042 l -0.250148,-0.007 -0.20898,-0.0255 -0.17022,-0.0481 -0.13387,-0.0753 -0.09993,-0.10718 -0.0684,-0.14363 -0.03927,-0.18468 -0.01255,-0.23035 v -3.075 h 1.087618 l 0.07732,0.0115 0.06923,0.0327 0.05695,0.0511 0.04048,0.0668 1.82388,4.34613 -0.08918,0.1958 -0.106768,0.16069 -0.119265,0.12835 -0.126672,0.0988 -0.12899,0.072 -0.126218,0.048 -0.118357,0.0268 -0.105403,0.008 -0.24845,-0.0215 -0.25094,-0.0634 -0.235875,-0.10363 -0.203255,-0.14211 -0.08034,0.0716 0.0097,0.14848 0.03107,0.15792 0.05537,0.15834 0.08261,0.14975 0.112775,0.13215 0.14588,0.10556 0.181915,0.0699 0.220888,0.0253 0.213822,-0.0159 0.2064,-0.0541 0.199913,-0.10207 0.194372,-0.15979 0.189768,-0.22726 0.186112,-0.30446 0.18339,-0.39142 0.181618,-0.48811 1.278137,-3.87041 0.07331,-0.18107 0.0453,-0.0641 0.05902,-0.0499 0.07871,-0.0381 0.104375,-0.0289 0.309618,-0.0401 v -0.24146 h -1.546183"
       style="fill:#231f20;fill-opacity:1;fill-rule:nonzero;stroke:none;stroke-width:0.01485003"
       id="path52"
       inkscape:connector-curvature="0" />
    <path
       inkscape:connector-curvature="0"
       style="fill:#231f20;fill-opacity:1;fill-rule:nonzero;stroke:none;stroke-width:0.01485003"
       d="m 43.821741,23.46208 v -0.24131 h -2.157557 l -1.332792,4.74155 -1.407931,-4.74155 h -2.082717 v 0.24131 l 0.294975,0.035 0.09468,0.0298 0.06618,0.0479 0.04272,0.0735 0.02428,0.10652 0.01339,0.34183 v 4.32641 l -0.01086,0.33655 -0.02207,0.10491 -0.04072,0.0724 -0.06503,0.0473 -0.095,0.0295 -0.302556,0.0349 v 0.25024 h 1.591181 V 29.0486 l -0.379662,-0.0349 -0.107313,-0.0295 -0.06554,-0.0473 -0.03369,-0.0724 -0.01177,-0.1049 0.0025,-0.33654 v -3.94791 l 1.471341,4.81483 h 1.063711 l 1.483815,-5.24694 v 4.38002 l -0.01088,0.33655 -0.02209,0.10491 -0.04073,0.0724 -0.06503,0.0473 -0.09499,0.0295 -0.302497,0.0349 v 0.25024 h 2.502673 v -0.25024 l -0.306189,-0.0349 -0.09515,-0.0295 -0.06447,-0.0473 -0.03976,-0.0724 -0.02101,-0.1049 -0.0097,-0.33654 v -4.32641 l 0.0097,-0.3418 0.02102,-0.10652 0.03977,-0.0735 0.06447,-0.048 0.09515,-0.0298 0.306171,-0.035"
       id="path54" />
    <path
       d="m 46.441285,27.02858 -0.225762,0.0499 -0.205857,0.0648 -0.18281,0.0829 -0.156619,0.10404 -0.127286,0.12834 -0.09481,0.15579 -0.05919,0.18637 -0.02043,0.22009 0.01048,0.16149 0.02977,0.13656 0.04653,0.11268 0.06078,0.0898 0.07251,0.068 0.08172,0.0473 0.08841,0.0276 0.09259,0.009 0.14601,-0.0218 0.123471,-0.0623 0.101878,-0.0979 0.08123,-0.12867 0.06153,-0.15465 0.04278,-0.17579 0.02497,-0.19212 0.0081,-0.20362 v -0.60797 m 1.296113,-0.89385 v 2.33297 l 0.01035,0.25044 0.02079,0.0945 0.03818,0.0764 0.0608,0.06 0.08866,0.0454 0.121749,0.0327 0.160075,0.0217 v 0.25024 l -0.479359,0.0671 -0.351945,0.0134 -0.216714,-0.01 -0.188022,-0.0311 -0.159956,-0.0554 -0.132516,-0.0826 -0.105702,-0.11277 -0.07952,-0.14587 -0.05395,-0.18191 -0.02902,-0.22089 -0.112484,0.211 -0.128719,0.17812 -0.14359,0.1467 -0.157101,0.11675 -0.169247,0.0883 -0.180031,0.0612 -0.189454,0.0357 -0.197511,0.0116 -0.23689,-0.0183 -0.218562,-0.0542 -0.196147,-0.0892 -0.169646,-0.12328 -0.13906,-0.15638 -0.104387,-0.18852 -0.06563,-0.21973 -0.02278,-0.24998 0.01061,-0.17077 0.03153,-0.15739 0.05201,-0.14469 0.07204,-0.13264 0.09163,-0.12128 0.110769,-0.11057 0.129467,-0.10054 0.14772,-0.0912 0.348418,-0.15694 0.41609,-0.12751 0.480204,-0.10343 0.540759,-0.0847 v -0.93852 l -0.0082,-0.16917 -0.02546,-0.15681 -0.04411,-0.14131 -0.06412,-0.12267 -0.0855,-0.10088 -0.108239,-0.0759 -0.132348,-0.0479 -0.157823,-0.0167 -0.138628,0.009 -0.120821,0.0278 -0.102807,0.0452 -0.08458,0.0616 -0.06615,0.0771 -0.04751,0.0917 -0.02866,0.10531 -0.0096,0.11798 0.01902,0.25143 0.05241,0.25812 -0.0894,0.0895 -0.204408,0.0726 -0.197729,0.0257 -0.119578,-0.0103 -0.109405,-0.03 -0.09745,-0.0484 -0.08372,-0.0656 -0.06821,-0.0815 -0.05092,-0.0962 -0.03186,-0.10957 -0.01102,-0.12171 0.0083,-0.10199 0.02443,-0.0979 0.03995,-0.0934 0.05487,-0.0886 0.152024,-0.1615 0.204297,-0.13823 0.251645,-0.11226 0.294068,-0.0836 0.331569,-0.0521 0.364142,-0.018 0.441179,0.0243 0.373536,0.0716 0.162251,0.0528 0.14636,0.0638 0.130808,0.0745 0.115596,0.0849 0.100724,0.0951 0.08619,0.105 0.072,0.11461 0.05815,0.12395 0.04463,0.13301 0.03146,0.1418 0.02476,0.30885"
       style="fill:#231f20;fill-opacity:1;fill-rule:nonzero;stroke:none;stroke-width:0.01485003"
       id="path56"
       inkscape:connector-curvature="0" />
    <path
       d="m 52.904017,25.98287 v 2.44028 l 0.0078,0.33655 0.01858,0.10491 0.03618,0.0724 0.05964,0.0473 0.08897,0.0295 0.289408,0.0349 v 0.25024 h -2.163206 v -0.25024 l 0.211883,-0.0349 0.06514,-0.0295 0.04367,-0.0473 0.02649,-0.0724 0.0136,-0.1049 0.0057,-0.33654 V 25.9292 l -0.0271,-0.21945 -0.03608,-0.10254 -0.05305,-0.0926 -0.07149,-0.0788 -0.09139,-0.0611 -0.112767,-0.0395 -0.135607,-0.014 -0.111068,0.01 -0.102101,0.0284 -0.09338,0.0453 -0.08491,0.0603 -0.145406,0.15877 -0.114508,0.19794 -0.0856,0.22308 -0.05868,0.23418 -0.03375,0.23124 -0.01081,0.21426 v 1.69853 l 0.008,0.33655 0.01891,0.10491 0.03682,0.0724 0.0607,0.0473 0.09056,0.0295 0.294557,0.0349 v 0.25024 h -2.30621 v -0.25024 l 0.28949,-0.0349 0.089,-0.0295 0.05966,-0.0473 0.03619,-0.0724 0.01858,-0.1049 0.0078,-0.33654 V 25.6162 l -0.01161,-0.23321 -0.02189,-0.0731 -0.03918,-0.0511 -0.06139,-0.0344 -0.08853,-0.0229 -0.278142,-0.0321 v -0.25024 l 0.793436,-0.11849 0.317864,-0.0374 0.247475,-0.014 0.207883,0.0156 0.07595,0.0239 0.0591,0.0386 0.0436,0.0562 0.02946,0.0768 0.02194,0.2269 v 0.59887 l 0.11132,-0.28105 0.137195,-0.22931 0.159608,-0.18196 0.178563,-0.13901 0.194058,-0.10046 0.206094,-0.0663 0.214669,-0.0366 0.219786,-0.0112 0.263839,0.0186 0.239535,0.0562 0.211879,0.0945 0.180871,0.13357 0.146513,0.17338 0.108801,0.21393 0.06774,0.25521 0.02332,0.29723"
       style="fill:#231f20;fill-opacity:1;fill-rule:nonzero;stroke:none;stroke-width:0.01485003"
       id="path58"
       inkscape:connector-curvature="0" />
    <path
       inkscape:connector-curvature="0"
       style="fill:#231f20;fill-opacity:1;fill-rule:nonzero;stroke:none;stroke-width:0.01485003"
       d="m 55.532026,23.62287 -0.01283,0.13519 -0.03787,0.12839 -0.06196,0.11813 -0.08512,0.10441 -0.10733,0.0872 -0.1286,0.0666 -0.148931,0.0425 -0.168318,0.0149 -0.168654,-0.0149 -0.149904,-0.0425 -0.130003,-0.0666 -0.108949,-0.0872 -0.08674,-0.10441 -0.06339,-0.11813 -0.03888,-0.12839 -0.01321,-0.13519 0.01321,-0.13851 0.03888,-0.1316 0.06339,-0.12111 0.08674,-0.10707 0.108949,-0.0895 0.130003,-0.0683 0.149904,-0.0436 0.168654,-0.0153 0.168318,0.0153 0.148931,0.0436 0.1286,0.0683 0.10733,0.0895 0.08512,0.10707 0.06196,0.12111 0.03787,0.1316 0.01283,0.13851 v 0"
       id="path2537" />
    <path
       inkscape:connector-curvature="0"
       style="fill:#231f20;fill-opacity:1;fill-rule:nonzero;stroke:none;stroke-width:0.01485003"
       d="m 55.460446,25.18734 v 3.23581 l 0.008,0.33655 0.01891,0.10491 0.03682,0.0724 0.0607,0.0473 0.09056,0.0295 0.294557,0.0349 v 0.25024 h -2.306205 v -0.25024 l 0.289405,-0.0349 0.08897,-0.0295 0.05964,-0.0473 0.03618,-0.0724 0.01858,-0.1049 0.0078,-0.33654 V 25.6162 l -0.01411,-0.23321 -0.02408,-0.0731 -0.04115,-0.0511 -0.06252,-0.0344 -0.08819,-0.0229 -0.270548,-0.0321 v -0.25024 l 0.786679,-0.11849 0.322032,-0.0374 0.249917,-0.014 0.208029,0.0156 0.07598,0.0239 0.0591,0.0386 0.04359,0.0562 0.02945,0.0768 0.02192,0.2269"
       id="path60" />
    <path
       d="m 58.910703,24.8296 v 0.32177 h -0.98307 v 3.07501 l 0.01255,0.23039 0.03925,0.18472 0.06837,0.14365 0.09989,0.1072 0.133825,0.0753 0.17017,0.0481 0.208925,0.0255 0.250093,0.007 v 0.25024 l -0.575418,0.0616 -0.325822,0.0203 -0.350173,0.008 -0.223792,-0.0107 -0.200758,-0.035 -0.175625,-0.0633 -0.148395,-0.0956 -0.119067,-0.13206 -0.08764,-0.17259 -0.05412,-0.21719 -0.0185,-0.26588 v -3.2449 h -0.536387 v -0.24131 l 0.536387,-0.0805 0.9654,-1.07249 h 0.330855 v 1.07249 h 0.983072"
       style="fill:#231f20;fill-opacity:1;fill-rule:nonzero;stroke:none;stroke-width:0.01485003"
       id="path62"
       inkscape:connector-curvature="0" />
    <path
       d="m 60.269336,27.06437 0.01147,0.52028 0.03505,0.43731 0.05957,0.35852 0.08503,0.28394 0.11142,0.21355 0.0659,0.0817 0.07285,0.0657 0.07992,0.0501 0.08711,0.0352 0.196247,0.0275 0.19624,-0.0275 0.0871,-0.0352 0.07991,-0.0501 0.07284,-0.0657 0.06589,-0.0817 0.111393,-0.21355 0.085,-0.28394 0.05954,-0.35852 0.03503,-0.43731 0.01148,-0.52028 -0.01148,-0.52323 -0.03503,-0.43953 -0.05954,-0.36011 -0.085,-0.28501 -0.111393,-0.21419 -0.06589,-0.0819 -0.07284,-0.0658 -0.07991,-0.0502 -0.0871,-0.0352 -0.09441,-0.0207 -0.101832,-0.007 -0.193688,0.0275 -0.08636,0.0352 -0.07947,0.0502 -0.07267,0.0658 -0.06593,0.0819 -0.111995,0.21419 -0.08602,0.28501 -0.06066,0.36011 -0.03594,0.43953 -0.01185,0.52323 v 0 m 2.985745,0 -0.01065,0.25736 -0.03138,0.24542 -0.05126,0.23282 -0.07029,0.21958 -0.08846,0.20571 -0.105787,0.19119 -0.12226,0.17603 -0.13788,0.16023 -0.15265,0.14378 -0.166568,0.1267 -0.179635,0.10896 -0.191847,0.0906 -0.203213,0.0716 -0.213722,0.0519 -0.223383,0.0316 -0.23219,0.0107 -0.23062,-0.0107 -0.22201,-0.0316 -0.212532,-0.0519 -0.202193,-0.0716 -0.190985,-0.0906 -0.178915,-0.10896 -0.165977,-0.1267 -0.152178,-0.14378 -0.137515,-0.16023 -0.121982,-0.17603 -0.105588,-0.19119 -0.08833,-0.20571 -0.07021,-0.21958 -0.05122,-0.23282 -0.03137,-0.24542 -0.01065,-0.25736 0.01065,-0.25739 0.03137,-0.24543 0.05122,-0.23283 0.07021,-0.21959 0.08833,-0.2057 0.105588,-0.19118 0.121982,-0.17601 0.137515,-0.1602 0.152178,-0.14376 0.165977,-0.12667 0.178915,-0.10894 0.190985,-0.0906 0.202193,-0.0716 0.212532,-0.0519 0.22201,-0.0316 0.23062,-0.0107 0.23219,0.0107 0.223383,0.0316 0.213722,0.0519 0.203213,0.0716 0.191847,0.0906 0.179635,0.10894 0.166568,0.12667 0.15265,0.14376 0.13788,0.1602 0.12226,0.17601 0.105787,0.19118 0.08846,0.2057 0.07029,0.21959 0.05126,0.23283 0.03138,0.24543 0.01065,0.25739"
       style="fill:#231f20;fill-opacity:1;fill-rule:nonzero;stroke:none;stroke-width:0.01485003"
       id="path64"
       inkscape:connector-curvature="0" />
    <path
       d="m 65.124701,26.72462 v 2.1007 l 0.158697,0.11729 0.16633,0.0837 0.171398,0.0502 0.173902,0.0167 0.218805,-0.0245 0.09766,-0.0318 0.08994,-0.0458 0.0823,-0.0606 0.07473,-0.0762 0.06724,-0.0926 0.05983,-0.10973 0.09775,-0.27399 0.06905,-0.35181 0.04097,-0.43583 0.01353,-0.52603 -0.01915,-0.50607 -0.0535,-0.39985 -0.082,-0.30556 -0.104625,-0.22322 -0.121375,-0.15283 -0.132265,-0.0944 -0.137277,-0.0479 -0.136425,-0.0133 -0.152283,0.0178 -0.145552,0.0557 -0.134638,0.0972 -0.119537,0.14222 -0.100258,0.19082 -0.07679,0.24298 -0.04914,0.29868 -0.0173,0.35796 v 0 m 0,-3.33401 v 2.32391 l 0.09344,-0.242 0.117965,-0.2043 0.14018,-0.16827 0.16009,-0.13393 0.177693,-0.10124 0.192992,-0.0702 0.205985,-0.0409 0.216673,-0.0133 0.179007,0.008 0.17135,0.0244 0.16316,0.0411 0.154433,0.0583 0.145162,0.0759 0.13536,0.0939 0.12502,0.11237 0.11414,0.13121 0.102723,0.1505 0.09077,0.17018 0.07828,0.19029 0.06525,0.21083 0.05169,0.23177 0.03759,0.25314 0.02295,0.27492 0.0078,0.29713 -0.0084,0.24706 -0.02503,0.23776 -0.04127,0.22755 -0.05714,0.21643 -0.07264,0.20438 -0.08778,0.19142 -0.102548,0.17754 -0.11695,0.16275 -0.130987,0.14703 -0.144658,0.13041 -0.15796,0.11286 -0.170897,0.0944 -0.183468,0.075 -0.19567,0.0547 -0.207505,0.0335 -0.218975,0.0114 -0.287517,-0.013 -0.263238,-0.044 -0.244802,-0.0826 -0.232215,-0.12861 -1.045738,0.26822 h -0.250522 v -5.57798 l -0.0141,-0.22818 -0.02407,-0.0719 -0.04114,-0.0507 -0.06251,-0.0348 -0.08816,-0.0241 -0.270463,-0.0372 v -0.24115 l 0.78657,-0.11839 0.32206,-0.0374 0.250003,-0.014 0.207965,0.0156 0.07597,0.0239 0.05911,0.0386 0.04361,0.0562 0.02947,0.0767 0.02195,0.22679"
       style="fill:#231f20;fill-opacity:1;fill-rule:nonzero;stroke:none;stroke-width:0.01485003"
       id="path66"
       inkscape:connector-curvature="0" />
    <path
       d="m 70.821913,27.02858 -0.225765,0.0499 -0.205857,0.0648 -0.18281,0.0829 -0.15662,0.10404 -0.127288,0.12834 -0.09481,0.15579 -0.05919,0.18637 -0.02042,0.22009 0.01047,0.16149 0.02976,0.13656 0.04653,0.11268 0.06078,0.0898 0.07251,0.068 0.08172,0.0473 0.08841,0.0276 0.09259,0.009 0.14597,-0.0218 0.12345,-0.0623 0.101875,-0.0979 0.08124,-0.12867 0.06155,-0.15465 0.0428,-0.17579 0.025,-0.19212 0.0081,-0.20362 v -0.60797 m 1.295963,-0.89385 v 2.33297 l 0.01033,0.25044 0.02078,0.0945 0.03816,0.0764 0.06079,0.06 0.08866,0.0454 0.12177,0.0327 0.160122,0.0217 v 0.25024 l -0.479302,0.0671 -0.352,0.0134 -0.216753,-0.01 -0.188025,-0.0311 -0.159935,-0.0554 -0.13248,-0.0826 -0.105657,-0.11277 -0.07947,-0.14587 -0.05392,-0.18191 -0.02901,-0.22089 -0.112485,0.211 -0.128723,0.17812 -0.143602,0.1467 -0.157123,0.11675 -0.169285,0.0883 -0.180082,0.0612 -0.189528,0.0357 -0.19761,0.0116 -0.236835,-0.0183 -0.218507,-0.0542 -0.196098,-0.0892 -0.169602,-0.12328 -0.139023,-0.15638 -0.104357,-0.18852 -0.06561,-0.21973 -0.02277,-0.24998 0.0106,-0.17077 0.03153,-0.15739 0.05201,-0.14469 0.07204,-0.13264 0.09163,-0.12128 0.11077,-0.11057 0.129467,-0.10054 0.14772,-0.0912 0.34842,-0.15694 0.41609,-0.12751 0.480205,-0.10343 0.54076,-0.0847 v -0.93852 l -0.0082,-0.16917 -0.02548,-0.15681 -0.04413,-0.14131 -0.06414,-0.12267 -0.0855,-0.10088 -0.108237,-0.0759 -0.13233,-0.0479 -0.15778,-0.0167 -0.138675,0.009 -0.120858,0.0278 -0.102832,0.0452 -0.0846,0.0616 -0.06616,0.0771 -0.04751,0.0917 -0.02866,0.10531 -0.0096,0.11798 0.01895,0.25143 0.05248,0.25812 -0.08925,0.0895 -0.204468,0.0726 -0.19767,0.0257 -0.119585,-0.0103 -0.109422,-0.03 -0.09748,-0.0484 -0.08375,-0.0656 -0.06824,-0.0815 -0.05095,-0.0962 -0.03188,-0.10957 -0.01103,-0.12171 0.0083,-0.10199 0.02442,-0.0979 0.03995,-0.0934 0.05487,-0.0886 0.15202,-0.1615 0.204287,-0.13823 0.251628,-0.11226 0.294042,-0.0836 0.33153,-0.0521 0.364095,-0.018 0.44127,0.0243 0.373593,0.0716 0.162267,0.0528 0.146373,0.0638 0.130815,0.0745 0.115597,0.0849 0.100723,0.0951 0.08619,0.105 0.07199,0.11461 0.05814,0.12395 0.04463,0.13301 0.03145,0.1418 0.02475,0.30885"
       style="fill:#231f20;fill-opacity:1;fill-rule:nonzero;stroke:none;stroke-width:0.01485003"
       id="path68"
       inkscape:connector-curvature="0" />
    <path
       d="m 38.093493,16.42135 -0.0144,2.86977 -0.0091,0.28542 -0.02725,0.26855 -0.04512,0.25146 -0.06276,0.23418 -0.08015,0.21666 -0.09731,0.19895 -0.114226,0.18101 -0.130905,0.16286 -0.147342,0.1445 -0.163542,0.12592 -0.179501,0.10714 -0.195222,0.0881 -0.210702,0.0689 -0.225945,0.0495 -0.240947,0.0299 -0.255711,0.01 -0.297518,-0.0105 -0.283982,-0.0312 -0.269664,-0.0516 -0.254566,-0.0715 -0.238688,-0.091 -0.222028,-0.11016 -0.204587,-0.1289 -0.186367,-0.14723 -0.167365,-0.16516 -0.147583,-0.1827 -0.12702,-0.19983 -0.105676,-0.21656 -0.08355,-0.2329 -0.06065,-0.24883 -0.03696,-0.26436 -0.01249,-0.2795 v -2.86012 0 l -0.0097,-0.34161 -0.02101,-0.10647 -0.03975,-0.0735 -0.06446,-0.0479 -0.09512,-0.0298 -0.306086,-0.0351 v -0.24116 h 2.495696 v 0.24116 l -0.302321,0.0351 -0.09494,0.0298 -0.065,0.0479 -0.04071,0.0735 -0.02208,0.10647 -0.01088,0.34161 h -3e-4 v 2.91477 l 0.02669,0.41848 0.03284,0.18984 0.04537,0.1767 0.05754,0.16342 0.06937,0.14999 0.08085,0.13641 0.09198,0.12268 0.102764,0.10881 0.113195,0.0948 0.123278,0.0806 0.133009,0.0663 0.142392,0.0518 0.151425,0.0372 0.160108,0.0224 0.168442,0.008 0.191922,-0.008 0.177714,-0.025 0.163756,-0.0411 0.150051,-0.0567 0.136598,-0.0719 0.123397,-0.0866 0.110448,-0.10087 0.09775,-0.11465 0.08531,-0.12798 0.07312,-0.14084 0.06117,-0.15325 0.04949,-0.16519 0.06492,-0.36435 0.02119,-0.40658 v -2.87898 7.5e-4 l -0.01277,-0.19473 -0.03809,-0.14689 -0.06306,-0.10647 -0.08769,-0.0735 -0.111976,-0.0479 -0.13592,-0.0298 -0.3423,-0.035 v -0.24117 h 2.048264 v 0.24117 l -0.313804,0.0351 -0.134003,0.0298 -0.115343,0.0479 -0.09414,0.0735 -0.07039,0.10647 -0.0441,0.14688 -0.01527,0.19473 v -7.5e-4"
       style="fill:#231f20;fill-opacity:1;fill-rule:nonzero;stroke:none;stroke-width:0.01485003"
       id="path70"
       inkscape:connector-curvature="0" />
    <path
       d="m 13.257727,28.3008 1.7e-4,0.46941 0.0094,0.26187 0.02713,0.25868 0.04446,0.25479 0.06136,0.25017 0.07785,0.24487 0.09391,0.23886 0.109543,0.23213 0.124755,0.22471 0.139545,0.21657 0.15391,0.20773 0.167854,0.19819 0.181372,0.18793 0.194469,0.17698 0.20714,0.16531 0.21939,0.15295 0.231215,0.13987 5.245653,2.94553 3.548236,-2.00493 -0.09692,-0.28617 -0.134638,-0.27162 -0.17015,-0.25764 -0.203449,-0.24426 -0.234535,-0.23145 -0.263408,-0.21921 -0.290068,-0.20758 -0.314516,-0.1965 -0.336751,-0.18603 -0.356774,-0.17612 -0.764763,-0.32485 -0.8183,-0.29221 L 19.256682,29.96457 18.384414,29.7237 17.511715,29.50152 15.835829,29.09467 15.068046,28.9007 14.370638,28.70682 13.761309,28.50841 13.257758,28.3008"
       style="fill:#231f20;fill-opacity:1;fill-rule:nonzero;stroke:none;stroke-width:0.01485003"
       id="path72"
       inkscape:connector-curvature="0" />
    <path
       style="fill:#231f20;fill-opacity:1;fill-rule:nonzero;stroke:none;stroke-width:0.01485003"
       d="m 22.346557,18.41323 -0.19172,0.008 -0.191719,0.0284 -0.19172,0.0486 -0.190686,0.0693 -0.189135,0.0889 -0.186552,0.108 -0.183968,0.12764 -0.180868,0.14625 -0.449585,0.38137 -0.417545,0.33486 -0.388607,0.29197 -0.359668,0.25322 -0.642855,0.40824 -0.549837,0.30438 -0.266134,0.14831 -0.219625,0.14418 -0.1788,0.14107 -0.14366,0.13746 -0.114206,0.13591 -0.09095,0.13384 -0.135392,0.2651 -0.09715,-0.0522 -0.09353,-0.0346 -0.171565,-0.0238 -0.145728,0.0232 -0.112138,0.0517 -0.07648,0.0599 -0.06563,0.0698 -0.105936,0.16175 -0.08165,0.17828 -0.07028,0.17984 -0.07596,0.1726 -0.100769,0.19017 -0.12299,0.19533 -0.14211,0.18862 -0.15813,0.16898 -0.172083,0.1385 -0.182934,0.0941 -0.09457,0.0274 -0.09612,0.0114 0.244946,0.0703 0.213941,0.0341 0.185518,0.001 0.15968,-0.0295 0.13746,-0.0574 0.117305,-0.0832 0.100769,-0.10697 0.0863,-0.12764 0.04961,-0.10181 0.03566,-0.10748 0.04186,-0.22635 0.02325,-0.23306 0.03101,-0.22892 0.02687,-0.10026 0.04341,-0.0987 0.05943,-0.0894 0.0739,-0.0734 0.08837,-0.0496 0.102319,-0.0186 0.115239,0.0191 0.12764,0.0646 -0.07855,0.30076 -0.05633,0.34417 -0.02481,0.35295 0.01395,0.32607 0.03617,0.42478 0.0077,0.47129 -0.01137,0.22273 -0.02377,0.19844 -0.03824,0.16174 -0.05374,0.11266 -0.0036,0.35036 -0.03152,0.29094 -0.06408,0.25839 -0.102836,0.25424 -0.08527,0.20413 -0.04341,0.14934 -0.590661,0.20516 -0.80667,0.32556 -0.359668,0.1664 -0.326595,0.16898 0.3483,0.15399 0.380855,0.14728 0.842842,0.27699 0.927592,0.26303 0.98392,0.25993 1.148767,0.30438 1.148767,0.32969 0.562239,0.17932 0.548287,0.19172 0.529167,0.20567 0.504879,0.22221 0.476973,0.24029 0.443384,0.25994 0.405143,0.28215 0.362252,0.30644 0.315226,0.33228 0.137976,0.17622 0.12454,0.18345 0.110071,0.1912 0.0956,0.19896 0.07958,0.2067 0.06408,0.21497 1.105359,-0.62476 0.230994,-0.14005 0.219108,-0.15348 0.206705,-0.16588 0.193787,-0.17776 0.180867,-0.18811 0.167432,-0.19895 0.153479,-0.20826 0.138493,-0.21704 0.12454,-0.22479 0.108521,-0.23254 0.09353,-0.23875 0.077,-0.24546 0.06098,-0.25011 0.04393,-0.25477 0.02635,-0.2589 0.0088,-0.262 -0.0093,-6.19962 -0.230993,0.3576 -0.266651,0.31833 -0.296623,0.28163 -0.321944,0.24754 -0.341581,0.216 -0.356567,0.18707 -0.365869,0.1602 -0.370004,0.13694 -0.65629,0.20257 -0.773596,0.20619 -0.211874,0.0506 0.02015,-0.0331 0.181901,-0.24546 0.141593,-0.17363 0.158647,-0.18346 0.116272,-0.15399 0.03566,-0.0744 0.01654,-0.077 -0.0047,-0.0822 -0.02842,-0.0915 -0.08992,-0.18965 -0.123506,-0.20878 -0.164848,-0.22634 -0.214457,-0.24443 -0.165882,0.0145 -0.173116,0.0367 -0.21084,0.0729 0.223242,-0.16588 0.224276,-0.12454 0.220142,-0.0889 0.211356,-0.0574 0.197405,-0.031 0.1788,-0.009 0.155029,0.008 0.127124,0.0207 0.116789,0.0351 0.103353,0.0481 0.08992,0.061 0.07441,0.0729 0.05839,0.0837 0.04082,0.0946 0.02274,0.10438 0.0031,0.11369 0.0801,-0.0987 0.07131,-0.11575 0.114721,-0.27079 0.07803,-0.3054 0.04237,-0.31885 0.21549,-0.108 0.128158,-0.0982 0.05529,-0.10284 0.02119,-0.14883 0.0088,-0.15244 0.02636,-0.15968 0.08165,-0.3297 0.08062,-0.32091 0.02584,-0.14934 0.0083,-0.13695 -0.01602,-0.19533 -0.03772,-0.17725 -0.05736,-0.15865 -0.0739,-0.14159 -0.08785,-0.12558 -0.09974,-0.10955 -0.10852,-0.0946 -0.114205,-0.0801 0.425297,-0.2465 -0.131258,0.015 -0.128674,-0.0114 -0.129708,-0.032 -0.132292,-0.0481 -0.284737,-0.1204 -0.329696,-0.11731 -0.150895,-0.03 -0.142627,-0.004 -0.133325,0.0186 -0.122473,0.0403 -0.111621,0.0594 -0.0987,0.0765 -0.08578,0.0904 -0.07131,0.10387 -0.03721,0.0377 -0.04754,0.0155 -0.05064,-0.007 -0.04392,-0.0305 -0.167432,-0.16847 -0.172082,-0.14572 -0.17725,-0.12299 -0.180868,-0.10025 -0.184485,-0.078 -0.187068,-0.0563 -0.189136,-0.0346 z m 2.544548,0.68213 -0.05685,0.0884 -0.07751,0.15658 -0.03462,0.0987 -0.02326,0.10904 -0.0062,0.11523 0.01757,0.11989 0.04754,0.12092 0.0832,0.11938 0.03411,0.0532 0.0098,0.0491 -0.01188,0.0419 -0.02946,0.0336 -0.04444,0.0227 -0.05478,0.0103 -0.06253,-0.006 -0.06666,-0.0233 -0.05426,-0.0413 -0.06304,-0.0775 -0.05684,-0.10801 -0.03669,-0.13229 -0.0015,-0.15089 0.04858,-0.16433 0.112138,-0.17209 0.08527,-0.0868 0.106453,-0.0868 z m 0.496093,1.33893 0.04392,0.009 0.03876,0.0274 0.02635,0.0548 0.01344,0.0734 0.0057,0.092 -0.08682,-0.006 -0.06925,-0.0145 -0.05168,-0.0279 h -5.25e-4 l -0.02584,-0.0408 -0.0088,-0.0465 0.0083,-0.046 0.0248,-0.0398 0.03824,-0.0269 z m -4.735111,3.00085 -0.02015,0.22841 -5.25e-4,0.25373 0.02687,0.26924 0.06149,0.2744 0.103353,0.27027 0.151412,0.2558 0.09663,0.11989 0.111104,0.11213 0.127124,0.10387 0.131775,0.0863 -0.674894,0.14935 -0.857829,0.20309 -0.174149,-0.11111 -0.484725,-0.34623 -0.132292,-0.14263 -0.03927,-0.0692 -0.02119,-0.0708 -0.0046,-0.0744 0.01189,-0.0801 0.07183,-0.18706 0.15658,-0.29663 0.114721,-0.22324 0.02739,-0.0935 -0.01499,-0.0594 -0.06201,-0.0346 -0.115238,-0.0191 -0.552421,-0.0724 -0.432015,-0.094 0.07493,0.21859 0.06925,0.3359 0.01395,0.1881 -0.01034,0.1881 -0.04082,0.1788 -0.0801,0.1602 0.09457,0.14314 0.129191,0.15452 0.322461,0.32194 0.315743,0.2744 -0.575676,0.14625 -1.046964,0.2899 -0.592729,0.1819 -0.01654,-0.20722 0.0098,-0.25321 0.05013,-0.25322 0.109037,-0.30334 0.12299,-0.24495 0.131775,-0.20722 0.135909,-0.1881 0.135909,-0.18862 0.130225,-0.20981 0.120406,-0.25011 0.105937,-0.31006 0.04444,-0.13074 0.04858,-0.0925 0.05478,-0.0599 0.06304,-0.0326 0.07286,-0.0114 0.08475,0.005 0.21239,0.0351 0.345715,0.0522 0.302824,0.0294 0.269751,0.006 0.24598,-0.0171 0.232027,-0.0398 0.227376,-0.0636 0.233061,-0.0873 z m 1.716174,0.0377 0.171049,0.20878 0.178284,0.15761 0.171565,0.10904 0.150379,0.063 0.22996,0.0424 0.179834,0.0114 0.05478,0.009 0.03462,0.0238 0.01189,0.0388 -0.01292,0.0527 -0.06563,0.10232 -0.08682,0.0879 -0.166915,0.15554 -0.06718,0.10491 -0.04134,0.11265 -0.01602,0.11731 0.0083,0.11833 0.01344,0.047 -0.190686,0.0455 -0.73949,0.16382 -0.08268,-0.12971 -0.07131,-0.14521 -0.05271,-0.14263 -0.05943,-0.26975 -0.01344,-0.23254 0.0124,-0.15296 0.03152,-0.14263 0.04754,-0.13178 0.06098,-0.11782 0.07028,-0.10335 0.077,-0.0868 0.08113,-0.0682 z m 2.758488,2.14613 -0.03617,0.35966 0.01809,0.3049 0.06821,0.26561 0.114722,0.24236 0.156579,0.23616 0.19482,0.24598 0.485759,0.5855 0.214457,0.28939 0.17415,0.30334 0.06718,0.16226 0.05116,0.17105 0.03256,0.18242 0.0124,0.19534 -0.01447,0.21755 -0.05323,0.24082 -0.0987,0.25579 -0.152445,0.26149 -0.213941,0.2589 -0.132808,0.12505 -0.150379,0.12144 -0.170015,0.11627 -0.190169,0.11007 -0.211874,0.10284 -0.233061,0.0941 0.03049,-0.14056 -0.0062,-0.12196 -0.03772,-0.10696 -0.06511,-0.0956 -0.08733,-0.0873 -0.10542,-0.0832 -0.243396,-0.16639 -0.256315,-0.19121 -0.120923,-0.11317 -0.109554,-0.13022 -0.09405,-0.15038 -0.07286,-0.17415 -0.04703,-0.20102 -0.01654,-0.23203 0.02739,-0.25063 0.07441,-0.29921 0.106454,-0.31522 0.12454,-0.29818 -0.0047,0.30179 0.04289,0.25787 0.08217,0.22014 0.114205,0.18707 0.201021,0.24805 0.164848,0.16174 0.369486,0.30438 0.166398,0.16175 0.143661,0.1881 0.05529,0.1018 0.03979,0.10645 0.02119,0.11008 -0.0016,0.11265 0.07545,-0.25838 0.01705,-0.2589 -0.03876,-0.2589 -0.09405,-0.25993 -0.140043,-0.25838 -0.169499,-0.25942 -0.367936,-0.524 -0.169499,-0.26562 -0.140043,-0.26768 -0.09612,-0.27078 -0.02635,-0.13643 -0.01034,-0.13694 0.01189,-0.27079 0.03876,-0.24133 0.06356,-0.21652 0.0863,-0.19689 0.10697,-0.18087 0.125574,-0.16898 z"
       id="path74"
       inkscape:connector-curvature="0" />
    <path
       d="m 27.809701,14.40784 -0.07027,-0.1108 -0.09272,-0.1131 L 27.398114,13.951 27.072268,13.70929 26.677539,13.45907 26.222292,13.20061 25.714893,12.93418 24.577098,12.37843 20.539569,10.46397 20.308328,10.33329 20.101165,10.17355 19.920162,9.98804 19.767401,9.78007 19.644963,9.55291 19.554933,9.30988 19.499383,9.05425 19.480403,8.78933 V 7.91659 l 0.111524,0.0811 0.143921,0.0814 0.38131,0.18462 6.560399,3.11034 0.247138,0.14084 0.221419,0.17391 0.193472,0.2028 0.163293,0.22749 0.130888,0.24799 0.09625,0.2643 0.05939,0.27642 0.02029,0.28434 v 1.21562"
       style="fill:#231f20;fill-opacity:1;fill-rule:nonzero;stroke:none;stroke-width:0.01485003"
       id="path78"
       inkscape:connector-curvature="0" />
    <path
       d="m 15.935946,8.93991 v 1.77532 l 0.01982,0.27663 0.05801,0.26691 0.09403,0.25377 0.12787,0.23718 0.159536,0.21715 0.189023,0.19366 0.216337,0.16675 0.241474,0.13639 6.737621,3.19439 0.590836,0.29275 0.605544,0.32788 0.600455,0.35805 0.575576,0.38326 0.530902,0.40351 0.242512,0.2078 0.223921,0.21101 0.202855,0.2136 0.179315,0.21556 0.1533,0.21691 0.124813,0.21764 v -2.51515 l -0.0075,-0.20512 -0.02218,-0.19601 -0.03646,-0.18714 -0.05034,-0.1785 -0.06382,-0.17008 -0.07688,-0.16189 -0.191332,-0.30017 -0.238713,-0.27019 -0.28284,-0.24205 -0.32371,-0.21577 L 26.154595,13.87265 16.644667,9.36343 16.247114,9.15618 16.079544,9.04979 15.93592,8.93991"
       style="fill:#231f20;fill-opacity:1;fill-rule:nonzero;stroke:none;stroke-width:0.01485003"
       id="path80"
       inkscape:connector-curvature="0" />
    <path
       d="m 19.057363,17.32617 -5.522939,-2.61881 -0.154272,-0.094 -0.122425,-0.11481 v 7.30917 l 0.215605,-0.38317 0.247616,-0.33997 0.285127,-0.30053 0.328137,-0.26483 0.376645,-0.2329 0.430653,-0.2047 0.490161,-0.18026 0.555167,-0.15956 2.781588,-0.70998 0.155803,-0.0686 0.134355,-0.083 0.11321,-0.0953 0.09237,-0.10569 0.07183,-0.11406 0.0516,-0.12045 0.03166,-0.12484 0.01204,-0.12726 -0.0073,-0.12769 -0.02631,-0.12612 -0.04503,-0.12257 -0.06344,-0.11703 -0.08156,-0.10951 -0.09936,-0.1 -0.116867,-0.0885 -0.134069,-0.075"
       style="fill:#231f20;fill-opacity:1;fill-rule:nonzero;stroke:none;stroke-width:0.01485003"
       id="path82"
       inkscape:connector-curvature="0" />
    <path
       d="m 19.638593,15.07134 -5.248727,-2.48902 -0.401902,-0.21567 -0.169074,-0.11218 -0.14896,-0.11616 -0.129697,-0.12095 -0.111288,-0.12655 -0.09373,-0.13296 -0.07703,-0.14019 v 1.4262 l 0.01273,0.17766 0.03726,0.17145 0.06039,0.16301 0.08212,0.15237 0.102463,0.1395 0.121406,0.12444 0.138953,0.10716 0.155103,0.0877 5.214217,2.47238 0.129575,0.0679 0.142136,0.0907 0.145501,0.11479 0.139668,0.14028 0.124639,0.16713 0.100414,0.19536 0.06699,0.22495 0.02437,0.25593 -0.0077,0.13487 -0.02195,0.13005 -0.07901,0.24219 -0.113286,0.21253 -0.132502,0.17596 0.261182,-0.15402 0.231418,-0.18288 0.200456,-0.20781 0.168299,-0.22879 0.134945,-0.24583 0.100392,-0.25893 0.06464,-0.26809 0.0277,-0.2733 -0.01044,-0.27457 -0.04978,-0.27191 -0.09032,-0.2653 -0.132053,-0.25475 -0.174983,-0.24025 -0.219111,-0.22182 -0.264434,-0.19944 -0.310956,-0.17313"
       style="fill:#231f20;fill-opacity:1;fill-rule:nonzero;stroke:none;stroke-width:0.01485003"
       id="path84"
       inkscape:connector-curvature="0" />
  </g>
</svg>
