G04 #@! TF.GenerationSoftware,KiCad,Pcbnew,(5.1.4)-1*
G04 #@! TF.CreationDate,2020-01-10T00:36:40-06:00*
G04 #@! TF.ProjectId,Capstone,43617073-746f-46e6-952e-6b696361645f,rev?*
G04 #@! TF.SameCoordinates,Original*
G04 #@! TF.FileFunction,Soldermask,Bot*
G04 #@! TF.FilePolarity,Negative*
%FSLAX46Y46*%
G04 Gerber Fmt 4.6, Leading zero omitted, Abs format (unit mm)*
G04 Created by KiCad (PCBNEW (5.1.4)-1) date 2020-01-10 00:36:40*
%MOMM*%
%LPD*%
G04 APERTURE LIST*
%ADD10C,0.100000*%
G04 APERTURE END LIST*
D10*
G36*
X130920442Y-161665518D02*
G01*
X130986627Y-161672037D01*
X131156466Y-161723557D01*
X131312991Y-161807222D01*
X131348729Y-161836552D01*
X131450186Y-161919814D01*
X131505579Y-161987312D01*
X131562778Y-162057009D01*
X131646443Y-162213534D01*
X131697963Y-162383373D01*
X131715359Y-162560000D01*
X131697963Y-162736627D01*
X131646443Y-162906466D01*
X131562778Y-163062991D01*
X131533448Y-163098729D01*
X131450186Y-163200186D01*
X131348729Y-163283448D01*
X131312991Y-163312778D01*
X131156466Y-163396443D01*
X130986627Y-163447963D01*
X130920442Y-163454482D01*
X130854260Y-163461000D01*
X130765740Y-163461000D01*
X130699558Y-163454482D01*
X130633373Y-163447963D01*
X130463534Y-163396443D01*
X130307009Y-163312778D01*
X130271271Y-163283448D01*
X130169814Y-163200186D01*
X130086552Y-163098729D01*
X130057222Y-163062991D01*
X129973557Y-162906466D01*
X129922037Y-162736627D01*
X129904641Y-162560000D01*
X129922037Y-162383373D01*
X129973557Y-162213534D01*
X130057222Y-162057009D01*
X130114421Y-161987312D01*
X130169814Y-161919814D01*
X130271271Y-161836552D01*
X130307009Y-161807222D01*
X130463534Y-161723557D01*
X130633373Y-161672037D01*
X130699558Y-161665518D01*
X130765740Y-161659000D01*
X130854260Y-161659000D01*
X130920442Y-161665518D01*
X130920442Y-161665518D01*
G37*
G36*
X128380442Y-161665518D02*
G01*
X128446627Y-161672037D01*
X128616466Y-161723557D01*
X128772991Y-161807222D01*
X128808729Y-161836552D01*
X128910186Y-161919814D01*
X128965579Y-161987312D01*
X129022778Y-162057009D01*
X129106443Y-162213534D01*
X129157963Y-162383373D01*
X129175359Y-162560000D01*
X129157963Y-162736627D01*
X129106443Y-162906466D01*
X129022778Y-163062991D01*
X128993448Y-163098729D01*
X128910186Y-163200186D01*
X128808729Y-163283448D01*
X128772991Y-163312778D01*
X128616466Y-163396443D01*
X128446627Y-163447963D01*
X128380442Y-163454482D01*
X128314260Y-163461000D01*
X128225740Y-163461000D01*
X128159558Y-163454482D01*
X128093373Y-163447963D01*
X127923534Y-163396443D01*
X127767009Y-163312778D01*
X127731271Y-163283448D01*
X127629814Y-163200186D01*
X127546552Y-163098729D01*
X127517222Y-163062991D01*
X127433557Y-162906466D01*
X127382037Y-162736627D01*
X127364641Y-162560000D01*
X127382037Y-162383373D01*
X127433557Y-162213534D01*
X127517222Y-162057009D01*
X127574421Y-161987312D01*
X127629814Y-161919814D01*
X127731271Y-161836552D01*
X127767009Y-161807222D01*
X127923534Y-161723557D01*
X128093373Y-161672037D01*
X128159558Y-161665518D01*
X128225740Y-161659000D01*
X128314260Y-161659000D01*
X128380442Y-161665518D01*
X128380442Y-161665518D01*
G37*
G36*
X105520442Y-161665518D02*
G01*
X105586627Y-161672037D01*
X105756466Y-161723557D01*
X105912991Y-161807222D01*
X105948729Y-161836552D01*
X106050186Y-161919814D01*
X106105579Y-161987312D01*
X106162778Y-162057009D01*
X106246443Y-162213534D01*
X106297963Y-162383373D01*
X106315359Y-162560000D01*
X106297963Y-162736627D01*
X106246443Y-162906466D01*
X106162778Y-163062991D01*
X106133448Y-163098729D01*
X106050186Y-163200186D01*
X105948729Y-163283448D01*
X105912991Y-163312778D01*
X105756466Y-163396443D01*
X105586627Y-163447963D01*
X105520442Y-163454482D01*
X105454260Y-163461000D01*
X105365740Y-163461000D01*
X105299558Y-163454482D01*
X105233373Y-163447963D01*
X105063534Y-163396443D01*
X104907009Y-163312778D01*
X104871271Y-163283448D01*
X104769814Y-163200186D01*
X104686552Y-163098729D01*
X104657222Y-163062991D01*
X104573557Y-162906466D01*
X104522037Y-162736627D01*
X104504641Y-162560000D01*
X104522037Y-162383373D01*
X104573557Y-162213534D01*
X104657222Y-162057009D01*
X104714421Y-161987312D01*
X104769814Y-161919814D01*
X104871271Y-161836552D01*
X104907009Y-161807222D01*
X105063534Y-161723557D01*
X105233373Y-161672037D01*
X105299558Y-161665518D01*
X105365740Y-161659000D01*
X105454260Y-161659000D01*
X105520442Y-161665518D01*
X105520442Y-161665518D01*
G37*
G36*
X125840442Y-161665518D02*
G01*
X125906627Y-161672037D01*
X126076466Y-161723557D01*
X126232991Y-161807222D01*
X126268729Y-161836552D01*
X126370186Y-161919814D01*
X126425579Y-161987312D01*
X126482778Y-162057009D01*
X126566443Y-162213534D01*
X126617963Y-162383373D01*
X126635359Y-162560000D01*
X126617963Y-162736627D01*
X126566443Y-162906466D01*
X126482778Y-163062991D01*
X126453448Y-163098729D01*
X126370186Y-163200186D01*
X126268729Y-163283448D01*
X126232991Y-163312778D01*
X126076466Y-163396443D01*
X125906627Y-163447963D01*
X125840442Y-163454482D01*
X125774260Y-163461000D01*
X125685740Y-163461000D01*
X125619558Y-163454482D01*
X125553373Y-163447963D01*
X125383534Y-163396443D01*
X125227009Y-163312778D01*
X125191271Y-163283448D01*
X125089814Y-163200186D01*
X125006552Y-163098729D01*
X124977222Y-163062991D01*
X124893557Y-162906466D01*
X124842037Y-162736627D01*
X124824641Y-162560000D01*
X124842037Y-162383373D01*
X124893557Y-162213534D01*
X124977222Y-162057009D01*
X125034421Y-161987312D01*
X125089814Y-161919814D01*
X125191271Y-161836552D01*
X125227009Y-161807222D01*
X125383534Y-161723557D01*
X125553373Y-161672037D01*
X125619558Y-161665518D01*
X125685740Y-161659000D01*
X125774260Y-161659000D01*
X125840442Y-161665518D01*
X125840442Y-161665518D01*
G37*
G36*
X120760442Y-161665518D02*
G01*
X120826627Y-161672037D01*
X120996466Y-161723557D01*
X121152991Y-161807222D01*
X121188729Y-161836552D01*
X121290186Y-161919814D01*
X121345579Y-161987312D01*
X121402778Y-162057009D01*
X121486443Y-162213534D01*
X121537963Y-162383373D01*
X121555359Y-162560000D01*
X121537963Y-162736627D01*
X121486443Y-162906466D01*
X121402778Y-163062991D01*
X121373448Y-163098729D01*
X121290186Y-163200186D01*
X121188729Y-163283448D01*
X121152991Y-163312778D01*
X120996466Y-163396443D01*
X120826627Y-163447963D01*
X120760442Y-163454482D01*
X120694260Y-163461000D01*
X120605740Y-163461000D01*
X120539558Y-163454482D01*
X120473373Y-163447963D01*
X120303534Y-163396443D01*
X120147009Y-163312778D01*
X120111271Y-163283448D01*
X120009814Y-163200186D01*
X119926552Y-163098729D01*
X119897222Y-163062991D01*
X119813557Y-162906466D01*
X119762037Y-162736627D01*
X119744641Y-162560000D01*
X119762037Y-162383373D01*
X119813557Y-162213534D01*
X119897222Y-162057009D01*
X119954421Y-161987312D01*
X120009814Y-161919814D01*
X120111271Y-161836552D01*
X120147009Y-161807222D01*
X120303534Y-161723557D01*
X120473373Y-161672037D01*
X120539558Y-161665518D01*
X120605740Y-161659000D01*
X120694260Y-161659000D01*
X120760442Y-161665518D01*
X120760442Y-161665518D01*
G37*
G36*
X123300442Y-161665518D02*
G01*
X123366627Y-161672037D01*
X123536466Y-161723557D01*
X123692991Y-161807222D01*
X123728729Y-161836552D01*
X123830186Y-161919814D01*
X123885579Y-161987312D01*
X123942778Y-162057009D01*
X124026443Y-162213534D01*
X124077963Y-162383373D01*
X124095359Y-162560000D01*
X124077963Y-162736627D01*
X124026443Y-162906466D01*
X123942778Y-163062991D01*
X123913448Y-163098729D01*
X123830186Y-163200186D01*
X123728729Y-163283448D01*
X123692991Y-163312778D01*
X123536466Y-163396443D01*
X123366627Y-163447963D01*
X123300442Y-163454482D01*
X123234260Y-163461000D01*
X123145740Y-163461000D01*
X123079558Y-163454482D01*
X123013373Y-163447963D01*
X122843534Y-163396443D01*
X122687009Y-163312778D01*
X122651271Y-163283448D01*
X122549814Y-163200186D01*
X122466552Y-163098729D01*
X122437222Y-163062991D01*
X122353557Y-162906466D01*
X122302037Y-162736627D01*
X122284641Y-162560000D01*
X122302037Y-162383373D01*
X122353557Y-162213534D01*
X122437222Y-162057009D01*
X122494421Y-161987312D01*
X122549814Y-161919814D01*
X122651271Y-161836552D01*
X122687009Y-161807222D01*
X122843534Y-161723557D01*
X123013373Y-161672037D01*
X123079558Y-161665518D01*
X123145740Y-161659000D01*
X123234260Y-161659000D01*
X123300442Y-161665518D01*
X123300442Y-161665518D01*
G37*
G36*
X168821632Y-154854677D02*
G01*
X169027619Y-154940000D01*
X169558868Y-155160050D01*
X170222362Y-155603383D01*
X170786617Y-156167638D01*
X171229950Y-156831132D01*
X171408833Y-157262995D01*
X171535323Y-157568368D01*
X171691000Y-158351010D01*
X171691000Y-159148990D01*
X171535323Y-159931632D01*
X171425559Y-160196625D01*
X171229950Y-160668868D01*
X170786617Y-161332362D01*
X170222362Y-161896617D01*
X169558868Y-162339950D01*
X169127005Y-162518833D01*
X168821632Y-162645323D01*
X168038990Y-162801000D01*
X167241010Y-162801000D01*
X166458368Y-162645323D01*
X166152995Y-162518833D01*
X165721132Y-162339950D01*
X165057638Y-161896617D01*
X164493383Y-161332362D01*
X164050050Y-160668868D01*
X163854441Y-160196625D01*
X163744677Y-159931632D01*
X163589000Y-159148990D01*
X163589000Y-158351010D01*
X163744677Y-157568368D01*
X163871167Y-157262995D01*
X164050050Y-156831132D01*
X164493383Y-156167638D01*
X165057638Y-155603383D01*
X165721132Y-155160050D01*
X166252381Y-154940000D01*
X166458368Y-154854677D01*
X167241010Y-154699000D01*
X168038990Y-154699000D01*
X168821632Y-154854677D01*
X168821632Y-154854677D01*
G37*
G36*
X105520442Y-159125518D02*
G01*
X105586627Y-159132037D01*
X105756466Y-159183557D01*
X105912991Y-159267222D01*
X105948729Y-159296552D01*
X106050186Y-159379814D01*
X106133448Y-159481271D01*
X106162778Y-159517009D01*
X106246443Y-159673534D01*
X106297963Y-159843373D01*
X106315359Y-160020000D01*
X106297963Y-160196627D01*
X106246443Y-160366466D01*
X106162778Y-160522991D01*
X106139011Y-160551951D01*
X106050186Y-160660186D01*
X105948729Y-160743448D01*
X105912991Y-160772778D01*
X105756466Y-160856443D01*
X105586627Y-160907963D01*
X105520442Y-160914482D01*
X105454260Y-160921000D01*
X105365740Y-160921000D01*
X105299558Y-160914482D01*
X105233373Y-160907963D01*
X105063534Y-160856443D01*
X104907009Y-160772778D01*
X104871271Y-160743448D01*
X104769814Y-160660186D01*
X104680989Y-160551951D01*
X104657222Y-160522991D01*
X104573557Y-160366466D01*
X104522037Y-160196627D01*
X104504641Y-160020000D01*
X104522037Y-159843373D01*
X104573557Y-159673534D01*
X104657222Y-159517009D01*
X104686552Y-159481271D01*
X104769814Y-159379814D01*
X104871271Y-159296552D01*
X104907009Y-159267222D01*
X105063534Y-159183557D01*
X105233373Y-159132037D01*
X105299558Y-159125518D01*
X105365740Y-159119000D01*
X105454260Y-159119000D01*
X105520442Y-159125518D01*
X105520442Y-159125518D01*
G37*
G36*
X125840442Y-159125518D02*
G01*
X125906627Y-159132037D01*
X126076466Y-159183557D01*
X126232991Y-159267222D01*
X126268729Y-159296552D01*
X126370186Y-159379814D01*
X126453448Y-159481271D01*
X126482778Y-159517009D01*
X126566443Y-159673534D01*
X126617963Y-159843373D01*
X126635359Y-160020000D01*
X126617963Y-160196627D01*
X126566443Y-160366466D01*
X126482778Y-160522991D01*
X126459011Y-160551951D01*
X126370186Y-160660186D01*
X126268729Y-160743448D01*
X126232991Y-160772778D01*
X126076466Y-160856443D01*
X125906627Y-160907963D01*
X125840442Y-160914482D01*
X125774260Y-160921000D01*
X125685740Y-160921000D01*
X125619558Y-160914482D01*
X125553373Y-160907963D01*
X125383534Y-160856443D01*
X125227009Y-160772778D01*
X125191271Y-160743448D01*
X125089814Y-160660186D01*
X125000989Y-160551951D01*
X124977222Y-160522991D01*
X124893557Y-160366466D01*
X124842037Y-160196627D01*
X124824641Y-160020000D01*
X124842037Y-159843373D01*
X124893557Y-159673534D01*
X124977222Y-159517009D01*
X125006552Y-159481271D01*
X125089814Y-159379814D01*
X125191271Y-159296552D01*
X125227009Y-159267222D01*
X125383534Y-159183557D01*
X125553373Y-159132037D01*
X125619558Y-159125518D01*
X125685740Y-159119000D01*
X125774260Y-159119000D01*
X125840442Y-159125518D01*
X125840442Y-159125518D01*
G37*
G36*
X131711000Y-160921000D02*
G01*
X129909000Y-160921000D01*
X129909000Y-159119000D01*
X131711000Y-159119000D01*
X131711000Y-160921000D01*
X131711000Y-160921000D01*
G37*
G36*
X128380442Y-159125518D02*
G01*
X128446627Y-159132037D01*
X128616466Y-159183557D01*
X128772991Y-159267222D01*
X128808729Y-159296552D01*
X128910186Y-159379814D01*
X128993448Y-159481271D01*
X129022778Y-159517009D01*
X129106443Y-159673534D01*
X129157963Y-159843373D01*
X129175359Y-160020000D01*
X129157963Y-160196627D01*
X129106443Y-160366466D01*
X129022778Y-160522991D01*
X128999011Y-160551951D01*
X128910186Y-160660186D01*
X128808729Y-160743448D01*
X128772991Y-160772778D01*
X128616466Y-160856443D01*
X128446627Y-160907963D01*
X128380442Y-160914482D01*
X128314260Y-160921000D01*
X128225740Y-160921000D01*
X128159558Y-160914482D01*
X128093373Y-160907963D01*
X127923534Y-160856443D01*
X127767009Y-160772778D01*
X127731271Y-160743448D01*
X127629814Y-160660186D01*
X127540989Y-160551951D01*
X127517222Y-160522991D01*
X127433557Y-160366466D01*
X127382037Y-160196627D01*
X127364641Y-160020000D01*
X127382037Y-159843373D01*
X127433557Y-159673534D01*
X127517222Y-159517009D01*
X127546552Y-159481271D01*
X127629814Y-159379814D01*
X127731271Y-159296552D01*
X127767009Y-159267222D01*
X127923534Y-159183557D01*
X128093373Y-159132037D01*
X128159558Y-159125518D01*
X128225740Y-159119000D01*
X128314260Y-159119000D01*
X128380442Y-159125518D01*
X128380442Y-159125518D01*
G37*
G36*
X123300442Y-159125518D02*
G01*
X123366627Y-159132037D01*
X123536466Y-159183557D01*
X123692991Y-159267222D01*
X123728729Y-159296552D01*
X123830186Y-159379814D01*
X123913448Y-159481271D01*
X123942778Y-159517009D01*
X124026443Y-159673534D01*
X124077963Y-159843373D01*
X124095359Y-160020000D01*
X124077963Y-160196627D01*
X124026443Y-160366466D01*
X123942778Y-160522991D01*
X123919011Y-160551951D01*
X123830186Y-160660186D01*
X123728729Y-160743448D01*
X123692991Y-160772778D01*
X123536466Y-160856443D01*
X123366627Y-160907963D01*
X123300442Y-160914482D01*
X123234260Y-160921000D01*
X123145740Y-160921000D01*
X123079558Y-160914482D01*
X123013373Y-160907963D01*
X122843534Y-160856443D01*
X122687009Y-160772778D01*
X122651271Y-160743448D01*
X122549814Y-160660186D01*
X122460989Y-160551951D01*
X122437222Y-160522991D01*
X122353557Y-160366466D01*
X122302037Y-160196627D01*
X122284641Y-160020000D01*
X122302037Y-159843373D01*
X122353557Y-159673534D01*
X122437222Y-159517009D01*
X122466552Y-159481271D01*
X122549814Y-159379814D01*
X122651271Y-159296552D01*
X122687009Y-159267222D01*
X122843534Y-159183557D01*
X123013373Y-159132037D01*
X123079558Y-159125518D01*
X123145740Y-159119000D01*
X123234260Y-159119000D01*
X123300442Y-159125518D01*
X123300442Y-159125518D01*
G37*
G36*
X120760442Y-159125518D02*
G01*
X120826627Y-159132037D01*
X120996466Y-159183557D01*
X121152991Y-159267222D01*
X121188729Y-159296552D01*
X121290186Y-159379814D01*
X121373448Y-159481271D01*
X121402778Y-159517009D01*
X121486443Y-159673534D01*
X121537963Y-159843373D01*
X121555359Y-160020000D01*
X121537963Y-160196627D01*
X121486443Y-160366466D01*
X121402778Y-160522991D01*
X121379011Y-160551951D01*
X121290186Y-160660186D01*
X121188729Y-160743448D01*
X121152991Y-160772778D01*
X120996466Y-160856443D01*
X120826627Y-160907963D01*
X120760442Y-160914482D01*
X120694260Y-160921000D01*
X120605740Y-160921000D01*
X120539558Y-160914482D01*
X120473373Y-160907963D01*
X120303534Y-160856443D01*
X120147009Y-160772778D01*
X120111271Y-160743448D01*
X120009814Y-160660186D01*
X119920989Y-160551951D01*
X119897222Y-160522991D01*
X119813557Y-160366466D01*
X119762037Y-160196627D01*
X119744641Y-160020000D01*
X119762037Y-159843373D01*
X119813557Y-159673534D01*
X119897222Y-159517009D01*
X119926552Y-159481271D01*
X120009814Y-159379814D01*
X120111271Y-159296552D01*
X120147009Y-159267222D01*
X120303534Y-159183557D01*
X120473373Y-159132037D01*
X120539558Y-159125518D01*
X120605740Y-159119000D01*
X120694260Y-159119000D01*
X120760442Y-159125518D01*
X120760442Y-159125518D01*
G37*
G36*
X143620443Y-157855519D02*
G01*
X143686627Y-157862037D01*
X143856466Y-157913557D01*
X144012991Y-157997222D01*
X144048729Y-158026552D01*
X144150186Y-158109814D01*
X144233448Y-158211271D01*
X144262778Y-158247009D01*
X144346443Y-158403534D01*
X144397963Y-158573373D01*
X144415359Y-158750000D01*
X144397963Y-158926627D01*
X144346443Y-159096466D01*
X144262778Y-159252991D01*
X144233448Y-159288729D01*
X144150186Y-159390186D01*
X144048729Y-159473448D01*
X144012991Y-159502778D01*
X143856466Y-159586443D01*
X143686627Y-159637963D01*
X143620442Y-159644482D01*
X143554260Y-159651000D01*
X143465740Y-159651000D01*
X143399558Y-159644482D01*
X143333373Y-159637963D01*
X143163534Y-159586443D01*
X143007009Y-159502778D01*
X142971271Y-159473448D01*
X142869814Y-159390186D01*
X142786552Y-159288729D01*
X142757222Y-159252991D01*
X142673557Y-159096466D01*
X142622037Y-158926627D01*
X142604641Y-158750000D01*
X142622037Y-158573373D01*
X142673557Y-158403534D01*
X142757222Y-158247009D01*
X142786552Y-158211271D01*
X142869814Y-158109814D01*
X142971271Y-158026552D01*
X143007009Y-157997222D01*
X143163534Y-157913557D01*
X143333373Y-157862037D01*
X143399557Y-157855519D01*
X143465740Y-157849000D01*
X143554260Y-157849000D01*
X143620443Y-157855519D01*
X143620443Y-157855519D01*
G37*
G36*
X105520443Y-156585519D02*
G01*
X105586627Y-156592037D01*
X105756466Y-156643557D01*
X105912991Y-156727222D01*
X105948729Y-156756552D01*
X106050186Y-156839814D01*
X106133448Y-156941271D01*
X106162778Y-156977009D01*
X106246443Y-157133534D01*
X106297963Y-157303373D01*
X106315359Y-157480000D01*
X106297963Y-157656627D01*
X106246443Y-157826466D01*
X106162778Y-157982991D01*
X106133448Y-158018729D01*
X106050186Y-158120186D01*
X105948729Y-158203448D01*
X105912991Y-158232778D01*
X105756466Y-158316443D01*
X105586627Y-158367963D01*
X105520442Y-158374482D01*
X105454260Y-158381000D01*
X105365740Y-158381000D01*
X105299558Y-158374482D01*
X105233373Y-158367963D01*
X105063534Y-158316443D01*
X104907009Y-158232778D01*
X104871271Y-158203448D01*
X104769814Y-158120186D01*
X104686552Y-158018729D01*
X104657222Y-157982991D01*
X104573557Y-157826466D01*
X104522037Y-157656627D01*
X104504641Y-157480000D01*
X104522037Y-157303373D01*
X104573557Y-157133534D01*
X104657222Y-156977009D01*
X104686552Y-156941271D01*
X104769814Y-156839814D01*
X104871271Y-156756552D01*
X104907009Y-156727222D01*
X105063534Y-156643557D01*
X105233373Y-156592037D01*
X105299557Y-156585519D01*
X105365740Y-156579000D01*
X105454260Y-156579000D01*
X105520443Y-156585519D01*
X105520443Y-156585519D01*
G37*
G36*
X143620442Y-155315518D02*
G01*
X143686627Y-155322037D01*
X143856466Y-155373557D01*
X144012991Y-155457222D01*
X144048729Y-155486552D01*
X144150186Y-155569814D01*
X144233448Y-155671271D01*
X144262778Y-155707009D01*
X144346443Y-155863534D01*
X144397963Y-156033373D01*
X144415359Y-156210000D01*
X144397963Y-156386627D01*
X144346443Y-156556466D01*
X144262778Y-156712991D01*
X144233448Y-156748729D01*
X144150186Y-156850186D01*
X144048729Y-156933448D01*
X144012991Y-156962778D01*
X143856466Y-157046443D01*
X143686627Y-157097963D01*
X143620443Y-157104481D01*
X143554260Y-157111000D01*
X143465740Y-157111000D01*
X143399557Y-157104481D01*
X143333373Y-157097963D01*
X143163534Y-157046443D01*
X143007009Y-156962778D01*
X142971271Y-156933448D01*
X142869814Y-156850186D01*
X142786552Y-156748729D01*
X142757222Y-156712991D01*
X142673557Y-156556466D01*
X142622037Y-156386627D01*
X142604641Y-156210000D01*
X142622037Y-156033373D01*
X142673557Y-155863534D01*
X142757222Y-155707009D01*
X142786552Y-155671271D01*
X142869814Y-155569814D01*
X142971271Y-155486552D01*
X143007009Y-155457222D01*
X143163534Y-155373557D01*
X143333373Y-155322037D01*
X143399558Y-155315518D01*
X143465740Y-155309000D01*
X143554260Y-155309000D01*
X143620442Y-155315518D01*
X143620442Y-155315518D01*
G37*
G36*
X105520442Y-154045518D02*
G01*
X105586627Y-154052037D01*
X105756466Y-154103557D01*
X105912991Y-154187222D01*
X105948729Y-154216552D01*
X106050186Y-154299814D01*
X106133448Y-154401271D01*
X106162778Y-154437009D01*
X106246443Y-154593534D01*
X106297963Y-154763373D01*
X106315359Y-154940000D01*
X106297963Y-155116627D01*
X106246443Y-155286466D01*
X106162778Y-155442991D01*
X106133448Y-155478729D01*
X106050186Y-155580186D01*
X105948729Y-155663448D01*
X105912991Y-155692778D01*
X105756466Y-155776443D01*
X105586627Y-155827963D01*
X105520442Y-155834482D01*
X105454260Y-155841000D01*
X105365740Y-155841000D01*
X105299558Y-155834482D01*
X105233373Y-155827963D01*
X105063534Y-155776443D01*
X104907009Y-155692778D01*
X104871271Y-155663448D01*
X104769814Y-155580186D01*
X104686552Y-155478729D01*
X104657222Y-155442991D01*
X104573557Y-155286466D01*
X104522037Y-155116627D01*
X104504641Y-154940000D01*
X104522037Y-154763373D01*
X104573557Y-154593534D01*
X104657222Y-154437009D01*
X104686552Y-154401271D01*
X104769814Y-154299814D01*
X104871271Y-154216552D01*
X104907009Y-154187222D01*
X105063534Y-154103557D01*
X105233373Y-154052037D01*
X105299558Y-154045518D01*
X105365740Y-154039000D01*
X105454260Y-154039000D01*
X105520442Y-154045518D01*
X105520442Y-154045518D01*
G37*
G36*
X143620442Y-152775518D02*
G01*
X143686627Y-152782037D01*
X143856466Y-152833557D01*
X144012991Y-152917222D01*
X144048729Y-152946552D01*
X144150186Y-153029814D01*
X144233448Y-153131271D01*
X144262778Y-153167009D01*
X144346443Y-153323534D01*
X144397963Y-153493373D01*
X144415359Y-153670000D01*
X144397963Y-153846627D01*
X144346443Y-154016466D01*
X144262778Y-154172991D01*
X144233448Y-154208729D01*
X144150186Y-154310186D01*
X144048729Y-154393448D01*
X144012991Y-154422778D01*
X143856466Y-154506443D01*
X143686627Y-154557963D01*
X143620443Y-154564481D01*
X143554260Y-154571000D01*
X143465740Y-154571000D01*
X143399557Y-154564481D01*
X143333373Y-154557963D01*
X143163534Y-154506443D01*
X143007009Y-154422778D01*
X142971271Y-154393448D01*
X142869814Y-154310186D01*
X142786552Y-154208729D01*
X142757222Y-154172991D01*
X142673557Y-154016466D01*
X142622037Y-153846627D01*
X142604641Y-153670000D01*
X142622037Y-153493373D01*
X142673557Y-153323534D01*
X142757222Y-153167009D01*
X142786552Y-153131271D01*
X142869814Y-153029814D01*
X142971271Y-152946552D01*
X143007009Y-152917222D01*
X143163534Y-152833557D01*
X143333373Y-152782037D01*
X143399558Y-152775518D01*
X143465740Y-152769000D01*
X143554260Y-152769000D01*
X143620442Y-152775518D01*
X143620442Y-152775518D01*
G37*
G36*
X105520443Y-151505519D02*
G01*
X105586627Y-151512037D01*
X105756466Y-151563557D01*
X105912991Y-151647222D01*
X105948729Y-151676552D01*
X106050186Y-151759814D01*
X106133448Y-151861271D01*
X106162778Y-151897009D01*
X106246443Y-152053534D01*
X106297963Y-152223373D01*
X106315359Y-152400000D01*
X106297963Y-152576627D01*
X106246443Y-152746466D01*
X106162778Y-152902991D01*
X106133448Y-152938729D01*
X106050186Y-153040186D01*
X105948729Y-153123448D01*
X105912991Y-153152778D01*
X105756466Y-153236443D01*
X105586627Y-153287963D01*
X105520443Y-153294481D01*
X105454260Y-153301000D01*
X105365740Y-153301000D01*
X105299557Y-153294481D01*
X105233373Y-153287963D01*
X105063534Y-153236443D01*
X104907009Y-153152778D01*
X104871271Y-153123448D01*
X104769814Y-153040186D01*
X104686552Y-152938729D01*
X104657222Y-152902991D01*
X104573557Y-152746466D01*
X104522037Y-152576627D01*
X104504641Y-152400000D01*
X104522037Y-152223373D01*
X104573557Y-152053534D01*
X104657222Y-151897009D01*
X104686552Y-151861271D01*
X104769814Y-151759814D01*
X104871271Y-151676552D01*
X104907009Y-151647222D01*
X105063534Y-151563557D01*
X105233373Y-151512037D01*
X105299557Y-151505519D01*
X105365740Y-151499000D01*
X105454260Y-151499000D01*
X105520443Y-151505519D01*
X105520443Y-151505519D01*
G37*
G36*
X143620442Y-150235518D02*
G01*
X143686627Y-150242037D01*
X143856466Y-150293557D01*
X144012991Y-150377222D01*
X144048729Y-150406552D01*
X144150186Y-150489814D01*
X144233448Y-150591271D01*
X144262778Y-150627009D01*
X144346443Y-150783534D01*
X144397963Y-150953373D01*
X144415359Y-151130000D01*
X144397963Y-151306627D01*
X144346443Y-151476466D01*
X144262778Y-151632991D01*
X144233448Y-151668729D01*
X144150186Y-151770186D01*
X144048729Y-151853448D01*
X144012991Y-151882778D01*
X143856466Y-151966443D01*
X143686627Y-152017963D01*
X143620442Y-152024482D01*
X143554260Y-152031000D01*
X143465740Y-152031000D01*
X143399558Y-152024482D01*
X143333373Y-152017963D01*
X143163534Y-151966443D01*
X143007009Y-151882778D01*
X142971271Y-151853448D01*
X142869814Y-151770186D01*
X142786552Y-151668729D01*
X142757222Y-151632991D01*
X142673557Y-151476466D01*
X142622037Y-151306627D01*
X142604641Y-151130000D01*
X142622037Y-150953373D01*
X142673557Y-150783534D01*
X142757222Y-150627009D01*
X142786552Y-150591271D01*
X142869814Y-150489814D01*
X142971271Y-150406552D01*
X143007009Y-150377222D01*
X143163534Y-150293557D01*
X143333373Y-150242037D01*
X143399558Y-150235518D01*
X143465740Y-150229000D01*
X143554260Y-150229000D01*
X143620442Y-150235518D01*
X143620442Y-150235518D01*
G37*
G36*
X105520443Y-148965519D02*
G01*
X105586627Y-148972037D01*
X105756466Y-149023557D01*
X105912991Y-149107222D01*
X105948729Y-149136552D01*
X106050186Y-149219814D01*
X106133448Y-149321271D01*
X106162778Y-149357009D01*
X106246443Y-149513534D01*
X106297963Y-149683373D01*
X106315359Y-149860000D01*
X106297963Y-150036627D01*
X106246443Y-150206466D01*
X106162778Y-150362991D01*
X106133448Y-150398729D01*
X106050186Y-150500186D01*
X105948729Y-150583448D01*
X105912991Y-150612778D01*
X105756466Y-150696443D01*
X105586627Y-150747963D01*
X105520443Y-150754481D01*
X105454260Y-150761000D01*
X105365740Y-150761000D01*
X105299557Y-150754481D01*
X105233373Y-150747963D01*
X105063534Y-150696443D01*
X104907009Y-150612778D01*
X104871271Y-150583448D01*
X104769814Y-150500186D01*
X104686552Y-150398729D01*
X104657222Y-150362991D01*
X104573557Y-150206466D01*
X104522037Y-150036627D01*
X104504641Y-149860000D01*
X104522037Y-149683373D01*
X104573557Y-149513534D01*
X104657222Y-149357009D01*
X104686552Y-149321271D01*
X104769814Y-149219814D01*
X104871271Y-149136552D01*
X104907009Y-149107222D01*
X105063534Y-149023557D01*
X105233373Y-148972037D01*
X105299557Y-148965519D01*
X105365740Y-148959000D01*
X105454260Y-148959000D01*
X105520443Y-148965519D01*
X105520443Y-148965519D01*
G37*
G36*
X143620443Y-147695519D02*
G01*
X143686627Y-147702037D01*
X143856466Y-147753557D01*
X144012991Y-147837222D01*
X144048729Y-147866552D01*
X144150186Y-147949814D01*
X144233448Y-148051271D01*
X144262778Y-148087009D01*
X144346443Y-148243534D01*
X144397963Y-148413373D01*
X144415359Y-148590000D01*
X144397963Y-148766627D01*
X144346443Y-148936466D01*
X144262778Y-149092991D01*
X144233448Y-149128729D01*
X144150186Y-149230186D01*
X144048729Y-149313448D01*
X144012991Y-149342778D01*
X143856466Y-149426443D01*
X143686627Y-149477963D01*
X143620442Y-149484482D01*
X143554260Y-149491000D01*
X143465740Y-149491000D01*
X143399558Y-149484482D01*
X143333373Y-149477963D01*
X143163534Y-149426443D01*
X143007009Y-149342778D01*
X142971271Y-149313448D01*
X142869814Y-149230186D01*
X142786552Y-149128729D01*
X142757222Y-149092991D01*
X142673557Y-148936466D01*
X142622037Y-148766627D01*
X142604641Y-148590000D01*
X142622037Y-148413373D01*
X142673557Y-148243534D01*
X142757222Y-148087009D01*
X142786552Y-148051271D01*
X142869814Y-147949814D01*
X142971271Y-147866552D01*
X143007009Y-147837222D01*
X143163534Y-147753557D01*
X143333373Y-147702037D01*
X143399557Y-147695519D01*
X143465740Y-147689000D01*
X143554260Y-147689000D01*
X143620443Y-147695519D01*
X143620443Y-147695519D01*
G37*
G36*
X105520442Y-146425518D02*
G01*
X105586627Y-146432037D01*
X105756466Y-146483557D01*
X105912991Y-146567222D01*
X105948729Y-146596552D01*
X106050186Y-146679814D01*
X106133448Y-146781271D01*
X106162778Y-146817009D01*
X106246443Y-146973534D01*
X106297963Y-147143373D01*
X106315359Y-147320000D01*
X106297963Y-147496627D01*
X106246443Y-147666466D01*
X106162778Y-147822991D01*
X106133448Y-147858729D01*
X106050186Y-147960186D01*
X105948729Y-148043448D01*
X105912991Y-148072778D01*
X105756466Y-148156443D01*
X105586627Y-148207963D01*
X105520442Y-148214482D01*
X105454260Y-148221000D01*
X105365740Y-148221000D01*
X105299558Y-148214482D01*
X105233373Y-148207963D01*
X105063534Y-148156443D01*
X104907009Y-148072778D01*
X104871271Y-148043448D01*
X104769814Y-147960186D01*
X104686552Y-147858729D01*
X104657222Y-147822991D01*
X104573557Y-147666466D01*
X104522037Y-147496627D01*
X104504641Y-147320000D01*
X104522037Y-147143373D01*
X104573557Y-146973534D01*
X104657222Y-146817009D01*
X104686552Y-146781271D01*
X104769814Y-146679814D01*
X104871271Y-146596552D01*
X104907009Y-146567222D01*
X105063534Y-146483557D01*
X105233373Y-146432037D01*
X105299558Y-146425518D01*
X105365740Y-146419000D01*
X105454260Y-146419000D01*
X105520442Y-146425518D01*
X105520442Y-146425518D01*
G37*
G36*
X97421000Y-148221000D02*
G01*
X95619000Y-148221000D01*
X95619000Y-146419000D01*
X97421000Y-146419000D01*
X97421000Y-148221000D01*
X97421000Y-148221000D01*
G37*
G36*
X99170442Y-146425518D02*
G01*
X99236627Y-146432037D01*
X99406466Y-146483557D01*
X99562991Y-146567222D01*
X99598729Y-146596552D01*
X99700186Y-146679814D01*
X99783448Y-146781271D01*
X99812778Y-146817009D01*
X99896443Y-146973534D01*
X99947963Y-147143373D01*
X99965359Y-147320000D01*
X99947963Y-147496627D01*
X99896443Y-147666466D01*
X99812778Y-147822991D01*
X99783448Y-147858729D01*
X99700186Y-147960186D01*
X99598729Y-148043448D01*
X99562991Y-148072778D01*
X99406466Y-148156443D01*
X99236627Y-148207963D01*
X99170442Y-148214482D01*
X99104260Y-148221000D01*
X99015740Y-148221000D01*
X98949558Y-148214482D01*
X98883373Y-148207963D01*
X98713534Y-148156443D01*
X98557009Y-148072778D01*
X98521271Y-148043448D01*
X98419814Y-147960186D01*
X98336552Y-147858729D01*
X98307222Y-147822991D01*
X98223557Y-147666466D01*
X98172037Y-147496627D01*
X98154641Y-147320000D01*
X98172037Y-147143373D01*
X98223557Y-146973534D01*
X98307222Y-146817009D01*
X98336552Y-146781271D01*
X98419814Y-146679814D01*
X98521271Y-146596552D01*
X98557009Y-146567222D01*
X98713534Y-146483557D01*
X98883373Y-146432037D01*
X98949558Y-146425518D01*
X99015740Y-146419000D01*
X99104260Y-146419000D01*
X99170442Y-146425518D01*
X99170442Y-146425518D01*
G37*
G36*
X170290442Y-146425518D02*
G01*
X170356627Y-146432037D01*
X170526466Y-146483557D01*
X170682991Y-146567222D01*
X170718729Y-146596552D01*
X170820186Y-146679814D01*
X170903448Y-146781271D01*
X170932778Y-146817009D01*
X171016443Y-146973534D01*
X171067963Y-147143373D01*
X171085359Y-147320000D01*
X171067963Y-147496627D01*
X171016443Y-147666466D01*
X170932778Y-147822991D01*
X170903448Y-147858729D01*
X170820186Y-147960186D01*
X170718729Y-148043448D01*
X170682991Y-148072778D01*
X170526466Y-148156443D01*
X170356627Y-148207963D01*
X170290442Y-148214482D01*
X170224260Y-148221000D01*
X170135740Y-148221000D01*
X170069558Y-148214482D01*
X170003373Y-148207963D01*
X169833534Y-148156443D01*
X169677009Y-148072778D01*
X169641271Y-148043448D01*
X169539814Y-147960186D01*
X169456552Y-147858729D01*
X169427222Y-147822991D01*
X169343557Y-147666466D01*
X169292037Y-147496627D01*
X169274641Y-147320000D01*
X169292037Y-147143373D01*
X169343557Y-146973534D01*
X169427222Y-146817009D01*
X169456552Y-146781271D01*
X169539814Y-146679814D01*
X169641271Y-146596552D01*
X169677009Y-146567222D01*
X169833534Y-146483557D01*
X170003373Y-146432037D01*
X170069558Y-146425518D01*
X170135740Y-146419000D01*
X170224260Y-146419000D01*
X170290442Y-146425518D01*
X170290442Y-146425518D01*
G37*
G36*
X143620443Y-145155519D02*
G01*
X143686627Y-145162037D01*
X143856466Y-145213557D01*
X144012991Y-145297222D01*
X144048729Y-145326552D01*
X144150186Y-145409814D01*
X144233448Y-145511271D01*
X144262778Y-145547009D01*
X144346443Y-145703534D01*
X144397963Y-145873373D01*
X144415359Y-146050000D01*
X144397963Y-146226627D01*
X144346443Y-146396466D01*
X144262778Y-146552991D01*
X144233448Y-146588729D01*
X144150186Y-146690186D01*
X144048729Y-146773448D01*
X144012991Y-146802778D01*
X143856466Y-146886443D01*
X143686627Y-146937963D01*
X143620442Y-146944482D01*
X143554260Y-146951000D01*
X143465740Y-146951000D01*
X143399558Y-146944482D01*
X143333373Y-146937963D01*
X143163534Y-146886443D01*
X143007009Y-146802778D01*
X142971271Y-146773448D01*
X142869814Y-146690186D01*
X142786552Y-146588729D01*
X142757222Y-146552991D01*
X142673557Y-146396466D01*
X142622037Y-146226627D01*
X142604641Y-146050000D01*
X142622037Y-145873373D01*
X142673557Y-145703534D01*
X142757222Y-145547009D01*
X142786552Y-145511271D01*
X142869814Y-145409814D01*
X142971271Y-145326552D01*
X143007009Y-145297222D01*
X143163534Y-145213557D01*
X143333373Y-145162037D01*
X143399557Y-145155519D01*
X143465740Y-145149000D01*
X143554260Y-145149000D01*
X143620443Y-145155519D01*
X143620443Y-145155519D01*
G37*
G36*
X171081000Y-145681000D02*
G01*
X169279000Y-145681000D01*
X169279000Y-143879000D01*
X171081000Y-143879000D01*
X171081000Y-145681000D01*
X171081000Y-145681000D01*
G37*
G36*
X105520443Y-143885519D02*
G01*
X105586627Y-143892037D01*
X105756466Y-143943557D01*
X105912991Y-144027222D01*
X105948729Y-144056552D01*
X106050186Y-144139814D01*
X106133448Y-144241271D01*
X106162778Y-144277009D01*
X106246443Y-144433534D01*
X106297963Y-144603373D01*
X106315359Y-144780000D01*
X106297963Y-144956627D01*
X106246443Y-145126466D01*
X106162778Y-145282991D01*
X106133448Y-145318729D01*
X106050186Y-145420186D01*
X105948729Y-145503448D01*
X105912991Y-145532778D01*
X105756466Y-145616443D01*
X105586627Y-145667963D01*
X105520443Y-145674481D01*
X105454260Y-145681000D01*
X105365740Y-145681000D01*
X105299557Y-145674481D01*
X105233373Y-145667963D01*
X105063534Y-145616443D01*
X104907009Y-145532778D01*
X104871271Y-145503448D01*
X104769814Y-145420186D01*
X104686552Y-145318729D01*
X104657222Y-145282991D01*
X104573557Y-145126466D01*
X104522037Y-144956627D01*
X104504641Y-144780000D01*
X104522037Y-144603373D01*
X104573557Y-144433534D01*
X104657222Y-144277009D01*
X104686552Y-144241271D01*
X104769814Y-144139814D01*
X104871271Y-144056552D01*
X104907009Y-144027222D01*
X105063534Y-143943557D01*
X105233373Y-143892037D01*
X105299557Y-143885519D01*
X105365740Y-143879000D01*
X105454260Y-143879000D01*
X105520443Y-143885519D01*
X105520443Y-143885519D01*
G37*
G36*
X143620442Y-142615518D02*
G01*
X143686627Y-142622037D01*
X143856466Y-142673557D01*
X144012991Y-142757222D01*
X144048729Y-142786552D01*
X144150186Y-142869814D01*
X144233448Y-142971271D01*
X144262778Y-143007009D01*
X144346443Y-143163534D01*
X144397963Y-143333373D01*
X144415359Y-143510000D01*
X144397963Y-143686627D01*
X144346443Y-143856466D01*
X144262778Y-144012991D01*
X144233448Y-144048729D01*
X144150186Y-144150186D01*
X144048729Y-144233448D01*
X144012991Y-144262778D01*
X143856466Y-144346443D01*
X143686627Y-144397963D01*
X143620443Y-144404481D01*
X143554260Y-144411000D01*
X143465740Y-144411000D01*
X143399557Y-144404481D01*
X143333373Y-144397963D01*
X143163534Y-144346443D01*
X143007009Y-144262778D01*
X142971271Y-144233448D01*
X142869814Y-144150186D01*
X142786552Y-144048729D01*
X142757222Y-144012991D01*
X142673557Y-143856466D01*
X142622037Y-143686627D01*
X142604641Y-143510000D01*
X142622037Y-143333373D01*
X142673557Y-143163534D01*
X142757222Y-143007009D01*
X142786552Y-142971271D01*
X142869814Y-142869814D01*
X142971271Y-142786552D01*
X143007009Y-142757222D01*
X143163534Y-142673557D01*
X143333373Y-142622037D01*
X143399558Y-142615518D01*
X143465740Y-142609000D01*
X143554260Y-142609000D01*
X143620442Y-142615518D01*
X143620442Y-142615518D01*
G37*
G36*
X105520442Y-141345518D02*
G01*
X105586627Y-141352037D01*
X105756466Y-141403557D01*
X105912991Y-141487222D01*
X105948729Y-141516552D01*
X106050186Y-141599814D01*
X106133448Y-141701271D01*
X106162778Y-141737009D01*
X106246443Y-141893534D01*
X106297963Y-142063373D01*
X106315359Y-142240000D01*
X106297963Y-142416627D01*
X106246443Y-142586466D01*
X106162778Y-142742991D01*
X106133448Y-142778729D01*
X106050186Y-142880186D01*
X105948729Y-142963448D01*
X105912991Y-142992778D01*
X105756466Y-143076443D01*
X105586627Y-143127963D01*
X105520443Y-143134481D01*
X105454260Y-143141000D01*
X105365740Y-143141000D01*
X105299557Y-143134481D01*
X105233373Y-143127963D01*
X105063534Y-143076443D01*
X104907009Y-142992778D01*
X104871271Y-142963448D01*
X104769814Y-142880186D01*
X104686552Y-142778729D01*
X104657222Y-142742991D01*
X104573557Y-142586466D01*
X104522037Y-142416627D01*
X104504641Y-142240000D01*
X104522037Y-142063373D01*
X104573557Y-141893534D01*
X104657222Y-141737009D01*
X104686552Y-141701271D01*
X104769814Y-141599814D01*
X104871271Y-141516552D01*
X104907009Y-141487222D01*
X105063534Y-141403557D01*
X105233373Y-141352037D01*
X105299558Y-141345518D01*
X105365740Y-141339000D01*
X105454260Y-141339000D01*
X105520442Y-141345518D01*
X105520442Y-141345518D01*
G37*
G36*
X144411000Y-141871000D02*
G01*
X142609000Y-141871000D01*
X142609000Y-140069000D01*
X144411000Y-140069000D01*
X144411000Y-141871000D01*
X144411000Y-141871000D01*
G37*
G36*
X105520442Y-138805518D02*
G01*
X105586627Y-138812037D01*
X105756466Y-138863557D01*
X105912991Y-138947222D01*
X105948729Y-138976552D01*
X106050186Y-139059814D01*
X106133448Y-139161271D01*
X106162778Y-139197009D01*
X106246443Y-139353534D01*
X106297963Y-139523373D01*
X106315359Y-139700000D01*
X106297963Y-139876627D01*
X106246443Y-140046466D01*
X106162778Y-140202991D01*
X106133448Y-140238729D01*
X106050186Y-140340186D01*
X105948729Y-140423448D01*
X105912991Y-140452778D01*
X105756466Y-140536443D01*
X105586627Y-140587963D01*
X105520442Y-140594482D01*
X105454260Y-140601000D01*
X105365740Y-140601000D01*
X105299558Y-140594482D01*
X105233373Y-140587963D01*
X105063534Y-140536443D01*
X104907009Y-140452778D01*
X104871271Y-140423448D01*
X104769814Y-140340186D01*
X104686552Y-140238729D01*
X104657222Y-140202991D01*
X104573557Y-140046466D01*
X104522037Y-139876627D01*
X104504641Y-139700000D01*
X104522037Y-139523373D01*
X104573557Y-139353534D01*
X104657222Y-139197009D01*
X104686552Y-139161271D01*
X104769814Y-139059814D01*
X104871271Y-138976552D01*
X104907009Y-138947222D01*
X105063534Y-138863557D01*
X105233373Y-138812037D01*
X105299558Y-138805518D01*
X105365740Y-138799000D01*
X105454260Y-138799000D01*
X105520442Y-138805518D01*
X105520442Y-138805518D01*
G37*
G36*
X105520443Y-136265519D02*
G01*
X105586627Y-136272037D01*
X105756466Y-136323557D01*
X105912991Y-136407222D01*
X105948729Y-136436552D01*
X106050186Y-136519814D01*
X106133448Y-136621271D01*
X106162778Y-136657009D01*
X106246443Y-136813534D01*
X106297963Y-136983373D01*
X106315359Y-137160000D01*
X106297963Y-137336627D01*
X106246443Y-137506466D01*
X106162778Y-137662991D01*
X106133448Y-137698729D01*
X106050186Y-137800186D01*
X105948729Y-137883448D01*
X105912991Y-137912778D01*
X105756466Y-137996443D01*
X105586627Y-138047963D01*
X105520442Y-138054482D01*
X105454260Y-138061000D01*
X105365740Y-138061000D01*
X105299558Y-138054482D01*
X105233373Y-138047963D01*
X105063534Y-137996443D01*
X104907009Y-137912778D01*
X104871271Y-137883448D01*
X104769814Y-137800186D01*
X104686552Y-137698729D01*
X104657222Y-137662991D01*
X104573557Y-137506466D01*
X104522037Y-137336627D01*
X104504641Y-137160000D01*
X104522037Y-136983373D01*
X104573557Y-136813534D01*
X104657222Y-136657009D01*
X104686552Y-136621271D01*
X104769814Y-136519814D01*
X104871271Y-136436552D01*
X104907009Y-136407222D01*
X105063534Y-136323557D01*
X105233373Y-136272037D01*
X105299557Y-136265519D01*
X105365740Y-136259000D01*
X105454260Y-136259000D01*
X105520443Y-136265519D01*
X105520443Y-136265519D01*
G37*
G36*
X105520443Y-133725519D02*
G01*
X105586627Y-133732037D01*
X105756466Y-133783557D01*
X105912991Y-133867222D01*
X105948729Y-133896552D01*
X106050186Y-133979814D01*
X106133448Y-134081271D01*
X106162778Y-134117009D01*
X106246443Y-134273534D01*
X106297963Y-134443373D01*
X106315359Y-134620000D01*
X106297963Y-134796627D01*
X106246443Y-134966466D01*
X106162778Y-135122991D01*
X106133448Y-135158729D01*
X106050186Y-135260186D01*
X105948729Y-135343448D01*
X105912991Y-135372778D01*
X105756466Y-135456443D01*
X105586627Y-135507963D01*
X105520443Y-135514481D01*
X105454260Y-135521000D01*
X105365740Y-135521000D01*
X105299557Y-135514481D01*
X105233373Y-135507963D01*
X105063534Y-135456443D01*
X104907009Y-135372778D01*
X104871271Y-135343448D01*
X104769814Y-135260186D01*
X104686552Y-135158729D01*
X104657222Y-135122991D01*
X104573557Y-134966466D01*
X104522037Y-134796627D01*
X104504641Y-134620000D01*
X104522037Y-134443373D01*
X104573557Y-134273534D01*
X104657222Y-134117009D01*
X104686552Y-134081271D01*
X104769814Y-133979814D01*
X104871271Y-133896552D01*
X104907009Y-133867222D01*
X105063534Y-133783557D01*
X105233373Y-133732037D01*
X105299557Y-133725519D01*
X105365740Y-133719000D01*
X105454260Y-133719000D01*
X105520443Y-133725519D01*
X105520443Y-133725519D01*
G37*
G36*
X143620443Y-133725519D02*
G01*
X143686627Y-133732037D01*
X143856466Y-133783557D01*
X144012991Y-133867222D01*
X144048729Y-133896552D01*
X144150186Y-133979814D01*
X144233448Y-134081271D01*
X144262778Y-134117009D01*
X144346443Y-134273534D01*
X144397963Y-134443373D01*
X144415359Y-134620000D01*
X144397963Y-134796627D01*
X144346443Y-134966466D01*
X144262778Y-135122991D01*
X144233448Y-135158729D01*
X144150186Y-135260186D01*
X144048729Y-135343448D01*
X144012991Y-135372778D01*
X143856466Y-135456443D01*
X143686627Y-135507963D01*
X143620443Y-135514481D01*
X143554260Y-135521000D01*
X143465740Y-135521000D01*
X143399557Y-135514481D01*
X143333373Y-135507963D01*
X143163534Y-135456443D01*
X143007009Y-135372778D01*
X142971271Y-135343448D01*
X142869814Y-135260186D01*
X142786552Y-135158729D01*
X142757222Y-135122991D01*
X142673557Y-134966466D01*
X142622037Y-134796627D01*
X142604641Y-134620000D01*
X142622037Y-134443373D01*
X142673557Y-134273534D01*
X142757222Y-134117009D01*
X142786552Y-134081271D01*
X142869814Y-133979814D01*
X142971271Y-133896552D01*
X143007009Y-133867222D01*
X143163534Y-133783557D01*
X143333373Y-133732037D01*
X143399557Y-133725519D01*
X143465740Y-133719000D01*
X143554260Y-133719000D01*
X143620443Y-133725519D01*
X143620443Y-133725519D01*
G37*
G36*
X143620442Y-131185518D02*
G01*
X143686627Y-131192037D01*
X143856466Y-131243557D01*
X144012991Y-131327222D01*
X144048729Y-131356552D01*
X144150186Y-131439814D01*
X144233448Y-131541271D01*
X144262778Y-131577009D01*
X144346443Y-131733534D01*
X144397963Y-131903373D01*
X144415359Y-132080000D01*
X144397963Y-132256627D01*
X144346443Y-132426466D01*
X144262778Y-132582991D01*
X144233448Y-132618729D01*
X144150186Y-132720186D01*
X144048729Y-132803448D01*
X144012991Y-132832778D01*
X143856466Y-132916443D01*
X143686627Y-132967963D01*
X143620443Y-132974481D01*
X143554260Y-132981000D01*
X143465740Y-132981000D01*
X143399557Y-132974481D01*
X143333373Y-132967963D01*
X143163534Y-132916443D01*
X143007009Y-132832778D01*
X142971271Y-132803448D01*
X142869814Y-132720186D01*
X142786552Y-132618729D01*
X142757222Y-132582991D01*
X142673557Y-132426466D01*
X142622037Y-132256627D01*
X142604641Y-132080000D01*
X142622037Y-131903373D01*
X142673557Y-131733534D01*
X142757222Y-131577009D01*
X142786552Y-131541271D01*
X142869814Y-131439814D01*
X142971271Y-131356552D01*
X143007009Y-131327222D01*
X143163534Y-131243557D01*
X143333373Y-131192037D01*
X143399558Y-131185518D01*
X143465740Y-131179000D01*
X143554260Y-131179000D01*
X143620442Y-131185518D01*
X143620442Y-131185518D01*
G37*
G36*
X105520442Y-131185518D02*
G01*
X105586627Y-131192037D01*
X105756466Y-131243557D01*
X105912991Y-131327222D01*
X105948729Y-131356552D01*
X106050186Y-131439814D01*
X106133448Y-131541271D01*
X106162778Y-131577009D01*
X106246443Y-131733534D01*
X106297963Y-131903373D01*
X106315359Y-132080000D01*
X106297963Y-132256627D01*
X106246443Y-132426466D01*
X106162778Y-132582991D01*
X106133448Y-132618729D01*
X106050186Y-132720186D01*
X105948729Y-132803448D01*
X105912991Y-132832778D01*
X105756466Y-132916443D01*
X105586627Y-132967963D01*
X105520443Y-132974481D01*
X105454260Y-132981000D01*
X105365740Y-132981000D01*
X105299557Y-132974481D01*
X105233373Y-132967963D01*
X105063534Y-132916443D01*
X104907009Y-132832778D01*
X104871271Y-132803448D01*
X104769814Y-132720186D01*
X104686552Y-132618729D01*
X104657222Y-132582991D01*
X104573557Y-132426466D01*
X104522037Y-132256627D01*
X104504641Y-132080000D01*
X104522037Y-131903373D01*
X104573557Y-131733534D01*
X104657222Y-131577009D01*
X104686552Y-131541271D01*
X104769814Y-131439814D01*
X104871271Y-131356552D01*
X104907009Y-131327222D01*
X105063534Y-131243557D01*
X105233373Y-131192037D01*
X105299558Y-131185518D01*
X105365740Y-131179000D01*
X105454260Y-131179000D01*
X105520442Y-131185518D01*
X105520442Y-131185518D01*
G37*
G36*
X143620443Y-128645519D02*
G01*
X143686627Y-128652037D01*
X143856466Y-128703557D01*
X144012991Y-128787222D01*
X144048729Y-128816552D01*
X144150186Y-128899814D01*
X144233448Y-129001271D01*
X144262778Y-129037009D01*
X144346443Y-129193534D01*
X144397963Y-129363373D01*
X144415359Y-129540000D01*
X144397963Y-129716627D01*
X144346443Y-129886466D01*
X144262778Y-130042991D01*
X144233448Y-130078729D01*
X144150186Y-130180186D01*
X144048729Y-130263448D01*
X144012991Y-130292778D01*
X143856466Y-130376443D01*
X143686627Y-130427963D01*
X143620443Y-130434481D01*
X143554260Y-130441000D01*
X143465740Y-130441000D01*
X143399557Y-130434481D01*
X143333373Y-130427963D01*
X143163534Y-130376443D01*
X143007009Y-130292778D01*
X142971271Y-130263448D01*
X142869814Y-130180186D01*
X142786552Y-130078729D01*
X142757222Y-130042991D01*
X142673557Y-129886466D01*
X142622037Y-129716627D01*
X142604641Y-129540000D01*
X142622037Y-129363373D01*
X142673557Y-129193534D01*
X142757222Y-129037009D01*
X142786552Y-129001271D01*
X142869814Y-128899814D01*
X142971271Y-128816552D01*
X143007009Y-128787222D01*
X143163534Y-128703557D01*
X143333373Y-128652037D01*
X143399557Y-128645519D01*
X143465740Y-128639000D01*
X143554260Y-128639000D01*
X143620443Y-128645519D01*
X143620443Y-128645519D01*
G37*
G36*
X105520443Y-128645519D02*
G01*
X105586627Y-128652037D01*
X105756466Y-128703557D01*
X105912991Y-128787222D01*
X105948729Y-128816552D01*
X106050186Y-128899814D01*
X106133448Y-129001271D01*
X106162778Y-129037009D01*
X106246443Y-129193534D01*
X106297963Y-129363373D01*
X106315359Y-129540000D01*
X106297963Y-129716627D01*
X106246443Y-129886466D01*
X106162778Y-130042991D01*
X106133448Y-130078729D01*
X106050186Y-130180186D01*
X105948729Y-130263448D01*
X105912991Y-130292778D01*
X105756466Y-130376443D01*
X105586627Y-130427963D01*
X105520443Y-130434481D01*
X105454260Y-130441000D01*
X105365740Y-130441000D01*
X105299557Y-130434481D01*
X105233373Y-130427963D01*
X105063534Y-130376443D01*
X104907009Y-130292778D01*
X104871271Y-130263448D01*
X104769814Y-130180186D01*
X104686552Y-130078729D01*
X104657222Y-130042991D01*
X104573557Y-129886466D01*
X104522037Y-129716627D01*
X104504641Y-129540000D01*
X104522037Y-129363373D01*
X104573557Y-129193534D01*
X104657222Y-129037009D01*
X104686552Y-129001271D01*
X104769814Y-128899814D01*
X104871271Y-128816552D01*
X104907009Y-128787222D01*
X105063534Y-128703557D01*
X105233373Y-128652037D01*
X105299557Y-128645519D01*
X105365740Y-128639000D01*
X105454260Y-128639000D01*
X105520443Y-128645519D01*
X105520443Y-128645519D01*
G37*
G36*
X89801000Y-127901000D02*
G01*
X87999000Y-127901000D01*
X87999000Y-126099000D01*
X89801000Y-126099000D01*
X89801000Y-127901000D01*
X89801000Y-127901000D01*
G37*
G36*
X106311000Y-127901000D02*
G01*
X104509000Y-127901000D01*
X104509000Y-126099000D01*
X106311000Y-126099000D01*
X106311000Y-127901000D01*
X106311000Y-127901000D01*
G37*
G36*
X144411000Y-127901000D02*
G01*
X142609000Y-127901000D01*
X142609000Y-126099000D01*
X144411000Y-126099000D01*
X144411000Y-127901000D01*
X144411000Y-127901000D01*
G37*
G36*
X150761000Y-125361000D02*
G01*
X148959000Y-125361000D01*
X148959000Y-123559000D01*
X150761000Y-123559000D01*
X150761000Y-125361000D01*
X150761000Y-125361000D01*
G37*
G36*
X152510442Y-123565518D02*
G01*
X152576627Y-123572037D01*
X152746466Y-123623557D01*
X152902991Y-123707222D01*
X152938729Y-123736552D01*
X153040186Y-123819814D01*
X153123448Y-123921271D01*
X153152778Y-123957009D01*
X153236443Y-124113534D01*
X153287963Y-124283373D01*
X153305359Y-124460000D01*
X153287963Y-124636627D01*
X153236443Y-124806466D01*
X153152778Y-124962991D01*
X153123448Y-124998729D01*
X153040186Y-125100186D01*
X152938729Y-125183448D01*
X152902991Y-125212778D01*
X152746466Y-125296443D01*
X152576627Y-125347963D01*
X152510442Y-125354482D01*
X152444260Y-125361000D01*
X152355740Y-125361000D01*
X152289558Y-125354482D01*
X152223373Y-125347963D01*
X152053534Y-125296443D01*
X151897009Y-125212778D01*
X151861271Y-125183448D01*
X151759814Y-125100186D01*
X151676552Y-124998729D01*
X151647222Y-124962991D01*
X151563557Y-124806466D01*
X151512037Y-124636627D01*
X151494641Y-124460000D01*
X151512037Y-124283373D01*
X151563557Y-124113534D01*
X151647222Y-123957009D01*
X151676552Y-123921271D01*
X151759814Y-123819814D01*
X151861271Y-123736552D01*
X151897009Y-123707222D01*
X152053534Y-123623557D01*
X152223373Y-123572037D01*
X152289558Y-123565518D01*
X152355740Y-123559000D01*
X152444260Y-123559000D01*
X152510442Y-123565518D01*
X152510442Y-123565518D01*
G37*
G36*
X89010442Y-123565518D02*
G01*
X89076627Y-123572037D01*
X89246466Y-123623557D01*
X89402991Y-123707222D01*
X89438729Y-123736552D01*
X89540186Y-123819814D01*
X89623448Y-123921271D01*
X89652778Y-123957009D01*
X89736443Y-124113534D01*
X89787963Y-124283373D01*
X89805359Y-124460000D01*
X89787963Y-124636627D01*
X89736443Y-124806466D01*
X89652778Y-124962991D01*
X89623448Y-124998729D01*
X89540186Y-125100186D01*
X89438729Y-125183448D01*
X89402991Y-125212778D01*
X89246466Y-125296443D01*
X89076627Y-125347963D01*
X89010442Y-125354482D01*
X88944260Y-125361000D01*
X88855740Y-125361000D01*
X88789558Y-125354482D01*
X88723373Y-125347963D01*
X88553534Y-125296443D01*
X88397009Y-125212778D01*
X88361271Y-125183448D01*
X88259814Y-125100186D01*
X88176552Y-124998729D01*
X88147222Y-124962991D01*
X88063557Y-124806466D01*
X88012037Y-124636627D01*
X87994641Y-124460000D01*
X88012037Y-124283373D01*
X88063557Y-124113534D01*
X88147222Y-123957009D01*
X88176552Y-123921271D01*
X88259814Y-123819814D01*
X88361271Y-123736552D01*
X88397009Y-123707222D01*
X88553534Y-123623557D01*
X88723373Y-123572037D01*
X88789558Y-123565518D01*
X88855740Y-123559000D01*
X88944260Y-123559000D01*
X89010442Y-123565518D01*
X89010442Y-123565518D01*
G37*
G36*
X89010442Y-121025518D02*
G01*
X89076627Y-121032037D01*
X89246466Y-121083557D01*
X89402991Y-121167222D01*
X89438729Y-121196552D01*
X89540186Y-121279814D01*
X89623448Y-121381271D01*
X89652778Y-121417009D01*
X89736443Y-121573534D01*
X89787963Y-121743373D01*
X89805359Y-121920000D01*
X89787963Y-122096627D01*
X89736443Y-122266466D01*
X89652778Y-122422991D01*
X89623448Y-122458729D01*
X89540186Y-122560186D01*
X89438729Y-122643448D01*
X89402991Y-122672778D01*
X89246466Y-122756443D01*
X89076627Y-122807963D01*
X89010443Y-122814481D01*
X88944260Y-122821000D01*
X88855740Y-122821000D01*
X88789557Y-122814481D01*
X88723373Y-122807963D01*
X88553534Y-122756443D01*
X88397009Y-122672778D01*
X88361271Y-122643448D01*
X88259814Y-122560186D01*
X88176552Y-122458729D01*
X88147222Y-122422991D01*
X88063557Y-122266466D01*
X88012037Y-122096627D01*
X87994641Y-121920000D01*
X88012037Y-121743373D01*
X88063557Y-121573534D01*
X88147222Y-121417009D01*
X88176552Y-121381271D01*
X88259814Y-121279814D01*
X88361271Y-121196552D01*
X88397009Y-121167222D01*
X88553534Y-121083557D01*
X88723373Y-121032037D01*
X88789558Y-121025518D01*
X88855740Y-121019000D01*
X88944260Y-121019000D01*
X89010442Y-121025518D01*
X89010442Y-121025518D01*
G37*
G36*
X165135000Y-120431000D02*
G01*
X163033000Y-120431000D01*
X163033000Y-118329000D01*
X165135000Y-118329000D01*
X165135000Y-120431000D01*
X165135000Y-120431000D01*
G37*
G36*
X169390564Y-118369389D02*
G01*
X169581833Y-118448615D01*
X169581835Y-118448616D01*
X169646819Y-118492037D01*
X169753973Y-118563635D01*
X169900365Y-118710027D01*
X170015385Y-118882167D01*
X170094611Y-119073436D01*
X170135000Y-119276484D01*
X170135000Y-119483516D01*
X170094611Y-119686564D01*
X170078083Y-119726466D01*
X170015384Y-119877835D01*
X169900365Y-120049973D01*
X169753973Y-120196365D01*
X169581835Y-120311384D01*
X169581834Y-120311385D01*
X169581833Y-120311385D01*
X169390564Y-120390611D01*
X169187516Y-120431000D01*
X168980484Y-120431000D01*
X168777436Y-120390611D01*
X168586167Y-120311385D01*
X168586166Y-120311385D01*
X168586165Y-120311384D01*
X168414027Y-120196365D01*
X168267635Y-120049973D01*
X168152616Y-119877835D01*
X168089917Y-119726466D01*
X168073389Y-119686564D01*
X168033000Y-119483516D01*
X168033000Y-119276484D01*
X168073389Y-119073436D01*
X168152615Y-118882167D01*
X168267635Y-118710027D01*
X168414027Y-118563635D01*
X168521181Y-118492037D01*
X168586165Y-118448616D01*
X168586167Y-118448615D01*
X168777436Y-118369389D01*
X168980484Y-118329000D01*
X169187516Y-118329000D01*
X169390564Y-118369389D01*
X169390564Y-118369389D01*
G37*
G36*
X89010442Y-118485518D02*
G01*
X89076627Y-118492037D01*
X89246466Y-118543557D01*
X89402991Y-118627222D01*
X89438729Y-118656552D01*
X89540186Y-118739814D01*
X89623448Y-118841271D01*
X89652778Y-118877009D01*
X89736443Y-119033534D01*
X89787963Y-119203373D01*
X89805359Y-119380000D01*
X89787963Y-119556627D01*
X89736443Y-119726466D01*
X89652778Y-119882991D01*
X89623448Y-119918729D01*
X89540186Y-120020186D01*
X89438729Y-120103448D01*
X89402991Y-120132778D01*
X89246466Y-120216443D01*
X89076627Y-120267963D01*
X89010442Y-120274482D01*
X88944260Y-120281000D01*
X88855740Y-120281000D01*
X88789558Y-120274482D01*
X88723373Y-120267963D01*
X88553534Y-120216443D01*
X88397009Y-120132778D01*
X88361271Y-120103448D01*
X88259814Y-120020186D01*
X88176552Y-119918729D01*
X88147222Y-119882991D01*
X88063557Y-119726466D01*
X88012037Y-119556627D01*
X87994641Y-119380000D01*
X88012037Y-119203373D01*
X88063557Y-119033534D01*
X88147222Y-118877009D01*
X88176552Y-118841271D01*
X88259814Y-118739814D01*
X88361271Y-118656552D01*
X88397009Y-118627222D01*
X88553534Y-118543557D01*
X88723373Y-118492037D01*
X88789558Y-118485518D01*
X88855740Y-118479000D01*
X88944260Y-118479000D01*
X89010442Y-118485518D01*
X89010442Y-118485518D01*
G37*
G36*
X111246228Y-118140703D02*
G01*
X111401100Y-118204853D01*
X111540481Y-118297985D01*
X111659015Y-118416519D01*
X111752147Y-118555900D01*
X111816297Y-118710772D01*
X111849000Y-118875184D01*
X111849000Y-119042816D01*
X111816297Y-119207228D01*
X111752147Y-119362100D01*
X111659015Y-119501481D01*
X111540481Y-119620015D01*
X111401100Y-119713147D01*
X111246228Y-119777297D01*
X111081816Y-119810000D01*
X110914184Y-119810000D01*
X110749772Y-119777297D01*
X110594900Y-119713147D01*
X110455519Y-119620015D01*
X110336985Y-119501481D01*
X110243853Y-119362100D01*
X110179703Y-119207228D01*
X110147000Y-119042816D01*
X110147000Y-118875184D01*
X110179703Y-118710772D01*
X110243853Y-118555900D01*
X110336985Y-118416519D01*
X110455519Y-118297985D01*
X110594900Y-118204853D01*
X110749772Y-118140703D01*
X110914184Y-118108000D01*
X111081816Y-118108000D01*
X111246228Y-118140703D01*
X111246228Y-118140703D01*
G37*
G36*
X89010442Y-115945518D02*
G01*
X89076627Y-115952037D01*
X89246466Y-116003557D01*
X89402991Y-116087222D01*
X89438729Y-116116552D01*
X89540186Y-116199814D01*
X89623448Y-116301271D01*
X89652778Y-116337009D01*
X89736443Y-116493534D01*
X89787963Y-116663373D01*
X89805359Y-116840000D01*
X89787963Y-117016627D01*
X89736443Y-117186466D01*
X89652778Y-117342991D01*
X89623448Y-117378729D01*
X89540186Y-117480186D01*
X89438729Y-117563448D01*
X89402991Y-117592778D01*
X89246466Y-117676443D01*
X89076627Y-117727963D01*
X89010442Y-117734482D01*
X88944260Y-117741000D01*
X88855740Y-117741000D01*
X88789558Y-117734482D01*
X88723373Y-117727963D01*
X88553534Y-117676443D01*
X88397009Y-117592778D01*
X88361271Y-117563448D01*
X88259814Y-117480186D01*
X88176552Y-117378729D01*
X88147222Y-117342991D01*
X88063557Y-117186466D01*
X88012037Y-117016627D01*
X87994641Y-116840000D01*
X88012037Y-116663373D01*
X88063557Y-116493534D01*
X88147222Y-116337009D01*
X88176552Y-116301271D01*
X88259814Y-116199814D01*
X88361271Y-116116552D01*
X88397009Y-116087222D01*
X88553534Y-116003557D01*
X88723373Y-115952037D01*
X88789558Y-115945518D01*
X88855740Y-115939000D01*
X88944260Y-115939000D01*
X89010442Y-115945518D01*
X89010442Y-115945518D01*
G37*
G36*
X111849000Y-117310000D02*
G01*
X110147000Y-117310000D01*
X110147000Y-115608000D01*
X111849000Y-115608000D01*
X111849000Y-117310000D01*
X111849000Y-117310000D01*
G37*
G36*
X132582228Y-113695703D02*
G01*
X132737100Y-113759853D01*
X132876481Y-113852985D01*
X132995015Y-113971519D01*
X133088147Y-114110900D01*
X133152297Y-114265772D01*
X133185000Y-114430184D01*
X133185000Y-114597816D01*
X133152297Y-114762228D01*
X133088147Y-114917100D01*
X132995015Y-115056481D01*
X132876481Y-115175015D01*
X132737100Y-115268147D01*
X132582228Y-115332297D01*
X132417816Y-115365000D01*
X132250184Y-115365000D01*
X132085772Y-115332297D01*
X131930900Y-115268147D01*
X131791519Y-115175015D01*
X131672985Y-115056481D01*
X131579853Y-114917100D01*
X131515703Y-114762228D01*
X131483000Y-114597816D01*
X131483000Y-114430184D01*
X131515703Y-114265772D01*
X131579853Y-114110900D01*
X131672985Y-113971519D01*
X131791519Y-113852985D01*
X131930900Y-113759853D01*
X132085772Y-113695703D01*
X132250184Y-113663000D01*
X132417816Y-113663000D01*
X132582228Y-113695703D01*
X132582228Y-113695703D01*
G37*
G36*
X89010443Y-113405519D02*
G01*
X89076627Y-113412037D01*
X89246466Y-113463557D01*
X89402991Y-113547222D01*
X89438729Y-113576552D01*
X89540186Y-113659814D01*
X89620576Y-113757771D01*
X89652778Y-113797009D01*
X89652779Y-113797011D01*
X89719687Y-113922185D01*
X89736443Y-113953534D01*
X89787963Y-114123373D01*
X89805359Y-114300000D01*
X89787963Y-114476627D01*
X89736443Y-114646466D01*
X89652778Y-114802991D01*
X89635294Y-114824295D01*
X89540186Y-114940186D01*
X89438729Y-115023448D01*
X89402991Y-115052778D01*
X89246466Y-115136443D01*
X89076627Y-115187963D01*
X89010442Y-115194482D01*
X88944260Y-115201000D01*
X88855740Y-115201000D01*
X88789558Y-115194482D01*
X88723373Y-115187963D01*
X88553534Y-115136443D01*
X88397009Y-115052778D01*
X88361271Y-115023448D01*
X88259814Y-114940186D01*
X88164706Y-114824295D01*
X88147222Y-114802991D01*
X88063557Y-114646466D01*
X88012037Y-114476627D01*
X87994641Y-114300000D01*
X88012037Y-114123373D01*
X88063557Y-113953534D01*
X88080314Y-113922185D01*
X88147221Y-113797011D01*
X88147222Y-113797009D01*
X88179424Y-113757771D01*
X88259814Y-113659814D01*
X88361271Y-113576552D01*
X88397009Y-113547222D01*
X88553534Y-113463557D01*
X88723373Y-113412037D01*
X88789557Y-113405519D01*
X88855740Y-113399000D01*
X88944260Y-113399000D01*
X89010443Y-113405519D01*
X89010443Y-113405519D01*
G37*
G36*
X125470228Y-113187703D02*
G01*
X125625100Y-113251853D01*
X125764481Y-113344985D01*
X125883015Y-113463519D01*
X125976147Y-113602900D01*
X126040297Y-113757772D01*
X126073000Y-113922184D01*
X126073000Y-114089816D01*
X126040297Y-114254228D01*
X125976147Y-114409100D01*
X125883015Y-114548481D01*
X125764481Y-114667015D01*
X125625100Y-114760147D01*
X125470228Y-114824297D01*
X125305816Y-114857000D01*
X125138184Y-114857000D01*
X124973772Y-114824297D01*
X124818900Y-114760147D01*
X124679519Y-114667015D01*
X124560985Y-114548481D01*
X124467853Y-114409100D01*
X124403703Y-114254228D01*
X124371000Y-114089816D01*
X124371000Y-113922184D01*
X124403703Y-113757772D01*
X124467853Y-113602900D01*
X124560985Y-113463519D01*
X124679519Y-113344985D01*
X124818900Y-113251853D01*
X124973772Y-113187703D01*
X125138184Y-113155000D01*
X125305816Y-113155000D01*
X125470228Y-113187703D01*
X125470228Y-113187703D01*
G37*
G36*
X133185000Y-112865000D02*
G01*
X131483000Y-112865000D01*
X131483000Y-111163000D01*
X133185000Y-111163000D01*
X133185000Y-112865000D01*
X133185000Y-112865000D01*
G37*
G36*
X89010442Y-110865518D02*
G01*
X89076627Y-110872037D01*
X89246466Y-110923557D01*
X89402991Y-111007222D01*
X89438729Y-111036552D01*
X89540186Y-111119814D01*
X89623448Y-111221271D01*
X89652778Y-111257009D01*
X89736443Y-111413534D01*
X89787963Y-111583373D01*
X89805359Y-111760000D01*
X89787963Y-111936627D01*
X89736443Y-112106466D01*
X89652778Y-112262991D01*
X89623448Y-112298729D01*
X89540186Y-112400186D01*
X89438729Y-112483448D01*
X89402991Y-112512778D01*
X89246466Y-112596443D01*
X89076627Y-112647963D01*
X89010442Y-112654482D01*
X88944260Y-112661000D01*
X88855740Y-112661000D01*
X88789558Y-112654482D01*
X88723373Y-112647963D01*
X88553534Y-112596443D01*
X88397009Y-112512778D01*
X88361271Y-112483448D01*
X88259814Y-112400186D01*
X88176552Y-112298729D01*
X88147222Y-112262991D01*
X88063557Y-112106466D01*
X88012037Y-111936627D01*
X87994641Y-111760000D01*
X88012037Y-111583373D01*
X88063557Y-111413534D01*
X88147222Y-111257009D01*
X88176552Y-111221271D01*
X88259814Y-111119814D01*
X88361271Y-111036552D01*
X88397009Y-111007222D01*
X88553534Y-110923557D01*
X88723373Y-110872037D01*
X88789558Y-110865518D01*
X88855740Y-110859000D01*
X88944260Y-110859000D01*
X89010442Y-110865518D01*
X89010442Y-110865518D01*
G37*
G36*
X126073000Y-112357000D02*
G01*
X124371000Y-112357000D01*
X124371000Y-110655000D01*
X126073000Y-110655000D01*
X126073000Y-112357000D01*
X126073000Y-112357000D01*
G37*
G36*
X171081000Y-111391000D02*
G01*
X169279000Y-111391000D01*
X169279000Y-109589000D01*
X171081000Y-109589000D01*
X171081000Y-111391000D01*
X171081000Y-111391000D01*
G37*
G36*
X89010443Y-108325519D02*
G01*
X89076627Y-108332037D01*
X89246466Y-108383557D01*
X89402991Y-108467222D01*
X89438729Y-108496552D01*
X89540186Y-108579814D01*
X89623448Y-108681271D01*
X89652778Y-108717009D01*
X89736443Y-108873534D01*
X89787963Y-109043373D01*
X89805359Y-109220000D01*
X89787963Y-109396627D01*
X89736443Y-109566466D01*
X89652778Y-109722991D01*
X89623448Y-109758729D01*
X89540186Y-109860186D01*
X89438729Y-109943448D01*
X89402991Y-109972778D01*
X89246466Y-110056443D01*
X89076627Y-110107963D01*
X89010443Y-110114481D01*
X88944260Y-110121000D01*
X88855740Y-110121000D01*
X88789557Y-110114481D01*
X88723373Y-110107963D01*
X88553534Y-110056443D01*
X88397009Y-109972778D01*
X88361271Y-109943448D01*
X88259814Y-109860186D01*
X88176552Y-109758729D01*
X88147222Y-109722991D01*
X88063557Y-109566466D01*
X88012037Y-109396627D01*
X87994641Y-109220000D01*
X88012037Y-109043373D01*
X88063557Y-108873534D01*
X88147222Y-108717009D01*
X88176552Y-108681271D01*
X88259814Y-108579814D01*
X88361271Y-108496552D01*
X88397009Y-108467222D01*
X88553534Y-108383557D01*
X88723373Y-108332037D01*
X88789557Y-108325519D01*
X88855740Y-108319000D01*
X88944260Y-108319000D01*
X89010443Y-108325519D01*
X89010443Y-108325519D01*
G37*
G36*
X165453564Y-107574389D02*
G01*
X165644833Y-107653615D01*
X165644835Y-107653616D01*
X165816973Y-107768635D01*
X165963365Y-107915027D01*
X166078385Y-108087167D01*
X166157611Y-108278436D01*
X166198000Y-108481484D01*
X166198000Y-108688516D01*
X166157611Y-108891564D01*
X166094730Y-109043373D01*
X166078384Y-109082835D01*
X165963365Y-109254973D01*
X165816973Y-109401365D01*
X165644835Y-109516384D01*
X165644834Y-109516385D01*
X165644833Y-109516385D01*
X165453564Y-109595611D01*
X165250516Y-109636000D01*
X165043484Y-109636000D01*
X164840436Y-109595611D01*
X164649167Y-109516385D01*
X164649166Y-109516385D01*
X164649165Y-109516384D01*
X164477027Y-109401365D01*
X164330635Y-109254973D01*
X164215616Y-109082835D01*
X164199270Y-109043373D01*
X164136389Y-108891564D01*
X164096000Y-108688516D01*
X164096000Y-108481484D01*
X164136389Y-108278436D01*
X164215615Y-108087167D01*
X164330635Y-107915027D01*
X164477027Y-107768635D01*
X164649165Y-107653616D01*
X164649167Y-107653615D01*
X164840436Y-107574389D01*
X165043484Y-107534000D01*
X165250516Y-107534000D01*
X165453564Y-107574389D01*
X165453564Y-107574389D01*
G37*
G36*
X161198000Y-109636000D02*
G01*
X159096000Y-109636000D01*
X159096000Y-107534000D01*
X161198000Y-107534000D01*
X161198000Y-109636000D01*
X161198000Y-109636000D01*
G37*
G36*
X170290442Y-107055518D02*
G01*
X170356627Y-107062037D01*
X170526466Y-107113557D01*
X170682991Y-107197222D01*
X170718729Y-107226552D01*
X170820186Y-107309814D01*
X170903448Y-107411271D01*
X170932778Y-107447009D01*
X171016443Y-107603534D01*
X171067963Y-107773373D01*
X171085359Y-107950000D01*
X171067963Y-108126627D01*
X171016443Y-108296466D01*
X170932778Y-108452991D01*
X170903448Y-108488729D01*
X170820186Y-108590186D01*
X170718729Y-108673448D01*
X170682991Y-108702778D01*
X170526466Y-108786443D01*
X170356627Y-108837963D01*
X170290442Y-108844482D01*
X170224260Y-108851000D01*
X170135740Y-108851000D01*
X170069558Y-108844482D01*
X170003373Y-108837963D01*
X169833534Y-108786443D01*
X169677009Y-108702778D01*
X169641271Y-108673448D01*
X169539814Y-108590186D01*
X169456552Y-108488729D01*
X169427222Y-108452991D01*
X169343557Y-108296466D01*
X169292037Y-108126627D01*
X169274641Y-107950000D01*
X169292037Y-107773373D01*
X169343557Y-107603534D01*
X169427222Y-107447009D01*
X169456552Y-107411271D01*
X169539814Y-107309814D01*
X169641271Y-107226552D01*
X169677009Y-107197222D01*
X169833534Y-107113557D01*
X170003373Y-107062037D01*
X170069558Y-107055518D01*
X170135740Y-107049000D01*
X170224260Y-107049000D01*
X170290442Y-107055518D01*
X170290442Y-107055518D01*
G37*
G36*
X130666442Y-107055518D02*
G01*
X130732627Y-107062037D01*
X130902466Y-107113557D01*
X131058991Y-107197222D01*
X131094729Y-107226552D01*
X131196186Y-107309814D01*
X131279448Y-107411271D01*
X131308778Y-107447009D01*
X131392443Y-107603534D01*
X131443963Y-107773373D01*
X131461359Y-107950000D01*
X131443963Y-108126627D01*
X131392443Y-108296466D01*
X131308778Y-108452991D01*
X131279448Y-108488729D01*
X131196186Y-108590186D01*
X131094729Y-108673448D01*
X131058991Y-108702778D01*
X130902466Y-108786443D01*
X130732627Y-108837963D01*
X130666442Y-108844482D01*
X130600260Y-108851000D01*
X130511740Y-108851000D01*
X130445558Y-108844482D01*
X130379373Y-108837963D01*
X130209534Y-108786443D01*
X130053009Y-108702778D01*
X130017271Y-108673448D01*
X129915814Y-108590186D01*
X129832552Y-108488729D01*
X129803222Y-108452991D01*
X129719557Y-108296466D01*
X129668037Y-108126627D01*
X129650641Y-107950000D01*
X129668037Y-107773373D01*
X129719557Y-107603534D01*
X129803222Y-107447009D01*
X129832552Y-107411271D01*
X129915814Y-107309814D01*
X130017271Y-107226552D01*
X130053009Y-107197222D01*
X130209534Y-107113557D01*
X130379373Y-107062037D01*
X130445558Y-107055518D01*
X130511740Y-107049000D01*
X130600260Y-107049000D01*
X130666442Y-107055518D01*
X130666442Y-107055518D01*
G37*
G36*
X133997000Y-108851000D02*
G01*
X132195000Y-108851000D01*
X132195000Y-107049000D01*
X133997000Y-107049000D01*
X133997000Y-108851000D01*
X133997000Y-108851000D01*
G37*
G36*
X168821632Y-96434677D02*
G01*
X169127005Y-96561167D01*
X169558868Y-96740050D01*
X170222362Y-97183383D01*
X170786617Y-97747638D01*
X171229950Y-98411132D01*
X171244389Y-98445992D01*
X171535323Y-99148368D01*
X171691000Y-99931010D01*
X171691000Y-100728990D01*
X171535323Y-101511632D01*
X171493749Y-101612000D01*
X171229950Y-102248868D01*
X170786617Y-102912362D01*
X170222362Y-103476617D01*
X169558868Y-103919950D01*
X169154503Y-104087443D01*
X168821632Y-104225323D01*
X168038990Y-104381000D01*
X167241010Y-104381000D01*
X166458368Y-104225323D01*
X166125497Y-104087443D01*
X165721132Y-103919950D01*
X165057638Y-103476617D01*
X164493383Y-102912362D01*
X164050050Y-102248868D01*
X163786251Y-101612000D01*
X163744677Y-101511632D01*
X163589000Y-100728990D01*
X163589000Y-99931010D01*
X163744677Y-99148368D01*
X164035611Y-98445992D01*
X164050050Y-98411132D01*
X164493383Y-97747638D01*
X165057638Y-97183383D01*
X165721132Y-96740050D01*
X166152995Y-96561167D01*
X166458368Y-96434677D01*
X167241010Y-96279000D01*
X168038990Y-96279000D01*
X168821632Y-96434677D01*
X168821632Y-96434677D01*
G37*
G36*
X110401632Y-96434677D02*
G01*
X110707005Y-96561167D01*
X111138868Y-96740050D01*
X111802362Y-97183383D01*
X112366617Y-97747638D01*
X112809950Y-98411132D01*
X112824389Y-98445992D01*
X113115323Y-99148368D01*
X113271000Y-99931010D01*
X113271000Y-100728990D01*
X113115323Y-101511632D01*
X113073749Y-101612000D01*
X112809950Y-102248868D01*
X112366617Y-102912362D01*
X111802362Y-103476617D01*
X111138868Y-103919950D01*
X110734503Y-104087443D01*
X110401632Y-104225323D01*
X109618990Y-104381000D01*
X108821010Y-104381000D01*
X108038368Y-104225323D01*
X107705497Y-104087443D01*
X107301132Y-103919950D01*
X106637638Y-103476617D01*
X106073383Y-102912362D01*
X105630050Y-102248868D01*
X105366251Y-101612000D01*
X105324677Y-101511632D01*
X105169000Y-100728990D01*
X105169000Y-99931010D01*
X105324677Y-99148368D01*
X105615611Y-98445992D01*
X105630050Y-98411132D01*
X106073383Y-97747638D01*
X106637638Y-97183383D01*
X107301132Y-96740050D01*
X107732995Y-96561167D01*
X108038368Y-96434677D01*
X108821010Y-96279000D01*
X109618990Y-96279000D01*
X110401632Y-96434677D01*
X110401632Y-96434677D01*
G37*
G36*
X92621632Y-96434677D02*
G01*
X92927005Y-96561167D01*
X93358868Y-96740050D01*
X94022362Y-97183383D01*
X94586617Y-97747638D01*
X95029950Y-98411132D01*
X95044389Y-98445992D01*
X95335323Y-99148368D01*
X95491000Y-99931010D01*
X95491000Y-100728990D01*
X95335323Y-101511632D01*
X95293749Y-101612000D01*
X95029950Y-102248868D01*
X94586617Y-102912362D01*
X94022362Y-103476617D01*
X93358868Y-103919950D01*
X92954503Y-104087443D01*
X92621632Y-104225323D01*
X91838990Y-104381000D01*
X91041010Y-104381000D01*
X90258368Y-104225323D01*
X89925497Y-104087443D01*
X89521132Y-103919950D01*
X88857638Y-103476617D01*
X88293383Y-102912362D01*
X87850050Y-102248868D01*
X87586251Y-101612000D01*
X87544677Y-101511632D01*
X87389000Y-100728990D01*
X87389000Y-99931010D01*
X87544677Y-99148368D01*
X87835611Y-98445992D01*
X87850050Y-98411132D01*
X88293383Y-97747638D01*
X88857638Y-97183383D01*
X89521132Y-96740050D01*
X89952995Y-96561167D01*
X90258368Y-96434677D01*
X91041010Y-96279000D01*
X91838990Y-96279000D01*
X92621632Y-96434677D01*
X92621632Y-96434677D01*
G37*
G36*
X135238442Y-102356518D02*
G01*
X135304627Y-102363037D01*
X135474466Y-102414557D01*
X135630991Y-102498222D01*
X135666729Y-102527552D01*
X135768186Y-102610814D01*
X135851448Y-102712271D01*
X135880778Y-102748009D01*
X135964443Y-102904534D01*
X136015963Y-103074373D01*
X136033359Y-103251000D01*
X136015963Y-103427627D01*
X135964443Y-103597466D01*
X135880778Y-103753991D01*
X135864373Y-103773980D01*
X135768186Y-103891186D01*
X135666729Y-103974448D01*
X135630991Y-104003778D01*
X135474466Y-104087443D01*
X135304627Y-104138963D01*
X135238443Y-104145481D01*
X135172260Y-104152000D01*
X135083740Y-104152000D01*
X135017558Y-104145482D01*
X134951373Y-104138963D01*
X134781534Y-104087443D01*
X134625009Y-104003778D01*
X134589271Y-103974448D01*
X134487814Y-103891186D01*
X134391627Y-103773980D01*
X134375222Y-103753991D01*
X134291557Y-103597466D01*
X134240037Y-103427627D01*
X134222641Y-103251000D01*
X134240037Y-103074373D01*
X134291557Y-102904534D01*
X134375222Y-102748009D01*
X134404552Y-102712271D01*
X134487814Y-102610814D01*
X134589271Y-102527552D01*
X134625009Y-102498222D01*
X134781534Y-102414557D01*
X134951373Y-102363037D01*
X135017557Y-102356519D01*
X135083740Y-102350000D01*
X135172260Y-102350000D01*
X135238442Y-102356518D01*
X135238442Y-102356518D01*
G37*
G36*
X136029000Y-101612000D02*
G01*
X134227000Y-101612000D01*
X134227000Y-99810000D01*
X136029000Y-99810000D01*
X136029000Y-101612000D01*
X136029000Y-101612000D01*
G37*
M02*
