M48
; DRILL file {KiCad (5.1.4)-1} date 2020-01-10 0:38:30
; FORMAT={-:-/ absolute / metric / decimal}
; #@! TF.CreationDate,2020-01-10T00:38:30-06:00
; #@! TF.GenerationSoftware,Kicad,Pcbnew,(5.1.4)-1
; #@! TF.FileFunction,Plated,1,4,PTH
FMAT,2
METRIC
T1C0.400
T2C0.600
T3C0.800
T4C1.000
T5C4.000
%
G90
G05
T1
X88.011Y-104.14
X88.011Y-107.188
X88.011Y-129.921
X88.011Y-135.89
X88.011Y-142.113
X88.011Y-148.336
X88.011Y-158.496
X88.646Y-133.604
X88.646Y-138.176
X90.17Y-152.527
X90.17Y-162.687
X90.416Y-133.993
X90.424Y-130.493
X90.678Y-116.84
X91.694Y-107.442
X91.773Y-143.05
X92.71Y-142.748
X93.091Y-110.871
X93.472Y-137.287
X93.472Y-138.303
X94.488Y-138.303
X94.742Y-133.858
X94.742Y-134.874
X95.721Y-149.442
X95.885Y-113.538
X96.266Y-143.256
X96.647Y-163.068
X96.901Y-113.538
X96.965Y-144.208
X97.028Y-149.987
X97.028Y-156.718
X97.79Y-161.544
X97.917Y-131.699
X98.044Y-101.346
X98.044Y-102.362
X98.044Y-103.378
X98.044Y-104.394
X98.044Y-123.571
X98.552Y-96.774
X98.552Y-149.987
X98.552Y-156.718
X98.933Y-163.068
X99.06Y-110.109
X100.123Y-131.344
X100.203Y-116.459
X100.233Y-145.258
X101.015Y-132.323
X101.082Y-131.351
X101.092Y-138.811
X101.092Y-140.843
X101.261Y-152.4
X101.346Y-124.206
X101.346Y-129.794
X101.854Y-113.919
X101.956Y-133.264
X102.108Y-96.774
X102.108Y-132.207
X102.616Y-101.346
X102.616Y-102.362
X102.616Y-103.378
X102.616Y-104.394
X102.997Y-159.766
X103.378Y-162.814
X103.632Y-151.13
X103.632Y-154.432
X103.759Y-128.397
X103.759Y-130.683
X103.759Y-132.588
X103.886Y-135.382
X103.988Y-144.399
X105.029Y-109.982
X105.156Y-124.841
X106.997Y-162.75
X107.188Y-132.334
X107.188Y-135.382
X107.188Y-137.668
X107.188Y-140.081
X107.188Y-141.859
X107.188Y-145.288
X107.188Y-148.59
X107.188Y-151.13
X107.442Y-125.73
X107.569Y-122.428
X107.569Y-157.099
X107.569Y-159.131
X108.204Y-153.543
X108.331Y-120.269
X108.585Y-112.649
X108.712Y-121.158
X108.966Y-124.206
X109.22Y-140.462
X109.22Y-142.24
X109.474Y-131.318
X109.728Y-144.653
X110.439Y-124.892
X110.617Y-132.969
X110.617Y-134.747
X110.617Y-155.575
X110.617Y-160.528
X111.379Y-109.601
X112.344Y-124.892
X112.776Y-157.988
X112.903Y-109.982
X113.411Y-138.938
X113.538Y-120.142
X113.919Y-104.14
X113.919Y-127.127
X114.173Y-118.999
X114.3Y-115.697
X114.554Y-96.266
X114.935Y-111.506
X115.57Y-159.766
X116.332Y-157.988
X116.586Y-136.779
X116.586Y-143.764
X116.586Y-145.415
X116.713Y-116.078
X116.84Y-120.396
X116.84Y-123.317
X117.094Y-129.286
X117.602Y-106.807
X117.729Y-153.543
X118.491Y-121.92
X118.618Y-147.574
X118.618Y-162.814
X118.872Y-119.964
X118.999Y-129.286
X119.126Y-158.623
X119.507Y-153.543
X120.269Y-121.92
X120.65Y-108.966
X121.158Y-135.89
X121.158Y-137.16
X121.158Y-138.43
X121.158Y-139.7
X121.158Y-140.97
X121.539Y-156.083
X121.666Y-134.366
X121.666Y-142.494
X122.047Y-103.505
X122.047Y-106.807
X122.047Y-112.141
X122.428Y-119.126
X122.682Y-120.396
X122.682Y-123.952
X122.936Y-124.968
X123.19Y-116.84
X123.19Y-133.858
X123.19Y-135.89
X123.19Y-137.16
X123.19Y-138.43
X123.19Y-139.7
X123.19Y-140.97
X123.19Y-143.002
X123.444Y-158.496
X123.571Y-129.286
X124.46Y-133.858
X124.46Y-135.89
X124.46Y-137.16
X124.46Y-138.43
X124.46Y-139.7
X124.46Y-140.97
X124.46Y-143.002
X124.968Y-147.574
X124.993Y-154.432
X125.73Y-119.126
X125.73Y-133.858
X125.73Y-135.89
X125.73Y-137.16
X125.73Y-138.43
X125.73Y-139.7
X125.73Y-140.97
X125.73Y-143.002
X126.619Y-120.142
X127.0Y-133.858
X127.0Y-135.89
X127.0Y-137.16
X127.0Y-138.43
X127.0Y-139.7
X127.0Y-140.97
X127.0Y-143.002
X127.155Y-150.622
X127.254Y-96.266
X127.762Y-158.496
X128.143Y-120.142
X128.151Y-117.744
X128.27Y-133.858
X128.27Y-135.89
X128.27Y-137.16
X128.27Y-138.43
X128.27Y-139.7
X128.27Y-140.97
X128.27Y-143.002
X128.905Y-101.6
X129.54Y-157.48
X129.667Y-116.078
X129.794Y-134.366
X129.794Y-142.494
X130.048Y-119.126
X130.302Y-135.89
X130.302Y-137.16
X130.302Y-138.43
X130.302Y-139.7
X130.302Y-140.97
X130.429Y-147.574
X130.429Y-154.94
X130.937Y-123.317
X131.572Y-121.158
X131.572Y-129.286
X132.08Y-158.496
X132.207Y-154.94
X132.334Y-96.266
X132.715Y-123.317
X133.223Y-121.158
X134.112Y-121.158
X134.366Y-147.574
X134.366Y-155.956
X134.366Y-158.496
X134.62Y-125.73
X134.874Y-134.112
X134.874Y-141.605
X135.001Y-121.158
X135.128Y-162.814
X135.382Y-115.443
X136.144Y-119.126
X136.906Y-154.94
X137.16Y-160.274
X137.287Y-149.86
X137.414Y-96.266
X137.922Y-110.617
X137.922Y-158.496
X138.176Y-118.491
X138.811Y-146.685
X139.192Y-120.396
X139.954Y-156.718
X140.208Y-162.814
X140.462Y-146.863
X140.716Y-141.732
X140.716Y-143.51
X140.843Y-118.491
X140.97Y-122.682
X141.097Y-128.27
X141.224Y-157.988
X141.478Y-117.221
X141.478Y-155.321
X141.605Y-113.792
X141.605Y-138.938
X141.605Y-153.035
X141.681Y-137.668
X142.24Y-133.858
X142.24Y-135.382
X144.272Y-119.888
X144.526Y-137.668
X145.288Y-132.334
X145.288Y-141.859
X145.288Y-143.51
X145.288Y-146.304
X145.288Y-149.86
X145.288Y-151.892
X145.288Y-154.051
X145.288Y-159.385
X145.288Y-162.814
X145.415Y-125.603
X145.415Y-128.524
X146.431Y-107.188
X146.431Y-110.49
X146.558Y-136.347
X146.939Y-119.888
X147.447Y-146.05
X147.447Y-152.146
X147.574Y-96.266
X148.209Y-123.698
X148.59Y-136.347
X148.78Y-150.812
X148.971Y-127.889
X149.86Y-133.096
X150.368Y-154.432
X150.368Y-155.575
X150.368Y-162.814
X150.749Y-161.163
X150.876Y-103.378
X151.003Y-113.157
X151.765Y-141.224
X152.171Y-107.01
X152.273Y-146.075
X152.654Y-96.266
X152.654Y-161.036
X153.289Y-153.035
X153.416Y-154.305
X153.416Y-157.226
X154.686Y-152.146
X154.686Y-157.226
X155.194Y-102.235
X155.575Y-119.38
X155.702Y-125.984
X156.464Y-157.226
X157.48Y-148.082
X157.607Y-133.096
X157.988Y-119.507
X158.242Y-134.62
X158.242Y-137.922
X162.687Y-162.814
X162.814Y-96.266
X162.814Y-159.385
X163.83Y-134.366
X163.83Y-135.382
X163.83Y-136.398
X164.846Y-129.54
X164.846Y-134.366
X164.846Y-135.382
X164.846Y-136.398
X166.878Y-132.334
X167.894Y-150.876
X171.704Y-105.156
X171.704Y-116.078
X171.704Y-121.158
X171.704Y-126.238
X171.704Y-131.318
X171.704Y-136.398
X171.704Y-148.844
X171.704Y-153.924
T2
X106.22Y-100.33
X107.099Y-98.209
X107.099Y-102.451
X109.22Y-97.33
X109.22Y-103.33
X111.341Y-98.209
X111.341Y-102.451
X112.22Y-100.33
X164.64Y-158.75
X165.519Y-156.629
X165.519Y-160.871
X167.64Y-155.75
X167.64Y-161.75
X169.761Y-156.629
X169.761Y-160.871
X170.64Y-158.75
X88.44Y-100.33
X89.319Y-98.209
X89.319Y-102.451
X91.44Y-97.33
X91.44Y-103.33
X93.561Y-98.209
X93.561Y-102.451
X94.44Y-100.33
X164.64Y-100.33
X165.519Y-98.209
X165.519Y-102.451
X167.64Y-97.33
X167.64Y-103.33
X169.761Y-98.209
X169.761Y-102.451
X170.64Y-100.33
T3
X125.222Y-111.506
X125.222Y-114.006
X132.334Y-112.014
X132.334Y-114.514
X110.998Y-116.459
X110.998Y-118.959
T4
X143.51Y-127.0
X143.51Y-129.54
X143.51Y-132.08
X143.51Y-134.62
X170.18Y-144.78
X170.18Y-147.32
X164.084Y-119.38
X169.084Y-119.38
X88.9Y-109.22
X88.9Y-111.76
X88.9Y-114.3
X88.9Y-116.84
X88.9Y-119.38
X88.9Y-121.92
X88.9Y-124.46
X88.9Y-127.0
X120.65Y-160.02
X120.65Y-162.56
X123.19Y-160.02
X123.19Y-162.56
X125.73Y-160.02
X125.73Y-162.56
X128.27Y-160.02
X128.27Y-162.56
X130.81Y-160.02
X130.81Y-162.56
X135.128Y-100.711
X135.128Y-103.251
X96.52Y-147.32
X99.06Y-147.32
X160.147Y-108.585
X165.147Y-108.585
X105.41Y-127.0
X105.41Y-129.54
X105.41Y-132.08
X105.41Y-134.62
X105.41Y-137.16
X105.41Y-139.7
X105.41Y-142.24
X105.41Y-144.78
X105.41Y-147.32
X105.41Y-149.86
X105.41Y-152.4
X105.41Y-154.94
X105.41Y-157.48
X105.41Y-160.02
X105.41Y-162.56
X170.18Y-107.95
X170.18Y-110.49
X149.86Y-124.46
X152.4Y-124.46
X143.51Y-140.97
X143.51Y-143.51
X143.51Y-146.05
X143.51Y-148.59
X143.51Y-151.13
X143.51Y-153.67
X143.51Y-156.21
X143.51Y-158.75
X130.556Y-107.95
X133.096Y-107.95
T5
X109.22Y-100.33
X167.64Y-158.75
X91.44Y-100.33
X167.64Y-100.33
T0
M30
