G04 #@! TF.GenerationSoftware,KiCad,Pcbnew,(5.1.4)-1*
G04 #@! TF.CreationDate,2020-01-10T00:36:40-06:00*
G04 #@! TF.ProjectId,Capstone,43617073-746f-46e6-952e-6b696361645f,rev?*
G04 #@! TF.SameCoordinates,Original*
G04 #@! TF.FileFunction,Soldermask,Top*
G04 #@! TF.FilePolarity,Negative*
%FSLAX46Y46*%
G04 Gerber Fmt 4.6, Leading zero omitted, Abs format (unit mm)*
G04 Created by KiCad (PCBNEW (5.1.4)-1) date 2020-01-10 00:36:40*
%MOMM*%
%LPD*%
G04 APERTURE LIST*
%ADD10C,0.100000*%
G04 APERTURE END LIST*
D10*
G36*
X156207000Y-99753000D02*
G01*
X156207000Y-100003000D01*
X156707000Y-100003000D01*
X156707000Y-99753000D01*
X156207000Y-99753000D01*
G37*
G36*
X137919000Y-108389000D02*
G01*
X137919000Y-108639000D01*
X138419000Y-108639000D01*
X138419000Y-108389000D01*
X137919000Y-108389000D01*
G37*
G36*
X125854000Y-103182000D02*
G01*
X125854000Y-103432000D01*
X126354000Y-103432000D01*
X126354000Y-103182000D01*
X125854000Y-103182000D01*
G37*
G36*
X114805000Y-103690000D02*
G01*
X114805000Y-103940000D01*
X115305000Y-103940000D01*
X115305000Y-103690000D01*
X114805000Y-103690000D01*
G37*
G36*
X116329000Y-108516000D02*
G01*
X116329000Y-108766000D01*
X116829000Y-108766000D01*
X116829000Y-108516000D01*
X116329000Y-108516000D01*
G37*
G36*
X105915000Y-109532000D02*
G01*
X105915000Y-109782000D01*
X106415000Y-109782000D01*
X106415000Y-109532000D01*
X105915000Y-109532000D01*
G37*
G36*
X104010000Y-114231000D02*
G01*
X104010000Y-114481000D01*
X104510000Y-114481000D01*
X104510000Y-114231000D01*
X104010000Y-114231000D01*
G37*
G36*
X99510000Y-110868000D02*
G01*
X99260000Y-110868000D01*
X99260000Y-111368000D01*
X99510000Y-111368000D01*
X99510000Y-110868000D01*
G37*
G36*
X102355000Y-163549000D02*
G01*
X101353000Y-163549000D01*
X101353000Y-162247000D01*
X102355000Y-162247000D01*
X102355000Y-163549000D01*
X102355000Y-163549000D01*
G37*
G36*
X100831000Y-163549000D02*
G01*
X99829000Y-163549000D01*
X99829000Y-162247000D01*
X100831000Y-162247000D01*
X100831000Y-163549000D01*
X100831000Y-163549000D01*
G37*
G36*
X95751000Y-163549000D02*
G01*
X94749000Y-163549000D01*
X94749000Y-162247000D01*
X95751000Y-162247000D01*
X95751000Y-163549000D01*
X95751000Y-163549000D01*
G37*
G36*
X123300442Y-161665518D02*
G01*
X123366627Y-161672037D01*
X123536466Y-161723557D01*
X123692991Y-161807222D01*
X123728729Y-161836552D01*
X123830186Y-161919814D01*
X123885579Y-161987312D01*
X123942778Y-162057009D01*
X124026443Y-162213534D01*
X124077963Y-162383373D01*
X124095359Y-162560000D01*
X124077963Y-162736627D01*
X124026443Y-162906466D01*
X123942778Y-163062991D01*
X123913448Y-163098729D01*
X123830186Y-163200186D01*
X123728729Y-163283448D01*
X123692991Y-163312778D01*
X123536466Y-163396443D01*
X123366627Y-163447963D01*
X123300442Y-163454482D01*
X123234260Y-163461000D01*
X123145740Y-163461000D01*
X123079558Y-163454482D01*
X123013373Y-163447963D01*
X122843534Y-163396443D01*
X122687009Y-163312778D01*
X122651271Y-163283448D01*
X122549814Y-163200186D01*
X122466552Y-163098729D01*
X122437222Y-163062991D01*
X122353557Y-162906466D01*
X122302037Y-162736627D01*
X122284641Y-162560000D01*
X122302037Y-162383373D01*
X122353557Y-162213534D01*
X122437222Y-162057009D01*
X122494421Y-161987312D01*
X122549814Y-161919814D01*
X122651271Y-161836552D01*
X122687009Y-161807222D01*
X122843534Y-161723557D01*
X123013373Y-161672037D01*
X123079558Y-161665518D01*
X123145740Y-161659000D01*
X123234260Y-161659000D01*
X123300442Y-161665518D01*
X123300442Y-161665518D01*
G37*
G36*
X125840442Y-161665518D02*
G01*
X125906627Y-161672037D01*
X126076466Y-161723557D01*
X126232991Y-161807222D01*
X126268729Y-161836552D01*
X126370186Y-161919814D01*
X126425579Y-161987312D01*
X126482778Y-162057009D01*
X126566443Y-162213534D01*
X126617963Y-162383373D01*
X126635359Y-162560000D01*
X126617963Y-162736627D01*
X126566443Y-162906466D01*
X126482778Y-163062991D01*
X126453448Y-163098729D01*
X126370186Y-163200186D01*
X126268729Y-163283448D01*
X126232991Y-163312778D01*
X126076466Y-163396443D01*
X125906627Y-163447963D01*
X125840442Y-163454482D01*
X125774260Y-163461000D01*
X125685740Y-163461000D01*
X125619558Y-163454482D01*
X125553373Y-163447963D01*
X125383534Y-163396443D01*
X125227009Y-163312778D01*
X125191271Y-163283448D01*
X125089814Y-163200186D01*
X125006552Y-163098729D01*
X124977222Y-163062991D01*
X124893557Y-162906466D01*
X124842037Y-162736627D01*
X124824641Y-162560000D01*
X124842037Y-162383373D01*
X124893557Y-162213534D01*
X124977222Y-162057009D01*
X125034421Y-161987312D01*
X125089814Y-161919814D01*
X125191271Y-161836552D01*
X125227009Y-161807222D01*
X125383534Y-161723557D01*
X125553373Y-161672037D01*
X125619558Y-161665518D01*
X125685740Y-161659000D01*
X125774260Y-161659000D01*
X125840442Y-161665518D01*
X125840442Y-161665518D01*
G37*
G36*
X128380442Y-161665518D02*
G01*
X128446627Y-161672037D01*
X128616466Y-161723557D01*
X128772991Y-161807222D01*
X128808729Y-161836552D01*
X128910186Y-161919814D01*
X128965579Y-161987312D01*
X129022778Y-162057009D01*
X129106443Y-162213534D01*
X129157963Y-162383373D01*
X129175359Y-162560000D01*
X129157963Y-162736627D01*
X129106443Y-162906466D01*
X129022778Y-163062991D01*
X128993448Y-163098729D01*
X128910186Y-163200186D01*
X128808729Y-163283448D01*
X128772991Y-163312778D01*
X128616466Y-163396443D01*
X128446627Y-163447963D01*
X128380442Y-163454482D01*
X128314260Y-163461000D01*
X128225740Y-163461000D01*
X128159558Y-163454482D01*
X128093373Y-163447963D01*
X127923534Y-163396443D01*
X127767009Y-163312778D01*
X127731271Y-163283448D01*
X127629814Y-163200186D01*
X127546552Y-163098729D01*
X127517222Y-163062991D01*
X127433557Y-162906466D01*
X127382037Y-162736627D01*
X127364641Y-162560000D01*
X127382037Y-162383373D01*
X127433557Y-162213534D01*
X127517222Y-162057009D01*
X127574421Y-161987312D01*
X127629814Y-161919814D01*
X127731271Y-161836552D01*
X127767009Y-161807222D01*
X127923534Y-161723557D01*
X128093373Y-161672037D01*
X128159558Y-161665518D01*
X128225740Y-161659000D01*
X128314260Y-161659000D01*
X128380442Y-161665518D01*
X128380442Y-161665518D01*
G37*
G36*
X105520442Y-161665518D02*
G01*
X105586627Y-161672037D01*
X105756466Y-161723557D01*
X105912991Y-161807222D01*
X105948729Y-161836552D01*
X106050186Y-161919814D01*
X106105579Y-161987312D01*
X106162778Y-162057009D01*
X106246443Y-162213534D01*
X106297963Y-162383373D01*
X106315359Y-162560000D01*
X106297963Y-162736627D01*
X106246443Y-162906466D01*
X106162778Y-163062991D01*
X106133448Y-163098729D01*
X106050186Y-163200186D01*
X105948729Y-163283448D01*
X105912991Y-163312778D01*
X105756466Y-163396443D01*
X105586627Y-163447963D01*
X105520442Y-163454482D01*
X105454260Y-163461000D01*
X105365740Y-163461000D01*
X105299558Y-163454482D01*
X105233373Y-163447963D01*
X105063534Y-163396443D01*
X104907009Y-163312778D01*
X104871271Y-163283448D01*
X104769814Y-163200186D01*
X104686552Y-163098729D01*
X104657222Y-163062991D01*
X104573557Y-162906466D01*
X104522037Y-162736627D01*
X104504641Y-162560000D01*
X104522037Y-162383373D01*
X104573557Y-162213534D01*
X104657222Y-162057009D01*
X104714421Y-161987312D01*
X104769814Y-161919814D01*
X104871271Y-161836552D01*
X104907009Y-161807222D01*
X105063534Y-161723557D01*
X105233373Y-161672037D01*
X105299558Y-161665518D01*
X105365740Y-161659000D01*
X105454260Y-161659000D01*
X105520442Y-161665518D01*
X105520442Y-161665518D01*
G37*
G36*
X130920442Y-161665518D02*
G01*
X130986627Y-161672037D01*
X131156466Y-161723557D01*
X131312991Y-161807222D01*
X131348729Y-161836552D01*
X131450186Y-161919814D01*
X131505579Y-161987312D01*
X131562778Y-162057009D01*
X131646443Y-162213534D01*
X131697963Y-162383373D01*
X131715359Y-162560000D01*
X131697963Y-162736627D01*
X131646443Y-162906466D01*
X131562778Y-163062991D01*
X131533448Y-163098729D01*
X131450186Y-163200186D01*
X131348729Y-163283448D01*
X131312991Y-163312778D01*
X131156466Y-163396443D01*
X130986627Y-163447963D01*
X130920442Y-163454482D01*
X130854260Y-163461000D01*
X130765740Y-163461000D01*
X130699558Y-163454482D01*
X130633373Y-163447963D01*
X130463534Y-163396443D01*
X130307009Y-163312778D01*
X130271271Y-163283448D01*
X130169814Y-163200186D01*
X130086552Y-163098729D01*
X130057222Y-163062991D01*
X129973557Y-162906466D01*
X129922037Y-162736627D01*
X129904641Y-162560000D01*
X129922037Y-162383373D01*
X129973557Y-162213534D01*
X130057222Y-162057009D01*
X130114421Y-161987312D01*
X130169814Y-161919814D01*
X130271271Y-161836552D01*
X130307009Y-161807222D01*
X130463534Y-161723557D01*
X130633373Y-161672037D01*
X130699558Y-161665518D01*
X130765740Y-161659000D01*
X130854260Y-161659000D01*
X130920442Y-161665518D01*
X130920442Y-161665518D01*
G37*
G36*
X120760442Y-161665518D02*
G01*
X120826627Y-161672037D01*
X120996466Y-161723557D01*
X121152991Y-161807222D01*
X121188729Y-161836552D01*
X121290186Y-161919814D01*
X121345579Y-161987312D01*
X121402778Y-162057009D01*
X121486443Y-162213534D01*
X121537963Y-162383373D01*
X121555359Y-162560000D01*
X121537963Y-162736627D01*
X121486443Y-162906466D01*
X121402778Y-163062991D01*
X121373448Y-163098729D01*
X121290186Y-163200186D01*
X121188729Y-163283448D01*
X121152991Y-163312778D01*
X120996466Y-163396443D01*
X120826627Y-163447963D01*
X120760442Y-163454482D01*
X120694260Y-163461000D01*
X120605740Y-163461000D01*
X120539558Y-163454482D01*
X120473373Y-163447963D01*
X120303534Y-163396443D01*
X120147009Y-163312778D01*
X120111271Y-163283448D01*
X120009814Y-163200186D01*
X119926552Y-163098729D01*
X119897222Y-163062991D01*
X119813557Y-162906466D01*
X119762037Y-162736627D01*
X119744641Y-162560000D01*
X119762037Y-162383373D01*
X119813557Y-162213534D01*
X119897222Y-162057009D01*
X119954421Y-161987312D01*
X120009814Y-161919814D01*
X120111271Y-161836552D01*
X120147009Y-161807222D01*
X120303534Y-161723557D01*
X120473373Y-161672037D01*
X120539558Y-161665518D01*
X120605740Y-161659000D01*
X120694260Y-161659000D01*
X120760442Y-161665518D01*
X120760442Y-161665518D01*
G37*
G36*
X133776000Y-163399000D02*
G01*
X132924000Y-163399000D01*
X132924000Y-162097000D01*
X133776000Y-162097000D01*
X133776000Y-163399000D01*
X133776000Y-163399000D01*
G37*
G36*
X159571000Y-163315000D02*
G01*
X158269000Y-163315000D01*
X158269000Y-162313000D01*
X159571000Y-162313000D01*
X159571000Y-163315000D01*
X159571000Y-163315000D01*
G37*
G36*
X157707000Y-163315000D02*
G01*
X156405000Y-163315000D01*
X156405000Y-162313000D01*
X157707000Y-162313000D01*
X157707000Y-163315000D01*
X157707000Y-163315000D01*
G37*
G36*
X155507000Y-163315000D02*
G01*
X154205000Y-163315000D01*
X154205000Y-162313000D01*
X155507000Y-162313000D01*
X155507000Y-163315000D01*
X155507000Y-163315000D01*
G37*
G36*
X161771000Y-163315000D02*
G01*
X160469000Y-163315000D01*
X160469000Y-162313000D01*
X161771000Y-162313000D01*
X161771000Y-163315000D01*
X161771000Y-163315000D01*
G37*
G36*
X89383000Y-163297000D02*
G01*
X87981000Y-163297000D01*
X87981000Y-161645000D01*
X89383000Y-161645000D01*
X89383000Y-163297000D01*
X89383000Y-163297000D01*
G37*
G36*
X93883000Y-163297000D02*
G01*
X92481000Y-163297000D01*
X92481000Y-161645000D01*
X93883000Y-161645000D01*
X93883000Y-163297000D01*
X93883000Y-163297000D01*
G37*
G36*
X168821632Y-154854677D02*
G01*
X169027619Y-154940000D01*
X169558868Y-155160050D01*
X170222362Y-155603383D01*
X170786617Y-156167638D01*
X171229950Y-156831132D01*
X171408833Y-157262995D01*
X171535323Y-157568368D01*
X171691000Y-158351010D01*
X171691000Y-159148990D01*
X171535323Y-159931632D01*
X171425559Y-160196625D01*
X171229950Y-160668868D01*
X170786617Y-161332362D01*
X170222362Y-161896617D01*
X169558868Y-162339950D01*
X169293668Y-162449799D01*
X168821632Y-162645323D01*
X168038990Y-162801000D01*
X167241010Y-162801000D01*
X166458368Y-162645323D01*
X165986332Y-162449799D01*
X165721132Y-162339950D01*
X165057638Y-161896617D01*
X164493383Y-161332362D01*
X164050050Y-160668868D01*
X163854441Y-160196625D01*
X163744677Y-159931632D01*
X163589000Y-159148990D01*
X163589000Y-158351010D01*
X163744677Y-157568368D01*
X163871167Y-157262995D01*
X164050050Y-156831132D01*
X164493383Y-156167638D01*
X165057638Y-155603383D01*
X165721132Y-155160050D01*
X166252381Y-154940000D01*
X166458368Y-154854677D01*
X167241010Y-154699000D01*
X168038990Y-154699000D01*
X168821632Y-154854677D01*
X168821632Y-154854677D01*
G37*
G36*
X112796000Y-162449799D02*
G01*
X111994000Y-162449799D01*
X111994000Y-160577801D01*
X112796000Y-160577801D01*
X112796000Y-162449799D01*
X112796000Y-162449799D01*
G37*
G36*
X116606000Y-162449799D02*
G01*
X115804000Y-162449799D01*
X115804000Y-160577801D01*
X116606000Y-160577801D01*
X116606000Y-162449799D01*
X116606000Y-162449799D01*
G37*
G36*
X115336000Y-162449799D02*
G01*
X114534000Y-162449799D01*
X114534000Y-160577801D01*
X115336000Y-160577801D01*
X115336000Y-162449799D01*
X115336000Y-162449799D01*
G37*
G36*
X114066000Y-162449799D02*
G01*
X113264000Y-162449799D01*
X113264000Y-160577801D01*
X114066000Y-160577801D01*
X114066000Y-162449799D01*
X114066000Y-162449799D01*
G37*
G36*
X111479000Y-162426000D02*
G01*
X110177000Y-162426000D01*
X110177000Y-161424000D01*
X111479000Y-161424000D01*
X111479000Y-162426000D01*
X111479000Y-162426000D01*
G37*
G36*
X109279000Y-162426000D02*
G01*
X107977000Y-162426000D01*
X107977000Y-161424000D01*
X109279000Y-161424000D01*
X109279000Y-162426000D01*
X109279000Y-162426000D01*
G37*
G36*
X161621000Y-161716000D02*
G01*
X160319000Y-161716000D01*
X160319000Y-160864000D01*
X161621000Y-160864000D01*
X161621000Y-161716000D01*
X161621000Y-161716000D01*
G37*
G36*
X159721000Y-161716000D02*
G01*
X158419000Y-161716000D01*
X158419000Y-160864000D01*
X159721000Y-160864000D01*
X159721000Y-161716000D01*
X159721000Y-161716000D01*
G37*
G36*
X157611800Y-161665599D02*
G01*
X156941800Y-161665599D01*
X156941800Y-160254001D01*
X157611800Y-160254001D01*
X157611800Y-161665599D01*
X157611800Y-161665599D01*
G37*
G36*
X155732200Y-161665599D02*
G01*
X155062200Y-161665599D01*
X155062200Y-160254001D01*
X155732200Y-160254001D01*
X155732200Y-161665599D01*
X155732200Y-161665599D01*
G37*
G36*
X156672000Y-161665599D02*
G01*
X156002000Y-161665599D01*
X156002000Y-160254001D01*
X156672000Y-160254001D01*
X156672000Y-161665599D01*
X156672000Y-161665599D01*
G37*
G36*
X133776000Y-161499000D02*
G01*
X132924000Y-161499000D01*
X132924000Y-160197000D01*
X133776000Y-160197000D01*
X133776000Y-161499000D01*
X133776000Y-161499000D01*
G37*
G36*
X154223000Y-161367000D02*
G01*
X153371000Y-161367000D01*
X153371000Y-160065000D01*
X154223000Y-160065000D01*
X154223000Y-161367000D01*
X154223000Y-161367000D01*
G37*
G36*
X100831000Y-161349000D02*
G01*
X99829000Y-161349000D01*
X99829000Y-160047000D01*
X100831000Y-160047000D01*
X100831000Y-161349000D01*
X100831000Y-161349000D01*
G37*
G36*
X102355000Y-161349000D02*
G01*
X101353000Y-161349000D01*
X101353000Y-160047000D01*
X102355000Y-160047000D01*
X102355000Y-161349000D01*
X102355000Y-161349000D01*
G37*
G36*
X95751000Y-161349000D02*
G01*
X94749000Y-161349000D01*
X94749000Y-160047000D01*
X95751000Y-160047000D01*
X95751000Y-161349000D01*
X95751000Y-161349000D01*
G37*
G36*
X123300442Y-159125518D02*
G01*
X123366627Y-159132037D01*
X123536466Y-159183557D01*
X123536468Y-159183558D01*
X123555966Y-159193980D01*
X123692991Y-159267222D01*
X123714026Y-159284485D01*
X123830186Y-159379814D01*
X123913448Y-159481271D01*
X123942778Y-159517009D01*
X124026443Y-159673534D01*
X124077963Y-159843373D01*
X124095359Y-160020000D01*
X124077963Y-160196627D01*
X124026443Y-160366466D01*
X123942778Y-160522991D01*
X123919011Y-160551951D01*
X123830186Y-160660186D01*
X123728729Y-160743448D01*
X123692991Y-160772778D01*
X123692989Y-160772779D01*
X123554857Y-160846613D01*
X123536466Y-160856443D01*
X123366627Y-160907963D01*
X123300442Y-160914482D01*
X123234260Y-160921000D01*
X123145740Y-160921000D01*
X123079558Y-160914482D01*
X123013373Y-160907963D01*
X122843534Y-160856443D01*
X122825144Y-160846613D01*
X122687011Y-160772779D01*
X122687009Y-160772778D01*
X122651271Y-160743448D01*
X122549814Y-160660186D01*
X122460989Y-160551951D01*
X122437222Y-160522991D01*
X122353557Y-160366466D01*
X122302037Y-160196627D01*
X122284641Y-160020000D01*
X122302037Y-159843373D01*
X122353557Y-159673534D01*
X122437222Y-159517009D01*
X122466552Y-159481271D01*
X122549814Y-159379814D01*
X122665974Y-159284485D01*
X122687009Y-159267222D01*
X122824034Y-159193980D01*
X122843532Y-159183558D01*
X122843534Y-159183557D01*
X123013373Y-159132037D01*
X123079558Y-159125518D01*
X123145740Y-159119000D01*
X123234260Y-159119000D01*
X123300442Y-159125518D01*
X123300442Y-159125518D01*
G37*
G36*
X105520442Y-159125518D02*
G01*
X105586627Y-159132037D01*
X105756466Y-159183557D01*
X105756468Y-159183558D01*
X105775966Y-159193980D01*
X105912991Y-159267222D01*
X105934026Y-159284485D01*
X106050186Y-159379814D01*
X106133448Y-159481271D01*
X106162778Y-159517009D01*
X106246443Y-159673534D01*
X106297963Y-159843373D01*
X106315359Y-160020000D01*
X106297963Y-160196627D01*
X106246443Y-160366466D01*
X106162778Y-160522991D01*
X106139011Y-160551951D01*
X106050186Y-160660186D01*
X105948729Y-160743448D01*
X105912991Y-160772778D01*
X105912989Y-160772779D01*
X105774857Y-160846613D01*
X105756466Y-160856443D01*
X105586627Y-160907963D01*
X105520442Y-160914482D01*
X105454260Y-160921000D01*
X105365740Y-160921000D01*
X105299558Y-160914482D01*
X105233373Y-160907963D01*
X105063534Y-160856443D01*
X105045144Y-160846613D01*
X104907011Y-160772779D01*
X104907009Y-160772778D01*
X104871271Y-160743448D01*
X104769814Y-160660186D01*
X104680989Y-160551951D01*
X104657222Y-160522991D01*
X104573557Y-160366466D01*
X104522037Y-160196627D01*
X104504641Y-160020000D01*
X104522037Y-159843373D01*
X104573557Y-159673534D01*
X104657222Y-159517009D01*
X104686552Y-159481271D01*
X104769814Y-159379814D01*
X104885974Y-159284485D01*
X104907009Y-159267222D01*
X105044034Y-159193980D01*
X105063532Y-159183558D01*
X105063534Y-159183557D01*
X105233373Y-159132037D01*
X105299558Y-159125518D01*
X105365740Y-159119000D01*
X105454260Y-159119000D01*
X105520442Y-159125518D01*
X105520442Y-159125518D01*
G37*
G36*
X120760442Y-159125518D02*
G01*
X120826627Y-159132037D01*
X120996466Y-159183557D01*
X120996468Y-159183558D01*
X121015966Y-159193980D01*
X121152991Y-159267222D01*
X121174026Y-159284485D01*
X121290186Y-159379814D01*
X121373448Y-159481271D01*
X121402778Y-159517009D01*
X121486443Y-159673534D01*
X121537963Y-159843373D01*
X121555359Y-160020000D01*
X121537963Y-160196627D01*
X121486443Y-160366466D01*
X121402778Y-160522991D01*
X121379011Y-160551951D01*
X121290186Y-160660186D01*
X121188729Y-160743448D01*
X121152991Y-160772778D01*
X121152989Y-160772779D01*
X121014857Y-160846613D01*
X120996466Y-160856443D01*
X120826627Y-160907963D01*
X120760442Y-160914482D01*
X120694260Y-160921000D01*
X120605740Y-160921000D01*
X120539558Y-160914482D01*
X120473373Y-160907963D01*
X120303534Y-160856443D01*
X120285144Y-160846613D01*
X120147011Y-160772779D01*
X120147009Y-160772778D01*
X120111271Y-160743448D01*
X120009814Y-160660186D01*
X119920989Y-160551951D01*
X119897222Y-160522991D01*
X119813557Y-160366466D01*
X119762037Y-160196627D01*
X119744641Y-160020000D01*
X119762037Y-159843373D01*
X119813557Y-159673534D01*
X119897222Y-159517009D01*
X119926552Y-159481271D01*
X120009814Y-159379814D01*
X120125974Y-159284485D01*
X120147009Y-159267222D01*
X120284034Y-159193980D01*
X120303532Y-159183558D01*
X120303534Y-159183557D01*
X120473373Y-159132037D01*
X120539558Y-159125518D01*
X120605740Y-159119000D01*
X120694260Y-159119000D01*
X120760442Y-159125518D01*
X120760442Y-159125518D01*
G37*
G36*
X125840442Y-159125518D02*
G01*
X125906627Y-159132037D01*
X126076466Y-159183557D01*
X126076468Y-159183558D01*
X126095966Y-159193980D01*
X126232991Y-159267222D01*
X126254026Y-159284485D01*
X126370186Y-159379814D01*
X126453448Y-159481271D01*
X126482778Y-159517009D01*
X126566443Y-159673534D01*
X126617963Y-159843373D01*
X126635359Y-160020000D01*
X126617963Y-160196627D01*
X126566443Y-160366466D01*
X126482778Y-160522991D01*
X126459011Y-160551951D01*
X126370186Y-160660186D01*
X126268729Y-160743448D01*
X126232991Y-160772778D01*
X126232989Y-160772779D01*
X126094857Y-160846613D01*
X126076466Y-160856443D01*
X125906627Y-160907963D01*
X125840442Y-160914482D01*
X125774260Y-160921000D01*
X125685740Y-160921000D01*
X125619558Y-160914482D01*
X125553373Y-160907963D01*
X125383534Y-160856443D01*
X125365144Y-160846613D01*
X125227011Y-160772779D01*
X125227009Y-160772778D01*
X125191271Y-160743448D01*
X125089814Y-160660186D01*
X125000989Y-160551951D01*
X124977222Y-160522991D01*
X124893557Y-160366466D01*
X124842037Y-160196627D01*
X124824641Y-160020000D01*
X124842037Y-159843373D01*
X124893557Y-159673534D01*
X124977222Y-159517009D01*
X125006552Y-159481271D01*
X125089814Y-159379814D01*
X125205974Y-159284485D01*
X125227009Y-159267222D01*
X125364034Y-159193980D01*
X125383532Y-159183558D01*
X125383534Y-159183557D01*
X125553373Y-159132037D01*
X125619558Y-159125518D01*
X125685740Y-159119000D01*
X125774260Y-159119000D01*
X125840442Y-159125518D01*
X125840442Y-159125518D01*
G37*
G36*
X128380442Y-159125518D02*
G01*
X128446627Y-159132037D01*
X128616466Y-159183557D01*
X128616468Y-159183558D01*
X128635966Y-159193980D01*
X128772991Y-159267222D01*
X128794026Y-159284485D01*
X128910186Y-159379814D01*
X128993448Y-159481271D01*
X129022778Y-159517009D01*
X129106443Y-159673534D01*
X129157963Y-159843373D01*
X129175359Y-160020000D01*
X129157963Y-160196627D01*
X129106443Y-160366466D01*
X129022778Y-160522991D01*
X128999011Y-160551951D01*
X128910186Y-160660186D01*
X128808729Y-160743448D01*
X128772991Y-160772778D01*
X128772989Y-160772779D01*
X128634857Y-160846613D01*
X128616466Y-160856443D01*
X128446627Y-160907963D01*
X128380442Y-160914482D01*
X128314260Y-160921000D01*
X128225740Y-160921000D01*
X128159558Y-160914482D01*
X128093373Y-160907963D01*
X127923534Y-160856443D01*
X127905144Y-160846613D01*
X127767011Y-160772779D01*
X127767009Y-160772778D01*
X127731271Y-160743448D01*
X127629814Y-160660186D01*
X127540989Y-160551951D01*
X127517222Y-160522991D01*
X127433557Y-160366466D01*
X127382037Y-160196627D01*
X127364641Y-160020000D01*
X127382037Y-159843373D01*
X127433557Y-159673534D01*
X127517222Y-159517009D01*
X127546552Y-159481271D01*
X127629814Y-159379814D01*
X127745974Y-159284485D01*
X127767009Y-159267222D01*
X127904034Y-159193980D01*
X127923532Y-159183558D01*
X127923534Y-159183557D01*
X128093373Y-159132037D01*
X128159558Y-159125518D01*
X128225740Y-159119000D01*
X128314260Y-159119000D01*
X128380442Y-159125518D01*
X128380442Y-159125518D01*
G37*
G36*
X131711000Y-160921000D02*
G01*
X129909000Y-160921000D01*
X129909000Y-159119000D01*
X131711000Y-159119000D01*
X131711000Y-160921000D01*
X131711000Y-160921000D01*
G37*
G36*
X98191000Y-159169001D02*
G01*
X98193402Y-159193387D01*
X98200515Y-159216836D01*
X98212066Y-159238447D01*
X98227611Y-159257389D01*
X98246553Y-159272934D01*
X98268164Y-159284485D01*
X98291613Y-159291598D01*
X98315999Y-159294000D01*
X99126000Y-159294000D01*
X99126000Y-159796000D01*
X98315999Y-159796000D01*
X98291613Y-159798402D01*
X98268164Y-159805515D01*
X98246553Y-159817066D01*
X98227611Y-159832611D01*
X98212066Y-159851553D01*
X98200515Y-159873164D01*
X98193402Y-159896613D01*
X98191000Y-159920999D01*
X98191000Y-160119001D01*
X98193402Y-160143387D01*
X98200515Y-160166836D01*
X98212066Y-160188447D01*
X98227611Y-160207389D01*
X98246553Y-160222934D01*
X98268164Y-160234485D01*
X98291613Y-160241598D01*
X98315999Y-160244000D01*
X99126000Y-160244000D01*
X99126000Y-160746000D01*
X98315999Y-160746000D01*
X98291613Y-160748402D01*
X98268164Y-160755515D01*
X98246553Y-160767066D01*
X98227611Y-160782611D01*
X98212066Y-160801553D01*
X98200515Y-160823164D01*
X98193402Y-160846613D01*
X98191000Y-160870999D01*
X98191000Y-160871000D01*
X97389000Y-160871000D01*
X97389000Y-160870999D01*
X97386598Y-160846613D01*
X97379485Y-160823164D01*
X97367934Y-160801553D01*
X97352389Y-160782611D01*
X97333447Y-160767066D01*
X97311836Y-160755515D01*
X97288387Y-160748402D01*
X97264001Y-160746000D01*
X96454000Y-160746000D01*
X96454000Y-160244000D01*
X97264001Y-160244000D01*
X97288387Y-160241598D01*
X97311836Y-160234485D01*
X97333447Y-160222934D01*
X97352389Y-160207389D01*
X97367934Y-160188447D01*
X97379485Y-160166836D01*
X97386598Y-160143387D01*
X97389000Y-160119001D01*
X97389000Y-159920999D01*
X97386598Y-159896613D01*
X97379485Y-159873164D01*
X97367934Y-159851553D01*
X97352389Y-159832611D01*
X97333447Y-159817066D01*
X97311836Y-159805515D01*
X97288387Y-159798402D01*
X97264001Y-159796000D01*
X96454000Y-159796000D01*
X96454000Y-159294000D01*
X97264001Y-159294000D01*
X97288387Y-159291598D01*
X97311836Y-159284485D01*
X97333447Y-159272934D01*
X97352389Y-159257389D01*
X97367934Y-159238447D01*
X97379485Y-159216836D01*
X97386598Y-159193387D01*
X97389000Y-159169001D01*
X97389000Y-159169000D01*
X98191000Y-159169000D01*
X98191000Y-159169001D01*
X98191000Y-159169001D01*
G37*
G36*
X152695000Y-160293000D02*
G01*
X151343000Y-160293000D01*
X151343000Y-158691000D01*
X152695000Y-158691000D01*
X152695000Y-160293000D01*
X152695000Y-160293000D01*
G37*
G36*
X109769000Y-160166000D02*
G01*
X108417000Y-160166000D01*
X108417000Y-158564000D01*
X109769000Y-158564000D01*
X109769000Y-160166000D01*
X109769000Y-160166000D01*
G37*
G36*
X162025000Y-160140000D02*
G01*
X160723000Y-160140000D01*
X160723000Y-159138000D01*
X162025000Y-159138000D01*
X162025000Y-160140000D01*
X162025000Y-160140000D01*
G37*
G36*
X159825000Y-160140000D02*
G01*
X158523000Y-160140000D01*
X158523000Y-159138000D01*
X159825000Y-159138000D01*
X159825000Y-160140000D01*
X159825000Y-160140000D01*
G37*
G36*
X111170000Y-159716000D02*
G01*
X110318000Y-159716000D01*
X110318000Y-158414000D01*
X111170000Y-158414000D01*
X111170000Y-159716000D01*
X111170000Y-159716000D01*
G37*
G36*
X143605025Y-157854000D02*
G01*
X143686627Y-157862037D01*
X143856466Y-157913557D01*
X144012991Y-157997222D01*
X144048729Y-158026552D01*
X144150186Y-158109814D01*
X144233448Y-158211271D01*
X144262778Y-158247009D01*
X144346443Y-158403534D01*
X144397963Y-158573373D01*
X144415359Y-158750000D01*
X144397963Y-158926627D01*
X144346443Y-159096466D01*
X144262778Y-159252991D01*
X144246411Y-159272934D01*
X144150186Y-159390186D01*
X144056586Y-159467000D01*
X144012991Y-159502778D01*
X143856466Y-159586443D01*
X143686627Y-159637963D01*
X143620442Y-159644482D01*
X143554260Y-159651000D01*
X143465740Y-159651000D01*
X143399558Y-159644482D01*
X143333373Y-159637963D01*
X143163534Y-159586443D01*
X143007009Y-159502778D01*
X142963414Y-159467000D01*
X142869814Y-159390186D01*
X142773589Y-159272934D01*
X142757222Y-159252991D01*
X142673557Y-159096466D01*
X142622037Y-158926627D01*
X142604641Y-158750000D01*
X142622037Y-158573373D01*
X142673557Y-158403534D01*
X142757222Y-158247009D01*
X142786552Y-158211271D01*
X142869814Y-158109814D01*
X142971271Y-158026552D01*
X143007009Y-157997222D01*
X143163534Y-157913557D01*
X143333373Y-157862037D01*
X143414975Y-157854000D01*
X143465740Y-157849000D01*
X143554260Y-157849000D01*
X143605025Y-157854000D01*
X143605025Y-157854000D01*
G37*
G36*
X150794000Y-159589000D02*
G01*
X149942000Y-159589000D01*
X149942000Y-158287000D01*
X150794000Y-158287000D01*
X150794000Y-159589000D01*
X150794000Y-159589000D01*
G37*
G36*
X154223000Y-159467000D02*
G01*
X153371000Y-159467000D01*
X153371000Y-158165000D01*
X154223000Y-158165000D01*
X154223000Y-159467000D01*
X154223000Y-159467000D01*
G37*
G36*
X155732200Y-159277999D02*
G01*
X155062200Y-159277999D01*
X155062200Y-157866401D01*
X155732200Y-157866401D01*
X155732200Y-159277999D01*
X155732200Y-159277999D01*
G37*
G36*
X157611800Y-159277999D02*
G01*
X156941800Y-159277999D01*
X156941800Y-157866401D01*
X157611800Y-157866401D01*
X157611800Y-159277999D01*
X157611800Y-159277999D01*
G37*
G36*
X103244000Y-158977000D02*
G01*
X102242000Y-158977000D01*
X102242000Y-157675000D01*
X103244000Y-157675000D01*
X103244000Y-158977000D01*
X103244000Y-158977000D01*
G37*
G36*
X101720000Y-158977000D02*
G01*
X100718000Y-158977000D01*
X100718000Y-157675000D01*
X101720000Y-157675000D01*
X101720000Y-158977000D01*
X101720000Y-158977000D01*
G37*
G36*
X160079000Y-158537000D02*
G01*
X158477000Y-158537000D01*
X158477000Y-157185000D01*
X160079000Y-157185000D01*
X160079000Y-158537000D01*
X160079000Y-158537000D01*
G37*
G36*
X162579000Y-158537000D02*
G01*
X160977000Y-158537000D01*
X160977000Y-157185000D01*
X162579000Y-157185000D01*
X162579000Y-158537000D01*
X162579000Y-158537000D01*
G37*
G36*
X99391000Y-158414000D02*
G01*
X98089000Y-158414000D01*
X98089000Y-157562000D01*
X99391000Y-157562000D01*
X99391000Y-158414000D01*
X99391000Y-158414000D01*
G37*
G36*
X97491000Y-158414000D02*
G01*
X96189000Y-158414000D01*
X96189000Y-157562000D01*
X97491000Y-157562000D01*
X97491000Y-158414000D01*
X97491000Y-158414000D01*
G37*
G36*
X105520443Y-156585519D02*
G01*
X105586627Y-156592037D01*
X105756466Y-156643557D01*
X105912991Y-156727222D01*
X105948729Y-156756552D01*
X106050186Y-156839814D01*
X106133448Y-156941271D01*
X106162778Y-156977009D01*
X106246443Y-157133534D01*
X106297963Y-157303373D01*
X106315359Y-157480000D01*
X106297963Y-157656627D01*
X106246443Y-157826466D01*
X106162778Y-157982991D01*
X106133448Y-158018729D01*
X106050186Y-158120186D01*
X105948729Y-158203448D01*
X105912991Y-158232778D01*
X105756466Y-158316443D01*
X105586627Y-158367963D01*
X105520442Y-158374482D01*
X105454260Y-158381000D01*
X105365740Y-158381000D01*
X105299558Y-158374482D01*
X105233373Y-158367963D01*
X105063534Y-158316443D01*
X104907009Y-158232778D01*
X104871271Y-158203448D01*
X104769814Y-158120186D01*
X104686552Y-158018729D01*
X104657222Y-157982991D01*
X104573557Y-157826466D01*
X104522037Y-157656627D01*
X104504641Y-157480000D01*
X104522037Y-157303373D01*
X104573557Y-157133534D01*
X104657222Y-156977009D01*
X104686552Y-156941271D01*
X104769814Y-156839814D01*
X104871271Y-156756552D01*
X104907009Y-156727222D01*
X105063534Y-156643557D01*
X105233373Y-156592037D01*
X105299557Y-156585519D01*
X105365740Y-156579000D01*
X105454260Y-156579000D01*
X105520443Y-156585519D01*
X105520443Y-156585519D01*
G37*
G36*
X146958999Y-158119800D02*
G01*
X145547401Y-158119800D01*
X145547401Y-157449800D01*
X146958999Y-157449800D01*
X146958999Y-158119800D01*
X146958999Y-158119800D01*
G37*
G36*
X149346599Y-158119800D02*
G01*
X147935001Y-158119800D01*
X147935001Y-157449800D01*
X149346599Y-157449800D01*
X149346599Y-158119800D01*
X149346599Y-158119800D01*
G37*
G36*
X121725000Y-157854000D02*
G01*
X120423000Y-157854000D01*
X120423000Y-156852000D01*
X121725000Y-156852000D01*
X121725000Y-157854000D01*
X121725000Y-157854000D01*
G37*
G36*
X123925000Y-157854000D02*
G01*
X122623000Y-157854000D01*
X122623000Y-156852000D01*
X123925000Y-156852000D01*
X123925000Y-157854000D01*
X123925000Y-157854000D01*
G37*
G36*
X126297000Y-157854000D02*
G01*
X124995000Y-157854000D01*
X124995000Y-156852000D01*
X126297000Y-156852000D01*
X126297000Y-157854000D01*
X126297000Y-157854000D01*
G37*
G36*
X128497000Y-157854000D02*
G01*
X127195000Y-157854000D01*
X127195000Y-156852000D01*
X128497000Y-156852000D01*
X128497000Y-157854000D01*
X128497000Y-157854000D01*
G37*
G36*
X132774000Y-157854000D02*
G01*
X131472000Y-157854000D01*
X131472000Y-156852000D01*
X132774000Y-156852000D01*
X132774000Y-157854000D01*
X132774000Y-157854000D01*
G37*
G36*
X134974000Y-157854000D02*
G01*
X133672000Y-157854000D01*
X133672000Y-156852000D01*
X134974000Y-156852000D01*
X134974000Y-157854000D01*
X134974000Y-157854000D01*
G37*
G36*
X111170000Y-157816000D02*
G01*
X110318000Y-157816000D01*
X110318000Y-156514000D01*
X111170000Y-156514000D01*
X111170000Y-157816000D01*
X111170000Y-157816000D01*
G37*
G36*
X152695000Y-157793000D02*
G01*
X151343000Y-157793000D01*
X151343000Y-156191000D01*
X152695000Y-156191000D01*
X152695000Y-157793000D01*
X152695000Y-157793000D01*
G37*
G36*
X150794000Y-157689000D02*
G01*
X149942000Y-157689000D01*
X149942000Y-156387000D01*
X150794000Y-156387000D01*
X150794000Y-157689000D01*
X150794000Y-157689000D01*
G37*
G36*
X109769000Y-157666000D02*
G01*
X108417000Y-157666000D01*
X108417000Y-156064000D01*
X109769000Y-156064000D01*
X109769000Y-157666000D01*
X109769000Y-157666000D01*
G37*
G36*
X149346599Y-157180000D02*
G01*
X147935001Y-157180000D01*
X147935001Y-156510000D01*
X149346599Y-156510000D01*
X149346599Y-157180000D01*
X149346599Y-157180000D01*
G37*
G36*
X146958999Y-157180000D02*
G01*
X145547401Y-157180000D01*
X145547401Y-156510000D01*
X146958999Y-156510000D01*
X146958999Y-157180000D01*
X146958999Y-157180000D01*
G37*
G36*
X143620442Y-155315518D02*
G01*
X143686627Y-155322037D01*
X143856466Y-155373557D01*
X144012991Y-155457222D01*
X144034653Y-155475000D01*
X144150186Y-155569814D01*
X144217633Y-155652000D01*
X144262778Y-155707009D01*
X144346443Y-155863534D01*
X144397963Y-156033373D01*
X144415359Y-156210000D01*
X144397963Y-156386627D01*
X144346443Y-156556466D01*
X144262778Y-156712991D01*
X144233448Y-156748729D01*
X144150186Y-156850186D01*
X144048729Y-156933448D01*
X144012991Y-156962778D01*
X143856466Y-157046443D01*
X143686627Y-157097963D01*
X143620443Y-157104481D01*
X143554260Y-157111000D01*
X143465740Y-157111000D01*
X143399557Y-157104481D01*
X143333373Y-157097963D01*
X143163534Y-157046443D01*
X143007009Y-156962778D01*
X142971271Y-156933448D01*
X142869814Y-156850186D01*
X142786552Y-156748729D01*
X142757222Y-156712991D01*
X142673557Y-156556466D01*
X142622037Y-156386627D01*
X142604641Y-156210000D01*
X142622037Y-156033373D01*
X142673557Y-155863534D01*
X142757222Y-155707009D01*
X142802367Y-155652000D01*
X142869814Y-155569814D01*
X142985347Y-155475000D01*
X143007009Y-155457222D01*
X143163534Y-155373557D01*
X143333373Y-155322037D01*
X143399558Y-155315518D01*
X143465740Y-155309000D01*
X143554260Y-155309000D01*
X143620442Y-155315518D01*
X143620442Y-155315518D01*
G37*
G36*
X112796000Y-156922199D02*
G01*
X111994000Y-156922199D01*
X111994000Y-155050201D01*
X112796000Y-155050201D01*
X112796000Y-156922199D01*
X112796000Y-156922199D01*
G37*
G36*
X116606000Y-156922199D02*
G01*
X115804000Y-156922199D01*
X115804000Y-155050201D01*
X116606000Y-155050201D01*
X116606000Y-156922199D01*
X116606000Y-156922199D01*
G37*
G36*
X115336000Y-156922199D02*
G01*
X114534000Y-156922199D01*
X114534000Y-155050201D01*
X115336000Y-155050201D01*
X115336000Y-156922199D01*
X115336000Y-156922199D01*
G37*
G36*
X114066000Y-156922199D02*
G01*
X113264000Y-156922199D01*
X113264000Y-155050201D01*
X114066000Y-155050201D01*
X114066000Y-156922199D01*
X114066000Y-156922199D01*
G37*
G36*
X103244000Y-156777000D02*
G01*
X102242000Y-156777000D01*
X102242000Y-155475000D01*
X103244000Y-155475000D01*
X103244000Y-156777000D01*
X103244000Y-156777000D01*
G37*
G36*
X101720000Y-156777000D02*
G01*
X100718000Y-156777000D01*
X100718000Y-155475000D01*
X101720000Y-155475000D01*
X101720000Y-156777000D01*
X101720000Y-156777000D01*
G37*
G36*
X159825000Y-156711000D02*
G01*
X158523000Y-156711000D01*
X158523000Y-155709000D01*
X159825000Y-155709000D01*
X159825000Y-156711000D01*
X159825000Y-156711000D01*
G37*
G36*
X162025000Y-156711000D02*
G01*
X160723000Y-156711000D01*
X160723000Y-155709000D01*
X162025000Y-155709000D01*
X162025000Y-156711000D01*
X162025000Y-156711000D01*
G37*
G36*
X157753000Y-156378000D02*
G01*
X156151000Y-156378000D01*
X156151000Y-155026000D01*
X157753000Y-155026000D01*
X157753000Y-156378000D01*
X157753000Y-156378000D01*
G37*
G36*
X155253000Y-156378000D02*
G01*
X153651000Y-156378000D01*
X153651000Y-155026000D01*
X155253000Y-155026000D01*
X155253000Y-156378000D01*
X155253000Y-156378000D01*
G37*
G36*
X149346599Y-156240200D02*
G01*
X147935001Y-156240200D01*
X147935001Y-155570200D01*
X149346599Y-155570200D01*
X149346599Y-156240200D01*
X149346599Y-156240200D01*
G37*
G36*
X146958999Y-156240200D02*
G01*
X145547401Y-156240200D01*
X145547401Y-155570200D01*
X146958999Y-155570200D01*
X146958999Y-156240200D01*
X146958999Y-156240200D01*
G37*
G36*
X163871000Y-156229000D02*
G01*
X162519000Y-156229000D01*
X162519000Y-154627000D01*
X163871000Y-154627000D01*
X163871000Y-156229000D01*
X163871000Y-156229000D01*
G37*
G36*
X127313000Y-156203000D02*
G01*
X126011000Y-156203000D01*
X126011000Y-155201000D01*
X127313000Y-155201000D01*
X127313000Y-156203000D01*
X127313000Y-156203000D01*
G37*
G36*
X129513000Y-156203000D02*
G01*
X128211000Y-156203000D01*
X128211000Y-155201000D01*
X129513000Y-155201000D01*
X129513000Y-156203000D01*
X129513000Y-156203000D01*
G37*
G36*
X105520442Y-154045518D02*
G01*
X105586627Y-154052037D01*
X105756466Y-154103557D01*
X105756468Y-154103558D01*
X105828080Y-154141836D01*
X105912991Y-154187222D01*
X105940118Y-154209485D01*
X106050186Y-154299814D01*
X106133448Y-154401271D01*
X106162778Y-154437009D01*
X106246443Y-154593534D01*
X106297963Y-154763373D01*
X106315359Y-154940000D01*
X106297963Y-155116627D01*
X106246443Y-155286466D01*
X106162778Y-155442991D01*
X106136509Y-155475000D01*
X106050186Y-155580186D01*
X105962679Y-155652000D01*
X105912991Y-155692778D01*
X105756466Y-155776443D01*
X105586627Y-155827963D01*
X105520442Y-155834482D01*
X105454260Y-155841000D01*
X105365740Y-155841000D01*
X105299558Y-155834482D01*
X105233373Y-155827963D01*
X105063534Y-155776443D01*
X104907009Y-155692778D01*
X104857321Y-155652000D01*
X104769814Y-155580186D01*
X104683491Y-155475000D01*
X104657222Y-155442991D01*
X104573557Y-155286466D01*
X104522037Y-155116627D01*
X104504641Y-154940000D01*
X104522037Y-154763373D01*
X104573557Y-154593534D01*
X104657222Y-154437009D01*
X104686552Y-154401271D01*
X104769814Y-154299814D01*
X104879882Y-154209485D01*
X104907009Y-154187222D01*
X104991920Y-154141836D01*
X105063532Y-154103558D01*
X105063534Y-154103557D01*
X105233373Y-154052037D01*
X105299558Y-154045518D01*
X105365740Y-154039000D01*
X105454260Y-154039000D01*
X105520442Y-154045518D01*
X105520442Y-154045518D01*
G37*
G36*
X152572000Y-155652000D02*
G01*
X151720000Y-155652000D01*
X151720000Y-154350000D01*
X152572000Y-154350000D01*
X152572000Y-155652000D01*
X152572000Y-155652000D01*
G37*
G36*
X93883000Y-155347000D02*
G01*
X92481000Y-155347000D01*
X92481000Y-153695000D01*
X93883000Y-153695000D01*
X93883000Y-155347000D01*
X93883000Y-155347000D01*
G37*
G36*
X89383000Y-155347000D02*
G01*
X87981000Y-155347000D01*
X87981000Y-153695000D01*
X89383000Y-153695000D01*
X89383000Y-155347000D01*
X89383000Y-155347000D01*
G37*
G36*
X98741000Y-153094001D02*
G01*
X98743402Y-153118387D01*
X98750515Y-153141836D01*
X98762066Y-153163447D01*
X98777611Y-153182389D01*
X98796553Y-153197934D01*
X98818164Y-153209485D01*
X98841613Y-153216598D01*
X98865999Y-153219000D01*
X99141000Y-153219000D01*
X99141000Y-154121000D01*
X98865999Y-154121000D01*
X98841613Y-154123402D01*
X98818164Y-154130515D01*
X98796553Y-154142066D01*
X98777611Y-154157611D01*
X98762066Y-154176553D01*
X98750515Y-154198164D01*
X98743402Y-154221613D01*
X98741000Y-154245999D01*
X98741000Y-155021000D01*
X96839000Y-155021000D01*
X96839000Y-154245999D01*
X96836598Y-154221613D01*
X96829485Y-154198164D01*
X96817934Y-154176553D01*
X96802389Y-154157611D01*
X96783447Y-154142066D01*
X96761836Y-154130515D01*
X96738387Y-154123402D01*
X96714001Y-154121000D01*
X96439000Y-154121000D01*
X96439000Y-153245999D01*
X97241000Y-153245999D01*
X97241000Y-154094001D01*
X97243402Y-154118387D01*
X97250515Y-154141836D01*
X97262066Y-154163447D01*
X97277611Y-154182389D01*
X97296553Y-154197934D01*
X97318164Y-154209485D01*
X97341613Y-154216598D01*
X97365999Y-154219000D01*
X98214001Y-154219000D01*
X98238387Y-154216598D01*
X98261836Y-154209485D01*
X98283447Y-154197934D01*
X98302389Y-154182389D01*
X98317934Y-154163447D01*
X98329485Y-154141836D01*
X98336598Y-154118387D01*
X98339000Y-154094001D01*
X98339000Y-153245999D01*
X98336598Y-153221613D01*
X98329485Y-153198164D01*
X98317934Y-153176553D01*
X98302389Y-153157611D01*
X98283447Y-153142066D01*
X98261836Y-153130515D01*
X98238387Y-153123402D01*
X98214001Y-153121000D01*
X97365999Y-153121000D01*
X97341613Y-153123402D01*
X97318164Y-153130515D01*
X97296553Y-153142066D01*
X97277611Y-153157611D01*
X97262066Y-153176553D01*
X97250515Y-153198164D01*
X97243402Y-153221613D01*
X97241000Y-153245999D01*
X96439000Y-153245999D01*
X96439000Y-153219000D01*
X96714001Y-153219000D01*
X96738387Y-153216598D01*
X96761836Y-153209485D01*
X96783447Y-153197934D01*
X96802389Y-153182389D01*
X96817934Y-153163447D01*
X96829485Y-153141836D01*
X96836598Y-153118387D01*
X96839000Y-153094001D01*
X96839000Y-152319000D01*
X98741000Y-152319000D01*
X98741000Y-153094001D01*
X98741000Y-153094001D01*
G37*
G36*
X143620442Y-152775518D02*
G01*
X143686627Y-152782037D01*
X143856466Y-152833557D01*
X144012991Y-152917222D01*
X144048729Y-152946552D01*
X144150186Y-153029814D01*
X144232828Y-153130515D01*
X144262778Y-153167009D01*
X144346443Y-153323534D01*
X144397963Y-153493373D01*
X144415359Y-153670000D01*
X144397963Y-153846627D01*
X144346443Y-154016466D01*
X144262778Y-154172991D01*
X144242119Y-154198164D01*
X144150186Y-154310186D01*
X144048729Y-154393448D01*
X144012991Y-154422778D01*
X143856466Y-154506443D01*
X143686627Y-154557963D01*
X143620443Y-154564481D01*
X143554260Y-154571000D01*
X143465740Y-154571000D01*
X143399557Y-154564481D01*
X143333373Y-154557963D01*
X143163534Y-154506443D01*
X143007009Y-154422778D01*
X142971271Y-154393448D01*
X142869814Y-154310186D01*
X142777881Y-154198164D01*
X142757222Y-154172991D01*
X142673557Y-154016466D01*
X142622037Y-153846627D01*
X142604641Y-153670000D01*
X142622037Y-153493373D01*
X142673557Y-153323534D01*
X142757222Y-153167009D01*
X142787172Y-153130515D01*
X142869814Y-153029814D01*
X142971271Y-152946552D01*
X143007009Y-152917222D01*
X143163534Y-152833557D01*
X143333373Y-152782037D01*
X143399558Y-152775518D01*
X143465740Y-152769000D01*
X143554260Y-152769000D01*
X143620442Y-152775518D01*
X143620442Y-152775518D01*
G37*
G36*
X159825000Y-154552000D02*
G01*
X158523000Y-154552000D01*
X158523000Y-153550000D01*
X159825000Y-153550000D01*
X159825000Y-154552000D01*
X159825000Y-154552000D01*
G37*
G36*
X162025000Y-154552000D02*
G01*
X160723000Y-154552000D01*
X160723000Y-153550000D01*
X162025000Y-153550000D01*
X162025000Y-154552000D01*
X162025000Y-154552000D01*
G37*
G36*
X157684000Y-154477000D02*
G01*
X156382000Y-154477000D01*
X156382000Y-153625000D01*
X157684000Y-153625000D01*
X157684000Y-154477000D01*
X157684000Y-154477000D01*
G37*
G36*
X155784000Y-154477000D02*
G01*
X154482000Y-154477000D01*
X154482000Y-153625000D01*
X155784000Y-153625000D01*
X155784000Y-154477000D01*
X155784000Y-154477000D01*
G37*
G36*
X132842800Y-154096000D02*
G01*
X131540800Y-154096000D01*
X131540800Y-153244000D01*
X132842800Y-153244000D01*
X132842800Y-154096000D01*
X132842800Y-154096000D01*
G37*
G36*
X130942800Y-154096000D02*
G01*
X129640800Y-154096000D01*
X129640800Y-153244000D01*
X130942800Y-153244000D01*
X130942800Y-154096000D01*
X130942800Y-154096000D01*
G37*
G36*
X113384000Y-153917000D02*
G01*
X112082000Y-153917000D01*
X112082000Y-152915000D01*
X113384000Y-152915000D01*
X113384000Y-153917000D01*
X113384000Y-153917000D01*
G37*
G36*
X111184000Y-153917000D02*
G01*
X109882000Y-153917000D01*
X109882000Y-152915000D01*
X111184000Y-152915000D01*
X111184000Y-153917000D01*
X111184000Y-153917000D01*
G37*
G36*
X152572000Y-153752000D02*
G01*
X151720000Y-153752000D01*
X151720000Y-152450000D01*
X152572000Y-152450000D01*
X152572000Y-153752000D01*
X152572000Y-153752000D01*
G37*
G36*
X163871000Y-153729000D02*
G01*
X162519000Y-153729000D01*
X162519000Y-152127000D01*
X163871000Y-152127000D01*
X163871000Y-153729000D01*
X163871000Y-153729000D01*
G37*
G36*
X165667000Y-153663000D02*
G01*
X164365000Y-153663000D01*
X164365000Y-152661000D01*
X165667000Y-152661000D01*
X165667000Y-153663000D01*
X165667000Y-153663000D01*
G37*
G36*
X167867000Y-153663000D02*
G01*
X166565000Y-153663000D01*
X166565000Y-152661000D01*
X167867000Y-152661000D01*
X167867000Y-153663000D01*
X167867000Y-153663000D01*
G37*
G36*
X125394000Y-153620000D02*
G01*
X124542000Y-153620000D01*
X124542000Y-152318000D01*
X125394000Y-152318000D01*
X125394000Y-153620000D01*
X125394000Y-153620000D01*
G37*
G36*
X149209000Y-151768001D02*
G01*
X149211402Y-151792387D01*
X149218515Y-151815836D01*
X149230066Y-151837447D01*
X149245611Y-151856389D01*
X149264553Y-151871934D01*
X149286164Y-151883485D01*
X149309613Y-151890598D01*
X149333999Y-151893000D01*
X150132001Y-151893000D01*
X150156387Y-151890598D01*
X150179836Y-151883485D01*
X150201447Y-151871934D01*
X150220389Y-151856389D01*
X150235934Y-151837447D01*
X150247485Y-151815836D01*
X150254598Y-151792387D01*
X150257000Y-151768001D01*
X150257000Y-151702999D01*
X151209000Y-151702999D01*
X151209000Y-153605001D01*
X150257000Y-153605001D01*
X150257000Y-153539999D01*
X150254598Y-153515613D01*
X150247485Y-153492164D01*
X150235934Y-153470553D01*
X150220389Y-153451611D01*
X150201447Y-153436066D01*
X150179836Y-153424515D01*
X150156387Y-153417402D01*
X150132001Y-153415000D01*
X149333999Y-153415000D01*
X149309613Y-153417402D01*
X149286164Y-153424515D01*
X149264553Y-153436066D01*
X149245611Y-153451611D01*
X149230066Y-153470553D01*
X149218515Y-153492164D01*
X149211402Y-153515613D01*
X149209000Y-153539999D01*
X149209000Y-153605001D01*
X148257000Y-153605001D01*
X148257000Y-151702999D01*
X149209000Y-151702999D01*
X149209000Y-151768001D01*
X149209000Y-151768001D01*
G37*
G36*
X105520443Y-151505519D02*
G01*
X105586627Y-151512037D01*
X105756466Y-151563557D01*
X105912991Y-151647222D01*
X105948729Y-151676552D01*
X106050186Y-151759814D01*
X106129442Y-151856389D01*
X106162778Y-151897009D01*
X106246443Y-152053534D01*
X106297963Y-152223373D01*
X106315359Y-152400000D01*
X106297963Y-152576627D01*
X106246443Y-152746466D01*
X106162778Y-152902991D01*
X106133448Y-152938729D01*
X106050186Y-153040186D01*
X105954896Y-153118387D01*
X105912991Y-153152778D01*
X105912989Y-153152779D01*
X105806901Y-153209485D01*
X105756466Y-153236443D01*
X105586627Y-153287963D01*
X105520443Y-153294481D01*
X105454260Y-153301000D01*
X105365740Y-153301000D01*
X105299557Y-153294481D01*
X105233373Y-153287963D01*
X105063534Y-153236443D01*
X105013100Y-153209485D01*
X104907011Y-153152779D01*
X104907009Y-153152778D01*
X104865104Y-153118387D01*
X104769814Y-153040186D01*
X104686552Y-152938729D01*
X104657222Y-152902991D01*
X104573557Y-152746466D01*
X104522037Y-152576627D01*
X104504641Y-152400000D01*
X104522037Y-152223373D01*
X104573557Y-152053534D01*
X104657222Y-151897009D01*
X104690558Y-151856389D01*
X104769814Y-151759814D01*
X104871271Y-151676552D01*
X104907009Y-151647222D01*
X105063534Y-151563557D01*
X105233373Y-151512037D01*
X105299557Y-151505519D01*
X105365740Y-151499000D01*
X105454260Y-151499000D01*
X105520443Y-151505519D01*
X105520443Y-151505519D01*
G37*
G36*
X89383000Y-153137000D02*
G01*
X87981000Y-153137000D01*
X87981000Y-151485000D01*
X89383000Y-151485000D01*
X89383000Y-153137000D01*
X89383000Y-153137000D01*
G37*
G36*
X93883000Y-153137000D02*
G01*
X92481000Y-153137000D01*
X92481000Y-151485000D01*
X93883000Y-151485000D01*
X93883000Y-153137000D01*
X93883000Y-153137000D01*
G37*
G36*
X161664000Y-153008000D02*
G01*
X160662000Y-153008000D01*
X160662000Y-151706000D01*
X161664000Y-151706000D01*
X161664000Y-153008000D01*
X161664000Y-153008000D01*
G37*
G36*
X159658799Y-152876099D02*
G01*
X155301199Y-152876099D01*
X155301199Y-151173899D01*
X159658799Y-151173899D01*
X159658799Y-152876099D01*
X159658799Y-152876099D01*
G37*
G36*
X120346000Y-152699000D02*
G01*
X119044000Y-152699000D01*
X119044000Y-151847000D01*
X120346000Y-151847000D01*
X120346000Y-152699000D01*
X120346000Y-152699000D01*
G37*
G36*
X118446000Y-152699000D02*
G01*
X117144000Y-152699000D01*
X117144000Y-151847000D01*
X118446000Y-151847000D01*
X118446000Y-152699000D01*
X118446000Y-152699000D01*
G37*
G36*
X132842800Y-152699000D02*
G01*
X131540800Y-152699000D01*
X131540800Y-151847000D01*
X132842800Y-151847000D01*
X132842800Y-152699000D01*
X132842800Y-152699000D01*
G37*
G36*
X130942800Y-152699000D02*
G01*
X129640800Y-152699000D01*
X129640800Y-151847000D01*
X130942800Y-151847000D01*
X130942800Y-152699000D01*
X130942800Y-152699000D01*
G37*
G36*
X165640000Y-152039000D02*
G01*
X164938000Y-152039000D01*
X164938000Y-151237000D01*
X165640000Y-151237000D01*
X165640000Y-152039000D01*
X165640000Y-152039000D01*
G37*
G36*
X167040000Y-152039000D02*
G01*
X166338000Y-152039000D01*
X166338000Y-151237000D01*
X167040000Y-151237000D01*
X167040000Y-152039000D01*
X167040000Y-152039000D01*
G37*
G36*
X143620442Y-150235518D02*
G01*
X143686627Y-150242037D01*
X143856466Y-150293557D01*
X144012991Y-150377222D01*
X144048729Y-150406552D01*
X144150186Y-150489814D01*
X144233448Y-150591271D01*
X144262778Y-150627009D01*
X144346443Y-150783534D01*
X144397963Y-150953373D01*
X144415359Y-151130000D01*
X144397963Y-151306627D01*
X144346443Y-151476466D01*
X144346442Y-151476468D01*
X144334398Y-151499000D01*
X144262778Y-151632991D01*
X144233448Y-151668729D01*
X144150186Y-151770186D01*
X144068227Y-151837447D01*
X144012991Y-151882778D01*
X143856466Y-151966443D01*
X143686627Y-152017963D01*
X143620442Y-152024482D01*
X143554260Y-152031000D01*
X143465740Y-152031000D01*
X143399558Y-152024482D01*
X143333373Y-152017963D01*
X143163534Y-151966443D01*
X143007009Y-151882778D01*
X142951773Y-151837447D01*
X142869814Y-151770186D01*
X142786552Y-151668729D01*
X142757222Y-151632991D01*
X142685602Y-151499000D01*
X142673558Y-151476468D01*
X142673557Y-151476466D01*
X142622037Y-151306627D01*
X142604641Y-151130000D01*
X142622037Y-150953373D01*
X142673557Y-150783534D01*
X142757222Y-150627009D01*
X142786552Y-150591271D01*
X142869814Y-150489814D01*
X142971271Y-150406552D01*
X143007009Y-150377222D01*
X143163534Y-150293557D01*
X143333373Y-150242037D01*
X143399558Y-150235518D01*
X143465740Y-150229000D01*
X143554260Y-150229000D01*
X143620442Y-150235518D01*
X143620442Y-150235518D01*
G37*
G36*
X125394000Y-151720000D02*
G01*
X124542000Y-151720000D01*
X124542000Y-150418000D01*
X125394000Y-150418000D01*
X125394000Y-151720000D01*
X125394000Y-151720000D01*
G37*
G36*
X97491000Y-151556000D02*
G01*
X96189000Y-151556000D01*
X96189000Y-150704000D01*
X97491000Y-150704000D01*
X97491000Y-151556000D01*
X97491000Y-151556000D01*
G37*
G36*
X99391000Y-151556000D02*
G01*
X98089000Y-151556000D01*
X98089000Y-150704000D01*
X99391000Y-150704000D01*
X99391000Y-151556000D01*
X99391000Y-151556000D01*
G37*
G36*
X118446000Y-151302000D02*
G01*
X117144000Y-151302000D01*
X117144000Y-150450000D01*
X118446000Y-150450000D01*
X118446000Y-151302000D01*
X118446000Y-151302000D01*
G37*
G36*
X130942800Y-151302000D02*
G01*
X129640800Y-151302000D01*
X129640800Y-150450000D01*
X130942800Y-150450000D01*
X130942800Y-151302000D01*
X130942800Y-151302000D01*
G37*
G36*
X132842800Y-151302000D02*
G01*
X131540800Y-151302000D01*
X131540800Y-150450000D01*
X132842800Y-150450000D01*
X132842800Y-151302000D01*
X132842800Y-151302000D01*
G37*
G36*
X120346000Y-151302000D02*
G01*
X119044000Y-151302000D01*
X119044000Y-150450000D01*
X120346000Y-150450000D01*
X120346000Y-151302000D01*
X120346000Y-151302000D01*
G37*
G36*
X136602000Y-151302000D02*
G01*
X135300000Y-151302000D01*
X135300000Y-150450000D01*
X136602000Y-150450000D01*
X136602000Y-151302000D01*
X136602000Y-151302000D01*
G37*
G36*
X134702000Y-151302000D02*
G01*
X133400000Y-151302000D01*
X133400000Y-150450000D01*
X134702000Y-150450000D01*
X134702000Y-151302000D01*
X134702000Y-151302000D01*
G37*
G36*
X163490000Y-151022000D02*
G01*
X162138000Y-151022000D01*
X162138000Y-149420000D01*
X163490000Y-149420000D01*
X163490000Y-151022000D01*
X163490000Y-151022000D01*
G37*
G36*
X161664000Y-150808000D02*
G01*
X160662000Y-150808000D01*
X160662000Y-149506000D01*
X161664000Y-149506000D01*
X161664000Y-150808000D01*
X161664000Y-150808000D01*
G37*
G36*
X105520443Y-148965519D02*
G01*
X105586627Y-148972037D01*
X105756466Y-149023557D01*
X105912991Y-149107222D01*
X105948729Y-149136552D01*
X106050186Y-149219814D01*
X106133448Y-149321271D01*
X106162778Y-149357009D01*
X106246443Y-149513534D01*
X106297963Y-149683373D01*
X106315359Y-149860000D01*
X106297963Y-150036627D01*
X106246443Y-150206466D01*
X106162778Y-150362991D01*
X106133448Y-150398729D01*
X106050186Y-150500186D01*
X105948729Y-150583448D01*
X105912991Y-150612778D01*
X105756466Y-150696443D01*
X105586627Y-150747963D01*
X105520443Y-150754481D01*
X105454260Y-150761000D01*
X105365740Y-150761000D01*
X105299557Y-150754481D01*
X105233373Y-150747963D01*
X105063534Y-150696443D01*
X104907009Y-150612778D01*
X104871271Y-150583448D01*
X104769814Y-150500186D01*
X104686552Y-150398729D01*
X104657222Y-150362991D01*
X104573557Y-150206466D01*
X104522037Y-150036627D01*
X104504641Y-149860000D01*
X104522037Y-149683373D01*
X104573557Y-149513534D01*
X104657222Y-149357009D01*
X104686552Y-149321271D01*
X104769814Y-149219814D01*
X104871271Y-149136552D01*
X104907009Y-149107222D01*
X105063534Y-149023557D01*
X105233373Y-148972037D01*
X105299557Y-148965519D01*
X105365740Y-148959000D01*
X105454260Y-148959000D01*
X105520443Y-148965519D01*
X105520443Y-148965519D01*
G37*
G36*
X167040000Y-150515000D02*
G01*
X166338000Y-150515000D01*
X166338000Y-149713000D01*
X167040000Y-149713000D01*
X167040000Y-150515000D01*
X167040000Y-150515000D01*
G37*
G36*
X165640000Y-150515000D02*
G01*
X164938000Y-150515000D01*
X164938000Y-149713000D01*
X165640000Y-149713000D01*
X165640000Y-150515000D01*
X165640000Y-150515000D01*
G37*
G36*
X154278000Y-150107000D02*
G01*
X152976000Y-150107000D01*
X152976000Y-149105000D01*
X154278000Y-149105000D01*
X154278000Y-150107000D01*
X154278000Y-150107000D01*
G37*
G36*
X152078000Y-150107000D02*
G01*
X150776000Y-150107000D01*
X150776000Y-149105000D01*
X152078000Y-149105000D01*
X152078000Y-150107000D01*
X152078000Y-150107000D01*
G37*
G36*
X148014000Y-149980000D02*
G01*
X146712000Y-149980000D01*
X146712000Y-148978000D01*
X148014000Y-148978000D01*
X148014000Y-149980000D01*
X148014000Y-149980000D01*
G37*
G36*
X150214000Y-149980000D02*
G01*
X148912000Y-149980000D01*
X148912000Y-148978000D01*
X150214000Y-148978000D01*
X150214000Y-149980000D01*
X150214000Y-149980000D01*
G37*
G36*
X134671000Y-149886000D02*
G01*
X116789000Y-149886000D01*
X116789000Y-148314000D01*
X134671000Y-148314000D01*
X134671000Y-149886000D01*
X134671000Y-149886000D01*
G37*
G36*
X143620443Y-147695519D02*
G01*
X143686627Y-147702037D01*
X143856466Y-147753557D01*
X144012991Y-147837222D01*
X144048729Y-147866552D01*
X144150186Y-147949814D01*
X144233448Y-148051271D01*
X144262778Y-148087009D01*
X144346443Y-148243534D01*
X144397963Y-148413373D01*
X144415359Y-148590000D01*
X144397963Y-148766627D01*
X144346443Y-148936466D01*
X144262778Y-149092991D01*
X144233448Y-149128729D01*
X144150186Y-149230186D01*
X144048729Y-149313448D01*
X144012991Y-149342778D01*
X143856466Y-149426443D01*
X143686627Y-149477963D01*
X143620442Y-149484482D01*
X143554260Y-149491000D01*
X143465740Y-149491000D01*
X143399558Y-149484482D01*
X143333373Y-149477963D01*
X143163534Y-149426443D01*
X143007009Y-149342778D01*
X142971271Y-149313448D01*
X142869814Y-149230186D01*
X142786552Y-149128729D01*
X142757222Y-149092991D01*
X142673557Y-148936466D01*
X142622037Y-148766627D01*
X142604641Y-148590000D01*
X142622037Y-148413373D01*
X142673557Y-148243534D01*
X142757222Y-148087009D01*
X142786552Y-148051271D01*
X142869814Y-147949814D01*
X142971271Y-147866552D01*
X143007009Y-147837222D01*
X143163534Y-147753557D01*
X143333373Y-147702037D01*
X143399557Y-147695519D01*
X143465740Y-147689000D01*
X143554260Y-147689000D01*
X143620443Y-147695519D01*
X143620443Y-147695519D01*
G37*
G36*
X165697000Y-149101000D02*
G01*
X163995000Y-149101000D01*
X163995000Y-146999000D01*
X165697000Y-146999000D01*
X165697000Y-149101000D01*
X165697000Y-149101000D01*
G37*
G36*
X168033000Y-149101000D02*
G01*
X166231000Y-149101000D01*
X166231000Y-146999000D01*
X168033000Y-146999000D01*
X168033000Y-149101000D01*
X168033000Y-149101000D01*
G37*
G36*
X161664000Y-148944000D02*
G01*
X160662000Y-148944000D01*
X160662000Y-147642000D01*
X161664000Y-147642000D01*
X161664000Y-148944000D01*
X161664000Y-148944000D01*
G37*
G36*
X137623000Y-148762000D02*
G01*
X136321000Y-148762000D01*
X136321000Y-147910000D01*
X137623000Y-147910000D01*
X137623000Y-148762000D01*
X137623000Y-148762000D01*
G37*
G36*
X139523000Y-148762000D02*
G01*
X138221000Y-148762000D01*
X138221000Y-147910000D01*
X139523000Y-147910000D01*
X139523000Y-148762000D01*
X139523000Y-148762000D01*
G37*
G36*
X152078000Y-148583000D02*
G01*
X150776000Y-148583000D01*
X150776000Y-147581000D01*
X152078000Y-147581000D01*
X152078000Y-148583000D01*
X152078000Y-148583000D01*
G37*
G36*
X154278000Y-148583000D02*
G01*
X152976000Y-148583000D01*
X152976000Y-147581000D01*
X154278000Y-147581000D01*
X154278000Y-148583000D01*
X154278000Y-148583000D01*
G37*
G36*
X163490000Y-148522000D02*
G01*
X162138000Y-148522000D01*
X162138000Y-146920000D01*
X163490000Y-146920000D01*
X163490000Y-148522000D01*
X163490000Y-148522000D01*
G37*
G36*
X147760000Y-148504000D02*
G01*
X146158000Y-148504000D01*
X146158000Y-147152000D01*
X147760000Y-147152000D01*
X147760000Y-148504000D01*
X147760000Y-148504000D01*
G37*
G36*
X150260000Y-148504000D02*
G01*
X148658000Y-148504000D01*
X148658000Y-147152000D01*
X150260000Y-147152000D01*
X150260000Y-148504000D01*
X150260000Y-148504000D01*
G37*
G36*
X105520442Y-146425518D02*
G01*
X105586627Y-146432037D01*
X105756466Y-146483557D01*
X105912991Y-146567222D01*
X105948729Y-146596552D01*
X106050186Y-146679814D01*
X106102861Y-146744000D01*
X106162778Y-146817009D01*
X106246443Y-146973534D01*
X106297963Y-147143373D01*
X106315359Y-147320000D01*
X106297963Y-147496627D01*
X106246443Y-147666466D01*
X106162778Y-147822991D01*
X106133448Y-147858729D01*
X106050186Y-147960186D01*
X105948729Y-148043448D01*
X105912991Y-148072778D01*
X105756466Y-148156443D01*
X105586627Y-148207963D01*
X105520442Y-148214482D01*
X105454260Y-148221000D01*
X105365740Y-148221000D01*
X105299558Y-148214482D01*
X105233373Y-148207963D01*
X105063534Y-148156443D01*
X104907009Y-148072778D01*
X104871271Y-148043448D01*
X104769814Y-147960186D01*
X104686552Y-147858729D01*
X104657222Y-147822991D01*
X104573557Y-147666466D01*
X104522037Y-147496627D01*
X104504641Y-147320000D01*
X104522037Y-147143373D01*
X104573557Y-146973534D01*
X104657222Y-146817009D01*
X104717139Y-146744000D01*
X104769814Y-146679814D01*
X104871271Y-146596552D01*
X104907009Y-146567222D01*
X105063534Y-146483557D01*
X105233373Y-146432037D01*
X105299558Y-146425518D01*
X105365740Y-146419000D01*
X105454260Y-146419000D01*
X105520442Y-146425518D01*
X105520442Y-146425518D01*
G37*
G36*
X99170442Y-146425518D02*
G01*
X99236627Y-146432037D01*
X99406466Y-146483557D01*
X99562991Y-146567222D01*
X99598729Y-146596552D01*
X99700186Y-146679814D01*
X99752861Y-146744000D01*
X99812778Y-146817009D01*
X99896443Y-146973534D01*
X99947963Y-147143373D01*
X99965359Y-147320000D01*
X99947963Y-147496627D01*
X99896443Y-147666466D01*
X99812778Y-147822991D01*
X99783448Y-147858729D01*
X99700186Y-147960186D01*
X99598729Y-148043448D01*
X99562991Y-148072778D01*
X99406466Y-148156443D01*
X99236627Y-148207963D01*
X99170442Y-148214482D01*
X99104260Y-148221000D01*
X99015740Y-148221000D01*
X98949558Y-148214482D01*
X98883373Y-148207963D01*
X98713534Y-148156443D01*
X98557009Y-148072778D01*
X98521271Y-148043448D01*
X98419814Y-147960186D01*
X98336552Y-147858729D01*
X98307222Y-147822991D01*
X98223557Y-147666466D01*
X98172037Y-147496627D01*
X98154641Y-147320000D01*
X98172037Y-147143373D01*
X98223557Y-146973534D01*
X98307222Y-146817009D01*
X98367139Y-146744000D01*
X98419814Y-146679814D01*
X98521271Y-146596552D01*
X98557009Y-146567222D01*
X98713534Y-146483557D01*
X98883373Y-146432037D01*
X98949558Y-146425518D01*
X99015740Y-146419000D01*
X99104260Y-146419000D01*
X99170442Y-146425518D01*
X99170442Y-146425518D01*
G37*
G36*
X170290442Y-146425518D02*
G01*
X170356627Y-146432037D01*
X170526466Y-146483557D01*
X170682991Y-146567222D01*
X170718729Y-146596552D01*
X170820186Y-146679814D01*
X170872861Y-146744000D01*
X170932778Y-146817009D01*
X171016443Y-146973534D01*
X171067963Y-147143373D01*
X171085359Y-147320000D01*
X171067963Y-147496627D01*
X171016443Y-147666466D01*
X170932778Y-147822991D01*
X170903448Y-147858729D01*
X170820186Y-147960186D01*
X170718729Y-148043448D01*
X170682991Y-148072778D01*
X170526466Y-148156443D01*
X170356627Y-148207963D01*
X170290442Y-148214482D01*
X170224260Y-148221000D01*
X170135740Y-148221000D01*
X170069558Y-148214482D01*
X170003373Y-148207963D01*
X169833534Y-148156443D01*
X169677009Y-148072778D01*
X169641271Y-148043448D01*
X169539814Y-147960186D01*
X169456552Y-147858729D01*
X169427222Y-147822991D01*
X169343557Y-147666466D01*
X169292037Y-147496627D01*
X169274641Y-147320000D01*
X169292037Y-147143373D01*
X169343557Y-146973534D01*
X169427222Y-146817009D01*
X169487139Y-146744000D01*
X169539814Y-146679814D01*
X169641271Y-146596552D01*
X169677009Y-146567222D01*
X169833534Y-146483557D01*
X170003373Y-146432037D01*
X170069558Y-146425518D01*
X170135740Y-146419000D01*
X170224260Y-146419000D01*
X170290442Y-146425518D01*
X170290442Y-146425518D01*
G37*
G36*
X97421000Y-148221000D02*
G01*
X95619000Y-148221000D01*
X95619000Y-146419000D01*
X97421000Y-146419000D01*
X97421000Y-148221000D01*
X97421000Y-148221000D01*
G37*
G36*
X115846000Y-147371000D02*
G01*
X114274000Y-147371000D01*
X114274000Y-129489000D01*
X115846000Y-129489000D01*
X115846000Y-147371000D01*
X115846000Y-147371000D01*
G37*
G36*
X137186000Y-147371000D02*
G01*
X135614000Y-147371000D01*
X135614000Y-129489000D01*
X137186000Y-129489000D01*
X137186000Y-147371000D01*
X137186000Y-147371000D01*
G37*
G36*
X159658801Y-147276101D02*
G01*
X155301201Y-147276101D01*
X155301201Y-145573901D01*
X159658801Y-145573901D01*
X159658801Y-147276101D01*
X159658801Y-147276101D01*
G37*
G36*
X154298000Y-147039000D02*
G01*
X153296000Y-147039000D01*
X153296000Y-145737000D01*
X154298000Y-145737000D01*
X154298000Y-147039000D01*
X154298000Y-147039000D01*
G37*
G36*
X143620443Y-145155519D02*
G01*
X143686627Y-145162037D01*
X143856466Y-145213557D01*
X144012991Y-145297222D01*
X144048729Y-145326552D01*
X144150186Y-145409814D01*
X144233448Y-145511271D01*
X144262778Y-145547009D01*
X144346443Y-145703534D01*
X144397963Y-145873373D01*
X144415359Y-146050000D01*
X144397963Y-146226627D01*
X144346443Y-146396466D01*
X144262778Y-146552991D01*
X144233448Y-146588729D01*
X144150186Y-146690186D01*
X144084612Y-146744000D01*
X144012991Y-146802778D01*
X143856466Y-146886443D01*
X143686627Y-146937963D01*
X143620442Y-146944482D01*
X143554260Y-146951000D01*
X143465740Y-146951000D01*
X143399558Y-146944482D01*
X143333373Y-146937963D01*
X143163534Y-146886443D01*
X143007009Y-146802778D01*
X142935388Y-146744000D01*
X142869814Y-146690186D01*
X142786552Y-146588729D01*
X142757222Y-146552991D01*
X142673557Y-146396466D01*
X142622037Y-146226627D01*
X142604641Y-146050000D01*
X142622037Y-145873373D01*
X142673557Y-145703534D01*
X142757222Y-145547009D01*
X142786552Y-145511271D01*
X142869814Y-145409814D01*
X142971271Y-145326552D01*
X143007009Y-145297222D01*
X143163534Y-145213557D01*
X143333373Y-145162037D01*
X143399557Y-145155519D01*
X143465740Y-145149000D01*
X143554260Y-145149000D01*
X143620443Y-145155519D01*
X143620443Y-145155519D01*
G37*
G36*
X161664000Y-146744000D02*
G01*
X160662000Y-146744000D01*
X160662000Y-145442000D01*
X161664000Y-145442000D01*
X161664000Y-146744000D01*
X161664000Y-146744000D01*
G37*
G36*
X151461000Y-146349000D02*
G01*
X150159000Y-146349000D01*
X150159000Y-145497000D01*
X151461000Y-145497000D01*
X151461000Y-146349000D01*
X151461000Y-146349000D01*
G37*
G36*
X149561000Y-146349000D02*
G01*
X148259000Y-146349000D01*
X148259000Y-145497000D01*
X149561000Y-145497000D01*
X149561000Y-146349000D01*
X149561000Y-146349000D01*
G37*
G36*
X139020000Y-146095000D02*
G01*
X137718000Y-146095000D01*
X137718000Y-145243000D01*
X139020000Y-145243000D01*
X139020000Y-146095000D01*
X139020000Y-146095000D01*
G37*
G36*
X140920000Y-146095000D02*
G01*
X139618000Y-146095000D01*
X139618000Y-145243000D01*
X140920000Y-145243000D01*
X140920000Y-146095000D01*
X140920000Y-146095000D01*
G37*
G36*
X171081000Y-145681000D02*
G01*
X169279000Y-145681000D01*
X169279000Y-143879000D01*
X171081000Y-143879000D01*
X171081000Y-145681000D01*
X171081000Y-145681000D01*
G37*
G36*
X105520443Y-143885519D02*
G01*
X105586627Y-143892037D01*
X105756466Y-143943557D01*
X105912991Y-144027222D01*
X105948729Y-144056552D01*
X106050186Y-144139814D01*
X106133448Y-144241271D01*
X106162778Y-144277009D01*
X106246443Y-144433534D01*
X106297963Y-144603373D01*
X106315359Y-144780000D01*
X106297963Y-144956627D01*
X106246443Y-145126466D01*
X106162778Y-145282991D01*
X106133448Y-145318729D01*
X106050186Y-145420186D01*
X105956586Y-145497000D01*
X105912991Y-145532778D01*
X105756466Y-145616443D01*
X105586627Y-145667963D01*
X105520443Y-145674481D01*
X105454260Y-145681000D01*
X105365740Y-145681000D01*
X105299557Y-145674481D01*
X105233373Y-145667963D01*
X105063534Y-145616443D01*
X104907009Y-145532778D01*
X104863414Y-145497000D01*
X104769814Y-145420186D01*
X104686552Y-145318729D01*
X104657222Y-145282991D01*
X104573557Y-145126466D01*
X104522037Y-144956627D01*
X104504641Y-144780000D01*
X104522037Y-144603373D01*
X104573557Y-144433534D01*
X104657222Y-144277009D01*
X104686552Y-144241271D01*
X104769814Y-144139814D01*
X104871271Y-144056552D01*
X104907009Y-144027222D01*
X105063534Y-143943557D01*
X105233373Y-143892037D01*
X105299557Y-143885519D01*
X105365740Y-143879000D01*
X105454260Y-143879000D01*
X105520443Y-143885519D01*
X105520443Y-143885519D01*
G37*
G36*
X89383000Y-145187000D02*
G01*
X87981000Y-145187000D01*
X87981000Y-143535000D01*
X89383000Y-143535000D01*
X89383000Y-145187000D01*
X89383000Y-145187000D01*
G37*
G36*
X93883000Y-145187000D02*
G01*
X92481000Y-145187000D01*
X92481000Y-143535000D01*
X93883000Y-143535000D01*
X93883000Y-145187000D01*
X93883000Y-145187000D01*
G37*
G36*
X165697000Y-145101000D02*
G01*
X163995000Y-145101000D01*
X163995000Y-142999000D01*
X165697000Y-142999000D01*
X165697000Y-145101000D01*
X165697000Y-145101000D01*
G37*
G36*
X168033000Y-145101000D02*
G01*
X166231000Y-145101000D01*
X166231000Y-142999000D01*
X168033000Y-142999000D01*
X168033000Y-145101000D01*
X168033000Y-145101000D01*
G37*
G36*
X111842000Y-145079000D02*
G01*
X110540000Y-145079000D01*
X110540000Y-144227000D01*
X111842000Y-144227000D01*
X111842000Y-145079000D01*
X111842000Y-145079000D01*
G37*
G36*
X113742000Y-145079000D02*
G01*
X112440000Y-145079000D01*
X112440000Y-144227000D01*
X113742000Y-144227000D01*
X113742000Y-145079000D01*
X113742000Y-145079000D01*
G37*
G36*
X157981000Y-145007000D02*
G01*
X156979000Y-145007000D01*
X156979000Y-143705000D01*
X157981000Y-143705000D01*
X157981000Y-145007000D01*
X157981000Y-145007000D01*
G37*
G36*
X152208001Y-142986000D02*
G01*
X152142999Y-142986000D01*
X152118613Y-142988402D01*
X152095164Y-142995515D01*
X152073553Y-143007066D01*
X152054611Y-143022611D01*
X152039066Y-143041553D01*
X152027515Y-143063164D01*
X152020402Y-143086613D01*
X152018000Y-143110999D01*
X152018000Y-143909001D01*
X152020402Y-143933387D01*
X152027515Y-143956836D01*
X152039066Y-143978447D01*
X152054611Y-143997389D01*
X152073553Y-144012934D01*
X152095164Y-144024485D01*
X152118613Y-144031598D01*
X152142999Y-144034000D01*
X152208001Y-144034000D01*
X152208001Y-144986000D01*
X150305999Y-144986000D01*
X150305999Y-144034000D01*
X150371001Y-144034000D01*
X150395387Y-144031598D01*
X150418836Y-144024485D01*
X150440447Y-144012934D01*
X150459389Y-143997389D01*
X150474934Y-143978447D01*
X150486485Y-143956836D01*
X150493598Y-143933387D01*
X150496000Y-143909001D01*
X150496000Y-143110999D01*
X150493598Y-143086613D01*
X150486485Y-143063164D01*
X150474934Y-143041553D01*
X150459389Y-143022611D01*
X150440447Y-143007066D01*
X150418836Y-142995515D01*
X150395387Y-142988402D01*
X150371001Y-142986000D01*
X150305999Y-142986000D01*
X150305999Y-142034000D01*
X152208001Y-142034000D01*
X152208001Y-142986000D01*
X152208001Y-142986000D01*
G37*
G36*
X159825000Y-144900000D02*
G01*
X158523000Y-144900000D01*
X158523000Y-143898000D01*
X159825000Y-143898000D01*
X159825000Y-144900000D01*
X159825000Y-144900000D01*
G37*
G36*
X162025000Y-144900000D02*
G01*
X160723000Y-144900000D01*
X160723000Y-143898000D01*
X162025000Y-143898000D01*
X162025000Y-144900000D01*
X162025000Y-144900000D01*
G37*
G36*
X154298000Y-144839000D02*
G01*
X153296000Y-144839000D01*
X153296000Y-143537000D01*
X154298000Y-143537000D01*
X154298000Y-144839000D01*
X154298000Y-144839000D01*
G37*
G36*
X143620442Y-142615518D02*
G01*
X143686627Y-142622037D01*
X143856466Y-142673557D01*
X144012991Y-142757222D01*
X144048729Y-142786552D01*
X144150186Y-142869814D01*
X144233448Y-142971271D01*
X144262778Y-143007009D01*
X144346443Y-143163534D01*
X144397963Y-143333373D01*
X144415359Y-143510000D01*
X144397963Y-143686627D01*
X144346443Y-143856466D01*
X144262778Y-144012991D01*
X144245536Y-144034000D01*
X144150186Y-144150186D01*
X144056586Y-144227000D01*
X144012991Y-144262778D01*
X143856466Y-144346443D01*
X143686627Y-144397963D01*
X143620443Y-144404481D01*
X143554260Y-144411000D01*
X143465740Y-144411000D01*
X143399557Y-144404481D01*
X143333373Y-144397963D01*
X143163534Y-144346443D01*
X143007009Y-144262778D01*
X142963414Y-144227000D01*
X142869814Y-144150186D01*
X142774464Y-144034000D01*
X142757222Y-144012991D01*
X142673557Y-143856466D01*
X142622037Y-143686627D01*
X142604641Y-143510000D01*
X142622037Y-143333373D01*
X142673557Y-143163534D01*
X142757222Y-143007009D01*
X142786552Y-142971271D01*
X142869814Y-142869814D01*
X142971271Y-142786552D01*
X143007009Y-142757222D01*
X143163534Y-142673557D01*
X143333373Y-142622037D01*
X143399558Y-142615518D01*
X143465740Y-142609000D01*
X143554260Y-142609000D01*
X143620442Y-142615518D01*
X143620442Y-142615518D01*
G37*
G36*
X139999000Y-144095000D02*
G01*
X139147000Y-144095000D01*
X139147000Y-142793000D01*
X139999000Y-142793000D01*
X139999000Y-144095000D01*
X139999000Y-144095000D01*
G37*
G36*
X138602000Y-144095000D02*
G01*
X137750000Y-144095000D01*
X137750000Y-142793000D01*
X138602000Y-142793000D01*
X138602000Y-144095000D01*
X138602000Y-144095000D01*
G37*
G36*
X159825000Y-143376000D02*
G01*
X158523000Y-143376000D01*
X158523000Y-142374000D01*
X159825000Y-142374000D01*
X159825000Y-143376000D01*
X159825000Y-143376000D01*
G37*
G36*
X162025000Y-143376000D02*
G01*
X160723000Y-143376000D01*
X160723000Y-142374000D01*
X162025000Y-142374000D01*
X162025000Y-143376000D01*
X162025000Y-143376000D01*
G37*
G36*
X105520442Y-141345518D02*
G01*
X105586627Y-141352037D01*
X105756466Y-141403557D01*
X105912991Y-141487222D01*
X105915157Y-141489000D01*
X106050186Y-141599814D01*
X106133448Y-141701271D01*
X106162778Y-141737009D01*
X106246443Y-141893534D01*
X106297963Y-142063373D01*
X106315359Y-142240000D01*
X106297963Y-142416627D01*
X106246443Y-142586466D01*
X106162778Y-142742991D01*
X106133448Y-142778729D01*
X106050186Y-142880186D01*
X105948729Y-142963448D01*
X105912991Y-142992778D01*
X105756466Y-143076443D01*
X105586627Y-143127963D01*
X105520443Y-143134481D01*
X105454260Y-143141000D01*
X105365740Y-143141000D01*
X105299557Y-143134481D01*
X105233373Y-143127963D01*
X105063534Y-143076443D01*
X104907009Y-142992778D01*
X104871271Y-142963448D01*
X104769814Y-142880186D01*
X104686552Y-142778729D01*
X104657222Y-142742991D01*
X104573557Y-142586466D01*
X104522037Y-142416627D01*
X104504641Y-142240000D01*
X104522037Y-142063373D01*
X104573557Y-141893534D01*
X104657222Y-141737009D01*
X104686552Y-141701271D01*
X104769814Y-141599814D01*
X104904843Y-141489000D01*
X104907009Y-141487222D01*
X105063534Y-141403557D01*
X105233373Y-141352037D01*
X105299558Y-141345518D01*
X105365740Y-141339000D01*
X105454260Y-141339000D01*
X105520442Y-141345518D01*
X105520442Y-141345518D01*
G37*
G36*
X113710000Y-143079000D02*
G01*
X112858000Y-143079000D01*
X112858000Y-141777000D01*
X113710000Y-141777000D01*
X113710000Y-143079000D01*
X113710000Y-143079000D01*
G37*
G36*
X112313000Y-143079000D02*
G01*
X111461000Y-143079000D01*
X111461000Y-141777000D01*
X112313000Y-141777000D01*
X112313000Y-143079000D01*
X112313000Y-143079000D01*
G37*
G36*
X110916000Y-143079000D02*
G01*
X110064000Y-143079000D01*
X110064000Y-141777000D01*
X110916000Y-141777000D01*
X110916000Y-143079000D01*
X110916000Y-143079000D01*
G37*
G36*
X154237000Y-142995000D02*
G01*
X152935000Y-142995000D01*
X152935000Y-141993000D01*
X154237000Y-141993000D01*
X154237000Y-142995000D01*
X154237000Y-142995000D01*
G37*
G36*
X156437000Y-142995000D02*
G01*
X155135000Y-142995000D01*
X155135000Y-141993000D01*
X156437000Y-141993000D01*
X156437000Y-142995000D01*
X156437000Y-142995000D01*
G37*
G36*
X157981000Y-142807000D02*
G01*
X156979000Y-142807000D01*
X156979000Y-141505000D01*
X157981000Y-141505000D01*
X157981000Y-142807000D01*
X157981000Y-142807000D01*
G37*
G36*
X167199000Y-142456000D02*
G01*
X165097000Y-142456000D01*
X165097000Y-140754000D01*
X167199000Y-140754000D01*
X167199000Y-142456000D01*
X167199000Y-142456000D01*
G37*
G36*
X171199000Y-142456000D02*
G01*
X169097000Y-142456000D01*
X169097000Y-140754000D01*
X171199000Y-140754000D01*
X171199000Y-142456000D01*
X171199000Y-142456000D01*
G37*
G36*
X138602000Y-142195000D02*
G01*
X137750000Y-142195000D01*
X137750000Y-140893000D01*
X138602000Y-140893000D01*
X138602000Y-142195000D01*
X138602000Y-142195000D01*
G37*
G36*
X139999000Y-142195000D02*
G01*
X139147000Y-142195000D01*
X139147000Y-140893000D01*
X139999000Y-140893000D01*
X139999000Y-142195000D01*
X139999000Y-142195000D01*
G37*
G36*
X129281000Y-141981000D02*
G01*
X122179000Y-141981000D01*
X122179000Y-134879000D01*
X129281000Y-134879000D01*
X129281000Y-141981000D01*
X129281000Y-141981000D01*
G37*
G36*
X162579000Y-141900000D02*
G01*
X160977000Y-141900000D01*
X160977000Y-140548000D01*
X162579000Y-140548000D01*
X162579000Y-141900000D01*
X162579000Y-141900000D01*
G37*
G36*
X160079000Y-141900000D02*
G01*
X158477000Y-141900000D01*
X158477000Y-140548000D01*
X160079000Y-140548000D01*
X160079000Y-141900000D01*
X160079000Y-141900000D01*
G37*
G36*
X100498000Y-141878000D02*
G01*
X99146000Y-141878000D01*
X99146000Y-140276000D01*
X100498000Y-140276000D01*
X100498000Y-141878000D01*
X100498000Y-141878000D01*
G37*
G36*
X144411000Y-141871000D02*
G01*
X142609000Y-141871000D01*
X142609000Y-140069000D01*
X144411000Y-140069000D01*
X144411000Y-141871000D01*
X144411000Y-141871000D01*
G37*
G36*
X98597000Y-141428000D02*
G01*
X97745000Y-141428000D01*
X97745000Y-140126000D01*
X98597000Y-140126000D01*
X98597000Y-141428000D01*
X98597000Y-141428000D01*
G37*
G36*
X110916000Y-141179000D02*
G01*
X110064000Y-141179000D01*
X110064000Y-139877000D01*
X110916000Y-139877000D01*
X110916000Y-141179000D01*
X110916000Y-141179000D01*
G37*
G36*
X112313000Y-141179000D02*
G01*
X111461000Y-141179000D01*
X111461000Y-139877000D01*
X112313000Y-139877000D01*
X112313000Y-141179000D01*
X112313000Y-141179000D01*
G37*
G36*
X113710000Y-141179000D02*
G01*
X112858000Y-141179000D01*
X112858000Y-139877000D01*
X113710000Y-139877000D01*
X113710000Y-141179000D01*
X113710000Y-141179000D01*
G37*
G36*
X105520442Y-138805518D02*
G01*
X105586627Y-138812037D01*
X105756466Y-138863557D01*
X105912991Y-138947222D01*
X105948729Y-138976552D01*
X106050186Y-139059814D01*
X106133448Y-139161271D01*
X106162778Y-139197009D01*
X106246443Y-139353534D01*
X106297963Y-139523373D01*
X106315359Y-139700000D01*
X106297963Y-139876627D01*
X106246443Y-140046466D01*
X106162778Y-140202991D01*
X106133448Y-140238729D01*
X106050186Y-140340186D01*
X105948729Y-140423448D01*
X105912991Y-140452778D01*
X105756466Y-140536443D01*
X105586627Y-140587963D01*
X105520442Y-140594482D01*
X105454260Y-140601000D01*
X105365740Y-140601000D01*
X105299558Y-140594482D01*
X105233373Y-140587963D01*
X105063534Y-140536443D01*
X104907009Y-140452778D01*
X104871271Y-140423448D01*
X104769814Y-140340186D01*
X104686552Y-140238729D01*
X104657222Y-140202991D01*
X104573557Y-140046466D01*
X104522037Y-139876627D01*
X104504641Y-139700000D01*
X104522037Y-139523373D01*
X104573557Y-139353534D01*
X104657222Y-139197009D01*
X104686552Y-139161271D01*
X104769814Y-139059814D01*
X104871271Y-138976552D01*
X104907009Y-138947222D01*
X105063534Y-138863557D01*
X105233373Y-138812037D01*
X105299558Y-138805518D01*
X105365740Y-138799000D01*
X105454260Y-138799000D01*
X105520442Y-138805518D01*
X105520442Y-138805518D01*
G37*
G36*
X93621000Y-140591000D02*
G01*
X93019000Y-140591000D01*
X93019000Y-139989000D01*
X93621000Y-139989000D01*
X93621000Y-140591000D01*
X93621000Y-140591000D01*
G37*
G36*
X92521000Y-140591000D02*
G01*
X91919000Y-140591000D01*
X91919000Y-139989000D01*
X92521000Y-139989000D01*
X92521000Y-140591000D01*
X92521000Y-140591000D01*
G37*
G36*
X94721000Y-140591000D02*
G01*
X94119000Y-140591000D01*
X94119000Y-139989000D01*
X94721000Y-139989000D01*
X94721000Y-140591000D01*
X94721000Y-140591000D01*
G37*
G36*
X91421000Y-140591000D02*
G01*
X90819000Y-140591000D01*
X90819000Y-139989000D01*
X91421000Y-139989000D01*
X91421000Y-140591000D01*
X91421000Y-140591000D01*
G37*
G36*
X88121000Y-140591000D02*
G01*
X87519000Y-140591000D01*
X87519000Y-139989000D01*
X88121000Y-139989000D01*
X88121000Y-140591000D01*
X88121000Y-140591000D01*
G37*
G36*
X90321000Y-140591000D02*
G01*
X89719000Y-140591000D01*
X89719000Y-139989000D01*
X90321000Y-139989000D01*
X90321000Y-140591000D01*
X90321000Y-140591000D01*
G37*
G36*
X89221000Y-140591000D02*
G01*
X88619000Y-140591000D01*
X88619000Y-139989000D01*
X89221000Y-139989000D01*
X89221000Y-140591000D01*
X89221000Y-140591000D01*
G37*
G36*
X96921000Y-140591000D02*
G01*
X96319000Y-140591000D01*
X96319000Y-139989000D01*
X96921000Y-139989000D01*
X96921000Y-140591000D01*
X96921000Y-140591000D01*
G37*
G36*
X95821000Y-140591000D02*
G01*
X95219000Y-140591000D01*
X95219000Y-139989000D01*
X95821000Y-139989000D01*
X95821000Y-140591000D01*
X95821000Y-140591000D01*
G37*
G36*
X169819000Y-140243000D02*
G01*
X169017000Y-140243000D01*
X169017000Y-139541000D01*
X169819000Y-139541000D01*
X169819000Y-140243000D01*
X169819000Y-140243000D01*
G37*
G36*
X171343000Y-140243000D02*
G01*
X170541000Y-140243000D01*
X170541000Y-139541000D01*
X171343000Y-139541000D01*
X171343000Y-140243000D01*
X171343000Y-140243000D01*
G37*
G36*
X90871000Y-139691000D02*
G01*
X90269000Y-139691000D01*
X90269000Y-139089000D01*
X90871000Y-139089000D01*
X90871000Y-139691000D01*
X90871000Y-139691000D01*
G37*
G36*
X89771000Y-139691000D02*
G01*
X89169000Y-139691000D01*
X89169000Y-139089000D01*
X89771000Y-139089000D01*
X89771000Y-139691000D01*
X89771000Y-139691000D01*
G37*
G36*
X88671000Y-139691000D02*
G01*
X88069000Y-139691000D01*
X88069000Y-139089000D01*
X88671000Y-139089000D01*
X88671000Y-139691000D01*
X88671000Y-139691000D01*
G37*
G36*
X91971000Y-139691000D02*
G01*
X91369000Y-139691000D01*
X91369000Y-139089000D01*
X91971000Y-139089000D01*
X91971000Y-139691000D01*
X91971000Y-139691000D01*
G37*
G36*
X93071000Y-139691000D02*
G01*
X92469000Y-139691000D01*
X92469000Y-139089000D01*
X93071000Y-139089000D01*
X93071000Y-139691000D01*
X93071000Y-139691000D01*
G37*
G36*
X94171000Y-139691000D02*
G01*
X93569000Y-139691000D01*
X93569000Y-139089000D01*
X94171000Y-139089000D01*
X94171000Y-139691000D01*
X94171000Y-139691000D01*
G37*
G36*
X95271000Y-139691000D02*
G01*
X94669000Y-139691000D01*
X94669000Y-139089000D01*
X95271000Y-139089000D01*
X95271000Y-139691000D01*
X95271000Y-139691000D01*
G37*
G36*
X98597000Y-139528000D02*
G01*
X97745000Y-139528000D01*
X97745000Y-138226000D01*
X98597000Y-138226000D01*
X98597000Y-139528000D01*
X98597000Y-139528000D01*
G37*
G36*
X140920000Y-139491000D02*
G01*
X139618000Y-139491000D01*
X139618000Y-138639000D01*
X140920000Y-138639000D01*
X140920000Y-139491000D01*
X140920000Y-139491000D01*
G37*
G36*
X96921000Y-139491000D02*
G01*
X96319000Y-139491000D01*
X96319000Y-138889000D01*
X96921000Y-138889000D01*
X96921000Y-139491000D01*
X96921000Y-139491000D01*
G37*
G36*
X139020000Y-139491000D02*
G01*
X137718000Y-139491000D01*
X137718000Y-138639000D01*
X139020000Y-138639000D01*
X139020000Y-139491000D01*
X139020000Y-139491000D01*
G37*
G36*
X168121000Y-139439000D02*
G01*
X166819000Y-139439000D01*
X166819000Y-138437000D01*
X168121000Y-138437000D01*
X168121000Y-139439000D01*
X168121000Y-139439000D01*
G37*
G36*
X161857000Y-139439000D02*
G01*
X160555000Y-139439000D01*
X160555000Y-138437000D01*
X161857000Y-138437000D01*
X161857000Y-139439000D01*
X161857000Y-139439000D01*
G37*
G36*
X165921000Y-139439000D02*
G01*
X164619000Y-139439000D01*
X164619000Y-138437000D01*
X165921000Y-138437000D01*
X165921000Y-139439000D01*
X165921000Y-139439000D01*
G37*
G36*
X164057000Y-139439000D02*
G01*
X162755000Y-139439000D01*
X162755000Y-138437000D01*
X164057000Y-138437000D01*
X164057000Y-139439000D01*
X164057000Y-139439000D01*
G37*
G36*
X100498000Y-139378000D02*
G01*
X99146000Y-139378000D01*
X99146000Y-137776000D01*
X100498000Y-137776000D01*
X100498000Y-139378000D01*
X100498000Y-139378000D01*
G37*
G36*
X96021000Y-138941000D02*
G01*
X95419000Y-138941000D01*
X95419000Y-138339000D01*
X96021000Y-138339000D01*
X96021000Y-138941000D01*
X96021000Y-138941000D01*
G37*
G36*
X169819000Y-138843000D02*
G01*
X169017000Y-138843000D01*
X169017000Y-138141000D01*
X169819000Y-138141000D01*
X169819000Y-138843000D01*
X169819000Y-138843000D01*
G37*
G36*
X171343000Y-138843000D02*
G01*
X170541000Y-138843000D01*
X170541000Y-138141000D01*
X171343000Y-138141000D01*
X171343000Y-138843000D01*
X171343000Y-138843000D01*
G37*
G36*
X96921000Y-138391000D02*
G01*
X96319000Y-138391000D01*
X96319000Y-137789000D01*
X96921000Y-137789000D01*
X96921000Y-138391000D01*
X96921000Y-138391000D01*
G37*
G36*
X157115000Y-138295000D02*
G01*
X155813000Y-138295000D01*
X155813000Y-137293000D01*
X157115000Y-137293000D01*
X157115000Y-138295000D01*
X157115000Y-138295000D01*
G37*
G36*
X140920000Y-138094000D02*
G01*
X139618000Y-138094000D01*
X139618000Y-137242000D01*
X140920000Y-137242000D01*
X140920000Y-138094000D01*
X140920000Y-138094000D01*
G37*
G36*
X139020000Y-138094000D02*
G01*
X137718000Y-138094000D01*
X137718000Y-137242000D01*
X139020000Y-137242000D01*
X139020000Y-138094000D01*
X139020000Y-138094000D01*
G37*
G36*
X111842000Y-138094000D02*
G01*
X110540000Y-138094000D01*
X110540000Y-137242000D01*
X111842000Y-137242000D01*
X111842000Y-138094000D01*
X111842000Y-138094000D01*
G37*
G36*
X113742000Y-138094000D02*
G01*
X112440000Y-138094000D01*
X112440000Y-137242000D01*
X113742000Y-137242000D01*
X113742000Y-138094000D01*
X113742000Y-138094000D01*
G37*
G36*
X105520443Y-136265519D02*
G01*
X105586627Y-136272037D01*
X105756466Y-136323557D01*
X105912991Y-136407222D01*
X105948729Y-136436552D01*
X106050186Y-136519814D01*
X106133448Y-136621271D01*
X106162778Y-136657009D01*
X106246443Y-136813534D01*
X106297963Y-136983373D01*
X106315359Y-137160000D01*
X106297963Y-137336627D01*
X106246443Y-137506466D01*
X106162778Y-137662991D01*
X106142253Y-137688000D01*
X106050186Y-137800186D01*
X105948729Y-137883448D01*
X105912991Y-137912778D01*
X105756466Y-137996443D01*
X105586627Y-138047963D01*
X105520442Y-138054482D01*
X105454260Y-138061000D01*
X105365740Y-138061000D01*
X105299558Y-138054482D01*
X105233373Y-138047963D01*
X105063534Y-137996443D01*
X104907009Y-137912778D01*
X104871271Y-137883448D01*
X104769814Y-137800186D01*
X104677747Y-137688000D01*
X104657222Y-137662991D01*
X104573557Y-137506466D01*
X104522037Y-137336627D01*
X104504641Y-137160000D01*
X104522037Y-136983373D01*
X104573557Y-136813534D01*
X104657222Y-136657009D01*
X104686552Y-136621271D01*
X104769814Y-136519814D01*
X104871271Y-136436552D01*
X104907009Y-136407222D01*
X105063534Y-136323557D01*
X105233373Y-136272037D01*
X105299557Y-136265519D01*
X105365740Y-136259000D01*
X105454260Y-136259000D01*
X105520443Y-136265519D01*
X105520443Y-136265519D01*
G37*
G36*
X96021000Y-137841000D02*
G01*
X95419000Y-137841000D01*
X95419000Y-137239000D01*
X96021000Y-137239000D01*
X96021000Y-137841000D01*
X96021000Y-137841000D01*
G37*
G36*
X88121000Y-137841000D02*
G01*
X87519000Y-137841000D01*
X87519000Y-137239000D01*
X88121000Y-137239000D01*
X88121000Y-137841000D01*
X88121000Y-137841000D01*
G37*
G36*
X168037799Y-137688000D02*
G01*
X166165801Y-137688000D01*
X166165801Y-136886000D01*
X168037799Y-136886000D01*
X168037799Y-137688000D01*
X168037799Y-137688000D01*
G37*
G36*
X162510199Y-137688000D02*
G01*
X160638201Y-137688000D01*
X160638201Y-136886000D01*
X162510199Y-136886000D01*
X162510199Y-137688000D01*
X162510199Y-137688000D01*
G37*
G36*
X96921000Y-137291000D02*
G01*
X96319000Y-137291000D01*
X96319000Y-136689000D01*
X96921000Y-136689000D01*
X96921000Y-137291000D01*
X96921000Y-137291000D01*
G37*
G36*
X165519000Y-137033000D02*
G01*
X163157000Y-137033000D01*
X163157000Y-133731000D01*
X165519000Y-133731000D01*
X165519000Y-137033000D01*
X165519000Y-137033000D01*
G37*
G36*
X96021000Y-136741000D02*
G01*
X95419000Y-136741000D01*
X95419000Y-136139000D01*
X96021000Y-136139000D01*
X96021000Y-136741000D01*
X96021000Y-136741000D01*
G37*
G36*
X113742000Y-136697000D02*
G01*
X112440000Y-136697000D01*
X112440000Y-135845000D01*
X113742000Y-135845000D01*
X113742000Y-136697000D01*
X113742000Y-136697000D01*
G37*
G36*
X111842000Y-136697000D02*
G01*
X110540000Y-136697000D01*
X110540000Y-135845000D01*
X111842000Y-135845000D01*
X111842000Y-136697000D01*
X111842000Y-136697000D01*
G37*
G36*
X168037799Y-136418000D02*
G01*
X166165801Y-136418000D01*
X166165801Y-135616000D01*
X168037799Y-135616000D01*
X168037799Y-136418000D01*
X168037799Y-136418000D01*
G37*
G36*
X162510199Y-136418000D02*
G01*
X160638201Y-136418000D01*
X160638201Y-135616000D01*
X162510199Y-135616000D01*
X162510199Y-136418000D01*
X162510199Y-136418000D01*
G37*
G36*
X160013000Y-136371000D02*
G01*
X159011000Y-136371000D01*
X159011000Y-135069000D01*
X160013000Y-135069000D01*
X160013000Y-136371000D01*
X160013000Y-136371000D01*
G37*
G36*
X96921000Y-136191000D02*
G01*
X96319000Y-136191000D01*
X96319000Y-135589000D01*
X96921000Y-135589000D01*
X96921000Y-136191000D01*
X96921000Y-136191000D01*
G37*
G36*
X141396000Y-136094000D02*
G01*
X140544000Y-136094000D01*
X140544000Y-134792000D01*
X141396000Y-134792000D01*
X141396000Y-136094000D01*
X141396000Y-136094000D01*
G37*
G36*
X138602000Y-136094000D02*
G01*
X137750000Y-136094000D01*
X137750000Y-134792000D01*
X138602000Y-134792000D01*
X138602000Y-136094000D01*
X138602000Y-136094000D01*
G37*
G36*
X139999000Y-136094000D02*
G01*
X139147000Y-136094000D01*
X139147000Y-134792000D01*
X139999000Y-134792000D01*
X139999000Y-136094000D01*
X139999000Y-136094000D01*
G37*
G36*
X149625000Y-135677000D02*
G01*
X148023000Y-135677000D01*
X148023000Y-134325000D01*
X149625000Y-134325000D01*
X149625000Y-135677000D01*
X149625000Y-135677000D01*
G37*
G36*
X147125000Y-135677000D02*
G01*
X145523000Y-135677000D01*
X145523000Y-134325000D01*
X147125000Y-134325000D01*
X147125000Y-135677000D01*
X147125000Y-135677000D01*
G37*
G36*
X96021000Y-135641000D02*
G01*
X95419000Y-135641000D01*
X95419000Y-135039000D01*
X96021000Y-135039000D01*
X96021000Y-135641000D01*
X96021000Y-135641000D01*
G37*
G36*
X143620443Y-133725519D02*
G01*
X143686627Y-133732037D01*
X143856466Y-133783557D01*
X144012991Y-133867222D01*
X144048729Y-133896552D01*
X144150186Y-133979814D01*
X144233448Y-134081271D01*
X144262778Y-134117009D01*
X144346443Y-134273534D01*
X144397963Y-134443373D01*
X144415359Y-134620000D01*
X144397963Y-134796627D01*
X144346443Y-134966466D01*
X144262778Y-135122991D01*
X144242253Y-135148000D01*
X144150186Y-135260186D01*
X144062679Y-135332000D01*
X144012991Y-135372778D01*
X143856466Y-135456443D01*
X143686627Y-135507963D01*
X143620443Y-135514481D01*
X143554260Y-135521000D01*
X143465740Y-135521000D01*
X143399557Y-135514481D01*
X143333373Y-135507963D01*
X143163534Y-135456443D01*
X143007009Y-135372778D01*
X142957321Y-135332000D01*
X142869814Y-135260186D01*
X142777747Y-135148000D01*
X142757222Y-135122991D01*
X142673557Y-134966466D01*
X142622037Y-134796627D01*
X142604641Y-134620000D01*
X142622037Y-134443373D01*
X142673557Y-134273534D01*
X142757222Y-134117009D01*
X142786552Y-134081271D01*
X142869814Y-133979814D01*
X142971271Y-133896552D01*
X143007009Y-133867222D01*
X143163534Y-133783557D01*
X143333373Y-133732037D01*
X143399557Y-133725519D01*
X143465740Y-133719000D01*
X143554260Y-133719000D01*
X143620443Y-133725519D01*
X143620443Y-133725519D01*
G37*
G36*
X105520443Y-133725519D02*
G01*
X105586627Y-133732037D01*
X105756466Y-133783557D01*
X105912991Y-133867222D01*
X105948729Y-133896552D01*
X106050186Y-133979814D01*
X106133448Y-134081271D01*
X106162778Y-134117009D01*
X106246443Y-134273534D01*
X106297963Y-134443373D01*
X106315359Y-134620000D01*
X106297963Y-134796627D01*
X106246443Y-134966466D01*
X106162778Y-135122991D01*
X106142253Y-135148000D01*
X106050186Y-135260186D01*
X105962679Y-135332000D01*
X105912991Y-135372778D01*
X105756466Y-135456443D01*
X105586627Y-135507963D01*
X105520443Y-135514481D01*
X105454260Y-135521000D01*
X105365740Y-135521000D01*
X105299557Y-135514481D01*
X105233373Y-135507963D01*
X105063534Y-135456443D01*
X104907009Y-135372778D01*
X104857321Y-135332000D01*
X104769814Y-135260186D01*
X104677747Y-135148000D01*
X104657222Y-135122991D01*
X104573557Y-134966466D01*
X104522037Y-134796627D01*
X104504641Y-134620000D01*
X104522037Y-134443373D01*
X104573557Y-134273534D01*
X104657222Y-134117009D01*
X104686552Y-134081271D01*
X104769814Y-133979814D01*
X104871271Y-133896552D01*
X104907009Y-133867222D01*
X105063534Y-133783557D01*
X105233373Y-133732037D01*
X105299557Y-133725519D01*
X105365740Y-133719000D01*
X105454260Y-133719000D01*
X105520443Y-133725519D01*
X105520443Y-133725519D01*
G37*
G36*
X113710000Y-135332000D02*
G01*
X112858000Y-135332000D01*
X112858000Y-134030000D01*
X113710000Y-134030000D01*
X113710000Y-135332000D01*
X113710000Y-135332000D01*
G37*
G36*
X112313000Y-135332000D02*
G01*
X111461000Y-135332000D01*
X111461000Y-134030000D01*
X112313000Y-134030000D01*
X112313000Y-135332000D01*
X112313000Y-135332000D01*
G37*
G36*
X168037799Y-135148000D02*
G01*
X166165801Y-135148000D01*
X166165801Y-134346000D01*
X168037799Y-134346000D01*
X168037799Y-135148000D01*
X168037799Y-135148000D01*
G37*
G36*
X162510199Y-135148000D02*
G01*
X160638201Y-135148000D01*
X160638201Y-134346000D01*
X162510199Y-134346000D01*
X162510199Y-135148000D01*
X162510199Y-135148000D01*
G37*
G36*
X96921000Y-135091000D02*
G01*
X96319000Y-135091000D01*
X96319000Y-134489000D01*
X96921000Y-134489000D01*
X96921000Y-135091000D01*
X96921000Y-135091000D01*
G37*
G36*
X157115000Y-134995000D02*
G01*
X155813000Y-134995000D01*
X155813000Y-133993000D01*
X157115000Y-133993000D01*
X157115000Y-134995000D01*
X157115000Y-134995000D01*
G37*
G36*
X96021000Y-134541000D02*
G01*
X95419000Y-134541000D01*
X95419000Y-133939000D01*
X96021000Y-133939000D01*
X96021000Y-134541000D01*
X96021000Y-134541000D01*
G37*
G36*
X88121000Y-134541000D02*
G01*
X87519000Y-134541000D01*
X87519000Y-133939000D01*
X88121000Y-133939000D01*
X88121000Y-134541000D01*
X88121000Y-134541000D01*
G37*
G36*
X138602000Y-134194000D02*
G01*
X137750000Y-134194000D01*
X137750000Y-132892000D01*
X138602000Y-132892000D01*
X138602000Y-134194000D01*
X138602000Y-134194000D01*
G37*
G36*
X141396000Y-134194000D02*
G01*
X140544000Y-134194000D01*
X140544000Y-132892000D01*
X141396000Y-132892000D01*
X141396000Y-134194000D01*
X141396000Y-134194000D01*
G37*
G36*
X139999000Y-134194000D02*
G01*
X139147000Y-134194000D01*
X139147000Y-132892000D01*
X139999000Y-132892000D01*
X139999000Y-134194000D01*
X139999000Y-134194000D01*
G37*
G36*
X160013000Y-134171000D02*
G01*
X159011000Y-134171000D01*
X159011000Y-132869000D01*
X160013000Y-132869000D01*
X160013000Y-134171000D01*
X160013000Y-134171000D01*
G37*
G36*
X96921000Y-133991000D02*
G01*
X96319000Y-133991000D01*
X96319000Y-133389000D01*
X96921000Y-133389000D01*
X96921000Y-133991000D01*
X96921000Y-133991000D01*
G37*
G36*
X148794000Y-133903000D02*
G01*
X147492000Y-133903000D01*
X147492000Y-133051000D01*
X148794000Y-133051000D01*
X148794000Y-133903000D01*
X148794000Y-133903000D01*
G37*
G36*
X146894000Y-133903000D02*
G01*
X145592000Y-133903000D01*
X145592000Y-133051000D01*
X146894000Y-133051000D01*
X146894000Y-133903000D01*
X146894000Y-133903000D01*
G37*
G36*
X162510199Y-133878000D02*
G01*
X160638201Y-133878000D01*
X160638201Y-133076000D01*
X162510199Y-133076000D01*
X162510199Y-133878000D01*
X162510199Y-133878000D01*
G37*
G36*
X168037799Y-133878000D02*
G01*
X166165801Y-133878000D01*
X166165801Y-133076000D01*
X168037799Y-133076000D01*
X168037799Y-133878000D01*
X168037799Y-133878000D01*
G37*
G36*
X154151000Y-133470000D02*
G01*
X152849000Y-133470000D01*
X152849000Y-132468000D01*
X154151000Y-132468000D01*
X154151000Y-133470000D01*
X154151000Y-133470000D01*
G37*
G36*
X151951000Y-133470000D02*
G01*
X150649000Y-133470000D01*
X150649000Y-132468000D01*
X151951000Y-132468000D01*
X151951000Y-133470000D01*
X151951000Y-133470000D01*
G37*
G36*
X96021000Y-133441000D02*
G01*
X95419000Y-133441000D01*
X95419000Y-132839000D01*
X96021000Y-132839000D01*
X96021000Y-133441000D01*
X96021000Y-133441000D01*
G37*
G36*
X112313000Y-133432000D02*
G01*
X111461000Y-133432000D01*
X111461000Y-132130000D01*
X112313000Y-132130000D01*
X112313000Y-133432000D01*
X112313000Y-133432000D01*
G37*
G36*
X113710000Y-133432000D02*
G01*
X112858000Y-133432000D01*
X112858000Y-132130000D01*
X113710000Y-132130000D01*
X113710000Y-133432000D01*
X113710000Y-133432000D01*
G37*
G36*
X155695000Y-133196000D02*
G01*
X154693000Y-133196000D01*
X154693000Y-131894000D01*
X155695000Y-131894000D01*
X155695000Y-133196000D01*
X155695000Y-133196000D01*
G37*
G36*
X143620442Y-131185518D02*
G01*
X143686627Y-131192037D01*
X143856466Y-131243557D01*
X144012991Y-131327222D01*
X144048729Y-131356552D01*
X144150186Y-131439814D01*
X144227072Y-131533501D01*
X144262778Y-131577009D01*
X144346443Y-131733534D01*
X144397963Y-131903373D01*
X144415359Y-132080000D01*
X144397963Y-132256627D01*
X144346443Y-132426466D01*
X144262778Y-132582991D01*
X144233448Y-132618729D01*
X144150186Y-132720186D01*
X144048729Y-132803448D01*
X144012991Y-132832778D01*
X143856466Y-132916443D01*
X143686627Y-132967963D01*
X143620443Y-132974481D01*
X143554260Y-132981000D01*
X143465740Y-132981000D01*
X143399557Y-132974481D01*
X143333373Y-132967963D01*
X143163534Y-132916443D01*
X143007009Y-132832778D01*
X142971271Y-132803448D01*
X142869814Y-132720186D01*
X142786552Y-132618729D01*
X142757222Y-132582991D01*
X142673557Y-132426466D01*
X142622037Y-132256627D01*
X142604641Y-132080000D01*
X142622037Y-131903373D01*
X142673557Y-131733534D01*
X142757222Y-131577009D01*
X142792928Y-131533501D01*
X142869814Y-131439814D01*
X142971271Y-131356552D01*
X143007009Y-131327222D01*
X143163534Y-131243557D01*
X143333373Y-131192037D01*
X143399558Y-131185518D01*
X143465740Y-131179000D01*
X143554260Y-131179000D01*
X143620442Y-131185518D01*
X143620442Y-131185518D01*
G37*
G36*
X105520442Y-131185518D02*
G01*
X105586627Y-131192037D01*
X105756466Y-131243557D01*
X105912991Y-131327222D01*
X105948729Y-131356552D01*
X106050186Y-131439814D01*
X106127072Y-131533501D01*
X106162778Y-131577009D01*
X106246443Y-131733534D01*
X106297963Y-131903373D01*
X106315359Y-132080000D01*
X106297963Y-132256627D01*
X106246443Y-132426466D01*
X106162778Y-132582991D01*
X106133448Y-132618729D01*
X106050186Y-132720186D01*
X105948729Y-132803448D01*
X105912991Y-132832778D01*
X105756466Y-132916443D01*
X105586627Y-132967963D01*
X105520443Y-132974481D01*
X105454260Y-132981000D01*
X105365740Y-132981000D01*
X105299557Y-132974481D01*
X105233373Y-132967963D01*
X105063534Y-132916443D01*
X104907009Y-132832778D01*
X104871271Y-132803448D01*
X104769814Y-132720186D01*
X104686552Y-132618729D01*
X104657222Y-132582991D01*
X104573557Y-132426466D01*
X104522037Y-132256627D01*
X104504641Y-132080000D01*
X104522037Y-131903373D01*
X104573557Y-131733534D01*
X104657222Y-131577009D01*
X104692928Y-131533501D01*
X104769814Y-131439814D01*
X104871271Y-131356552D01*
X104907009Y-131327222D01*
X105063534Y-131243557D01*
X105233373Y-131192037D01*
X105299558Y-131185518D01*
X105365740Y-131179000D01*
X105454260Y-131179000D01*
X105520442Y-131185518D01*
X105520442Y-131185518D01*
G37*
G36*
X96921000Y-132891000D02*
G01*
X96319000Y-132891000D01*
X96319000Y-132289000D01*
X96921000Y-132289000D01*
X96921000Y-132891000D01*
X96921000Y-132891000D01*
G37*
G36*
X93071000Y-132691000D02*
G01*
X92469000Y-132691000D01*
X92469000Y-132089000D01*
X93071000Y-132089000D01*
X93071000Y-132691000D01*
X93071000Y-132691000D01*
G37*
G36*
X90871000Y-132691000D02*
G01*
X90269000Y-132691000D01*
X90269000Y-132089000D01*
X90871000Y-132089000D01*
X90871000Y-132691000D01*
X90871000Y-132691000D01*
G37*
G36*
X91971000Y-132691000D02*
G01*
X91369000Y-132691000D01*
X91369000Y-132089000D01*
X91971000Y-132089000D01*
X91971000Y-132691000D01*
X91971000Y-132691000D01*
G37*
G36*
X89771000Y-132691000D02*
G01*
X89169000Y-132691000D01*
X89169000Y-132089000D01*
X89771000Y-132089000D01*
X89771000Y-132691000D01*
X89771000Y-132691000D01*
G37*
G36*
X94171000Y-132691000D02*
G01*
X93569000Y-132691000D01*
X93569000Y-132089000D01*
X94171000Y-132089000D01*
X94171000Y-132691000D01*
X94171000Y-132691000D01*
G37*
G36*
X95271000Y-132691000D02*
G01*
X94669000Y-132691000D01*
X94669000Y-132089000D01*
X95271000Y-132089000D01*
X95271000Y-132691000D01*
X95271000Y-132691000D01*
G37*
G36*
X88671000Y-132691000D02*
G01*
X88069000Y-132691000D01*
X88069000Y-132089000D01*
X88671000Y-132089000D01*
X88671000Y-132691000D01*
X88671000Y-132691000D01*
G37*
G36*
X158309000Y-132296000D02*
G01*
X156207000Y-132296000D01*
X156207000Y-130594000D01*
X158309000Y-130594000D01*
X158309000Y-132296000D01*
X158309000Y-132296000D01*
G37*
G36*
X162309000Y-132296000D02*
G01*
X160207000Y-132296000D01*
X160207000Y-130594000D01*
X162309000Y-130594000D01*
X162309000Y-132296000D01*
X162309000Y-132296000D01*
G37*
G36*
X147568599Y-132183499D02*
G01*
X146157001Y-132183499D01*
X146157001Y-129690501D01*
X147568599Y-129690501D01*
X147568599Y-132183499D01*
X147568599Y-132183499D01*
G37*
G36*
X149752999Y-132183499D02*
G01*
X148341401Y-132183499D01*
X148341401Y-129690501D01*
X149752999Y-129690501D01*
X149752999Y-132183499D01*
X149752999Y-132183499D01*
G37*
G36*
X169929000Y-132169000D02*
G01*
X167827000Y-132169000D01*
X167827000Y-130467000D01*
X169929000Y-130467000D01*
X169929000Y-132169000D01*
X169929000Y-132169000D01*
G37*
G36*
X165929000Y-132169000D02*
G01*
X163827000Y-132169000D01*
X163827000Y-130467000D01*
X165929000Y-130467000D01*
X165929000Y-132169000D01*
X165929000Y-132169000D01*
G37*
G36*
X90321000Y-131791000D02*
G01*
X89719000Y-131791000D01*
X89719000Y-131189000D01*
X90321000Y-131189000D01*
X90321000Y-131791000D01*
X90321000Y-131791000D01*
G37*
G36*
X96921000Y-131791000D02*
G01*
X96319000Y-131791000D01*
X96319000Y-131189000D01*
X96921000Y-131189000D01*
X96921000Y-131791000D01*
X96921000Y-131791000D01*
G37*
G36*
X95821000Y-131791000D02*
G01*
X95219000Y-131791000D01*
X95219000Y-131189000D01*
X95821000Y-131189000D01*
X95821000Y-131791000D01*
X95821000Y-131791000D01*
G37*
G36*
X94721000Y-131791000D02*
G01*
X94119000Y-131791000D01*
X94119000Y-131189000D01*
X94721000Y-131189000D01*
X94721000Y-131791000D01*
X94721000Y-131791000D01*
G37*
G36*
X93621000Y-131791000D02*
G01*
X93019000Y-131791000D01*
X93019000Y-131189000D01*
X93621000Y-131189000D01*
X93621000Y-131791000D01*
X93621000Y-131791000D01*
G37*
G36*
X92521000Y-131791000D02*
G01*
X91919000Y-131791000D01*
X91919000Y-131189000D01*
X92521000Y-131189000D01*
X92521000Y-131791000D01*
X92521000Y-131791000D01*
G37*
G36*
X89221000Y-131791000D02*
G01*
X88619000Y-131791000D01*
X88619000Y-131189000D01*
X89221000Y-131189000D01*
X89221000Y-131791000D01*
X89221000Y-131791000D01*
G37*
G36*
X88121000Y-131791000D02*
G01*
X87519000Y-131791000D01*
X87519000Y-131189000D01*
X88121000Y-131189000D01*
X88121000Y-131791000D01*
X88121000Y-131791000D01*
G37*
G36*
X91421000Y-131791000D02*
G01*
X90819000Y-131791000D01*
X90819000Y-131189000D01*
X91421000Y-131189000D01*
X91421000Y-131791000D01*
X91421000Y-131791000D01*
G37*
G36*
X108578000Y-131672000D02*
G01*
X107576000Y-131672000D01*
X107576000Y-130370000D01*
X108578000Y-130370000D01*
X108578000Y-131672000D01*
X108578000Y-131672000D01*
G37*
G36*
X154172599Y-131576800D02*
G01*
X152761001Y-131576800D01*
X152761001Y-130906800D01*
X154172599Y-130906800D01*
X154172599Y-131576800D01*
X154172599Y-131576800D01*
G37*
G36*
X151784999Y-131576800D02*
G01*
X150373401Y-131576800D01*
X150373401Y-130906800D01*
X151784999Y-130906800D01*
X151784999Y-131576800D01*
X151784999Y-131576800D01*
G37*
G36*
X155695000Y-130996000D02*
G01*
X154693000Y-130996000D01*
X154693000Y-129694000D01*
X155695000Y-129694000D01*
X155695000Y-130996000D01*
X155695000Y-130996000D01*
G37*
G36*
X151784999Y-130637000D02*
G01*
X150373401Y-130637000D01*
X150373401Y-129967000D01*
X151784999Y-129967000D01*
X151784999Y-130637000D01*
X151784999Y-130637000D01*
G37*
G36*
X110102000Y-130529000D02*
G01*
X109100000Y-130529000D01*
X109100000Y-129227000D01*
X110102000Y-129227000D01*
X110102000Y-130529000D01*
X110102000Y-130529000D01*
G37*
G36*
X143620443Y-128645519D02*
G01*
X143686627Y-128652037D01*
X143856466Y-128703557D01*
X144012991Y-128787222D01*
X144048729Y-128816552D01*
X144150186Y-128899814D01*
X144233448Y-129001271D01*
X144262778Y-129037009D01*
X144346443Y-129193534D01*
X144397963Y-129363373D01*
X144415359Y-129540000D01*
X144397963Y-129716627D01*
X144346443Y-129886466D01*
X144262778Y-130042991D01*
X144233448Y-130078729D01*
X144150186Y-130180186D01*
X144048729Y-130263448D01*
X144012991Y-130292778D01*
X143856466Y-130376443D01*
X143686627Y-130427963D01*
X143620443Y-130434481D01*
X143554260Y-130441000D01*
X143465740Y-130441000D01*
X143399557Y-130434481D01*
X143333373Y-130427963D01*
X143163534Y-130376443D01*
X143007009Y-130292778D01*
X142971271Y-130263448D01*
X142869814Y-130180186D01*
X142786552Y-130078729D01*
X142757222Y-130042991D01*
X142673557Y-129886466D01*
X142622037Y-129716627D01*
X142604641Y-129540000D01*
X142622037Y-129363373D01*
X142673557Y-129193534D01*
X142757222Y-129037009D01*
X142786552Y-129001271D01*
X142869814Y-128899814D01*
X142971271Y-128816552D01*
X143007009Y-128787222D01*
X143163534Y-128703557D01*
X143333373Y-128652037D01*
X143399557Y-128645519D01*
X143465740Y-128639000D01*
X143554260Y-128639000D01*
X143620443Y-128645519D01*
X143620443Y-128645519D01*
G37*
G36*
X105520443Y-128645519D02*
G01*
X105586627Y-128652037D01*
X105756466Y-128703557D01*
X105912991Y-128787222D01*
X105948729Y-128816552D01*
X106050186Y-128899814D01*
X106133448Y-129001271D01*
X106162778Y-129037009D01*
X106246443Y-129193534D01*
X106297963Y-129363373D01*
X106315359Y-129540000D01*
X106297963Y-129716627D01*
X106246443Y-129886466D01*
X106162778Y-130042991D01*
X106133448Y-130078729D01*
X106050186Y-130180186D01*
X105948729Y-130263448D01*
X105912991Y-130292778D01*
X105756466Y-130376443D01*
X105586627Y-130427963D01*
X105520443Y-130434481D01*
X105454260Y-130441000D01*
X105365740Y-130441000D01*
X105299557Y-130434481D01*
X105233373Y-130427963D01*
X105063534Y-130376443D01*
X104907009Y-130292778D01*
X104871271Y-130263448D01*
X104769814Y-130180186D01*
X104686552Y-130078729D01*
X104657222Y-130042991D01*
X104573557Y-129886466D01*
X104522037Y-129716627D01*
X104504641Y-129540000D01*
X104522037Y-129363373D01*
X104573557Y-129193534D01*
X104657222Y-129037009D01*
X104686552Y-129001271D01*
X104769814Y-128899814D01*
X104871271Y-128816552D01*
X104907009Y-128787222D01*
X105063534Y-128703557D01*
X105233373Y-128652037D01*
X105299557Y-128645519D01*
X105365740Y-128639000D01*
X105454260Y-128639000D01*
X105520443Y-128645519D01*
X105520443Y-128645519D01*
G37*
G36*
X162299000Y-130148000D02*
G01*
X161297000Y-130148000D01*
X161297000Y-128846000D01*
X162299000Y-128846000D01*
X162299000Y-130148000D01*
X162299000Y-130148000D01*
G37*
G36*
X97976000Y-129914000D02*
G01*
X96674000Y-129914000D01*
X96674000Y-128912000D01*
X97976000Y-128912000D01*
X97976000Y-129914000D01*
X97976000Y-129914000D01*
G37*
G36*
X100176000Y-129914000D02*
G01*
X98874000Y-129914000D01*
X98874000Y-128912000D01*
X100176000Y-128912000D01*
X100176000Y-129914000D01*
X100176000Y-129914000D01*
G37*
G36*
X154172599Y-129697200D02*
G01*
X152761001Y-129697200D01*
X152761001Y-129027200D01*
X154172599Y-129027200D01*
X154172599Y-129697200D01*
X154172599Y-129697200D01*
G37*
G36*
X151784999Y-129697200D02*
G01*
X150373401Y-129697200D01*
X150373401Y-129027200D01*
X151784999Y-129027200D01*
X151784999Y-129697200D01*
X151784999Y-129697200D01*
G37*
G36*
X93592000Y-129640000D02*
G01*
X92590000Y-129640000D01*
X92590000Y-128338000D01*
X93592000Y-128338000D01*
X93592000Y-129640000D01*
X93592000Y-129640000D01*
G37*
G36*
X108578000Y-129472000D02*
G01*
X107576000Y-129472000D01*
X107576000Y-128170000D01*
X108578000Y-128170000D01*
X108578000Y-129472000D01*
X108578000Y-129472000D01*
G37*
G36*
X102276000Y-129051000D02*
G01*
X100924000Y-129051000D01*
X100924000Y-127449000D01*
X102276000Y-127449000D01*
X102276000Y-129051000D01*
X102276000Y-129051000D01*
G37*
G36*
X113239000Y-128950000D02*
G01*
X111937000Y-128950000D01*
X111937000Y-128098000D01*
X113239000Y-128098000D01*
X113239000Y-128950000D01*
X113239000Y-128950000D01*
G37*
G36*
X115139000Y-128950000D02*
G01*
X113837000Y-128950000D01*
X113837000Y-128098000D01*
X115139000Y-128098000D01*
X115139000Y-128950000D01*
X115139000Y-128950000D01*
G37*
G36*
X137854000Y-128946000D02*
G01*
X136252000Y-128946000D01*
X136252000Y-127594000D01*
X137854000Y-127594000D01*
X137854000Y-128946000D01*
X137854000Y-128946000D01*
G37*
G36*
X140354000Y-128946000D02*
G01*
X138752000Y-128946000D01*
X138752000Y-127594000D01*
X140354000Y-127594000D01*
X140354000Y-128946000D01*
X140354000Y-128946000D01*
G37*
G36*
X160785000Y-128740000D02*
G01*
X158683000Y-128740000D01*
X158683000Y-127038000D01*
X160785000Y-127038000D01*
X160785000Y-128740000D01*
X160785000Y-128740000D01*
G37*
G36*
X156785000Y-128740000D02*
G01*
X154683000Y-128740000D01*
X154683000Y-127038000D01*
X156785000Y-127038000D01*
X156785000Y-128740000D01*
X156785000Y-128740000D01*
G37*
G36*
X134671000Y-128546000D02*
G01*
X116789000Y-128546000D01*
X116789000Y-126974000D01*
X134671000Y-126974000D01*
X134671000Y-128546000D01*
X134671000Y-128546000D01*
G37*
G36*
X100330900Y-128415550D02*
G01*
X98297100Y-128415550D01*
X98297100Y-125584450D01*
X100330900Y-125584450D01*
X100330900Y-128415550D01*
X100330900Y-128415550D01*
G37*
G36*
X110102000Y-128329000D02*
G01*
X109100000Y-128329000D01*
X109100000Y-127027000D01*
X110102000Y-127027000D01*
X110102000Y-128329000D01*
X110102000Y-128329000D01*
G37*
G36*
X95436000Y-128263000D02*
G01*
X94134000Y-128263000D01*
X94134000Y-127261000D01*
X95436000Y-127261000D01*
X95436000Y-128263000D01*
X95436000Y-128263000D01*
G37*
G36*
X97636000Y-128263000D02*
G01*
X96334000Y-128263000D01*
X96334000Y-127261000D01*
X97636000Y-127261000D01*
X97636000Y-128263000D01*
X97636000Y-128263000D01*
G37*
G36*
X150958000Y-128188000D02*
G01*
X149656000Y-128188000D01*
X149656000Y-127336000D01*
X150958000Y-127336000D01*
X150958000Y-128188000D01*
X150958000Y-128188000D01*
G37*
G36*
X152858000Y-128188000D02*
G01*
X151556000Y-128188000D01*
X151556000Y-127336000D01*
X152858000Y-127336000D01*
X152858000Y-128188000D01*
X152858000Y-128188000D01*
G37*
G36*
X162299000Y-127948000D02*
G01*
X161297000Y-127948000D01*
X161297000Y-126646000D01*
X162299000Y-126646000D01*
X162299000Y-127948000D01*
X162299000Y-127948000D01*
G37*
G36*
X144411000Y-127901000D02*
G01*
X142609000Y-127901000D01*
X142609000Y-126099000D01*
X144411000Y-126099000D01*
X144411000Y-127901000D01*
X144411000Y-127901000D01*
G37*
G36*
X89801000Y-127901000D02*
G01*
X87999000Y-127901000D01*
X87999000Y-126099000D01*
X89801000Y-126099000D01*
X89801000Y-127901000D01*
X89801000Y-127901000D01*
G37*
G36*
X106311000Y-127901000D02*
G01*
X104509000Y-127901000D01*
X104509000Y-126099000D01*
X106311000Y-126099000D01*
X106311000Y-127901000D01*
X106311000Y-127901000D01*
G37*
G36*
X93592000Y-127440000D02*
G01*
X92590000Y-127440000D01*
X92590000Y-126138000D01*
X93592000Y-126138000D01*
X93592000Y-127440000D01*
X93592000Y-127440000D01*
G37*
G36*
X139592000Y-127041000D02*
G01*
X137990000Y-127041000D01*
X137990000Y-125689000D01*
X139592000Y-125689000D01*
X139592000Y-127041000D01*
X139592000Y-127041000D01*
G37*
G36*
X137092000Y-127041000D02*
G01*
X135490000Y-127041000D01*
X135490000Y-125689000D01*
X137092000Y-125689000D01*
X137092000Y-127041000D01*
X137092000Y-127041000D01*
G37*
G36*
X95436000Y-126739000D02*
G01*
X94134000Y-126739000D01*
X94134000Y-125737000D01*
X95436000Y-125737000D01*
X95436000Y-126739000D01*
X95436000Y-126739000D01*
G37*
G36*
X97636000Y-126739000D02*
G01*
X96334000Y-126739000D01*
X96334000Y-125737000D01*
X97636000Y-125737000D01*
X97636000Y-126739000D01*
X97636000Y-126739000D01*
G37*
G36*
X102276000Y-126551000D02*
G01*
X100924000Y-126551000D01*
X100924000Y-124949000D01*
X102276000Y-124949000D01*
X102276000Y-126551000D01*
X102276000Y-126551000D01*
G37*
G36*
X124378000Y-126442000D02*
G01*
X123526000Y-126442000D01*
X123526000Y-125140000D01*
X124378000Y-125140000D01*
X124378000Y-126442000D01*
X124378000Y-126442000D01*
G37*
G36*
X119208000Y-126410000D02*
G01*
X117906000Y-126410000D01*
X117906000Y-125558000D01*
X119208000Y-125558000D01*
X119208000Y-126410000D01*
X119208000Y-126410000D01*
G37*
G36*
X121108000Y-126410000D02*
G01*
X119806000Y-126410000D01*
X119806000Y-125558000D01*
X121108000Y-125558000D01*
X121108000Y-126410000D01*
X121108000Y-126410000D01*
G37*
G36*
X133300000Y-126410000D02*
G01*
X131998000Y-126410000D01*
X131998000Y-125558000D01*
X133300000Y-125558000D01*
X133300000Y-126410000D01*
X133300000Y-126410000D01*
G37*
G36*
X117425000Y-126410000D02*
G01*
X116123000Y-126410000D01*
X116123000Y-125558000D01*
X117425000Y-125558000D01*
X117425000Y-126410000D01*
X117425000Y-126410000D01*
G37*
G36*
X115525000Y-126410000D02*
G01*
X114223000Y-126410000D01*
X114223000Y-125558000D01*
X115525000Y-125558000D01*
X115525000Y-126410000D01*
X115525000Y-126410000D01*
G37*
G36*
X131400000Y-126410000D02*
G01*
X130098000Y-126410000D01*
X130098000Y-125558000D01*
X131400000Y-125558000D01*
X131400000Y-126410000D01*
X131400000Y-126410000D01*
G37*
G36*
X129652000Y-126207000D02*
G01*
X127900000Y-126207000D01*
X127900000Y-124655000D01*
X129652000Y-124655000D01*
X129652000Y-126207000D01*
X129652000Y-126207000D01*
G37*
G36*
X126862000Y-126207000D02*
G01*
X125110000Y-126207000D01*
X125110000Y-124655000D01*
X126862000Y-124655000D01*
X126862000Y-126207000D01*
X126862000Y-126207000D01*
G37*
G36*
X160374000Y-126104000D02*
G01*
X159072000Y-126104000D01*
X159072000Y-125102000D01*
X160374000Y-125102000D01*
X160374000Y-126104000D01*
X160374000Y-126104000D01*
G37*
G36*
X158174000Y-126104000D02*
G01*
X156872000Y-126104000D01*
X156872000Y-125102000D01*
X158174000Y-125102000D01*
X158174000Y-126104000D01*
X158174000Y-126104000D01*
G37*
G36*
X150761000Y-125361000D02*
G01*
X148959000Y-125361000D01*
X148959000Y-123559000D01*
X150761000Y-123559000D01*
X150761000Y-125361000D01*
X150761000Y-125361000D01*
G37*
G36*
X89010442Y-123565518D02*
G01*
X89076627Y-123572037D01*
X89246466Y-123623557D01*
X89402991Y-123707222D01*
X89438729Y-123736552D01*
X89540186Y-123819814D01*
X89623448Y-123921271D01*
X89652778Y-123957009D01*
X89736443Y-124113534D01*
X89787963Y-124283373D01*
X89805359Y-124460000D01*
X89787963Y-124636627D01*
X89736443Y-124806466D01*
X89652778Y-124962991D01*
X89623448Y-124998729D01*
X89540186Y-125100186D01*
X89438729Y-125183448D01*
X89402991Y-125212778D01*
X89246466Y-125296443D01*
X89076627Y-125347963D01*
X89010442Y-125354482D01*
X88944260Y-125361000D01*
X88855740Y-125361000D01*
X88789558Y-125354482D01*
X88723373Y-125347963D01*
X88553534Y-125296443D01*
X88397009Y-125212778D01*
X88361271Y-125183448D01*
X88259814Y-125100186D01*
X88176552Y-124998729D01*
X88147222Y-124962991D01*
X88063557Y-124806466D01*
X88012037Y-124636627D01*
X87994641Y-124460000D01*
X88012037Y-124283373D01*
X88063557Y-124113534D01*
X88147222Y-123957009D01*
X88176552Y-123921271D01*
X88259814Y-123819814D01*
X88361271Y-123736552D01*
X88397009Y-123707222D01*
X88553534Y-123623557D01*
X88723373Y-123572037D01*
X88789558Y-123565518D01*
X88855740Y-123559000D01*
X88944260Y-123559000D01*
X89010442Y-123565518D01*
X89010442Y-123565518D01*
G37*
G36*
X152510442Y-123565518D02*
G01*
X152576627Y-123572037D01*
X152746466Y-123623557D01*
X152902991Y-123707222D01*
X152938729Y-123736552D01*
X153040186Y-123819814D01*
X153123448Y-123921271D01*
X153152778Y-123957009D01*
X153236443Y-124113534D01*
X153287963Y-124283373D01*
X153305359Y-124460000D01*
X153287963Y-124636627D01*
X153236443Y-124806466D01*
X153152778Y-124962991D01*
X153123448Y-124998729D01*
X153040186Y-125100186D01*
X152938729Y-125183448D01*
X152902991Y-125212778D01*
X152746466Y-125296443D01*
X152576627Y-125347963D01*
X152510442Y-125354482D01*
X152444260Y-125361000D01*
X152355740Y-125361000D01*
X152289558Y-125354482D01*
X152223373Y-125347963D01*
X152053534Y-125296443D01*
X151897009Y-125212778D01*
X151861271Y-125183448D01*
X151759814Y-125100186D01*
X151676552Y-124998729D01*
X151647222Y-124962991D01*
X151563557Y-124806466D01*
X151512037Y-124636627D01*
X151494641Y-124460000D01*
X151512037Y-124283373D01*
X151563557Y-124113534D01*
X151647222Y-123957009D01*
X151676552Y-123921271D01*
X151759814Y-123819814D01*
X151861271Y-123736552D01*
X151897009Y-123707222D01*
X152053534Y-123623557D01*
X152223373Y-123572037D01*
X152289558Y-123565518D01*
X152355740Y-123559000D01*
X152444260Y-123559000D01*
X152510442Y-123565518D01*
X152510442Y-123565518D01*
G37*
G36*
X139819000Y-125161000D02*
G01*
X138217000Y-125161000D01*
X138217000Y-123759000D01*
X139819000Y-123759000D01*
X139819000Y-125161000D01*
X139819000Y-125161000D01*
G37*
G36*
X137119000Y-125161000D02*
G01*
X135517000Y-125161000D01*
X135517000Y-123759000D01*
X137119000Y-123759000D01*
X137119000Y-125161000D01*
X137119000Y-125161000D01*
G37*
G36*
X135046000Y-125045000D02*
G01*
X134194000Y-125045000D01*
X134194000Y-123743000D01*
X135046000Y-123743000D01*
X135046000Y-125045000D01*
X135046000Y-125045000D01*
G37*
G36*
X119208000Y-125013000D02*
G01*
X117906000Y-125013000D01*
X117906000Y-124161000D01*
X119208000Y-124161000D01*
X119208000Y-125013000D01*
X119208000Y-125013000D01*
G37*
G36*
X121108000Y-125013000D02*
G01*
X119806000Y-125013000D01*
X119806000Y-124161000D01*
X121108000Y-124161000D01*
X121108000Y-125013000D01*
X121108000Y-125013000D01*
G37*
G36*
X133300000Y-125013000D02*
G01*
X131998000Y-125013000D01*
X131998000Y-124161000D01*
X133300000Y-124161000D01*
X133300000Y-125013000D01*
X133300000Y-125013000D01*
G37*
G36*
X131400000Y-125013000D02*
G01*
X130098000Y-125013000D01*
X130098000Y-124161000D01*
X131400000Y-124161000D01*
X131400000Y-125013000D01*
X131400000Y-125013000D01*
G37*
G36*
X141798000Y-124833000D02*
G01*
X140396000Y-124833000D01*
X140396000Y-123231000D01*
X141798000Y-123231000D01*
X141798000Y-124833000D01*
X141798000Y-124833000D01*
G37*
G36*
X143703000Y-124833000D02*
G01*
X142301000Y-124833000D01*
X142301000Y-123231000D01*
X143703000Y-123231000D01*
X143703000Y-124833000D01*
X143703000Y-124833000D01*
G37*
G36*
X145583000Y-124733000D02*
G01*
X144231000Y-124733000D01*
X144231000Y-123131000D01*
X145583000Y-123131000D01*
X145583000Y-124733000D01*
X145583000Y-124733000D01*
G37*
G36*
X147488000Y-124733000D02*
G01*
X146136000Y-124733000D01*
X146136000Y-123131000D01*
X147488000Y-123131000D01*
X147488000Y-124733000D01*
X147488000Y-124733000D01*
G37*
G36*
X124378000Y-124542000D02*
G01*
X123526000Y-124542000D01*
X123526000Y-123240000D01*
X124378000Y-123240000D01*
X124378000Y-124542000D01*
X124378000Y-124542000D01*
G37*
G36*
X160363000Y-124336000D02*
G01*
X158661000Y-124336000D01*
X158661000Y-122234000D01*
X160363000Y-122234000D01*
X160363000Y-124336000D01*
X160363000Y-124336000D01*
G37*
G36*
X111207000Y-124251000D02*
G01*
X109905000Y-124251000D01*
X109905000Y-123399000D01*
X111207000Y-123399000D01*
X111207000Y-124251000D01*
X111207000Y-124251000D01*
G37*
G36*
X113107000Y-124251000D02*
G01*
X111805000Y-124251000D01*
X111805000Y-123399000D01*
X113107000Y-123399000D01*
X113107000Y-124251000D01*
X113107000Y-124251000D01*
G37*
G36*
X92685000Y-124181000D02*
G01*
X91283000Y-124181000D01*
X91283000Y-122529000D01*
X92685000Y-122529000D01*
X92685000Y-124181000D01*
X92685000Y-124181000D01*
G37*
G36*
X97185000Y-124181000D02*
G01*
X95783000Y-124181000D01*
X95783000Y-122529000D01*
X97185000Y-122529000D01*
X97185000Y-124181000D01*
X97185000Y-124181000D01*
G37*
G36*
X129652000Y-123757000D02*
G01*
X127900000Y-123757000D01*
X127900000Y-122205000D01*
X129652000Y-122205000D01*
X129652000Y-123757000D01*
X129652000Y-123757000D01*
G37*
G36*
X126862000Y-123757000D02*
G01*
X125110000Y-123757000D01*
X125110000Y-122205000D01*
X126862000Y-122205000D01*
X126862000Y-123757000D01*
X126862000Y-123757000D01*
G37*
G36*
X119208000Y-123616000D02*
G01*
X117906000Y-123616000D01*
X117906000Y-122764000D01*
X119208000Y-122764000D01*
X119208000Y-123616000D01*
X119208000Y-123616000D01*
G37*
G36*
X121108000Y-123616000D02*
G01*
X119806000Y-123616000D01*
X119806000Y-122764000D01*
X121108000Y-122764000D01*
X121108000Y-123616000D01*
X121108000Y-123616000D01*
G37*
G36*
X137119000Y-123256000D02*
G01*
X135517000Y-123256000D01*
X135517000Y-121854000D01*
X137119000Y-121854000D01*
X137119000Y-123256000D01*
X137119000Y-123256000D01*
G37*
G36*
X139819000Y-123256000D02*
G01*
X138217000Y-123256000D01*
X138217000Y-121854000D01*
X139819000Y-121854000D01*
X139819000Y-123256000D01*
X139819000Y-123256000D01*
G37*
G36*
X135046000Y-123145000D02*
G01*
X134194000Y-123145000D01*
X134194000Y-121843000D01*
X135046000Y-121843000D01*
X135046000Y-123145000D01*
X135046000Y-123145000D01*
G37*
G36*
X157837499Y-123118000D02*
G01*
X155344501Y-123118000D01*
X155344501Y-121566000D01*
X157837499Y-121566000D01*
X157837499Y-123118000D01*
X157837499Y-123118000D01*
G37*
G36*
X111057000Y-122850000D02*
G01*
X109455000Y-122850000D01*
X109455000Y-121498000D01*
X111057000Y-121498000D01*
X111057000Y-122850000D01*
X111057000Y-122850000D01*
G37*
G36*
X113557000Y-122850000D02*
G01*
X111955000Y-122850000D01*
X111955000Y-121498000D01*
X113557000Y-121498000D01*
X113557000Y-122850000D01*
X113557000Y-122850000D01*
G37*
G36*
X89010442Y-121025518D02*
G01*
X89076627Y-121032037D01*
X89246466Y-121083557D01*
X89402991Y-121167222D01*
X89438729Y-121196552D01*
X89540186Y-121279814D01*
X89600247Y-121353000D01*
X89652778Y-121417009D01*
X89736443Y-121573534D01*
X89787963Y-121743373D01*
X89805359Y-121920000D01*
X89787963Y-122096627D01*
X89736443Y-122266466D01*
X89652778Y-122422991D01*
X89623448Y-122458729D01*
X89540186Y-122560186D01*
X89438729Y-122643448D01*
X89402991Y-122672778D01*
X89246466Y-122756443D01*
X89076627Y-122807963D01*
X89010443Y-122814481D01*
X88944260Y-122821000D01*
X88855740Y-122821000D01*
X88789557Y-122814481D01*
X88723373Y-122807963D01*
X88553534Y-122756443D01*
X88397009Y-122672778D01*
X88361271Y-122643448D01*
X88259814Y-122560186D01*
X88176552Y-122458729D01*
X88147222Y-122422991D01*
X88063557Y-122266466D01*
X88012037Y-122096627D01*
X87994641Y-121920000D01*
X88012037Y-121743373D01*
X88063557Y-121573534D01*
X88147222Y-121417009D01*
X88199753Y-121353000D01*
X88259814Y-121279814D01*
X88361271Y-121196552D01*
X88397009Y-121167222D01*
X88553534Y-121083557D01*
X88723373Y-121032037D01*
X88789558Y-121025518D01*
X88855740Y-121019000D01*
X88944260Y-121019000D01*
X89010442Y-121025518D01*
X89010442Y-121025518D01*
G37*
G36*
X124453000Y-122655000D02*
G01*
X123451000Y-122655000D01*
X123451000Y-121353000D01*
X124453000Y-121353000D01*
X124453000Y-122655000D01*
X124453000Y-122655000D01*
G37*
G36*
X150181000Y-122390000D02*
G01*
X148079000Y-122390000D01*
X148079000Y-120688000D01*
X150181000Y-120688000D01*
X150181000Y-122390000D01*
X150181000Y-122390000D01*
G37*
G36*
X154181000Y-122390000D02*
G01*
X152079000Y-122390000D01*
X152079000Y-120688000D01*
X154181000Y-120688000D01*
X154181000Y-122390000D01*
X154181000Y-122390000D01*
G37*
G36*
X147488000Y-122233000D02*
G01*
X146136000Y-122233000D01*
X146136000Y-120631000D01*
X147488000Y-120631000D01*
X147488000Y-122233000D01*
X147488000Y-122233000D01*
G37*
G36*
X145583000Y-122233000D02*
G01*
X144231000Y-122233000D01*
X144231000Y-120631000D01*
X145583000Y-120631000D01*
X145583000Y-122233000D01*
X145583000Y-122233000D01*
G37*
G36*
X143703000Y-122133000D02*
G01*
X142301000Y-122133000D01*
X142301000Y-120531000D01*
X143703000Y-120531000D01*
X143703000Y-122133000D01*
X143703000Y-122133000D01*
G37*
G36*
X141798000Y-122133000D02*
G01*
X140396000Y-122133000D01*
X140396000Y-120531000D01*
X141798000Y-120531000D01*
X141798000Y-122133000D01*
X141798000Y-122133000D01*
G37*
G36*
X127082000Y-121711000D02*
G01*
X125780000Y-121711000D01*
X125780000Y-120859000D01*
X127082000Y-120859000D01*
X127082000Y-121711000D01*
X127082000Y-121711000D01*
G37*
G36*
X128982000Y-121711000D02*
G01*
X127680000Y-121711000D01*
X127680000Y-120859000D01*
X128982000Y-120859000D01*
X128982000Y-121711000D01*
X128982000Y-121711000D01*
G37*
G36*
X124453000Y-120455000D02*
G01*
X123451000Y-120455000D01*
X123451000Y-119153000D01*
X124453000Y-119153000D01*
X124453000Y-120455000D01*
X124453000Y-120455000D01*
G37*
G36*
X169390564Y-118369389D02*
G01*
X169581833Y-118448615D01*
X169581835Y-118448616D01*
X169753973Y-118563635D01*
X169900365Y-118710027D01*
X169981197Y-118831000D01*
X170015385Y-118882167D01*
X170094611Y-119073436D01*
X170135000Y-119276484D01*
X170135000Y-119483516D01*
X170094611Y-119686564D01*
X170043482Y-119810000D01*
X170015384Y-119877835D01*
X169900365Y-120049973D01*
X169753973Y-120196365D01*
X169581835Y-120311384D01*
X169581834Y-120311385D01*
X169581833Y-120311385D01*
X169390564Y-120390611D01*
X169187516Y-120431000D01*
X168980484Y-120431000D01*
X168777436Y-120390611D01*
X168586167Y-120311385D01*
X168586166Y-120311385D01*
X168586165Y-120311384D01*
X168414027Y-120196365D01*
X168267635Y-120049973D01*
X168152616Y-119877835D01*
X168124518Y-119810000D01*
X168073389Y-119686564D01*
X168033000Y-119483516D01*
X168033000Y-119276484D01*
X168073389Y-119073436D01*
X168152615Y-118882167D01*
X168186804Y-118831000D01*
X168267635Y-118710027D01*
X168414027Y-118563635D01*
X168586165Y-118448616D01*
X168586167Y-118448615D01*
X168777436Y-118369389D01*
X168980484Y-118329000D01*
X169187516Y-118329000D01*
X169390564Y-118369389D01*
X169390564Y-118369389D01*
G37*
G36*
X165135000Y-120431000D02*
G01*
X163033000Y-120431000D01*
X163033000Y-118329000D01*
X165135000Y-118329000D01*
X165135000Y-120431000D01*
X165135000Y-120431000D01*
G37*
G36*
X160363000Y-120336000D02*
G01*
X158661000Y-120336000D01*
X158661000Y-118234000D01*
X160363000Y-118234000D01*
X160363000Y-120336000D01*
X160363000Y-120336000D01*
G37*
G36*
X134893000Y-120310000D02*
G01*
X133291000Y-120310000D01*
X133291000Y-118958000D01*
X134893000Y-118958000D01*
X134893000Y-120310000D01*
X134893000Y-120310000D01*
G37*
G36*
X132393000Y-120310000D02*
G01*
X130791000Y-120310000D01*
X130791000Y-118958000D01*
X132393000Y-118958000D01*
X132393000Y-120310000D01*
X132393000Y-120310000D01*
G37*
G36*
X89010442Y-118485518D02*
G01*
X89076627Y-118492037D01*
X89246466Y-118543557D01*
X89402991Y-118627222D01*
X89438729Y-118656552D01*
X89540186Y-118739814D01*
X89615019Y-118831000D01*
X89652778Y-118877009D01*
X89736443Y-119033534D01*
X89787963Y-119203373D01*
X89805359Y-119380000D01*
X89787963Y-119556627D01*
X89736443Y-119726466D01*
X89652778Y-119882991D01*
X89623448Y-119918729D01*
X89540186Y-120020186D01*
X89438729Y-120103448D01*
X89402991Y-120132778D01*
X89246466Y-120216443D01*
X89076627Y-120267963D01*
X89010442Y-120274482D01*
X88944260Y-120281000D01*
X88855740Y-120281000D01*
X88789558Y-120274482D01*
X88723373Y-120267963D01*
X88553534Y-120216443D01*
X88397009Y-120132778D01*
X88361271Y-120103448D01*
X88259814Y-120020186D01*
X88176552Y-119918729D01*
X88147222Y-119882991D01*
X88063557Y-119726466D01*
X88012037Y-119556627D01*
X87994641Y-119380000D01*
X88012037Y-119203373D01*
X88063557Y-119033534D01*
X88147222Y-118877009D01*
X88184981Y-118831000D01*
X88259814Y-118739814D01*
X88361271Y-118656552D01*
X88397009Y-118627222D01*
X88553534Y-118543557D01*
X88723373Y-118492037D01*
X88789558Y-118485518D01*
X88855740Y-118479000D01*
X88944260Y-118479000D01*
X89010442Y-118485518D01*
X89010442Y-118485518D01*
G37*
G36*
X152292000Y-120183000D02*
G01*
X150690000Y-120183000D01*
X150690000Y-118831000D01*
X152292000Y-118831000D01*
X152292000Y-120183000D01*
X152292000Y-120183000D01*
G37*
G36*
X149792000Y-120183000D02*
G01*
X148190000Y-120183000D01*
X148190000Y-118831000D01*
X149792000Y-118831000D01*
X149792000Y-120183000D01*
X149792000Y-120183000D01*
G37*
G36*
X141687000Y-120060000D02*
G01*
X140385000Y-120060000D01*
X140385000Y-119208000D01*
X141687000Y-119208000D01*
X141687000Y-120060000D01*
X141687000Y-120060000D01*
G37*
G36*
X143587000Y-120060000D02*
G01*
X142285000Y-120060000D01*
X142285000Y-119208000D01*
X143587000Y-119208000D01*
X143587000Y-120060000D01*
X143587000Y-120060000D01*
G37*
G36*
X111246228Y-118140703D02*
G01*
X111401100Y-118204853D01*
X111540481Y-118297985D01*
X111659015Y-118416519D01*
X111752147Y-118555900D01*
X111816297Y-118710772D01*
X111849000Y-118875184D01*
X111849000Y-119042816D01*
X111816297Y-119207228D01*
X111752147Y-119362100D01*
X111659015Y-119501481D01*
X111540481Y-119620015D01*
X111401100Y-119713147D01*
X111246228Y-119777297D01*
X111081816Y-119810000D01*
X110914184Y-119810000D01*
X110749772Y-119777297D01*
X110594900Y-119713147D01*
X110455519Y-119620015D01*
X110336985Y-119501481D01*
X110243853Y-119362100D01*
X110179703Y-119207228D01*
X110147000Y-119042816D01*
X110147000Y-118875184D01*
X110179703Y-118710772D01*
X110243853Y-118555900D01*
X110336985Y-118416519D01*
X110455519Y-118297985D01*
X110594900Y-118204853D01*
X110749772Y-118140703D01*
X110914184Y-118108000D01*
X111081816Y-118108000D01*
X111246228Y-118140703D01*
X111246228Y-118140703D01*
G37*
G36*
X105324000Y-119780000D02*
G01*
X103972000Y-119780000D01*
X103972000Y-118178000D01*
X105324000Y-118178000D01*
X105324000Y-119780000D01*
X105324000Y-119780000D01*
G37*
G36*
X107229000Y-119780000D02*
G01*
X105877000Y-119780000D01*
X105877000Y-118178000D01*
X107229000Y-118178000D01*
X107229000Y-119780000D01*
X107229000Y-119780000D01*
G37*
G36*
X121711000Y-119711000D02*
G01*
X120859000Y-119711000D01*
X120859000Y-118409000D01*
X121711000Y-118409000D01*
X121711000Y-119711000D01*
X121711000Y-119711000D01*
G37*
G36*
X115869000Y-119584000D02*
G01*
X115017000Y-119584000D01*
X115017000Y-118282000D01*
X115869000Y-118282000D01*
X115869000Y-119584000D01*
X115869000Y-119584000D01*
G37*
G36*
X117875999Y-119384800D02*
G01*
X116464401Y-119384800D01*
X116464401Y-118714800D01*
X117875999Y-118714800D01*
X117875999Y-119384800D01*
X117875999Y-119384800D01*
G37*
G36*
X120263599Y-119384800D02*
G01*
X118852001Y-119384800D01*
X118852001Y-118714800D01*
X120263599Y-118714800D01*
X120263599Y-119384800D01*
X120263599Y-119384800D01*
G37*
G36*
X101494000Y-119298000D02*
G01*
X100192000Y-119298000D01*
X100192000Y-118446000D01*
X101494000Y-118446000D01*
X101494000Y-119298000D01*
X101494000Y-119298000D01*
G37*
G36*
X103394000Y-119298000D02*
G01*
X102092000Y-119298000D01*
X102092000Y-118446000D01*
X103394000Y-118446000D01*
X103394000Y-119298000D01*
X103394000Y-119298000D01*
G37*
G36*
X145474000Y-119246000D02*
G01*
X144172000Y-119246000D01*
X144172000Y-118244000D01*
X145474000Y-118244000D01*
X145474000Y-119246000D01*
X145474000Y-119246000D01*
G37*
G36*
X147674000Y-119246000D02*
G01*
X146372000Y-119246000D01*
X146372000Y-118244000D01*
X147674000Y-118244000D01*
X147674000Y-119246000D01*
X147674000Y-119246000D01*
G37*
G36*
X157837499Y-118718000D02*
G01*
X155344501Y-118718000D01*
X155344501Y-117166000D01*
X157837499Y-117166000D01*
X157837499Y-118718000D01*
X157837499Y-118718000D01*
G37*
G36*
X143424000Y-118510000D02*
G01*
X142072000Y-118510000D01*
X142072000Y-116908000D01*
X143424000Y-116908000D01*
X143424000Y-118510000D01*
X143424000Y-118510000D01*
G37*
G36*
X117875999Y-118445000D02*
G01*
X116464401Y-118445000D01*
X116464401Y-117775000D01*
X117875999Y-117775000D01*
X117875999Y-118445000D01*
X117875999Y-118445000D01*
G37*
G36*
X134893000Y-118405000D02*
G01*
X133291000Y-118405000D01*
X133291000Y-117053000D01*
X134893000Y-117053000D01*
X134893000Y-118405000D01*
X134893000Y-118405000D01*
G37*
G36*
X132393000Y-118405000D02*
G01*
X130791000Y-118405000D01*
X130791000Y-117053000D01*
X132393000Y-117053000D01*
X132393000Y-118405000D01*
X132393000Y-118405000D01*
G37*
G36*
X99736000Y-118383000D02*
G01*
X98384000Y-118383000D01*
X98384000Y-116781000D01*
X99736000Y-116781000D01*
X99736000Y-118383000D01*
X99736000Y-118383000D01*
G37*
G36*
X149538000Y-118357000D02*
G01*
X148236000Y-118357000D01*
X148236000Y-117355000D01*
X149538000Y-117355000D01*
X149538000Y-118357000D01*
X149538000Y-118357000D01*
G37*
G36*
X151738000Y-118357000D02*
G01*
X150436000Y-118357000D01*
X150436000Y-117355000D01*
X151738000Y-117355000D01*
X151738000Y-118357000D01*
X151738000Y-118357000D01*
G37*
G36*
X103054988Y-115533116D02*
G01*
X103029999Y-115533116D01*
X103005613Y-115535518D01*
X102982164Y-115542631D01*
X102960553Y-115554182D01*
X102941611Y-115569727D01*
X102926066Y-115588669D01*
X102914515Y-115610280D01*
X102907402Y-115633729D01*
X102905000Y-115658115D01*
X102905000Y-117005885D01*
X102907402Y-117030271D01*
X102914515Y-117053720D01*
X102926066Y-117075331D01*
X102941611Y-117094273D01*
X102960553Y-117109818D01*
X102982164Y-117121369D01*
X103005613Y-117128482D01*
X103029999Y-117130884D01*
X103054988Y-117130884D01*
X103054988Y-117936972D01*
X100653012Y-117936972D01*
X100653012Y-117130884D01*
X100678001Y-117130884D01*
X100702387Y-117128482D01*
X100725836Y-117121369D01*
X100747447Y-117109818D01*
X100766389Y-117094273D01*
X100781934Y-117075331D01*
X100793485Y-117053720D01*
X100800598Y-117030271D01*
X100803000Y-117005885D01*
X100803000Y-115658115D01*
X100800598Y-115633729D01*
X100793485Y-115610280D01*
X100781934Y-115588669D01*
X100766389Y-115569727D01*
X100747447Y-115554182D01*
X100725836Y-115542631D01*
X100702387Y-115535518D01*
X100678001Y-115533116D01*
X100653012Y-115533116D01*
X100653012Y-114727028D01*
X103054988Y-114727028D01*
X103054988Y-115533116D01*
X103054988Y-115533116D01*
G37*
G36*
X121711000Y-117811000D02*
G01*
X120859000Y-117811000D01*
X120859000Y-116509000D01*
X121711000Y-116509000D01*
X121711000Y-117811000D01*
X121711000Y-117811000D01*
G37*
G36*
X89009229Y-115945399D02*
G01*
X89076627Y-115952037D01*
X89246466Y-116003557D01*
X89402991Y-116087222D01*
X89438729Y-116116552D01*
X89540186Y-116199814D01*
X89600247Y-116273000D01*
X89652778Y-116337009D01*
X89736443Y-116493534D01*
X89787963Y-116663373D01*
X89805359Y-116840000D01*
X89787963Y-117016627D01*
X89736443Y-117186466D01*
X89652778Y-117342991D01*
X89642922Y-117355000D01*
X89540186Y-117480186D01*
X89438729Y-117563448D01*
X89402991Y-117592778D01*
X89246466Y-117676443D01*
X89076627Y-117727963D01*
X89010442Y-117734482D01*
X88944260Y-117741000D01*
X88855740Y-117741000D01*
X88789558Y-117734482D01*
X88723373Y-117727963D01*
X88553534Y-117676443D01*
X88397009Y-117592778D01*
X88361271Y-117563448D01*
X88259814Y-117480186D01*
X88157078Y-117355000D01*
X88147222Y-117342991D01*
X88063557Y-117186466D01*
X88012037Y-117016627D01*
X87994641Y-116840000D01*
X88012037Y-116663373D01*
X88063557Y-116493534D01*
X88147222Y-116337009D01*
X88199753Y-116273000D01*
X88259814Y-116199814D01*
X88361271Y-116116552D01*
X88397009Y-116087222D01*
X88553534Y-116003557D01*
X88723373Y-115952037D01*
X88790771Y-115945399D01*
X88855740Y-115939000D01*
X88944260Y-115939000D01*
X89009229Y-115945399D01*
X89009229Y-115945399D01*
G37*
G36*
X159632000Y-117702000D02*
G01*
X158630000Y-117702000D01*
X158630000Y-116400000D01*
X159632000Y-116400000D01*
X159632000Y-117702000D01*
X159632000Y-117702000D01*
G37*
G36*
X115869000Y-117684000D02*
G01*
X115017000Y-117684000D01*
X115017000Y-116382000D01*
X115869000Y-116382000D01*
X115869000Y-117684000D01*
X115869000Y-117684000D01*
G37*
G36*
X140793000Y-117647000D02*
G01*
X139491000Y-117647000D01*
X139491000Y-116795000D01*
X140793000Y-116795000D01*
X140793000Y-117647000D01*
X140793000Y-117647000D01*
G37*
G36*
X138893000Y-117647000D02*
G01*
X137591000Y-117647000D01*
X137591000Y-116795000D01*
X138893000Y-116795000D01*
X138893000Y-117647000D01*
X138893000Y-117647000D01*
G37*
G36*
X137153000Y-117575000D02*
G01*
X136151000Y-117575000D01*
X136151000Y-116273000D01*
X137153000Y-116273000D01*
X137153000Y-117575000D01*
X137153000Y-117575000D01*
G37*
G36*
X117875999Y-117505200D02*
G01*
X116464401Y-117505200D01*
X116464401Y-116835200D01*
X117875999Y-116835200D01*
X117875999Y-117505200D01*
X117875999Y-117505200D01*
G37*
G36*
X120263599Y-117505200D02*
G01*
X118852001Y-117505200D01*
X118852001Y-116835200D01*
X120263599Y-116835200D01*
X120263599Y-117505200D01*
X120263599Y-117505200D01*
G37*
G36*
X147822599Y-117479800D02*
G01*
X146411001Y-117479800D01*
X146411001Y-116809800D01*
X147822599Y-116809800D01*
X147822599Y-117479800D01*
X147822599Y-117479800D01*
G37*
G36*
X145434999Y-117479800D02*
G01*
X144023401Y-117479800D01*
X144023401Y-116809800D01*
X145434999Y-116809800D01*
X145434999Y-117479800D01*
X145434999Y-117479800D01*
G37*
G36*
X111849000Y-117310000D02*
G01*
X110147000Y-117310000D01*
X110147000Y-115608000D01*
X111849000Y-115608000D01*
X111849000Y-117310000D01*
X111849000Y-117310000D01*
G37*
G36*
X105324000Y-117280000D02*
G01*
X103972000Y-117280000D01*
X103972000Y-115678000D01*
X105324000Y-115678000D01*
X105324000Y-117280000D01*
X105324000Y-117280000D01*
G37*
G36*
X107229000Y-117280000D02*
G01*
X105877000Y-117280000D01*
X105877000Y-115678000D01*
X107229000Y-115678000D01*
X107229000Y-117280000D01*
X107229000Y-117280000D01*
G37*
G36*
X155888000Y-116579000D02*
G01*
X154586000Y-116579000D01*
X154586000Y-115577000D01*
X155888000Y-115577000D01*
X155888000Y-116579000D01*
X155888000Y-116579000D01*
G37*
G36*
X158088000Y-116579000D02*
G01*
X156786000Y-116579000D01*
X156786000Y-115577000D01*
X158088000Y-115577000D01*
X158088000Y-116579000D01*
X158088000Y-116579000D01*
G37*
G36*
X145434999Y-116540000D02*
G01*
X144023401Y-116540000D01*
X144023401Y-115870000D01*
X145434999Y-115870000D01*
X145434999Y-116540000D01*
X145434999Y-116540000D01*
G37*
G36*
X97185000Y-116231000D02*
G01*
X95783000Y-116231000D01*
X95783000Y-114579000D01*
X97185000Y-114579000D01*
X97185000Y-116231000D01*
X97185000Y-116231000D01*
G37*
G36*
X92685000Y-116231000D02*
G01*
X91283000Y-116231000D01*
X91283000Y-114579000D01*
X92685000Y-114579000D01*
X92685000Y-116231000D01*
X92685000Y-116231000D01*
G37*
G36*
X143424000Y-116010000D02*
G01*
X142072000Y-116010000D01*
X142072000Y-114408000D01*
X143424000Y-114408000D01*
X143424000Y-116010000D01*
X143424000Y-116010000D01*
G37*
G36*
X118931000Y-115992000D02*
G01*
X117329000Y-115992000D01*
X117329000Y-114640000D01*
X118931000Y-114640000D01*
X118931000Y-115992000D01*
X118931000Y-115992000D01*
G37*
G36*
X121431000Y-115992000D02*
G01*
X119829000Y-115992000D01*
X119829000Y-114640000D01*
X121431000Y-114640000D01*
X121431000Y-115992000D01*
X121431000Y-115992000D01*
G37*
G36*
X140786799Y-115945399D02*
G01*
X139680001Y-115945399D01*
X139680001Y-114178601D01*
X140786799Y-114178601D01*
X140786799Y-115945399D01*
X140786799Y-115945399D01*
G37*
G36*
X138703999Y-115945399D02*
G01*
X137597201Y-115945399D01*
X137597201Y-115478599D01*
X138703999Y-115478599D01*
X138703999Y-115945399D01*
X138703999Y-115945399D01*
G37*
G36*
X99736000Y-115883000D02*
G01*
X98384000Y-115883000D01*
X98384000Y-114281000D01*
X99736000Y-114281000D01*
X99736000Y-115883000D01*
X99736000Y-115883000D01*
G37*
G36*
X145434999Y-115600200D02*
G01*
X144023401Y-115600200D01*
X144023401Y-114930200D01*
X145434999Y-114930200D01*
X145434999Y-115600200D01*
X145434999Y-115600200D01*
G37*
G36*
X147822599Y-115600200D02*
G01*
X146411001Y-115600200D01*
X146411001Y-114930200D01*
X147822599Y-114930200D01*
X147822599Y-115600200D01*
X147822599Y-115600200D01*
G37*
G36*
X159632000Y-115502000D02*
G01*
X158630000Y-115502000D01*
X158630000Y-114200000D01*
X159632000Y-114200000D01*
X159632000Y-115502000D01*
X159632000Y-115502000D01*
G37*
G36*
X137153000Y-115375000D02*
G01*
X136151000Y-115375000D01*
X136151000Y-114073000D01*
X137153000Y-114073000D01*
X137153000Y-115375000D01*
X137153000Y-115375000D01*
G37*
G36*
X132582228Y-113695703D02*
G01*
X132737100Y-113759853D01*
X132876481Y-113852985D01*
X132995015Y-113971519D01*
X133088147Y-114110900D01*
X133152297Y-114265772D01*
X133185000Y-114430184D01*
X133185000Y-114597816D01*
X133152297Y-114762228D01*
X133088147Y-114917100D01*
X132995015Y-115056481D01*
X132876481Y-115175015D01*
X132737100Y-115268147D01*
X132582228Y-115332297D01*
X132417816Y-115365000D01*
X132250184Y-115365000D01*
X132085772Y-115332297D01*
X131930900Y-115268147D01*
X131791519Y-115175015D01*
X131672985Y-115056481D01*
X131579853Y-114917100D01*
X131515703Y-114762228D01*
X131483000Y-114597816D01*
X131483000Y-114430184D01*
X131515703Y-114265772D01*
X131579853Y-114110900D01*
X131672985Y-113971519D01*
X131791519Y-113852985D01*
X131930900Y-113759853D01*
X132085772Y-113695703D01*
X132250184Y-113663000D01*
X132417816Y-113663000D01*
X132582228Y-113695703D01*
X132582228Y-113695703D01*
G37*
G36*
X89010443Y-113405519D02*
G01*
X89076627Y-113412037D01*
X89246466Y-113463557D01*
X89402991Y-113547222D01*
X89438729Y-113576552D01*
X89540186Y-113659814D01*
X89620576Y-113757771D01*
X89652778Y-113797009D01*
X89652779Y-113797011D01*
X89719687Y-113922185D01*
X89736443Y-113953534D01*
X89787963Y-114123373D01*
X89805359Y-114300000D01*
X89787963Y-114476627D01*
X89736443Y-114646466D01*
X89652778Y-114802991D01*
X89639382Y-114819314D01*
X89540186Y-114940186D01*
X89464736Y-115002105D01*
X89402991Y-115052778D01*
X89246466Y-115136443D01*
X89076627Y-115187963D01*
X89010442Y-115194482D01*
X88944260Y-115201000D01*
X88855740Y-115201000D01*
X88789558Y-115194482D01*
X88723373Y-115187963D01*
X88553534Y-115136443D01*
X88397009Y-115052778D01*
X88335264Y-115002105D01*
X88259814Y-114940186D01*
X88160618Y-114819314D01*
X88147222Y-114802991D01*
X88063557Y-114646466D01*
X88012037Y-114476627D01*
X87994641Y-114300000D01*
X88012037Y-114123373D01*
X88063557Y-113953534D01*
X88080314Y-113922185D01*
X88147221Y-113797011D01*
X88147222Y-113797009D01*
X88179424Y-113757771D01*
X88259814Y-113659814D01*
X88361271Y-113576552D01*
X88397009Y-113547222D01*
X88553534Y-113463557D01*
X88723373Y-113412037D01*
X88789557Y-113405519D01*
X88855740Y-113399000D01*
X88944260Y-113399000D01*
X89010443Y-113405519D01*
X89010443Y-113405519D01*
G37*
G36*
X105119999Y-114180737D02*
G01*
X105129608Y-114183652D01*
X105138472Y-114188390D01*
X105146212Y-114194742D01*
X105146213Y-114194743D01*
X105146237Y-114194763D01*
X105152640Y-114202573D01*
X105152678Y-114202630D01*
X105156571Y-114207379D01*
X105230980Y-114318991D01*
X105246505Y-114337949D01*
X105265431Y-114353514D01*
X105287030Y-114365088D01*
X105310471Y-114372226D01*
X105334855Y-114374653D01*
X105359243Y-114372277D01*
X105382700Y-114365188D01*
X105404322Y-114353659D01*
X105423280Y-114338134D01*
X105438845Y-114319208D01*
X105450419Y-114297609D01*
X105457557Y-114274168D01*
X105459984Y-114249784D01*
X105459396Y-114237544D01*
X105458753Y-114230946D01*
X105458753Y-114230941D01*
X105459747Y-114220950D01*
X105462674Y-114211340D01*
X105462674Y-114211339D01*
X105467419Y-114202484D01*
X105473801Y-114194725D01*
X105481573Y-114188360D01*
X105481575Y-114188358D01*
X105490399Y-114183654D01*
X105490438Y-114183633D01*
X105500055Y-114180727D01*
X105500085Y-114180718D01*
X105516113Y-114179148D01*
X106803860Y-114179148D01*
X106819999Y-114180737D01*
X106829608Y-114183652D01*
X106838472Y-114188390D01*
X106846237Y-114194763D01*
X106852610Y-114202528D01*
X106857348Y-114211392D01*
X106860263Y-114221001D01*
X106861852Y-114237140D01*
X106861852Y-115124860D01*
X106860263Y-115140999D01*
X106857348Y-115150608D01*
X106852610Y-115159472D01*
X106846237Y-115167237D01*
X106838472Y-115173610D01*
X106829608Y-115178348D01*
X106819999Y-115181263D01*
X106803860Y-115182852D01*
X105516140Y-115182852D01*
X105500001Y-115181263D01*
X105490392Y-115178348D01*
X105481528Y-115173610D01*
X105473763Y-115167237D01*
X105467390Y-115159472D01*
X105462652Y-115150608D01*
X105459737Y-115140999D01*
X105458752Y-115130996D01*
X105459383Y-115124591D01*
X105459383Y-115100087D01*
X105454602Y-115076054D01*
X105445224Y-115053416D01*
X105431609Y-115033042D01*
X105414282Y-115015715D01*
X105393907Y-115002102D01*
X105371268Y-114992725D01*
X105347234Y-114987946D01*
X105322730Y-114987946D01*
X105298697Y-114992727D01*
X105276059Y-115002105D01*
X105255685Y-115015720D01*
X105238358Y-115033047D01*
X105230980Y-115043006D01*
X105156548Y-115154655D01*
X105152641Y-115159426D01*
X105152640Y-115159427D01*
X105146275Y-115167199D01*
X105138516Y-115173581D01*
X105129661Y-115178326D01*
X105126623Y-115179251D01*
X105120085Y-115181242D01*
X105120082Y-115181242D01*
X105120050Y-115181252D01*
X105110000Y-115182247D01*
X105109935Y-115182247D01*
X105103825Y-115182852D01*
X104016140Y-115182852D01*
X104000001Y-115181263D01*
X103990392Y-115178348D01*
X103981528Y-115173610D01*
X103973763Y-115167237D01*
X103967390Y-115159472D01*
X103962652Y-115150608D01*
X103959737Y-115140999D01*
X103958148Y-115124860D01*
X103958148Y-114662216D01*
X105460016Y-114662216D01*
X105460604Y-114674458D01*
X105461247Y-114681054D01*
X105461247Y-114681059D01*
X105460628Y-114687279D01*
X105460602Y-114711783D01*
X105465358Y-114735821D01*
X105474712Y-114758470D01*
X105488304Y-114778858D01*
X105505613Y-114796203D01*
X105525973Y-114809838D01*
X105548603Y-114819239D01*
X105572631Y-114824044D01*
X105597135Y-114824070D01*
X105621173Y-114819314D01*
X105643822Y-114809960D01*
X105664210Y-114796368D01*
X105681555Y-114779059D01*
X105689017Y-114768997D01*
X105701457Y-114750337D01*
X105712986Y-114728714D01*
X105720075Y-114705258D01*
X105722451Y-114680869D01*
X105720024Y-114656486D01*
X105712886Y-114633044D01*
X105701457Y-114611662D01*
X105689020Y-114593007D01*
X105673494Y-114574049D01*
X105654568Y-114558484D01*
X105632969Y-114546910D01*
X105609528Y-114539773D01*
X105585144Y-114537346D01*
X105560756Y-114539723D01*
X105537299Y-114546812D01*
X105515677Y-114558340D01*
X105496719Y-114573866D01*
X105481154Y-114592792D01*
X105469580Y-114614391D01*
X105462443Y-114637832D01*
X105460016Y-114662216D01*
X103958148Y-114662216D01*
X103958148Y-114237140D01*
X103959737Y-114221001D01*
X103962652Y-114211392D01*
X103967390Y-114202528D01*
X103973763Y-114194763D01*
X103981528Y-114188390D01*
X103990392Y-114183652D01*
X104000001Y-114180737D01*
X104016140Y-114179148D01*
X105103860Y-114179148D01*
X105119999Y-114180737D01*
X105119999Y-114180737D01*
G37*
G36*
X156038000Y-115107000D02*
G01*
X154736000Y-115107000D01*
X154736000Y-114255000D01*
X156038000Y-114255000D01*
X156038000Y-115107000D01*
X156038000Y-115107000D01*
G37*
G36*
X157938000Y-115107000D02*
G01*
X156636000Y-115107000D01*
X156636000Y-114255000D01*
X157938000Y-114255000D01*
X157938000Y-115107000D01*
X157938000Y-115107000D01*
G37*
G36*
X125470228Y-113187703D02*
G01*
X125625100Y-113251853D01*
X125764481Y-113344985D01*
X125883015Y-113463519D01*
X125976147Y-113602900D01*
X126040297Y-113757772D01*
X126073000Y-113922184D01*
X126073000Y-114089816D01*
X126040297Y-114254228D01*
X125976147Y-114409100D01*
X125883015Y-114548481D01*
X125764481Y-114667015D01*
X125625100Y-114760147D01*
X125470228Y-114824297D01*
X125305816Y-114857000D01*
X125138184Y-114857000D01*
X124973772Y-114824297D01*
X124818900Y-114760147D01*
X124679519Y-114667015D01*
X124560985Y-114548481D01*
X124467853Y-114409100D01*
X124403703Y-114254228D01*
X124371000Y-114089816D01*
X124371000Y-113922184D01*
X124403703Y-113757772D01*
X124467853Y-113602900D01*
X124560985Y-113463519D01*
X124679519Y-113344985D01*
X124818900Y-113251853D01*
X124973772Y-113187703D01*
X125138184Y-113155000D01*
X125305816Y-113155000D01*
X125470228Y-113187703D01*
X125470228Y-113187703D01*
G37*
G36*
X138703999Y-114645401D02*
G01*
X137597201Y-114645401D01*
X137597201Y-114178601D01*
X138703999Y-114178601D01*
X138703999Y-114645401D01*
X138703999Y-114645401D01*
G37*
G36*
X119421000Y-114065000D02*
G01*
X118069000Y-114065000D01*
X118069000Y-112463000D01*
X119421000Y-112463000D01*
X119421000Y-114065000D01*
X119421000Y-114065000D01*
G37*
G36*
X121326000Y-114065000D02*
G01*
X119974000Y-114065000D01*
X119974000Y-112463000D01*
X121326000Y-112463000D01*
X121326000Y-114065000D01*
X121326000Y-114065000D01*
G37*
G36*
X103405000Y-114050000D02*
G01*
X102503000Y-114050000D01*
X102503000Y-111248000D01*
X103405000Y-111248000D01*
X103405000Y-114050000D01*
X103405000Y-114050000D01*
G37*
G36*
X101205000Y-114050000D02*
G01*
X100303000Y-114050000D01*
X100303000Y-111248000D01*
X101205000Y-111248000D01*
X101205000Y-114050000D01*
X101205000Y-114050000D01*
G37*
G36*
X92769000Y-114039000D02*
G01*
X91467000Y-114039000D01*
X91467000Y-113037000D01*
X92769000Y-113037000D01*
X92769000Y-114039000D01*
X92769000Y-114039000D01*
G37*
G36*
X94969000Y-114039000D02*
G01*
X93667000Y-114039000D01*
X93667000Y-113037000D01*
X94969000Y-113037000D01*
X94969000Y-114039000D01*
X94969000Y-114039000D01*
G37*
G36*
X99519999Y-110817737D02*
G01*
X99529608Y-110820652D01*
X99538472Y-110825390D01*
X99546237Y-110831763D01*
X99552610Y-110839528D01*
X99557348Y-110848392D01*
X99560263Y-110858001D01*
X99561852Y-110874140D01*
X99561852Y-111961860D01*
X99560263Y-111977999D01*
X99557348Y-111987608D01*
X99552610Y-111996472D01*
X99546258Y-112004212D01*
X99546237Y-112004237D01*
X99538427Y-112010640D01*
X99538370Y-112010678D01*
X99533621Y-112014571D01*
X99422009Y-112088980D01*
X99403051Y-112104505D01*
X99387486Y-112123431D01*
X99375912Y-112145030D01*
X99368774Y-112168471D01*
X99366347Y-112192855D01*
X99368723Y-112217243D01*
X99375812Y-112240700D01*
X99387341Y-112262322D01*
X99402866Y-112281280D01*
X99421792Y-112296845D01*
X99443391Y-112308419D01*
X99466832Y-112315557D01*
X99491216Y-112317984D01*
X99503456Y-112317396D01*
X99510054Y-112316753D01*
X99510059Y-112316753D01*
X99520050Y-112317747D01*
X99527417Y-112319991D01*
X99529661Y-112320674D01*
X99538516Y-112325419D01*
X99541143Y-112327580D01*
X99546274Y-112331800D01*
X99552642Y-112339575D01*
X99555791Y-112345483D01*
X99557367Y-112348438D01*
X99559265Y-112354719D01*
X99560282Y-112358085D01*
X99561852Y-112374113D01*
X99561852Y-113661860D01*
X99560263Y-113677999D01*
X99557348Y-113687608D01*
X99552610Y-113696472D01*
X99546237Y-113704237D01*
X99538472Y-113710610D01*
X99529608Y-113715348D01*
X99519999Y-113718263D01*
X99503860Y-113719852D01*
X98616140Y-113719852D01*
X98600001Y-113718263D01*
X98590392Y-113715348D01*
X98581528Y-113710610D01*
X98573763Y-113704237D01*
X98567390Y-113696472D01*
X98562652Y-113687608D01*
X98559737Y-113677999D01*
X98558148Y-113661860D01*
X98558148Y-112455135D01*
X98916930Y-112455135D01*
X98921686Y-112479173D01*
X98931040Y-112501822D01*
X98944632Y-112522210D01*
X98961941Y-112539555D01*
X98972003Y-112547017D01*
X98990663Y-112559457D01*
X99012286Y-112570986D01*
X99035742Y-112578075D01*
X99060131Y-112580451D01*
X99084514Y-112578024D01*
X99107956Y-112570886D01*
X99129338Y-112559457D01*
X99147993Y-112547020D01*
X99166951Y-112531494D01*
X99182516Y-112512568D01*
X99194090Y-112490969D01*
X99201227Y-112467528D01*
X99203654Y-112443144D01*
X99201277Y-112418756D01*
X99194188Y-112395299D01*
X99182660Y-112373677D01*
X99167134Y-112354719D01*
X99148208Y-112339154D01*
X99126609Y-112327580D01*
X99103168Y-112320443D01*
X99078784Y-112318016D01*
X99066542Y-112318604D01*
X99059946Y-112319247D01*
X99059941Y-112319247D01*
X99053721Y-112318628D01*
X99029217Y-112318602D01*
X99005179Y-112323358D01*
X98982530Y-112332712D01*
X98962142Y-112346304D01*
X98944797Y-112363613D01*
X98931162Y-112383973D01*
X98921761Y-112406603D01*
X98916956Y-112430631D01*
X98916930Y-112455135D01*
X98558148Y-112455135D01*
X98558148Y-112374140D01*
X98559737Y-112358001D01*
X98562652Y-112348392D01*
X98567390Y-112339528D01*
X98573763Y-112331763D01*
X98581528Y-112325390D01*
X98590392Y-112320652D01*
X98600001Y-112317737D01*
X98610004Y-112316752D01*
X98616409Y-112317383D01*
X98640913Y-112317383D01*
X98664946Y-112312602D01*
X98687584Y-112303224D01*
X98707958Y-112289609D01*
X98725285Y-112272282D01*
X98738898Y-112251907D01*
X98748275Y-112229268D01*
X98753054Y-112205234D01*
X98753054Y-112180730D01*
X98748273Y-112156697D01*
X98738895Y-112134059D01*
X98725280Y-112113685D01*
X98707953Y-112096358D01*
X98697994Y-112088980D01*
X98586345Y-112014548D01*
X98573800Y-112004274D01*
X98572668Y-112002897D01*
X98567419Y-111996516D01*
X98562674Y-111987661D01*
X98561749Y-111984623D01*
X98559758Y-111978085D01*
X98559758Y-111978082D01*
X98559748Y-111978050D01*
X98558753Y-111968000D01*
X98558753Y-111967935D01*
X98558148Y-111961825D01*
X98558148Y-110874140D01*
X98559737Y-110858001D01*
X98562652Y-110848392D01*
X98567390Y-110839528D01*
X98573763Y-110831763D01*
X98581528Y-110825390D01*
X98590392Y-110820652D01*
X98600001Y-110817737D01*
X98616140Y-110816148D01*
X99503860Y-110816148D01*
X99519999Y-110817737D01*
X99519999Y-110817737D01*
G37*
G36*
X110658000Y-113430000D02*
G01*
X109306000Y-113430000D01*
X109306000Y-111828000D01*
X110658000Y-111828000D01*
X110658000Y-113430000D01*
X110658000Y-113430000D01*
G37*
G36*
X155421000Y-113277000D02*
G01*
X154119000Y-113277000D01*
X154119000Y-112275000D01*
X155421000Y-112275000D01*
X155421000Y-113277000D01*
X155421000Y-113277000D01*
G37*
G36*
X153221000Y-113277000D02*
G01*
X151919000Y-113277000D01*
X151919000Y-112275000D01*
X153221000Y-112275000D01*
X153221000Y-113277000D01*
X153221000Y-113277000D01*
G37*
G36*
X138997000Y-113277000D02*
G01*
X137695000Y-113277000D01*
X137695000Y-112275000D01*
X138997000Y-112275000D01*
X138997000Y-113277000D01*
X138997000Y-113277000D01*
G37*
G36*
X141197000Y-113277000D02*
G01*
X139895000Y-113277000D01*
X139895000Y-112275000D01*
X141197000Y-112275000D01*
X141197000Y-113277000D01*
X141197000Y-113277000D01*
G37*
G36*
X137153000Y-113257000D02*
G01*
X136151000Y-113257000D01*
X136151000Y-111955000D01*
X137153000Y-111955000D01*
X137153000Y-113257000D01*
X137153000Y-113257000D01*
G37*
G36*
X156965000Y-113257000D02*
G01*
X155963000Y-113257000D01*
X155963000Y-111955000D01*
X156965000Y-111955000D01*
X156965000Y-113257000D01*
X156965000Y-113257000D01*
G37*
G36*
X117352000Y-113057000D02*
G01*
X114550000Y-113057000D01*
X114550000Y-112155000D01*
X117352000Y-112155000D01*
X117352000Y-113057000D01*
X117352000Y-113057000D01*
G37*
G36*
X133185000Y-112865000D02*
G01*
X131483000Y-112865000D01*
X131483000Y-111163000D01*
X133185000Y-111163000D01*
X133185000Y-112865000D01*
X133185000Y-112865000D01*
G37*
G36*
X89010442Y-110865518D02*
G01*
X89076627Y-110872037D01*
X89246466Y-110923557D01*
X89402991Y-111007222D01*
X89438729Y-111036552D01*
X89540186Y-111119814D01*
X89623448Y-111221271D01*
X89652778Y-111257009D01*
X89736443Y-111413534D01*
X89787963Y-111583373D01*
X89805359Y-111760000D01*
X89787963Y-111936627D01*
X89736443Y-112106466D01*
X89652778Y-112262991D01*
X89645153Y-112272282D01*
X89540186Y-112400186D01*
X89458128Y-112467528D01*
X89402991Y-112512778D01*
X89246466Y-112596443D01*
X89076627Y-112647963D01*
X89010442Y-112654482D01*
X88944260Y-112661000D01*
X88855740Y-112661000D01*
X88789558Y-112654482D01*
X88723373Y-112647963D01*
X88553534Y-112596443D01*
X88397009Y-112512778D01*
X88341872Y-112467528D01*
X88259814Y-112400186D01*
X88154847Y-112272282D01*
X88147222Y-112262991D01*
X88063557Y-112106466D01*
X88012037Y-111936627D01*
X87994641Y-111760000D01*
X88012037Y-111583373D01*
X88063557Y-111413534D01*
X88147222Y-111257009D01*
X88176552Y-111221271D01*
X88259814Y-111119814D01*
X88361271Y-111036552D01*
X88397009Y-111007222D01*
X88553534Y-110923557D01*
X88723373Y-110872037D01*
X88789558Y-110865518D01*
X88855740Y-110859000D01*
X88944260Y-110859000D01*
X89010442Y-110865518D01*
X89010442Y-110865518D01*
G37*
G36*
X95268500Y-112440000D02*
G01*
X93966500Y-112440000D01*
X93966500Y-111588000D01*
X95268500Y-111588000D01*
X95268500Y-112440000D01*
X95268500Y-112440000D01*
G37*
G36*
X97168500Y-112440000D02*
G01*
X95866500Y-112440000D01*
X95866500Y-111588000D01*
X97168500Y-111588000D01*
X97168500Y-112440000D01*
X97168500Y-112440000D01*
G37*
G36*
X113205999Y-110655001D02*
G01*
X113923000Y-110655001D01*
X113923000Y-112356999D01*
X113205999Y-112356999D01*
X113204974Y-112357100D01*
X111839026Y-112357100D01*
X111838001Y-112356999D01*
X111121000Y-112356999D01*
X111121000Y-110655001D01*
X111838001Y-110655001D01*
X111839026Y-110654900D01*
X113204974Y-110654900D01*
X113205999Y-110655001D01*
X113205999Y-110655001D01*
G37*
G36*
X126073000Y-112357000D02*
G01*
X124371000Y-112357000D01*
X124371000Y-110655000D01*
X126073000Y-110655000D01*
X126073000Y-112357000D01*
X126073000Y-112357000D01*
G37*
G36*
X149143000Y-112218000D02*
G01*
X148291000Y-112218000D01*
X148291000Y-110916000D01*
X149143000Y-110916000D01*
X149143000Y-112218000D01*
X149143000Y-112218000D01*
G37*
G36*
X121326000Y-111565000D02*
G01*
X119974000Y-111565000D01*
X119974000Y-109963000D01*
X121326000Y-109963000D01*
X121326000Y-111565000D01*
X121326000Y-111565000D01*
G37*
G36*
X119421000Y-111565000D02*
G01*
X118069000Y-111565000D01*
X118069000Y-109963000D01*
X119421000Y-109963000D01*
X119421000Y-111565000D01*
X119421000Y-111565000D01*
G37*
G36*
X171081000Y-111391000D02*
G01*
X169279000Y-111391000D01*
X169279000Y-109589000D01*
X171081000Y-109589000D01*
X171081000Y-111391000D01*
X171081000Y-111391000D01*
G37*
G36*
X154298000Y-111352000D02*
G01*
X153296000Y-111352000D01*
X153296000Y-110050000D01*
X154298000Y-110050000D01*
X154298000Y-111352000D01*
X154298000Y-111352000D01*
G37*
G36*
X152858000Y-111297000D02*
G01*
X151556000Y-111297000D01*
X151556000Y-110445000D01*
X152858000Y-110445000D01*
X152858000Y-111297000D01*
X152858000Y-111297000D01*
G37*
G36*
X150958000Y-111297000D02*
G01*
X149656000Y-111297000D01*
X149656000Y-110445000D01*
X150958000Y-110445000D01*
X150958000Y-111297000D01*
X150958000Y-111297000D01*
G37*
G36*
X156965000Y-111057000D02*
G01*
X155963000Y-111057000D01*
X155963000Y-109755000D01*
X156965000Y-109755000D01*
X156965000Y-111057000D01*
X156965000Y-111057000D01*
G37*
G36*
X137153000Y-111057000D02*
G01*
X136151000Y-111057000D01*
X136151000Y-109755000D01*
X137153000Y-109755000D01*
X137153000Y-111057000D01*
X137153000Y-111057000D01*
G37*
G36*
X95118500Y-111054500D02*
G01*
X93816500Y-111054500D01*
X93816500Y-110052500D01*
X95118500Y-110052500D01*
X95118500Y-111054500D01*
X95118500Y-111054500D01*
G37*
G36*
X97318500Y-111054500D02*
G01*
X96016500Y-111054500D01*
X96016500Y-110052500D01*
X97318500Y-110052500D01*
X97318500Y-111054500D01*
X97318500Y-111054500D01*
G37*
G36*
X110658000Y-110930000D02*
G01*
X109306000Y-110930000D01*
X109306000Y-109328000D01*
X110658000Y-109328000D01*
X110658000Y-110930000D01*
X110658000Y-110930000D01*
G37*
G36*
X117352000Y-110857000D02*
G01*
X114550000Y-110857000D01*
X114550000Y-109955000D01*
X117352000Y-109955000D01*
X117352000Y-110857000D01*
X117352000Y-110857000D01*
G37*
G36*
X107024999Y-109481737D02*
G01*
X107034608Y-109484652D01*
X107043472Y-109489390D01*
X107051212Y-109495742D01*
X107051213Y-109495743D01*
X107051237Y-109495763D01*
X107057640Y-109503573D01*
X107057678Y-109503630D01*
X107061571Y-109508379D01*
X107135980Y-109619991D01*
X107151505Y-109638949D01*
X107170431Y-109654514D01*
X107192030Y-109666088D01*
X107215471Y-109673226D01*
X107239855Y-109675653D01*
X107264243Y-109673277D01*
X107287700Y-109666188D01*
X107309322Y-109654659D01*
X107328280Y-109639134D01*
X107343845Y-109620208D01*
X107355419Y-109598609D01*
X107362557Y-109575168D01*
X107364984Y-109550784D01*
X107364396Y-109538544D01*
X107363753Y-109531946D01*
X107363753Y-109531941D01*
X107364747Y-109521950D01*
X107367674Y-109512340D01*
X107367674Y-109512339D01*
X107372419Y-109503484D01*
X107378801Y-109495725D01*
X107386573Y-109489360D01*
X107386575Y-109489358D01*
X107395399Y-109484654D01*
X107395438Y-109484633D01*
X107405055Y-109481727D01*
X107405085Y-109481718D01*
X107421113Y-109480148D01*
X108708860Y-109480148D01*
X108724999Y-109481737D01*
X108734608Y-109484652D01*
X108743472Y-109489390D01*
X108751237Y-109495763D01*
X108757610Y-109503528D01*
X108762348Y-109512392D01*
X108765263Y-109522001D01*
X108766852Y-109538140D01*
X108766852Y-110425860D01*
X108765263Y-110441999D01*
X108762348Y-110451608D01*
X108757610Y-110460472D01*
X108751237Y-110468237D01*
X108743472Y-110474610D01*
X108734608Y-110479348D01*
X108724999Y-110482263D01*
X108708860Y-110483852D01*
X107421140Y-110483852D01*
X107405001Y-110482263D01*
X107395392Y-110479348D01*
X107386528Y-110474610D01*
X107378763Y-110468237D01*
X107372390Y-110460472D01*
X107367652Y-110451608D01*
X107364737Y-110441999D01*
X107363752Y-110431996D01*
X107364383Y-110425591D01*
X107364383Y-110401087D01*
X107359602Y-110377054D01*
X107350224Y-110354416D01*
X107336609Y-110334042D01*
X107319282Y-110316715D01*
X107298907Y-110303102D01*
X107276268Y-110293725D01*
X107252234Y-110288946D01*
X107227730Y-110288946D01*
X107203697Y-110293727D01*
X107181059Y-110303105D01*
X107160685Y-110316720D01*
X107143358Y-110334047D01*
X107135980Y-110344006D01*
X107061548Y-110455655D01*
X107057641Y-110460426D01*
X107057640Y-110460427D01*
X107051275Y-110468199D01*
X107043516Y-110474581D01*
X107034661Y-110479326D01*
X107031623Y-110480251D01*
X107025085Y-110482242D01*
X107025082Y-110482242D01*
X107025050Y-110482252D01*
X107015000Y-110483247D01*
X107014935Y-110483247D01*
X107008825Y-110483852D01*
X105921140Y-110483852D01*
X105905001Y-110482263D01*
X105895392Y-110479348D01*
X105886528Y-110474610D01*
X105878763Y-110468237D01*
X105872390Y-110460472D01*
X105867652Y-110451608D01*
X105864737Y-110441999D01*
X105863148Y-110425860D01*
X105863148Y-109963216D01*
X107365016Y-109963216D01*
X107365604Y-109975458D01*
X107366247Y-109982054D01*
X107366247Y-109982059D01*
X107365628Y-109988279D01*
X107365602Y-110012783D01*
X107370358Y-110036821D01*
X107379712Y-110059470D01*
X107393304Y-110079858D01*
X107410613Y-110097203D01*
X107430973Y-110110838D01*
X107453603Y-110120239D01*
X107477631Y-110125044D01*
X107502135Y-110125070D01*
X107526173Y-110120314D01*
X107548822Y-110110960D01*
X107569210Y-110097368D01*
X107586555Y-110080059D01*
X107594017Y-110069997D01*
X107606457Y-110051337D01*
X107617986Y-110029714D01*
X107625075Y-110006258D01*
X107627451Y-109981869D01*
X107625024Y-109957486D01*
X107617886Y-109934044D01*
X107606457Y-109912662D01*
X107594020Y-109894007D01*
X107578494Y-109875049D01*
X107559568Y-109859484D01*
X107537969Y-109847910D01*
X107514528Y-109840773D01*
X107490144Y-109838346D01*
X107465756Y-109840723D01*
X107442299Y-109847812D01*
X107420677Y-109859340D01*
X107401719Y-109874866D01*
X107386154Y-109893792D01*
X107374580Y-109915391D01*
X107367443Y-109938832D01*
X107365016Y-109963216D01*
X105863148Y-109963216D01*
X105863148Y-109538140D01*
X105864737Y-109522001D01*
X105867652Y-109512392D01*
X105872390Y-109503528D01*
X105878763Y-109495763D01*
X105886528Y-109489390D01*
X105895392Y-109484652D01*
X105905001Y-109481737D01*
X105921140Y-109480148D01*
X107008860Y-109480148D01*
X107024999Y-109481737D01*
X107024999Y-109481737D01*
G37*
G36*
X149143000Y-110318000D02*
G01*
X148291000Y-110318000D01*
X148291000Y-109016000D01*
X149143000Y-109016000D01*
X149143000Y-110318000D01*
X149143000Y-110318000D01*
G37*
G36*
X89010443Y-108325519D02*
G01*
X89076627Y-108332037D01*
X89246466Y-108383557D01*
X89402991Y-108467222D01*
X89433645Y-108492379D01*
X89540186Y-108579814D01*
X89603715Y-108657226D01*
X89652778Y-108717009D01*
X89736443Y-108873534D01*
X89787963Y-109043373D01*
X89805359Y-109220000D01*
X89787963Y-109396627D01*
X89736443Y-109566466D01*
X89652778Y-109722991D01*
X89626509Y-109755000D01*
X89540186Y-109860186D01*
X89450188Y-109934044D01*
X89402991Y-109972778D01*
X89246466Y-110056443D01*
X89076627Y-110107963D01*
X89010443Y-110114481D01*
X88944260Y-110121000D01*
X88855740Y-110121000D01*
X88789557Y-110114481D01*
X88723373Y-110107963D01*
X88553534Y-110056443D01*
X88397009Y-109972778D01*
X88349812Y-109934044D01*
X88259814Y-109860186D01*
X88173491Y-109755000D01*
X88147222Y-109722991D01*
X88063557Y-109566466D01*
X88012037Y-109396627D01*
X87994641Y-109220000D01*
X88012037Y-109043373D01*
X88063557Y-108873534D01*
X88147222Y-108717009D01*
X88196285Y-108657226D01*
X88259814Y-108579814D01*
X88366355Y-108492379D01*
X88397009Y-108467222D01*
X88553534Y-108383557D01*
X88723373Y-108332037D01*
X88789557Y-108325519D01*
X88855740Y-108319000D01*
X88944260Y-108319000D01*
X89010443Y-108325519D01*
X89010443Y-108325519D01*
G37*
G36*
X150958000Y-109900000D02*
G01*
X149656000Y-109900000D01*
X149656000Y-109048000D01*
X150958000Y-109048000D01*
X150958000Y-109900000D01*
X150958000Y-109900000D01*
G37*
G36*
X152858000Y-109900000D02*
G01*
X151556000Y-109900000D01*
X151556000Y-109048000D01*
X152858000Y-109048000D01*
X152858000Y-109900000D01*
X152858000Y-109900000D01*
G37*
G36*
X147323000Y-109690000D02*
G01*
X145221000Y-109690000D01*
X145221000Y-107988000D01*
X147323000Y-107988000D01*
X147323000Y-109690000D01*
X147323000Y-109690000D01*
G37*
G36*
X143323000Y-109690000D02*
G01*
X141221000Y-109690000D01*
X141221000Y-107988000D01*
X143323000Y-107988000D01*
X143323000Y-109690000D01*
X143323000Y-109690000D01*
G37*
G36*
X165453564Y-107574389D02*
G01*
X165644833Y-107653615D01*
X165644835Y-107653616D01*
X165816973Y-107768635D01*
X165963365Y-107915027D01*
X166078385Y-108087167D01*
X166157611Y-108278436D01*
X166198000Y-108481484D01*
X166198000Y-108688516D01*
X166157611Y-108891564D01*
X166086161Y-109064059D01*
X166078384Y-109082835D01*
X165963365Y-109254973D01*
X165816973Y-109401365D01*
X165644835Y-109516384D01*
X165644834Y-109516385D01*
X165644833Y-109516385D01*
X165453564Y-109595611D01*
X165250516Y-109636000D01*
X165043484Y-109636000D01*
X164840436Y-109595611D01*
X164649167Y-109516385D01*
X164649166Y-109516385D01*
X164649165Y-109516384D01*
X164477027Y-109401365D01*
X164330635Y-109254973D01*
X164215616Y-109082835D01*
X164207839Y-109064059D01*
X164136389Y-108891564D01*
X164096000Y-108688516D01*
X164096000Y-108481484D01*
X164136389Y-108278436D01*
X164215615Y-108087167D01*
X164330635Y-107915027D01*
X164477027Y-107768635D01*
X164649165Y-107653616D01*
X164649167Y-107653615D01*
X164840436Y-107574389D01*
X165043484Y-107534000D01*
X165250516Y-107534000D01*
X165453564Y-107574389D01*
X165453564Y-107574389D01*
G37*
G36*
X161198000Y-109636000D02*
G01*
X159096000Y-109636000D01*
X159096000Y-107534000D01*
X161198000Y-107534000D01*
X161198000Y-109636000D01*
X161198000Y-109636000D01*
G37*
G36*
X92324500Y-109530500D02*
G01*
X91022500Y-109530500D01*
X91022500Y-108528500D01*
X92324500Y-108528500D01*
X92324500Y-109530500D01*
X92324500Y-109530500D01*
G37*
G36*
X94524500Y-109530500D02*
G01*
X93222500Y-109530500D01*
X93222500Y-108528500D01*
X94524500Y-108528500D01*
X94524500Y-109530500D01*
X94524500Y-109530500D01*
G37*
G36*
X117438999Y-108465737D02*
G01*
X117448608Y-108468652D01*
X117457472Y-108473390D01*
X117465212Y-108479742D01*
X117465213Y-108479743D01*
X117465237Y-108479763D01*
X117471640Y-108487573D01*
X117471678Y-108487630D01*
X117475571Y-108492379D01*
X117549980Y-108603991D01*
X117565505Y-108622949D01*
X117584431Y-108638514D01*
X117606030Y-108650088D01*
X117629471Y-108657226D01*
X117653855Y-108659653D01*
X117678243Y-108657277D01*
X117701700Y-108650188D01*
X117723322Y-108638659D01*
X117742280Y-108623134D01*
X117757845Y-108604208D01*
X117769419Y-108582609D01*
X117776557Y-108559168D01*
X117778984Y-108534784D01*
X117778396Y-108522544D01*
X117777753Y-108515946D01*
X117777753Y-108515941D01*
X117778747Y-108505950D01*
X117781674Y-108496340D01*
X117781674Y-108496339D01*
X117786419Y-108487484D01*
X117792801Y-108479725D01*
X117800573Y-108473360D01*
X117800575Y-108473358D01*
X117809399Y-108468654D01*
X117809438Y-108468633D01*
X117819055Y-108465727D01*
X117819085Y-108465718D01*
X117835113Y-108464148D01*
X119122860Y-108464148D01*
X119138999Y-108465737D01*
X119148608Y-108468652D01*
X119157472Y-108473390D01*
X119165237Y-108479763D01*
X119171610Y-108487528D01*
X119176348Y-108496392D01*
X119179263Y-108506001D01*
X119180852Y-108522140D01*
X119180852Y-109409860D01*
X119179263Y-109425999D01*
X119176348Y-109435608D01*
X119171610Y-109444472D01*
X119165237Y-109452237D01*
X119157472Y-109458610D01*
X119148608Y-109463348D01*
X119138999Y-109466263D01*
X119122860Y-109467852D01*
X117835140Y-109467852D01*
X117819001Y-109466263D01*
X117809392Y-109463348D01*
X117800528Y-109458610D01*
X117792763Y-109452237D01*
X117786390Y-109444472D01*
X117781652Y-109435608D01*
X117778737Y-109425999D01*
X117777752Y-109415996D01*
X117778383Y-109409591D01*
X117778383Y-109385087D01*
X117773602Y-109361054D01*
X117764224Y-109338416D01*
X117750609Y-109318042D01*
X117733282Y-109300715D01*
X117712907Y-109287102D01*
X117690268Y-109277725D01*
X117666234Y-109272946D01*
X117641730Y-109272946D01*
X117617697Y-109277727D01*
X117595059Y-109287105D01*
X117574685Y-109300720D01*
X117557358Y-109318047D01*
X117549980Y-109328006D01*
X117475548Y-109439655D01*
X117471641Y-109444426D01*
X117471640Y-109444427D01*
X117465275Y-109452199D01*
X117457516Y-109458581D01*
X117448661Y-109463326D01*
X117445623Y-109464251D01*
X117439085Y-109466242D01*
X117439082Y-109466242D01*
X117439050Y-109466252D01*
X117429000Y-109467247D01*
X117428935Y-109467247D01*
X117422825Y-109467852D01*
X116335140Y-109467852D01*
X116319001Y-109466263D01*
X116309392Y-109463348D01*
X116300528Y-109458610D01*
X116292763Y-109452237D01*
X116286390Y-109444472D01*
X116281652Y-109435608D01*
X116278737Y-109425999D01*
X116277148Y-109409860D01*
X116277148Y-108947216D01*
X117779016Y-108947216D01*
X117779604Y-108959458D01*
X117780247Y-108966054D01*
X117780247Y-108966059D01*
X117779628Y-108972279D01*
X117779602Y-108996783D01*
X117784358Y-109020821D01*
X117793712Y-109043470D01*
X117807304Y-109063858D01*
X117824613Y-109081203D01*
X117844973Y-109094838D01*
X117867603Y-109104239D01*
X117891631Y-109109044D01*
X117916135Y-109109070D01*
X117940173Y-109104314D01*
X117962822Y-109094960D01*
X117983210Y-109081368D01*
X118000555Y-109064059D01*
X118008017Y-109053997D01*
X118020457Y-109035337D01*
X118031986Y-109013714D01*
X118039075Y-108990258D01*
X118041451Y-108965869D01*
X118039024Y-108941486D01*
X118031886Y-108918044D01*
X118020457Y-108896662D01*
X118008020Y-108878007D01*
X117992494Y-108859049D01*
X117973568Y-108843484D01*
X117951969Y-108831910D01*
X117928528Y-108824773D01*
X117904144Y-108822346D01*
X117879756Y-108824723D01*
X117856299Y-108831812D01*
X117834677Y-108843340D01*
X117815719Y-108858866D01*
X117800154Y-108877792D01*
X117788580Y-108899391D01*
X117781443Y-108922832D01*
X117779016Y-108947216D01*
X116277148Y-108947216D01*
X116277148Y-108522140D01*
X116278737Y-108506001D01*
X116281652Y-108496392D01*
X116286390Y-108487528D01*
X116292763Y-108479763D01*
X116300528Y-108473390D01*
X116309392Y-108468652D01*
X116319001Y-108465737D01*
X116335140Y-108464148D01*
X117422860Y-108464148D01*
X117438999Y-108465737D01*
X117438999Y-108465737D01*
G37*
G36*
X139028999Y-108338737D02*
G01*
X139038608Y-108341652D01*
X139047472Y-108346390D01*
X139055212Y-108352742D01*
X139055213Y-108352743D01*
X139055237Y-108352763D01*
X139061640Y-108360573D01*
X139061678Y-108360630D01*
X139065571Y-108365379D01*
X139139980Y-108476991D01*
X139155505Y-108495949D01*
X139174431Y-108511514D01*
X139196030Y-108523088D01*
X139219471Y-108530226D01*
X139243855Y-108532653D01*
X139268243Y-108530277D01*
X139291700Y-108523188D01*
X139313322Y-108511659D01*
X139332280Y-108496134D01*
X139347845Y-108477208D01*
X139359419Y-108455609D01*
X139366557Y-108432168D01*
X139368984Y-108407784D01*
X139368396Y-108395544D01*
X139367753Y-108388946D01*
X139368289Y-108383557D01*
X139368747Y-108378950D01*
X139371674Y-108369340D01*
X139371674Y-108369339D01*
X139376419Y-108360484D01*
X139382801Y-108352725D01*
X139390573Y-108346360D01*
X139390575Y-108346358D01*
X139399399Y-108341654D01*
X139399438Y-108341633D01*
X139409055Y-108338727D01*
X139409085Y-108338718D01*
X139425113Y-108337148D01*
X140712860Y-108337148D01*
X140728999Y-108338737D01*
X140738608Y-108341652D01*
X140747472Y-108346390D01*
X140755237Y-108352763D01*
X140761610Y-108360528D01*
X140766348Y-108369392D01*
X140769263Y-108379001D01*
X140770852Y-108395140D01*
X140770852Y-109282860D01*
X140769263Y-109298999D01*
X140766348Y-109308608D01*
X140761610Y-109317472D01*
X140755237Y-109325237D01*
X140747472Y-109331610D01*
X140738608Y-109336348D01*
X140728999Y-109339263D01*
X140712860Y-109340852D01*
X139425140Y-109340852D01*
X139409001Y-109339263D01*
X139399392Y-109336348D01*
X139390528Y-109331610D01*
X139382763Y-109325237D01*
X139376390Y-109317472D01*
X139371652Y-109308608D01*
X139368737Y-109298999D01*
X139367752Y-109288996D01*
X139368383Y-109282591D01*
X139368383Y-109258087D01*
X139363602Y-109234054D01*
X139354224Y-109211416D01*
X139340609Y-109191042D01*
X139323282Y-109173715D01*
X139302907Y-109160102D01*
X139280268Y-109150725D01*
X139256234Y-109145946D01*
X139231730Y-109145946D01*
X139207697Y-109150727D01*
X139185059Y-109160105D01*
X139164685Y-109173720D01*
X139147358Y-109191047D01*
X139139980Y-109201006D01*
X139065548Y-109312655D01*
X139061641Y-109317426D01*
X139061640Y-109317427D01*
X139055275Y-109325199D01*
X139047516Y-109331581D01*
X139038661Y-109336326D01*
X139035623Y-109337251D01*
X139029085Y-109339242D01*
X139029082Y-109339242D01*
X139029050Y-109339252D01*
X139019000Y-109340247D01*
X139018935Y-109340247D01*
X139012825Y-109340852D01*
X137925140Y-109340852D01*
X137909001Y-109339263D01*
X137899392Y-109336348D01*
X137890528Y-109331610D01*
X137882763Y-109325237D01*
X137876390Y-109317472D01*
X137871652Y-109308608D01*
X137868737Y-109298999D01*
X137867148Y-109282860D01*
X137867148Y-108820216D01*
X139369016Y-108820216D01*
X139369604Y-108832458D01*
X139370247Y-108839054D01*
X139370247Y-108839059D01*
X139369628Y-108845279D01*
X139369602Y-108869783D01*
X139374358Y-108893821D01*
X139383712Y-108916470D01*
X139397304Y-108936858D01*
X139414613Y-108954203D01*
X139434973Y-108967838D01*
X139457603Y-108977239D01*
X139481631Y-108982044D01*
X139506135Y-108982070D01*
X139530173Y-108977314D01*
X139552822Y-108967960D01*
X139573210Y-108954368D01*
X139590555Y-108937059D01*
X139598017Y-108926997D01*
X139610457Y-108908337D01*
X139621986Y-108886714D01*
X139629075Y-108863258D01*
X139631451Y-108838869D01*
X139629024Y-108814486D01*
X139621886Y-108791044D01*
X139610457Y-108769662D01*
X139598020Y-108751007D01*
X139582494Y-108732049D01*
X139563568Y-108716484D01*
X139541969Y-108704910D01*
X139518528Y-108697773D01*
X139494144Y-108695346D01*
X139469756Y-108697723D01*
X139446299Y-108704812D01*
X139424677Y-108716340D01*
X139405719Y-108731866D01*
X139390154Y-108750792D01*
X139378580Y-108772391D01*
X139371443Y-108795832D01*
X139369016Y-108820216D01*
X137867148Y-108820216D01*
X137867148Y-108395140D01*
X137868737Y-108379001D01*
X137871652Y-108369392D01*
X137876390Y-108360528D01*
X137882763Y-108352763D01*
X137890528Y-108346390D01*
X137899392Y-108341652D01*
X137909001Y-108338737D01*
X137925140Y-108337148D01*
X139012860Y-108337148D01*
X139028999Y-108338737D01*
X139028999Y-108338737D01*
G37*
G36*
X154298000Y-109152000D02*
G01*
X153296000Y-109152000D01*
X153296000Y-107850000D01*
X154298000Y-107850000D01*
X154298000Y-109152000D01*
X154298000Y-109152000D01*
G37*
G36*
X133997000Y-108851000D02*
G01*
X132195000Y-108851000D01*
X132195000Y-107049000D01*
X133997000Y-107049000D01*
X133997000Y-108851000D01*
X133997000Y-108851000D01*
G37*
G36*
X130666442Y-107055518D02*
G01*
X130732627Y-107062037D01*
X130902466Y-107113557D01*
X130902468Y-107113558D01*
X130980728Y-107155389D01*
X131058991Y-107197222D01*
X131094729Y-107226552D01*
X131196186Y-107309814D01*
X131279448Y-107411271D01*
X131308778Y-107447009D01*
X131392443Y-107603534D01*
X131443963Y-107773373D01*
X131461359Y-107950000D01*
X131443963Y-108126627D01*
X131397912Y-108278436D01*
X131392442Y-108296468D01*
X131369859Y-108338718D01*
X131308778Y-108452991D01*
X131280470Y-108487484D01*
X131196186Y-108590186D01*
X131123072Y-108650188D01*
X131058991Y-108702778D01*
X130902466Y-108786443D01*
X130732627Y-108837963D01*
X130676570Y-108843484D01*
X130600260Y-108851000D01*
X130511740Y-108851000D01*
X130435430Y-108843484D01*
X130379373Y-108837963D01*
X130209534Y-108786443D01*
X130053009Y-108702778D01*
X129988928Y-108650188D01*
X129915814Y-108590186D01*
X129831530Y-108487484D01*
X129803222Y-108452991D01*
X129742141Y-108338718D01*
X129719558Y-108296468D01*
X129714088Y-108278436D01*
X129668037Y-108126627D01*
X129650641Y-107950000D01*
X129668037Y-107773373D01*
X129719557Y-107603534D01*
X129803222Y-107447009D01*
X129832552Y-107411271D01*
X129915814Y-107309814D01*
X130017271Y-107226552D01*
X130053009Y-107197222D01*
X130131271Y-107155390D01*
X130209532Y-107113558D01*
X130209534Y-107113557D01*
X130379373Y-107062037D01*
X130445558Y-107055518D01*
X130511740Y-107049000D01*
X130600260Y-107049000D01*
X130666442Y-107055518D01*
X130666442Y-107055518D01*
G37*
G36*
X170290442Y-107055518D02*
G01*
X170356627Y-107062037D01*
X170526466Y-107113557D01*
X170526468Y-107113558D01*
X170604728Y-107155389D01*
X170682991Y-107197222D01*
X170718729Y-107226552D01*
X170820186Y-107309814D01*
X170903448Y-107411271D01*
X170932778Y-107447009D01*
X171016443Y-107603534D01*
X171067963Y-107773373D01*
X171085359Y-107950000D01*
X171067963Y-108126627D01*
X171021912Y-108278436D01*
X171016442Y-108296468D01*
X170993859Y-108338718D01*
X170932778Y-108452991D01*
X170904470Y-108487484D01*
X170820186Y-108590186D01*
X170747072Y-108650188D01*
X170682991Y-108702778D01*
X170526466Y-108786443D01*
X170356627Y-108837963D01*
X170300570Y-108843484D01*
X170224260Y-108851000D01*
X170135740Y-108851000D01*
X170059430Y-108843484D01*
X170003373Y-108837963D01*
X169833534Y-108786443D01*
X169677009Y-108702778D01*
X169612928Y-108650188D01*
X169539814Y-108590186D01*
X169455530Y-108487484D01*
X169427222Y-108452991D01*
X169366141Y-108338718D01*
X169343558Y-108296468D01*
X169338088Y-108278436D01*
X169292037Y-108126627D01*
X169274641Y-107950000D01*
X169292037Y-107773373D01*
X169343557Y-107603534D01*
X169427222Y-107447009D01*
X169456552Y-107411271D01*
X169539814Y-107309814D01*
X169641271Y-107226552D01*
X169677009Y-107197222D01*
X169755271Y-107155390D01*
X169833532Y-107113558D01*
X169833534Y-107113557D01*
X170003373Y-107062037D01*
X170069558Y-107055518D01*
X170135740Y-107049000D01*
X170224260Y-107049000D01*
X170290442Y-107055518D01*
X170290442Y-107055518D01*
G37*
G36*
X151357000Y-108578000D02*
G01*
X150055000Y-108578000D01*
X150055000Y-107576000D01*
X151357000Y-107576000D01*
X151357000Y-108578000D01*
X151357000Y-108578000D01*
G37*
G36*
X149157000Y-108578000D02*
G01*
X147855000Y-108578000D01*
X147855000Y-107576000D01*
X149157000Y-107576000D01*
X149157000Y-108578000D01*
X149157000Y-108578000D01*
G37*
G36*
X123544000Y-108197000D02*
G01*
X122242000Y-108197000D01*
X122242000Y-107195000D01*
X123544000Y-107195000D01*
X123544000Y-108197000D01*
X123544000Y-108197000D01*
G37*
G36*
X121344000Y-108197000D02*
G01*
X120042000Y-108197000D01*
X120042000Y-107195000D01*
X121344000Y-107195000D01*
X121344000Y-108197000D01*
X121344000Y-108197000D01*
G37*
G36*
X126993000Y-108050000D02*
G01*
X125991000Y-108050000D01*
X125991000Y-106748000D01*
X126993000Y-106748000D01*
X126993000Y-108050000D01*
X126993000Y-108050000D01*
G37*
G36*
X125469000Y-108050000D02*
G01*
X124467000Y-108050000D01*
X124467000Y-106748000D01*
X125469000Y-106748000D01*
X125469000Y-108050000D01*
X125469000Y-108050000D01*
G37*
G36*
X128315000Y-107900000D02*
G01*
X127463000Y-107900000D01*
X127463000Y-106598000D01*
X128315000Y-106598000D01*
X128315000Y-107900000D01*
X128315000Y-107900000D01*
G37*
G36*
X119548000Y-107588000D02*
G01*
X118196000Y-107588000D01*
X118196000Y-105986000D01*
X119548000Y-105986000D01*
X119548000Y-107588000D01*
X119548000Y-107588000D01*
G37*
G36*
X144475400Y-107429500D02*
G01*
X140766600Y-107429500D01*
X140766600Y-105524100D01*
X144475400Y-105524100D01*
X144475400Y-107429500D01*
X144475400Y-107429500D01*
G37*
G36*
X151233499Y-107116000D02*
G01*
X148740501Y-107116000D01*
X148740501Y-105564000D01*
X151233499Y-105564000D01*
X151233499Y-107116000D01*
X151233499Y-107116000D01*
G37*
G36*
X154745000Y-106800000D02*
G01*
X153443000Y-106800000D01*
X153443000Y-105798000D01*
X154745000Y-105798000D01*
X154745000Y-106800000D01*
X154745000Y-106800000D01*
G37*
G36*
X156945000Y-106800000D02*
G01*
X155643000Y-106800000D01*
X155643000Y-105798000D01*
X156945000Y-105798000D01*
X156945000Y-106800000D01*
X156945000Y-106800000D01*
G37*
G36*
X121102515Y-103977836D02*
G01*
X121114066Y-103999447D01*
X121129611Y-104018389D01*
X121148553Y-104033934D01*
X121170164Y-104045485D01*
X121193613Y-104052598D01*
X121217999Y-104055000D01*
X122876001Y-104055000D01*
X122900387Y-104052598D01*
X122923836Y-104045485D01*
X122945447Y-104033934D01*
X122964389Y-104018389D01*
X122979934Y-103999447D01*
X122991485Y-103977836D01*
X122993862Y-103970000D01*
X123963000Y-103970000D01*
X123963000Y-104442000D01*
X123022999Y-104442000D01*
X122998613Y-104444402D01*
X122975164Y-104451515D01*
X122953553Y-104463066D01*
X122934611Y-104478611D01*
X122919066Y-104497553D01*
X122907515Y-104519164D01*
X122900402Y-104542613D01*
X122898000Y-104566999D01*
X122898000Y-104795001D01*
X122900402Y-104819387D01*
X122907515Y-104842836D01*
X122919066Y-104864447D01*
X122934611Y-104883389D01*
X122953553Y-104898934D01*
X122975164Y-104910485D01*
X122998613Y-104917598D01*
X123022999Y-104920000D01*
X123963000Y-104920000D01*
X123963000Y-105392000D01*
X123022999Y-105392000D01*
X122998613Y-105394402D01*
X122975164Y-105401515D01*
X122953553Y-105413066D01*
X122934611Y-105428611D01*
X122919066Y-105447553D01*
X122907515Y-105469164D01*
X122900402Y-105492613D01*
X122898000Y-105516999D01*
X122898000Y-105745001D01*
X122900402Y-105769387D01*
X122907515Y-105792836D01*
X122919066Y-105814447D01*
X122934611Y-105833389D01*
X122953553Y-105848934D01*
X122975164Y-105860485D01*
X122998613Y-105867598D01*
X123022999Y-105870000D01*
X123963000Y-105870000D01*
X123963000Y-106342000D01*
X122993862Y-106342000D01*
X122991485Y-106334164D01*
X122979934Y-106312553D01*
X122964389Y-106293611D01*
X122945447Y-106278066D01*
X122923836Y-106266515D01*
X122900387Y-106259402D01*
X122876001Y-106257000D01*
X121217999Y-106257000D01*
X121193613Y-106259402D01*
X121170164Y-106266515D01*
X121148553Y-106278066D01*
X121129611Y-106293611D01*
X121114066Y-106312553D01*
X121102515Y-106334164D01*
X121100138Y-106342000D01*
X120131000Y-106342000D01*
X120131000Y-105870000D01*
X121071001Y-105870000D01*
X121095387Y-105867598D01*
X121118836Y-105860485D01*
X121140447Y-105848934D01*
X121159389Y-105833389D01*
X121174934Y-105814447D01*
X121186485Y-105792836D01*
X121193598Y-105769387D01*
X121196000Y-105745001D01*
X121196000Y-105516999D01*
X121193598Y-105492613D01*
X121186485Y-105469164D01*
X121174934Y-105447553D01*
X121159389Y-105428611D01*
X121140447Y-105413066D01*
X121118836Y-105401515D01*
X121095387Y-105394402D01*
X121071001Y-105392000D01*
X120131000Y-105392000D01*
X120131000Y-104920000D01*
X121071001Y-104920000D01*
X121095387Y-104917598D01*
X121118836Y-104910485D01*
X121140447Y-104898934D01*
X121159389Y-104883389D01*
X121174934Y-104864447D01*
X121186485Y-104842836D01*
X121193598Y-104819387D01*
X121196000Y-104795001D01*
X121196000Y-104566999D01*
X121193598Y-104542613D01*
X121186485Y-104519164D01*
X121174934Y-104497553D01*
X121159389Y-104478611D01*
X121140447Y-104463066D01*
X121118836Y-104451515D01*
X121095387Y-104444402D01*
X121071001Y-104442000D01*
X120131000Y-104442000D01*
X120131000Y-103970000D01*
X121100138Y-103970000D01*
X121102515Y-103977836D01*
X121102515Y-103977836D01*
G37*
G36*
X128315000Y-106000000D02*
G01*
X127463000Y-106000000D01*
X127463000Y-104698000D01*
X128315000Y-104698000D01*
X128315000Y-106000000D01*
X128315000Y-106000000D01*
G37*
G36*
X126993000Y-105850000D02*
G01*
X125991000Y-105850000D01*
X125991000Y-104548000D01*
X126993000Y-104548000D01*
X126993000Y-105850000D01*
X126993000Y-105850000D01*
G37*
G36*
X125469000Y-105850000D02*
G01*
X124467000Y-105850000D01*
X124467000Y-104548000D01*
X125469000Y-104548000D01*
X125469000Y-105850000D01*
X125469000Y-105850000D01*
G37*
G36*
X119548000Y-105088000D02*
G01*
X118196000Y-105088000D01*
X118196000Y-103486000D01*
X119548000Y-103486000D01*
X119548000Y-105088000D01*
X119548000Y-105088000D01*
G37*
G36*
X133058000Y-105032000D02*
G01*
X131356000Y-105032000D01*
X131356000Y-102930000D01*
X133058000Y-102930000D01*
X133058000Y-105032000D01*
X133058000Y-105032000D01*
G37*
G36*
X130899000Y-105032000D02*
G01*
X129197000Y-105032000D01*
X129197000Y-102930000D01*
X130899000Y-102930000D01*
X130899000Y-105032000D01*
X130899000Y-105032000D01*
G37*
G36*
X101881000Y-104671000D02*
G01*
X100779000Y-104671000D01*
X100779000Y-101069000D01*
X101881000Y-101069000D01*
X101881000Y-104671000D01*
X101881000Y-104671000D01*
G37*
G36*
X99881000Y-104671000D02*
G01*
X98779000Y-104671000D01*
X98779000Y-101069000D01*
X99881000Y-101069000D01*
X99881000Y-104671000D01*
X99881000Y-104671000D01*
G37*
G36*
X115914999Y-103639737D02*
G01*
X115924608Y-103642652D01*
X115933472Y-103647390D01*
X115941212Y-103653742D01*
X115941213Y-103653743D01*
X115941237Y-103653763D01*
X115947640Y-103661573D01*
X115947678Y-103661630D01*
X115951571Y-103666379D01*
X116025980Y-103777991D01*
X116041505Y-103796949D01*
X116060431Y-103812514D01*
X116082030Y-103824088D01*
X116105471Y-103831226D01*
X116129855Y-103833653D01*
X116154243Y-103831277D01*
X116177700Y-103824188D01*
X116199322Y-103812659D01*
X116218280Y-103797134D01*
X116233845Y-103778208D01*
X116245419Y-103756609D01*
X116252557Y-103733168D01*
X116254984Y-103708784D01*
X116254396Y-103696544D01*
X116253753Y-103689946D01*
X116253753Y-103689941D01*
X116254747Y-103679950D01*
X116257674Y-103670340D01*
X116257674Y-103670339D01*
X116262419Y-103661484D01*
X116268801Y-103653725D01*
X116276573Y-103647360D01*
X116276575Y-103647358D01*
X116285399Y-103642654D01*
X116285438Y-103642633D01*
X116295055Y-103639727D01*
X116295085Y-103639718D01*
X116311113Y-103638148D01*
X117598860Y-103638148D01*
X117614999Y-103639737D01*
X117624608Y-103642652D01*
X117633472Y-103647390D01*
X117641237Y-103653763D01*
X117647610Y-103661528D01*
X117652348Y-103670392D01*
X117655263Y-103680001D01*
X117656852Y-103696140D01*
X117656852Y-104583860D01*
X117655263Y-104599999D01*
X117652348Y-104609608D01*
X117647610Y-104618472D01*
X117641237Y-104626237D01*
X117633472Y-104632610D01*
X117624608Y-104637348D01*
X117614999Y-104640263D01*
X117598860Y-104641852D01*
X116311140Y-104641852D01*
X116295001Y-104640263D01*
X116285392Y-104637348D01*
X116276528Y-104632610D01*
X116268763Y-104626237D01*
X116262390Y-104618472D01*
X116257652Y-104609608D01*
X116254737Y-104599999D01*
X116253752Y-104589996D01*
X116254383Y-104583591D01*
X116254383Y-104559087D01*
X116249602Y-104535054D01*
X116240224Y-104512416D01*
X116226609Y-104492042D01*
X116209282Y-104474715D01*
X116188907Y-104461102D01*
X116166268Y-104451725D01*
X116142234Y-104446946D01*
X116117730Y-104446946D01*
X116093697Y-104451727D01*
X116071059Y-104461105D01*
X116050685Y-104474720D01*
X116033358Y-104492047D01*
X116025980Y-104502006D01*
X115951548Y-104613655D01*
X115947641Y-104618426D01*
X115947640Y-104618427D01*
X115941275Y-104626199D01*
X115933516Y-104632581D01*
X115924661Y-104637326D01*
X115921623Y-104638251D01*
X115915085Y-104640242D01*
X115915082Y-104640242D01*
X115915050Y-104640252D01*
X115905000Y-104641247D01*
X115904935Y-104641247D01*
X115898825Y-104641852D01*
X114811140Y-104641852D01*
X114795001Y-104640263D01*
X114785392Y-104637348D01*
X114776528Y-104632610D01*
X114768763Y-104626237D01*
X114762390Y-104618472D01*
X114757652Y-104609608D01*
X114754737Y-104599999D01*
X114753148Y-104583860D01*
X114753148Y-104121216D01*
X116255016Y-104121216D01*
X116255604Y-104133458D01*
X116256247Y-104140054D01*
X116256247Y-104140059D01*
X116255628Y-104146279D01*
X116255602Y-104170783D01*
X116260358Y-104194821D01*
X116269712Y-104217470D01*
X116283304Y-104237858D01*
X116300613Y-104255203D01*
X116320973Y-104268838D01*
X116343603Y-104278239D01*
X116367631Y-104283044D01*
X116392135Y-104283070D01*
X116416173Y-104278314D01*
X116438822Y-104268960D01*
X116459210Y-104255368D01*
X116476555Y-104238059D01*
X116484017Y-104227997D01*
X116496457Y-104209337D01*
X116507986Y-104187714D01*
X116515075Y-104164258D01*
X116517451Y-104139869D01*
X116515024Y-104115486D01*
X116507886Y-104092044D01*
X116496457Y-104070662D01*
X116484020Y-104052007D01*
X116468494Y-104033049D01*
X116449568Y-104017484D01*
X116427969Y-104005910D01*
X116404528Y-103998773D01*
X116380144Y-103996346D01*
X116355756Y-103998723D01*
X116332299Y-104005812D01*
X116310677Y-104017340D01*
X116291719Y-104032866D01*
X116276154Y-104051792D01*
X116264580Y-104073391D01*
X116257443Y-104096832D01*
X116255016Y-104121216D01*
X114753148Y-104121216D01*
X114753148Y-103696140D01*
X114754737Y-103680001D01*
X114757652Y-103670392D01*
X114762390Y-103661528D01*
X114768763Y-103653763D01*
X114776528Y-103647390D01*
X114785392Y-103642652D01*
X114795001Y-103639737D01*
X114811140Y-103638148D01*
X115898860Y-103638148D01*
X115914999Y-103639737D01*
X115914999Y-103639737D01*
G37*
G36*
X157092000Y-104621000D02*
G01*
X156090000Y-104621000D01*
X156090000Y-103319000D01*
X157092000Y-103319000D01*
X157092000Y-104621000D01*
X157092000Y-104621000D01*
G37*
G36*
X155271000Y-104566000D02*
G01*
X153969000Y-104566000D01*
X153969000Y-103714000D01*
X155271000Y-103714000D01*
X155271000Y-104566000D01*
X155271000Y-104566000D01*
G37*
G36*
X153371000Y-104566000D02*
G01*
X152069000Y-104566000D01*
X152069000Y-103714000D01*
X153371000Y-103714000D01*
X153371000Y-104566000D01*
X153371000Y-104566000D01*
G37*
G36*
X92621632Y-96434677D02*
G01*
X92857797Y-96532500D01*
X93358868Y-96740050D01*
X94022362Y-97183383D01*
X94586617Y-97747638D01*
X95029950Y-98411132D01*
X95129994Y-98652660D01*
X95335323Y-99148368D01*
X95491000Y-99931010D01*
X95491000Y-100728990D01*
X95335323Y-101511632D01*
X95293749Y-101612000D01*
X95029950Y-102248868D01*
X94586617Y-102912362D01*
X94022362Y-103476617D01*
X93358868Y-103919950D01*
X92954503Y-104087443D01*
X92621632Y-104225323D01*
X91838990Y-104381000D01*
X91041010Y-104381000D01*
X90258368Y-104225323D01*
X89925497Y-104087443D01*
X89521132Y-103919950D01*
X88857638Y-103476617D01*
X88293383Y-102912362D01*
X87850050Y-102248868D01*
X87586251Y-101612000D01*
X87544677Y-101511632D01*
X87389000Y-100728990D01*
X87389000Y-99931010D01*
X87544677Y-99148368D01*
X87750006Y-98652660D01*
X87850050Y-98411132D01*
X88293383Y-97747638D01*
X88857638Y-97183383D01*
X89521132Y-96740050D01*
X90022203Y-96532500D01*
X90258368Y-96434677D01*
X91041010Y-96279000D01*
X91838990Y-96279000D01*
X92621632Y-96434677D01*
X92621632Y-96434677D01*
G37*
G36*
X110401632Y-96434677D02*
G01*
X110637797Y-96532500D01*
X111138868Y-96740050D01*
X111802362Y-97183383D01*
X112366617Y-97747638D01*
X112809950Y-98411132D01*
X112909994Y-98652660D01*
X113115323Y-99148368D01*
X113271000Y-99931010D01*
X113271000Y-100728990D01*
X113115323Y-101511632D01*
X113073749Y-101612000D01*
X112809950Y-102248868D01*
X112366617Y-102912362D01*
X111802362Y-103476617D01*
X111138868Y-103919950D01*
X110734503Y-104087443D01*
X110401632Y-104225323D01*
X109618990Y-104381000D01*
X108821010Y-104381000D01*
X108038368Y-104225323D01*
X107705497Y-104087443D01*
X107301132Y-103919950D01*
X106637638Y-103476617D01*
X106073383Y-102912362D01*
X105630050Y-102248868D01*
X105366251Y-101612000D01*
X105324677Y-101511632D01*
X105169000Y-100728990D01*
X105169000Y-99931010D01*
X105324677Y-99148368D01*
X105530006Y-98652660D01*
X105630050Y-98411132D01*
X106073383Y-97747638D01*
X106637638Y-97183383D01*
X107301132Y-96740050D01*
X107802203Y-96532500D01*
X108038368Y-96434677D01*
X108821010Y-96279000D01*
X109618990Y-96279000D01*
X110401632Y-96434677D01*
X110401632Y-96434677D01*
G37*
G36*
X168821632Y-96434677D02*
G01*
X169057797Y-96532500D01*
X169558868Y-96740050D01*
X170222362Y-97183383D01*
X170786617Y-97747638D01*
X171229950Y-98411132D01*
X171329994Y-98652660D01*
X171535323Y-99148368D01*
X171691000Y-99931010D01*
X171691000Y-100728990D01*
X171535323Y-101511632D01*
X171493749Y-101612000D01*
X171229950Y-102248868D01*
X170786617Y-102912362D01*
X170222362Y-103476617D01*
X169558868Y-103919950D01*
X169154503Y-104087443D01*
X168821632Y-104225323D01*
X168038990Y-104381000D01*
X167241010Y-104381000D01*
X166458368Y-104225323D01*
X166125497Y-104087443D01*
X165721132Y-103919950D01*
X165057638Y-103476617D01*
X164493383Y-102912362D01*
X164050050Y-102248868D01*
X163786251Y-101612000D01*
X163744677Y-101511632D01*
X163589000Y-100728990D01*
X163589000Y-99931010D01*
X163744677Y-99148368D01*
X163950006Y-98652660D01*
X164050050Y-98411132D01*
X164493383Y-97747638D01*
X165057638Y-97183383D01*
X165721132Y-96740050D01*
X166222203Y-96532500D01*
X166458368Y-96434677D01*
X167241010Y-96279000D01*
X168038990Y-96279000D01*
X168821632Y-96434677D01*
X168821632Y-96434677D01*
G37*
G36*
X135238442Y-102356518D02*
G01*
X135304627Y-102363037D01*
X135474466Y-102414557D01*
X135630991Y-102498222D01*
X135666729Y-102527552D01*
X135768186Y-102610814D01*
X135851448Y-102712271D01*
X135880778Y-102748009D01*
X135964443Y-102904534D01*
X136015963Y-103074373D01*
X136033359Y-103251000D01*
X136015963Y-103427627D01*
X135967062Y-103588832D01*
X135964442Y-103597468D01*
X135941859Y-103639718D01*
X135880778Y-103753991D01*
X135860903Y-103778208D01*
X135768186Y-103891186D01*
X135692736Y-103953105D01*
X135630991Y-104003778D01*
X135474466Y-104087443D01*
X135304627Y-104138963D01*
X135238443Y-104145481D01*
X135172260Y-104152000D01*
X135083740Y-104152000D01*
X135017558Y-104145482D01*
X134951373Y-104138963D01*
X134781534Y-104087443D01*
X134625009Y-104003778D01*
X134563264Y-103953105D01*
X134487814Y-103891186D01*
X134395097Y-103778208D01*
X134375222Y-103753991D01*
X134314141Y-103639718D01*
X134291558Y-103597468D01*
X134288938Y-103588832D01*
X134240037Y-103427627D01*
X134222641Y-103251000D01*
X134240037Y-103074373D01*
X134291557Y-102904534D01*
X134375222Y-102748009D01*
X134404552Y-102712271D01*
X134487814Y-102610814D01*
X134589271Y-102527552D01*
X134625009Y-102498222D01*
X134781534Y-102414557D01*
X134951373Y-102363037D01*
X135017557Y-102356519D01*
X135083740Y-102350000D01*
X135172260Y-102350000D01*
X135238442Y-102356518D01*
X135238442Y-102356518D01*
G37*
G36*
X126963999Y-103131737D02*
G01*
X126973608Y-103134652D01*
X126982472Y-103139390D01*
X126990212Y-103145742D01*
X126990213Y-103145743D01*
X126990237Y-103145763D01*
X126996640Y-103153573D01*
X126996678Y-103153630D01*
X127000571Y-103158379D01*
X127074980Y-103269991D01*
X127090505Y-103288949D01*
X127109431Y-103304514D01*
X127131030Y-103316088D01*
X127154471Y-103323226D01*
X127178855Y-103325653D01*
X127203243Y-103323277D01*
X127226700Y-103316188D01*
X127248322Y-103304659D01*
X127267280Y-103289134D01*
X127282845Y-103270208D01*
X127294419Y-103248609D01*
X127301557Y-103225168D01*
X127303984Y-103200784D01*
X127303396Y-103188544D01*
X127302753Y-103181946D01*
X127302753Y-103181941D01*
X127303747Y-103171950D01*
X127306674Y-103162340D01*
X127306674Y-103162339D01*
X127311419Y-103153484D01*
X127317801Y-103145725D01*
X127325573Y-103139360D01*
X127325575Y-103139358D01*
X127334399Y-103134654D01*
X127334438Y-103134633D01*
X127344055Y-103131727D01*
X127344085Y-103131718D01*
X127360113Y-103130148D01*
X128647860Y-103130148D01*
X128663999Y-103131737D01*
X128673608Y-103134652D01*
X128682472Y-103139390D01*
X128690237Y-103145763D01*
X128696610Y-103153528D01*
X128701348Y-103162392D01*
X128704263Y-103172001D01*
X128705852Y-103188140D01*
X128705852Y-104075860D01*
X128704263Y-104091999D01*
X128701348Y-104101608D01*
X128696610Y-104110472D01*
X128690237Y-104118237D01*
X128682472Y-104124610D01*
X128673608Y-104129348D01*
X128663999Y-104132263D01*
X128647860Y-104133852D01*
X127360140Y-104133852D01*
X127344001Y-104132263D01*
X127334392Y-104129348D01*
X127325528Y-104124610D01*
X127317763Y-104118237D01*
X127311390Y-104110472D01*
X127306652Y-104101608D01*
X127303737Y-104091999D01*
X127302752Y-104081996D01*
X127303383Y-104075591D01*
X127303383Y-104051087D01*
X127298602Y-104027054D01*
X127289224Y-104004416D01*
X127275609Y-103984042D01*
X127258282Y-103966715D01*
X127237907Y-103953102D01*
X127215268Y-103943725D01*
X127191234Y-103938946D01*
X127166730Y-103938946D01*
X127142697Y-103943727D01*
X127120059Y-103953105D01*
X127099685Y-103966720D01*
X127082358Y-103984047D01*
X127074980Y-103994006D01*
X127000548Y-104105655D01*
X126996641Y-104110426D01*
X126996640Y-104110427D01*
X126990275Y-104118199D01*
X126982516Y-104124581D01*
X126973661Y-104129326D01*
X126971266Y-104130055D01*
X126964085Y-104132242D01*
X126964082Y-104132242D01*
X126964050Y-104132252D01*
X126954000Y-104133247D01*
X126953935Y-104133247D01*
X126947825Y-104133852D01*
X125860140Y-104133852D01*
X125844001Y-104132263D01*
X125834392Y-104129348D01*
X125825528Y-104124610D01*
X125817763Y-104118237D01*
X125811390Y-104110472D01*
X125806652Y-104101608D01*
X125803737Y-104091999D01*
X125802148Y-104075860D01*
X125802148Y-103613216D01*
X127304016Y-103613216D01*
X127304604Y-103625458D01*
X127305247Y-103632054D01*
X127305247Y-103632059D01*
X127304628Y-103638279D01*
X127304602Y-103662783D01*
X127309358Y-103686821D01*
X127318712Y-103709470D01*
X127332304Y-103729858D01*
X127349613Y-103747203D01*
X127369973Y-103760838D01*
X127392603Y-103770239D01*
X127416631Y-103775044D01*
X127441135Y-103775070D01*
X127465173Y-103770314D01*
X127487822Y-103760960D01*
X127508210Y-103747368D01*
X127525555Y-103730059D01*
X127533017Y-103719997D01*
X127545457Y-103701337D01*
X127556986Y-103679714D01*
X127564075Y-103656258D01*
X127566451Y-103631869D01*
X127564024Y-103607486D01*
X127556886Y-103584044D01*
X127545457Y-103562662D01*
X127533020Y-103544007D01*
X127517494Y-103525049D01*
X127498568Y-103509484D01*
X127476969Y-103497910D01*
X127453528Y-103490773D01*
X127429144Y-103488346D01*
X127404756Y-103490723D01*
X127381299Y-103497812D01*
X127359677Y-103509340D01*
X127340719Y-103524866D01*
X127325154Y-103543792D01*
X127313580Y-103565391D01*
X127306443Y-103588832D01*
X127304016Y-103613216D01*
X125802148Y-103613216D01*
X125802148Y-103188140D01*
X125803737Y-103172001D01*
X125806652Y-103162392D01*
X125811390Y-103153528D01*
X125817763Y-103145763D01*
X125825528Y-103139390D01*
X125834392Y-103134652D01*
X125844001Y-103131737D01*
X125860140Y-103130148D01*
X126947860Y-103130148D01*
X126963999Y-103131737D01*
X126963999Y-103131737D01*
G37*
G36*
X153028000Y-103224000D02*
G01*
X152026000Y-103224000D01*
X152026000Y-101922000D01*
X153028000Y-101922000D01*
X153028000Y-103224000D01*
X153028000Y-103224000D01*
G37*
G36*
X154552000Y-103224000D02*
G01*
X153550000Y-103224000D01*
X153550000Y-101922000D01*
X154552000Y-101922000D01*
X154552000Y-103224000D01*
X154552000Y-103224000D01*
G37*
G36*
X151233499Y-102716000D02*
G01*
X148740501Y-102716000D01*
X148740501Y-101164000D01*
X151233499Y-101164000D01*
X151233499Y-102716000D01*
X151233499Y-102716000D01*
G37*
G36*
X128067000Y-102663000D02*
G01*
X125425000Y-102663000D01*
X125425000Y-99791000D01*
X128067000Y-99791000D01*
X128067000Y-102663000D01*
X128067000Y-102663000D01*
G37*
G36*
X125140000Y-102596000D02*
G01*
X123038000Y-102596000D01*
X123038000Y-96794000D01*
X125140000Y-96794000D01*
X125140000Y-102596000D01*
X125140000Y-102596000D01*
G37*
G36*
X120040000Y-102596000D02*
G01*
X117938000Y-102596000D01*
X117938000Y-96794000D01*
X120040000Y-96794000D01*
X120040000Y-102596000D01*
X120040000Y-102596000D01*
G37*
G36*
X157092000Y-102421000D02*
G01*
X156090000Y-102421000D01*
X156090000Y-101119000D01*
X157092000Y-101119000D01*
X157092000Y-102421000D01*
X157092000Y-102421000D01*
G37*
G36*
X136029000Y-101612000D02*
G01*
X134227000Y-101612000D01*
X134227000Y-99810000D01*
X136029000Y-99810000D01*
X136029000Y-101612000D01*
X136029000Y-101612000D01*
G37*
G36*
X133058000Y-101032000D02*
G01*
X131356000Y-101032000D01*
X131356000Y-98930000D01*
X133058000Y-98930000D01*
X133058000Y-101032000D01*
X133058000Y-101032000D01*
G37*
G36*
X130899000Y-101032000D02*
G01*
X129197000Y-101032000D01*
X129197000Y-98930000D01*
X130899000Y-98930000D01*
X130899000Y-101032000D01*
X130899000Y-101032000D01*
G37*
G36*
X153028000Y-101024000D02*
G01*
X152026000Y-101024000D01*
X152026000Y-99722000D01*
X153028000Y-99722000D01*
X153028000Y-101024000D01*
X153028000Y-101024000D01*
G37*
G36*
X154552000Y-101024000D02*
G01*
X153550000Y-101024000D01*
X153550000Y-99722000D01*
X154552000Y-99722000D01*
X154552000Y-101024000D01*
X154552000Y-101024000D01*
G37*
G36*
X157316999Y-99702737D02*
G01*
X157326608Y-99705652D01*
X157335472Y-99710390D01*
X157343212Y-99716742D01*
X157343213Y-99716743D01*
X157343237Y-99716763D01*
X157349640Y-99724573D01*
X157349678Y-99724630D01*
X157353571Y-99729379D01*
X157427980Y-99840991D01*
X157443505Y-99859949D01*
X157462431Y-99875514D01*
X157484030Y-99887088D01*
X157507471Y-99894226D01*
X157531855Y-99896653D01*
X157556243Y-99894277D01*
X157579700Y-99887188D01*
X157601322Y-99875659D01*
X157620280Y-99860134D01*
X157635845Y-99841208D01*
X157647419Y-99819609D01*
X157654557Y-99796168D01*
X157656984Y-99771784D01*
X157656396Y-99759544D01*
X157655753Y-99752946D01*
X157655753Y-99752941D01*
X157656747Y-99742950D01*
X157659674Y-99733340D01*
X157659674Y-99733339D01*
X157664419Y-99724484D01*
X157670801Y-99716725D01*
X157678573Y-99710360D01*
X157678575Y-99710358D01*
X157687399Y-99705654D01*
X157687438Y-99705633D01*
X157697055Y-99702727D01*
X157697085Y-99702718D01*
X157713113Y-99701148D01*
X159000860Y-99701148D01*
X159016999Y-99702737D01*
X159026608Y-99705652D01*
X159035472Y-99710390D01*
X159043237Y-99716763D01*
X159049610Y-99724528D01*
X159054348Y-99733392D01*
X159057263Y-99743001D01*
X159058852Y-99759140D01*
X159058852Y-100646860D01*
X159057263Y-100662999D01*
X159054348Y-100672608D01*
X159049610Y-100681472D01*
X159043237Y-100689237D01*
X159035472Y-100695610D01*
X159026608Y-100700348D01*
X159016999Y-100703263D01*
X159000860Y-100704852D01*
X157713140Y-100704852D01*
X157697001Y-100703263D01*
X157687392Y-100700348D01*
X157678528Y-100695610D01*
X157670763Y-100689237D01*
X157664390Y-100681472D01*
X157659652Y-100672608D01*
X157656737Y-100662999D01*
X157655752Y-100652996D01*
X157656383Y-100646591D01*
X157656383Y-100622087D01*
X157651602Y-100598054D01*
X157642224Y-100575416D01*
X157628609Y-100555042D01*
X157611282Y-100537715D01*
X157590907Y-100524102D01*
X157568268Y-100514725D01*
X157544234Y-100509946D01*
X157519730Y-100509946D01*
X157495697Y-100514727D01*
X157473059Y-100524105D01*
X157452685Y-100537720D01*
X157435358Y-100555047D01*
X157427980Y-100565006D01*
X157353548Y-100676655D01*
X157349641Y-100681426D01*
X157349640Y-100681427D01*
X157343275Y-100689199D01*
X157335516Y-100695581D01*
X157326661Y-100700326D01*
X157323623Y-100701251D01*
X157317085Y-100703242D01*
X157317082Y-100703242D01*
X157317050Y-100703252D01*
X157307000Y-100704247D01*
X157306935Y-100704247D01*
X157300825Y-100704852D01*
X156213140Y-100704852D01*
X156197001Y-100703263D01*
X156187392Y-100700348D01*
X156178528Y-100695610D01*
X156170763Y-100689237D01*
X156164390Y-100681472D01*
X156159652Y-100672608D01*
X156156737Y-100662999D01*
X156155148Y-100646860D01*
X156155148Y-100184216D01*
X157657016Y-100184216D01*
X157657604Y-100196458D01*
X157658247Y-100203054D01*
X157658247Y-100203059D01*
X157657628Y-100209279D01*
X157657602Y-100233783D01*
X157662358Y-100257821D01*
X157671712Y-100280470D01*
X157685304Y-100300858D01*
X157702613Y-100318203D01*
X157722973Y-100331838D01*
X157745603Y-100341239D01*
X157769631Y-100346044D01*
X157794135Y-100346070D01*
X157818173Y-100341314D01*
X157840822Y-100331960D01*
X157861210Y-100318368D01*
X157878555Y-100301059D01*
X157886017Y-100290997D01*
X157898457Y-100272337D01*
X157909986Y-100250714D01*
X157917075Y-100227258D01*
X157919451Y-100202869D01*
X157917024Y-100178486D01*
X157909886Y-100155044D01*
X157898457Y-100133662D01*
X157886020Y-100115007D01*
X157870494Y-100096049D01*
X157851568Y-100080484D01*
X157829969Y-100068910D01*
X157806528Y-100061773D01*
X157782144Y-100059346D01*
X157757756Y-100061723D01*
X157734299Y-100068812D01*
X157712677Y-100080340D01*
X157693719Y-100095866D01*
X157678154Y-100114792D01*
X157666580Y-100136391D01*
X157659443Y-100159832D01*
X157657016Y-100184216D01*
X156155148Y-100184216D01*
X156155148Y-99759140D01*
X156156737Y-99743001D01*
X156159652Y-99733392D01*
X156164390Y-99724528D01*
X156170763Y-99716763D01*
X156178528Y-99710390D01*
X156187392Y-99705652D01*
X156197001Y-99702737D01*
X156213140Y-99701148D01*
X157300860Y-99701148D01*
X157316999Y-99702737D01*
X157316999Y-99702737D01*
G37*
G36*
X151588000Y-100629000D02*
G01*
X150286000Y-100629000D01*
X150286000Y-99777000D01*
X151588000Y-99777000D01*
X151588000Y-100629000D01*
X151588000Y-100629000D01*
G37*
G36*
X149688000Y-100629000D02*
G01*
X148386000Y-100629000D01*
X148386000Y-99777000D01*
X149688000Y-99777000D01*
X149688000Y-100629000D01*
X149688000Y-100629000D01*
G37*
G36*
X127432000Y-99313000D02*
G01*
X126060000Y-99313000D01*
X126060000Y-98241000D01*
X127432000Y-98241000D01*
X127432000Y-99313000D01*
X127432000Y-99313000D01*
G37*
G36*
X157654000Y-99238000D02*
G01*
X154782000Y-99238000D01*
X154782000Y-96596000D01*
X157654000Y-96596000D01*
X157654000Y-99238000D01*
X157654000Y-99238000D01*
G37*
G36*
X150886898Y-97320000D02*
G01*
X151881102Y-97320000D01*
X151886168Y-97319501D01*
X152789099Y-97319501D01*
X152789099Y-99022499D01*
X151886168Y-99022499D01*
X151881102Y-99022000D01*
X150886898Y-99022000D01*
X150881832Y-99022499D01*
X149978901Y-99022499D01*
X149978901Y-97319501D01*
X150881832Y-97319501D01*
X150886898Y-97320000D01*
X150886898Y-97320000D01*
G37*
G36*
X97781000Y-98871000D02*
G01*
X96179000Y-98871000D01*
X96179000Y-95369000D01*
X97781000Y-95369000D01*
X97781000Y-98871000D01*
X97781000Y-98871000D01*
G37*
G36*
X104481000Y-98871000D02*
G01*
X102879000Y-98871000D01*
X102879000Y-95369000D01*
X104481000Y-95369000D01*
X104481000Y-98871000D01*
X104481000Y-98871000D01*
G37*
G36*
X154304000Y-98603000D02*
G01*
X153232000Y-98603000D01*
X153232000Y-97231000D01*
X154304000Y-97231000D01*
X154304000Y-98603000D01*
X154304000Y-98603000D01*
G37*
G36*
X144475400Y-98437900D02*
G01*
X140766600Y-98437900D01*
X140766600Y-96532500D01*
X144475400Y-96532500D01*
X144475400Y-98437900D01*
X144475400Y-98437900D01*
G37*
M02*
